<?xml version="1.0" encoding="iso-8859-1"?>
<!-- Generator: Adobe Illustrator 19.0.0, SVG Export Plug-In . SVG Version: 6.00 Build 0)  -->
<svg version="1.1" id="Layer_1" xmlns="http://www.w3.org/2000/svg" xmlns:xlink="http://www.w3.org/1999/xlink" x="0px" y="0px"
	 viewBox="0 0 512 512" style="enable-background:new 0 0 512 512;" xml:space="preserve">
<g>
	<path style="fill:#323E5B;" d="M130.169,420.881c0-19.092-15.62-34.712-34.712-34.712s-34.712,15.62-34.712,34.712
		c0,19.092,15.62,34.712,34.712,34.712S130.169,439.973,130.169,420.881"/>
	<path style="fill:#323E5B;" d="M407.864,420.881c0,19.092,15.62,34.712,34.712,34.712c19.092,0,34.712-15.62,34.712-34.712
		c0-19.092-15.62-34.712-34.712-34.712C423.485,386.169,407.864,401.79,407.864,420.881"/>
</g>
<path style="fill:#F4BA48;" d="M78.102,264.678H26.034C11.281,264.678,0,253.397,0,238.644v-95.458l34.712-34.712h43.39V264.678z"/>
<g>
	<path style="fill:#ABB0B2;" d="M147.525,238.644h-34.712c-5.207,0-8.678-3.471-8.678-8.678c0-5.207,3.471-8.678,8.678-8.678h34.712
		c5.207,0,8.678,3.471,8.678,8.678C156.203,235.173,151.864,238.644,147.525,238.644"/>
	<path style="fill:#ABB0B2;" d="M425.22,238.644h-34.712c-5.207,0-8.678-3.471-8.678-8.678c0-5.207,3.471-8.678,8.678-8.678h34.712
		c5.207,0,8.678,3.471,8.678,8.678C433.898,235.173,430.427,238.644,425.22,238.644"/>
</g>
<path style="fill:#F4BA48;" d="M306.332,368.814h-74.63c-8.678,0-17.356-4.339-22.563-12.149L147.525,256v-52.068L189.18,85.044
	c6.075-17.356,22.563-28.637,40.786-28.637H307.2c18.224,0,34.712,11.281,40.786,28.637l42.522,118.888V256l-61.614,100.664
	C323.688,364.475,315.878,368.814,306.332,368.814"/>
<path style="fill:#B58024;" d="M147.525,256h242.983v-52.068H147.525V256z"/>
<g>
	<path style="fill:#ABB0B2;" d="M485.966,238.644h-26.034c-5.207,0-8.678-3.471-8.678-8.678c0-5.207,3.471-8.678,8.678-8.678h26.034
		c5.207,0,8.678,3.471,8.678,8.678C494.644,235.173,491.173,238.644,485.966,238.644"/>
	<path style="fill:#ABB0B2;" d="M485.966,316.746c-5.207,0-8.678-3.471-8.678-8.678V151.864c0-5.207,3.471-8.678,8.678-8.678
		c5.207,0,8.678,3.471,8.678,8.678v156.203C494.644,313.275,491.173,316.746,485.966,316.746"/>
	<path style="fill:#ABB0B2;" d="M503.322,169.22h-17.356c-5.207,0-8.678-3.471-8.678-8.678s3.471-8.678,8.678-8.678h17.356
		c5.207,0,8.678,3.471,8.678,8.678S508.529,169.22,503.322,169.22"/>
</g>
<g>
	<path style="fill:#CBD4D8;" d="M95.458,386.169c6.075,0,12.149,1.736,17.356,5.207V108.475H78.102v282.902
		C83.308,387.905,89.383,386.169,95.458,386.169"/>
	<path style="fill:#CBD4D8;" d="M442.576,386.169c6.075,0,12.149,1.736,17.356,5.207v-204.8H425.22v204.8
		C430.427,387.905,436.502,386.169,442.576,386.169"/>
</g>
<g>
	<path style="fill:#B58024;" d="M26.034,195.254c5.207,0,8.678-3.471,8.678-8.678c0-5.207-3.471-8.678-8.678-8.678H0v17.356H26.034z
		"/>
	<path style="fill:#B58024;" d="M26.034,229.966c5.207,0,8.678-3.471,8.678-8.678s-3.471-8.678-8.678-8.678H0v17.356H26.034z"/>
</g>
<g>
</g>
<g>
</g>
<g>
</g>
<g>
</g>
<g>
</g>
<g>
</g>
<g>
</g>
<g>
</g>
<g>
</g>
<g>
</g>
<g>
</g>
<g>
</g>
<g>
</g>
<g>
</g>
<g>
</g>
</svg>
