<?xml version="1.0" encoding="iso-8859-1"?>
<!-- Generator: Adobe Illustrator 18.0.0, SVG Export Plug-In . SVG Version: 6.00 Build 0)  -->
<!DOCTYPE svg PUBLIC "-//W3C//DTD SVG 1.1//EN" "http://www.w3.org/Graphics/SVG/1.1/DTD/svg11.dtd">
<svg version="1.1" id="Capa_1" xmlns="http://www.w3.org/2000/svg" xmlns:xlink="http://www.w3.org/1999/xlink" x="0px" y="0px"
	 viewBox="0 0 60 60" style="enable-background:new 0 0 60 60;" xml:space="preserve">
<path style="fill:#AFB6BB;" d="M24.568,54C14.866,54,7,46.134,7,36.432V23h24v5.483C31,29.321,31.679,30,32.517,30H38v24H24.568z"/>
<rect x="4" y="19" style="fill:#E0E1E2;" width="30" height="4"/>
<rect x="38" y="27" style="fill:#E0E1E2;" width="4" height="30"/>
<rect x="9" y="1" style="fill:#C7CAC7;" width="20" height="18"/>
<rect x="42" y="32" style="fill:#C7CAC7;" width="18" height="20"/>
<path style="fill:#7383BF;" d="M8.087,57.784L8.087,57.784c-1.622,1.622-4.251,1.622-5.872,0l0,0c-1.622-1.622-1.616-4.158,0-6.396
	l2.936-4.152l2.936,4.152C9.703,53.983,9.708,56.162,8.087,57.784z"/>
<line style="fill:none;stroke:#C7CAC7;stroke-width:2;stroke-linecap:round;stroke-miterlimit:10;" x1="5" y1="41" x2="3" y2="43"/>
<line style="fill:none;stroke:#C7CAC7;stroke-width:2;stroke-linecap:round;stroke-miterlimit:10;" x1="4" y1="38" x2="1" y2="38"/>
<path style="fill:#556080;" d="M16,28c-0.552,0-1,0.447-1,1v3h-3c-0.552,0-1,0.447-1,1v3H8c-0.552,0-1,0.447-1,1s0.448,1,1,1h4
	c0.552,0,1-0.447,1-1v-3h3c0.552,0,1-0.447,1-1v-4C17,28.447,16.552,28,16,28z"/>
<g>
</g>
<g>
</g>
<g>
</g>
<g>
</g>
<g>
</g>
<g>
</g>
<g>
</g>
<g>
</g>
<g>
</g>
<g>
</g>
<g>
</g>
<g>
</g>
<g>
</g>
<g>
</g>
<g>
</g>
</svg>
