<?xml version="1.0" encoding="iso-8859-1"?>
<!-- Generator: Adobe Illustrator 19.0.0, SVG Export Plug-In . SVG Version: 6.00 Build 0)  -->
<svg version="1.1" id="Layer_1" xmlns="http://www.w3.org/2000/svg" xmlns:xlink="http://www.w3.org/1999/xlink" x="0px" y="0px"
	 viewBox="0 0 511.554 511.554" style="enable-background:new 0 0 511.554 511.554;" xml:space="preserve">
<g>
	<path style="fill:#75B93F;" d="M349.347,225.041l-62.676-62.676l153.6-153.6c11.476-11.476,30.897-11.476,42.372,0l20.303,20.303
		c11.476,11.476,11.476,30.014,0,41.49L349.347,225.041z"/>
	<path style="fill:#75B93F;" d="M287.554,286.834l-62.676-62.676l24.717-24.717l62.676,62.676L287.554,286.834z"/>
</g>
<path style="fill:#517F2C;" d="M312.271,262.117c-0.883-9.71-0.883-23.834,6.179-30.897c7.062-7.062,21.186-7.062,30.897-6.179
	l-62.676-62.676c0.883,9.71,0.883,23.834-6.179,30.897c-7.062,7.062-21.186,7.062-30.897,6.179L312.271,262.117z"/>
<path style="fill:#C3C7CB;" d="M3.305,508.407L3.305,508.407c-3.531-3.531-4.414-9.71-1.766-14.124l14.124-23.835l19.421-17.655
	l24.717,23.835l-19.421,17.655l-23.834,14.124C12.133,512.82,6.836,511.938,3.305,508.407"/>
<path style="fill:#E0E0E0;" d="M59.802,476.627L35.085,451.91l209.214-209.214l24.717,24.717L59.802,476.627z"/>
<path style="fill:#517F2C;" d="M344.05,176.489c-2.648,0-4.414-0.883-6.179-2.648c-3.531-3.531-3.531-8.828,0-12.359L461.457,37.896
	c3.531-3.531,8.828-3.531,12.359,0c3.531,3.531,3.531,8.828,0,12.359L350.229,173.841
	C348.464,175.607,346.698,176.489,344.05,176.489"/>
<g>
</g>
<g>
</g>
<g>
</g>
<g>
</g>
<g>
</g>
<g>
</g>
<g>
</g>
<g>
</g>
<g>
</g>
<g>
</g>
<g>
</g>
<g>
</g>
<g>
</g>
<g>
</g>
<g>
</g>
</svg>
