<?xml version="1.0" encoding="utf-8"?>
<!-- Generator: Adobe Illustrator 19.0.0, SVG Export Plug-In . SVG Version: 6.00 Build 0)  -->
<svg version="1.1" id="OBJECTS" xmlns="http://www.w3.org/2000/svg" xmlns:xlink="http://www.w3.org/1999/xlink" x="0px" y="0px"
	 viewBox="0 0 639.7 567.9" style="enable-background:new 0 0 639.7 567.9;" xml:space="preserve">
<style type="text/css">
	._x005B_Por_x0020_defecto_x005D_{fill:#FFFFFF;stroke:#000000;stroke-miterlimit:10;}
	.Graphic_x0020_Style{fill:#FFFFFF;}
	.st0{opacity:0.66;fill:#333333;}
	.st1{opacity:0.66;}
	.st2{fill:none;}
	.st3{fill:#333333;}
</style>
<path class="st0" d="M148.4,137.4c-2.1-1.2-5.9-3.6-8.4-2.9c-0.8,0.2-1.6,0.6-2.1,1.2c0,0,0,0-0.1,0.1c0,0,0,0-0.1,0.1
	c-0.6,0.5-1,1.3-1.2,2.1c-0.7,2.6,1.7,6.4,2.9,8.4c1.3,2.3,3.2,4.5,6.1,3.9c1.5-0.3,3.2-1.2,4.4-2.4c1.2-1.2,2.1-2.9,2.4-4.4
	C152.9,140.6,150.7,138.7,148.4,137.4z M148.3,146.1C148.3,146.2,148.2,146.2,148.3,146.1c-0.1,0.1-0.1,0.1-0.2,0.2
	c-2.5,2.1-4.8,2-6.5-1.1c-1.2-2.3-3.4-5.3-2.1-7.7c2.4-1.3,5.4,0.9,7.7,2.1C150.3,141.3,150.4,143.6,148.3,146.1z"/>
<g class="st1">
	<g>
		<path class="st2" d="M84,20.3c0.1-0.1,0.2-0.2,0.3-0.3c1.3-1.3,2.4-1.5,3.6-1.4c3.1,1,6.6,5.4,8.7,7.9c-0.2,0-0.5-0.1-0.7-0.1
			c-4.8-0.9-9.7-2-14.5-2.9C82.3,22.3,83.1,21.3,84,20.3z"/>
		<path class="st2" d="M42.3,98.6c-0.9,0.8-2.8,3.2-4.5,3.7c-0.5,0-1-0.1-1.5-0.3c-1.3-0.8-2.5-1.8-3.7-2.8
			c-1.3-1.4-2.5-2.8-3.3-3.7c-0.1-0.1-0.2-0.2-0.3-0.3c4.3,0.8,9.1,2,13.9,2.8C42.8,98.2,42.6,98.4,42.3,98.6z"/>
		<path class="st2" d="M45.8,95c-5.4-1-11-1.6-16.1-2.6c-1.7-0.3-3.3-0.6-5-1c-1.9-1.7-3.7-3.7-4.2-5.5c-0.2-1.2,0-2.2,1.4-3.6
			c0.1-0.1,0.2-0.2,0.3-0.3c2.5-2,4.9-4.1,7.2-6.4c5.4,1.2,10.8,2.1,16.1,3.1c4.3,0.8,9,1.9,13.7,2.7C54.9,85.8,50.2,90.3,45.8,95z"
			/>
		<path class="st2" d="M66.8,73.9c-1,0.9-2,2-3,3c0,0,0,0,0,0c-0.5,0.5-1,1-1.5,1.5c-5.4-1-10.9-1.6-16-2.5c-4.7-0.9-9.5-2-14.2-2.9
			c3.6-3.6,7-7.3,10.4-10.8c1.1-1.1,2.1-2.1,3.2-3.2c5.5,1.3,11.1,2.1,16.5,3.2c4.3,0.8,9,1.9,13.7,2.7c-0.8,0.8-1.6,1.6-2.4,2.5
			C71.2,69.5,69.1,71.8,66.8,73.9z"/>
		<path class="st2" d="M83.2,57.6c-1.4,1.4-2.8,2.8-4.2,4.2c-0.1,0-0.1,0.1-0.2,0.1c-5.4-1-10.9-1.6-15.9-2.5c-4.8-0.9-9.7-2-14.6-3
			c1.7-1.7,3.4-3.4,5-5.1c3-2.9,6-5.9,8.9-8.8c5.5,1.2,11.1,2.1,16.5,3.2c4.3,0.8,9,1.9,13.7,2.7C89.2,51.4,86.2,54.6,83.2,57.6z"/>
		<path class="st2" d="M104,34.4c0.2,0.5,0.3,1,0.3,1.5c-0.4,1.7-2.8,3.5-3.7,4.5c-0.3,0.4-0.7,0.8-1,1.1c-1.4,1.3-2.9,2.6-4.3,3.9
			c-5.4-1-10.9-1.6-16-2.5c-4.8-0.9-9.7-2-14.6-3c4.6-4.5,9.6-9,14.2-13.9c5.4,1.2,10.9,2.1,16.2,3.1c1.8,0.3,3.6,0.7,5.5,1.1
			c0.2,0.2,0.3,0.3,0.5,0.5C102.2,31.9,103.2,33.1,104,34.4z"/>
		<path class="st2" d="M157.4,139.2c-3.5-0.9-6.9-4.3-9.5-6.2c-5.5-3.9-10.8-8-16-12.3c-8-6.8-20-15.6-22-26.6
			c-2.9,1.8-5.3,4-7.7,6.2c-2.2,2.4-4.4,4.8-6.2,7.7c11,2,19.8,14,26.6,22c4.3,5.1,8.5,10.5,12.3,16c1.9,2.7,5.3,6,6.2,9.5
			c0.2,0.6,0.4,1.3,0.5,1.9c2.5-1.4,4.9-2.9,7.2-4.7c1.1-0.8,2-1.8,3-2.7c0.9-1,1.9-1.9,2.7-3c1.8-2.3,3.3-4.7,4.7-7.2
			C158.6,139.6,158,139.4,157.4,139.2z M152.3,143.6c-0.3,1.5-1.2,3.2-2.4,4.4c-1.2,1.2-2.9,2.1-4.4,2.4c-2.9,0.6-4.9-1.6-6.1-3.9
			c-1.2-2.1-3.6-5.9-2.9-8.4c0.2-0.8,0.6-1.6,1.2-2.1c0,0,0,0,0.1-0.1c0,0,0,0,0.1-0.1c0.5-0.6,1.3-1,2.1-1.2
			c2.6-0.7,6.4,1.7,8.4,2.9C150.7,138.7,152.9,140.6,152.3,143.6z"/>
	</g>
	<path class="st3" d="M105.1,24.8c-2.4-2.3-5.8-3.3-7.8-1.2c-1.8-1.8-3.6-3.6-5.4-5.3c-1-1-2.6-2.6-4.1-2.5c-0.5,0-1,0.1-1.4,0.3
		c-0.3,0-0.6,0.1-1,0.2c-1.5,0.5-2.7,2.2-3.8,3.4c-0.6,0.7-1.4,1.3-2,2.1C73.6,27,68,33.1,62.4,38.7c-0.6,0.6-1.2,1.2-1.9,1.8
		c-0.7,0.5-1.4,1.1-2.1,1.7c-1.5,1.7-3,3.3-4.6,4.9c-2.4,2.4-4.7,4.7-7.1,7.1c-1.6,1.6-3.1,3.4-4.9,4.9l-1.3,1.4
		C35.1,66,29,71.6,23.8,77.7c-0.8,0.5-1.4,1.3-2.1,2c-1.2,1.1-2.8,2.2-3.4,3.8c-0.1,0.3-0.2,0.7-0.2,1c-0.1,0.4-0.2,0.9-0.3,1.4
		c-0.1,1.5,1.5,3.1,2.5,4.1c2,2.1,4.1,4.1,6.1,6.2c2.4,2.4,4.8,4.9,7.3,7.2c0.9,0.8,1.8,1.7,3,2c1.7,0.4,3.2-0.3,4-1.5
		c0.8-0.7,1.4-1.5,2-2c0.7-0.7,1.4-1.4,2-2.1c5.9-5.2,11.3-11.3,16.7-16.7c3.9-4,7.8-7.9,11.7-11.9c4-3.9,7.9-7.8,11.9-11.7
		c5.5-5.4,11.5-10.8,16.7-16.7c0.7-0.7,1.4-1.4,2.1-2c0.6-0.5,1.4-1.2,2-2c1.2-0.8,1.9-2.2,1.5-4c-0.3-1.2-1.1-2.2-2-3
		c-1.9-2-3.9-4-5.9-6c4-0.5,7.3,4.4,10,7c3.2,3.2,6.4,6.3,9.6,9.4c0,0.1,0,0.1,0.1,0.2c-0.4,0.9-0.6,2-0.9,2.8
		c-0.2,0.5-0.4,1.1-0.6,1.6c-3.4,7.2-6,14.9-8.9,22.2c-3.7,9.1-7.4,18.3-11.1,27.4c0,0,0,0.1,0,0.1c0,0,0,0,0,0
		c-0.2,0.5-0.2,1.1,0.3,1.5c0.2,0.2,1,1,1.8,1.7c-2.3,2.6-4.3,5.5-5.9,8.4c-0.3,0.5,0,1.2,0.6,1.3c2.7,0.5,5.4,1.5,7.8,2.8
		c6.8,4.9,12.5,11.7,17.7,17.8c3.9,4.6,7.7,9.3,11.5,13.9c3.1,3.8,6,7,8,11.3c0.4,1.1,0.6,2.3,0.7,3.4c0.1,0.8,0.7,1.1,1.4,0.8
		c3.2-1.4,6.9-3.4,10-5.9c0.8-0.6,1.5-1.3,2.3-2c0.7-0.7,1.4-1.5,2-2.3c2.5-3.1,4.5-6.8,5.9-10c0.3-0.7-0.1-1.4-0.8-1.4
		c-1.2-0.1-2.3-0.4-3.4-0.7c-4.2-1.9-7.5-4.9-11.3-8c-4.6-3.8-9.4-7.6-13.9-11.5c-6.1-5.3-12.9-11-17.8-17.7
		c-1.4-2.4-2.3-5.1-2.8-7.8c-0.1-0.6-0.8-0.8-1.3-0.6c-3.1,1.8-6.3,3.9-9,6.5c-0.4-0.4-0.8-0.9-1.2-1.2c0.1-0.5,0.3-1,0.4-1.5
		c3.5-8.4,6.9-16.8,10.3-25.2c3.7-9,8.1-18,10.8-27.4c0.3-0.4,0.3-0.9-0.2-1.4C116,35.9,110.7,30.2,105.1,24.8z M84,20.3
		c0.1-0.1,0.2-0.2,0.3-0.3c1.3-1.3,2.4-1.5,3.6-1.4c3.1,1,6.6,5.4,8.7,7.9c-0.2,0-0.5-0.1-0.7-0.1c-4.8-0.9-9.7-2-14.5-2.9
		C82.3,22.3,83.1,21.3,84,20.3z M42.3,98.6c-0.9,0.8-2.8,3.2-4.5,3.7c-0.5,0-1-0.1-1.5-0.3c-1.3-0.8-2.5-1.8-3.7-2.8
		c-1.3-1.4-2.5-2.8-3.3-3.7c-0.1-0.1-0.2-0.2-0.3-0.3c4.3,0.8,9.1,2,13.9,2.8C42.8,98.2,42.6,98.4,42.3,98.6z M45.8,95
		c-5.4-1-11-1.6-16.1-2.6c-1.7-0.3-3.3-0.6-5-1c-1.9-1.7-3.7-3.7-4.2-5.5c-0.2-1.2,0-2.2,1.4-3.6c0.1-0.1,0.2-0.2,0.3-0.3
		c2.5-2,4.9-4.1,7.2-6.4c5.4,1.2,10.8,2.1,16.1,3.1c4.3,0.8,9,1.9,13.7,2.7C54.9,85.8,50.2,90.3,45.8,95z M66.8,73.9c-1,0.9-2,2-3,3
		c0,0,0,0,0,0c-0.5,0.5-1,1-1.5,1.5c-5.4-1-10.9-1.6-16-2.5c-4.7-0.9-9.5-2-14.2-2.9c3.6-3.6,7-7.3,10.4-10.8
		c1.1-1.1,2.1-2.1,3.2-3.2c5.5,1.3,11.1,2.1,16.5,3.2c4.3,0.8,9,1.9,13.7,2.7c-0.8,0.8-1.6,1.6-2.4,2.5
		C71.2,69.5,69.1,71.8,66.8,73.9z M83.2,57.6c-1.4,1.4-2.8,2.8-4.2,4.2c-0.1,0-0.1,0.1-0.2,0.1c-5.4-1-10.9-1.6-15.9-2.5
		c-4.8-0.9-9.7-2-14.6-3c1.7-1.7,3.4-3.4,5-5.1c3-2.9,6-5.9,8.9-8.8c5.5,1.2,11.1,2.1,16.5,3.2c4.3,0.8,9,1.9,13.7,2.7
		C89.2,51.4,86.2,54.6,83.2,57.6z M104,34.4c0.2,0.5,0.3,1,0.3,1.5c-0.4,1.7-2.8,3.5-3.7,4.5c-0.3,0.4-0.7,0.8-1,1.1
		c-1.4,1.3-2.9,2.6-4.3,3.9c-5.4-1-10.9-1.6-16-2.5c-4.8-0.9-9.7-2-14.6-3c4.6-4.5,9.6-9,14.2-13.9c5.4,1.2,10.9,2.1,16.2,3.1
		c1.8,0.3,3.6,0.7,5.5,1.1c0.2,0.2,0.3,0.3,0.5,0.5C102.2,31.9,103.2,33.1,104,34.4z M109.9,94c2,11,14,19.8,22,26.6
		c5.1,4.3,10.5,8.5,16,12.3c2.7,1.9,6,5.3,9.5,6.2c0.6,0.2,1.3,0.4,1.9,0.5c-1.4,2.5-2.9,4.9-4.7,7.2c-0.8,1.1-1.8,2-2.7,3
		c-1,0.9-1.9,1.9-3,2.7c-2.3,1.8-4.7,3.3-7.2,4.7c-0.1-0.7-0.3-1.3-0.5-1.9c-0.9-3.5-4.3-6.9-6.2-9.5c-3.9-5.5-8-10.8-12.3-16
		c-6.8-8-15.6-20-26.6-22c1.8-2.9,4-5.3,6.2-7.7C104.6,98,107,95.8,109.9,94z"/>
</g>
<g class="st1">
	<g>
		<path class="st2" d="M196.4,79.8c-3.9-2.7-7.9-5.2-11.8-8c-1-0.8-2.6-1.7-3.7-2.8c-0.8-0.6-1.4-1.5-1.4-2.2
			c-0.1-1.5,1.9-1.6,2.7-0.7c0.1,0,0.1,0.1,0.2,0.1c0.6,0.3,1.1-0.4,1-1c-0.1-0.3-0.4-0.7-0.5-1.1c-0.2-0.3-0.3-0.5-0.5-0.8
			c-0.4-0.9-0.1-1.8,0.8-2.2c1-0.4,2,0,2.7,0.7c0.1,0.1,0.3,0.2,0.4,0.3c0.1,0,0.1,0.1,0.2,0.1c0.2,0.1,0.5,0.1,0.7,0.1
			c0,0,0.1,0,0.1-0.1c0.4-0.2,0.5-0.6,0.4-1c-0.2-0.2-0.4-0.4-0.6-0.6c-0.8-0.9-1.1-2.3-0.4-3.3c0.7-1.1,2.2-1,3.2-0.4
			c0.1,0.1,0.3,0.2,0.6,0.4c0.8,0.5,1.9-0.2,1.8-0.9c-0.7-0.6-1.2-1.3-1.6-2c-0.6-0.9-0.5-2.1,0.6-2.6c0.7-0.3,1.3-0.3,1.8,0
			c0.3,0.1,0.5,0.2,0.7,0.4c0.3,0.1,0.5,0.4,0.7,0.5c0,0,0,0,0,0c0.9,0.4,1.6-0.5,1.5-1.3c-0.7-0.6-1.2-1.4-1.1-2.3
			c0.1-1,1-1.4,1.9-1.4c0.6,0,1.2,0.4,1.6,0.9c0.3,0.2,0.7,0.2,1,0.1c0.2-0.1,0.3-0.3,0.5-0.5c0.1-0.2,0-0.4-0.1-0.6
			c-0.4-0.4-0.9-1-0.8-1.5c0.1-0.9,0.6-1.5,1.6-1.5c0.5,0.1,1,0.3,1.4,0.5c0.1,0,0.2,0,0.3,0c0.2,0,0.4-0.1,0.5-0.2
			c0.1-0.1,0.2-0.3,0.2-0.5c0-0.1,0-0.2,0-0.3c-0.2-0.5-0.4-1-0.5-1.4c0-1,0.6-1.5,1.5-1.6c0.5-0.1,1.1,0.4,1.5,0.8
			c0.2,0.1,0.4,0.2,0.6,0.1c0.2-0.1,0.4-0.3,0.5-0.5c0.1-0.3,0.1-0.6-0.1-1c-0.5-0.4-0.9-1-0.9-1.6c0-0.9,0.5-1.7,1.4-1.9
			c0.8-0.1,1.7,0.4,2.3,1.1c0.8,0.2,1.8-0.5,1.3-1.5c0,0,0,0,0,0c-0.2-0.2-0.4-0.5-0.5-0.7c-0.2-0.2-0.3-0.4-0.4-0.7
			c-0.2-0.5-0.3-1.1,0-1.8c0.5-1.1,1.6-1.2,2.6-0.6c0.6,0.4,1.3,1,2,1.6c0.8,0,1.5-1,0.9-1.8c-0.2-0.3-0.4-0.5-0.4-0.6
			c-0.5-1-0.6-2.5,0.4-3.2c1.1-0.7,2.4-0.4,3.3,0.4c0.2,0.2,0.4,0.4,0.6,0.6c0.4,0.2,0.8,0,1-0.4c0-0.1,0-0.1,0.1-0.1
			c0.1-0.2,0.1-0.5-0.1-0.7c0-0.1-0.1-0.1-0.1-0.2c-0.1-0.1-0.2-0.3-0.3-0.4c-0.7-0.7-1.1-1.7-0.7-2.7c0.4-1,1.2-1.2,2.2-0.8
			c0.3,0.1,0.6,0.3,0.8,0.5c0.4,0.2,0.8,0.4,1.1,0.5c0.6,0.1,1.2-0.3,1-1c0-0.1-0.1-0.1-0.1-0.2c-0.9-0.7-0.8-2.8,0.7-2.7
			c0.7,0.1,1.6,0.7,2.2,1.4c1.1,1.1,2,2.7,2.8,3.7c2.8,3.8,5.3,7.9,8,11.8c2.3,3.2,4.5,6.5,6.4,10c1.2,1.7,2.5,3.3,3.9,4.7
			c-1.5,1.1-2.8,2.3-4.2,3.7c-1.6-4.1-4.5-7.7-6.8-11.4c-2.6-4.1-5.3-8.2-8.6-11.6c-0.3-0.3-0.9,0.1-0.7,0.5
			c1.7,4.5,4.3,8.7,6.9,12.7c2.4,3.8,4.6,8.1,7.8,11.3c-1.3,1.3-2.5,2.6-3.7,4c-1.9-4-5.1-7.4-7.8-10.8c-2.9-3.8-5.9-7.7-9.6-10.9
			c-0.3-0.3-0.9,0.1-0.7,0.5c2.1,4.4,5.1,8.3,8,12.1c2.7,3.5,5.2,7.7,8.7,10.5c-0.9,0.9-1.7,1.8-2.6,2.7c-0.4,0.4-0.7,0.7-1.1,1.1
			c-2.4-3.8-6.1-6.8-9.1-10c-3.4-3.4-6.8-6.9-10.8-9.6c-0.4-0.2-0.8,0.2-0.6,0.6c2.6,4.1,6,7.6,9.4,11.1c3.1,3.1,6.1,6.9,9.8,9.3
			c-0.9,0.9-1.7,1.7-2.6,2.6c-0.9,0.9-1.7,1.7-2.6,2.6c-2.4-3.7-6.2-6.7-9.3-9.8c-3.4-3.4-7-6.8-11.1-9.4c-0.4-0.2-0.8,0.2-0.6,0.6
			c2.7,4,6.2,7.5,9.6,10.8c3.1,3.1,6.2,6.8,10,9.1c-0.4,0.4-0.7,0.7-1.1,1.1c-0.9,0.9-1.8,1.7-2.7,2.6c-2.9-3.4-7-6-10.5-8.7
			c-3.8-2.9-7.7-5.9-12.1-8c-0.4-0.2-0.8,0.3-0.5,0.7c3.1,3.7,7,6.7,10.9,9.6c3.4,2.6,6.9,5.9,10.8,7.8c-1.3,1.2-2.7,2.5-4,3.7
			c-3.2-3.2-7.5-5.4-11.3-7.8c-4.1-2.6-8.2-5.2-12.7-6.9c-0.4-0.2-0.8,0.4-0.5,0.7c3.4,3.4,7.6,6,11.6,8.6c3.6,2.3,7.3,5.2,11.4,6.8
			c-1.3,1.3-2.6,2.7-3.7,4.2c-1.4-1.4-3-2.7-4.7-3.9C202.9,84.3,199.6,82.1,196.4,79.8z"/>
		<path class="st2" d="M256.3,61.2c3,3.1,5.8,6.7,9.2,9.4c-5,3.7-9.2,9-13.6,13.4c-1.7,1.7-3.4,3.4-5.1,5.1
			c-1.7,1.7-3.4,3.4-5.1,5.1c-4.4,4.4-9.7,8.6-13.4,13.6c-2.7-3.4-6.3-6.2-9.4-9.2c-1.6-1.6-6.3-4.5-6.5-7c4.9-3.7,9.1-9,13.4-13.4
			c1.7-1.7,3.4-3.4,5.1-5.1c1.7-1.7,3.4-3.4,5.1-5.1c4.4-4.3,9.6-8.5,13.4-13.4C251.7,54.9,254.7,59.5,256.3,61.2z"/>
		<path class="st2" d="M267,72.3c-0.1-0.1-0.2-0.2-0.3-0.3c-3.7,5-9,9.2-13.4,13.5c-1.7,1.7-3.4,3.4-5.1,5.1
			c-1.7,1.7-3.4,3.4-5.1,5.1c-4.4,4.4-8.5,9.7-13.5,13.4c0.1,0.1,0.2,0.2,0.3,0.3c0.2,0.1,0.4,0.3,0.5,0.5c3.7,1.2,8-1.7,11.5-2.6
			c3.2-0.9,6.7-0.8,10-0.4c7.2,0.9,13.2,5,17.6,10.6c5.4,7,8.4,15.3,14.4,21.9c4.4,4.8,10.2,9.2,16.5,12.1c0.6,0.2,1.2,0.5,1.8,0.8
			c1.8,0.7,3.7,1.3,5.6,1.7c0.3,0,0.5,0.1,0.8,0.1c0.9,0.1,1.6-0.3,2.2-0.7c0.4-0.6,0.8-1.3,0.7-2.2c0-0.3-0.1-0.5-0.1-0.8
			c-0.4-1.9-1-3.8-1.7-5.6c-0.3-0.6-0.5-1.2-0.8-1.8c-2.8-6.3-7.2-12.1-12.1-16.5c-6.6-6-14.9-9-21.9-14.4
			c-5.6-4.4-9.7-10.4-10.6-17.6c-0.4-3.3-0.5-6.7,0.4-10c1-3.5,3.8-7.9,2.6-11.5C267.3,72.6,267.1,72.4,267,72.3z M302,138.8
			c1.2,2.9-1.4,6.3-4.6,5.8c-1.7-0.3-3-1.5-3.4-3.2c0-0.2-0.1-0.4-0.1-0.6c-0.2-1.1,0.1-2.4,0.9-3.2
			C297,135.3,300.8,135.7,302,138.8z"/>
	</g>
	<g>
		<path class="st3" d="M248.9,52.5c-1.8-4.6-5.5-8.8-8.3-12.7c-1.9-2.8-3.9-5.6-5.9-8.4c-1-1.6-2-3.1-3-4.6
			c-1.3-1.9-2.9-5.5-5.1-6.7c-2.2-1.2-5.2,0.1-5.1,2c0,0.1-0.1,0.2-0.1,0.3c-2.5-0.7-5.2,1.7-5,4.4c-2.3,0-4.2,1.9-4.1,4.2
			c-2.5-0.4-4.8,1.6-4.6,4.2c-2.4-0.3-4.3,1.5-4.2,3.8c-1.9,0.1-3.5,1.9-2.9,3.7c-1.8-0.5-3.7,1-3.7,2.9c-2.3-0.1-4.1,1.8-3.8,4.2
			c-2.6-0.1-4.6,2.2-4.2,4.6c-2.4,0-4.3,1.9-4.2,4.1c-2.7-0.2-5,2.5-4.4,5c-0.1,0-0.2,0-0.3,0.1c-1.9,0-3.1,3-2,5.1
			c1.2,2.2,4.8,3.8,6.7,5.1c1.5,1,3,2.1,4.6,3c2.8,2,5.6,4,8.4,5.9c4,2.7,8.2,6.5,12.7,8.3c-0.4,0.3-0.5,0.8-0.1,1.3
			c3.1,3.5,6.6,6.7,10,9.9c2.4,2.3,4.8,4.8,7.6,6.7c0,0.2,0.1,0.3,0.2,0.4c0.8,0.7,1.3,1.4,2.1,2c5.5,2.4,12.1-2.8,17.9-2.7
			c10.9,0.2,18.2,6.4,23.4,15.5c6.9,11.9,16.9,25.4,30.6,29.9c1.8,0.9,4,1.3,5.6,1.5c0.6,0.1,1.4,0.1,2.2,0c0,0,0.1,0,0.1,0
			c0.1,0,0.2,0,0.3-0.1c1-0.1,1.9-0.4,2.4-1.1c0.6-0.5,0.9-1.4,1.1-2.4c0-0.1,0.1-0.2,0.1-0.3c0,0,0-0.1,0-0.1c0.1-0.8,0-1.6,0-2.2
			c-0.2-1.6-0.7-3.8-1.5-5.6c-4.6-13.7-18-23.7-29.9-30.6c-9.2-5.3-15.3-12.5-15.5-23.4c-0.1-5.8,5.1-12.4,2.7-17.9
			c-0.6-0.8-1.4-1.3-2-2.1c-0.1-0.1-0.3-0.2-0.4-0.2c-1.9-2.8-4.4-5.1-6.7-7.6c-3.2-3.4-6.4-6.9-9.9-10
			C249.8,52,249.3,52,248.9,52.5z M196.4,79.8c-3.9-2.7-7.9-5.2-11.8-8c-1-0.8-2.6-1.7-3.7-2.8c-0.8-0.6-1.4-1.5-1.4-2.2
			c-0.1-1.5,1.9-1.6,2.7-0.7c0.1,0,0.1,0.1,0.2,0.1c0.6,0.3,1.1-0.4,1-1c-0.1-0.3-0.4-0.7-0.5-1.1c-0.2-0.3-0.3-0.5-0.5-0.8
			c-0.4-0.9-0.1-1.8,0.8-2.2c1-0.4,2,0,2.7,0.7c0.1,0.1,0.3,0.2,0.4,0.3c0.1,0,0.1,0.1,0.2,0.1c0.2,0.1,0.5,0.1,0.7,0.1
			c0,0,0.1,0,0.1-0.1c0.4-0.2,0.5-0.6,0.4-1c-0.2-0.2-0.4-0.4-0.6-0.6c-0.8-0.9-1.1-2.3-0.4-3.3c0.7-1.1,2.2-1,3.2-0.4
			c0.1,0.1,0.3,0.2,0.6,0.4c0.8,0.5,1.9-0.2,1.8-0.9c-0.7-0.6-1.2-1.3-1.6-2c-0.6-0.9-0.5-2.1,0.6-2.6c0.7-0.3,1.3-0.3,1.8,0
			c0.3,0.1,0.5,0.2,0.7,0.4c0.3,0.1,0.5,0.4,0.7,0.5c0,0,0,0,0,0c0.9,0.4,1.6-0.5,1.5-1.3c-0.7-0.6-1.2-1.4-1.1-2.3
			c0.1-1,1-1.4,1.9-1.4c0.6,0,1.2,0.4,1.6,0.9c0.3,0.2,0.7,0.2,1,0.1c0.2-0.1,0.3-0.3,0.5-0.5c0.1-0.2,0-0.4-0.1-0.6
			c-0.4-0.4-0.9-1-0.8-1.5c0.1-0.9,0.6-1.5,1.6-1.5c0.5,0.1,1,0.3,1.4,0.5c0.1,0,0.2,0,0.3,0c0.2,0,0.4-0.1,0.5-0.2
			c0.1-0.1,0.2-0.3,0.2-0.5c0-0.1,0-0.2,0-0.3c-0.2-0.5-0.4-1-0.5-1.4c0-1,0.6-1.5,1.5-1.6c0.5-0.1,1.1,0.4,1.5,0.8
			c0.2,0.1,0.4,0.2,0.6,0.1c0.2-0.1,0.4-0.3,0.5-0.5c0.1-0.3,0.1-0.6-0.1-1c-0.5-0.4-0.9-1-0.9-1.6c0-0.9,0.5-1.7,1.4-1.9
			c0.8-0.1,1.7,0.4,2.3,1.1c0.8,0.2,1.8-0.5,1.3-1.5c0,0,0,0,0,0c-0.2-0.2-0.4-0.5-0.5-0.7c-0.2-0.2-0.3-0.4-0.4-0.7
			c-0.2-0.5-0.3-1.1,0-1.8c0.5-1.1,1.6-1.2,2.6-0.6c0.6,0.4,1.3,1,2,1.6c0.8,0,1.5-1,0.9-1.8c-0.2-0.3-0.4-0.5-0.4-0.6
			c-0.5-1-0.6-2.5,0.4-3.2c1.1-0.7,2.4-0.4,3.3,0.4c0.2,0.2,0.4,0.4,0.6,0.6c0.4,0.2,0.8,0,1-0.4c0-0.1,0-0.1,0.1-0.1
			c0.1-0.2,0.1-0.5-0.1-0.7c0-0.1-0.1-0.1-0.1-0.2c-0.1-0.1-0.2-0.3-0.3-0.4c-0.7-0.7-1.1-1.7-0.7-2.7c0.4-1,1.2-1.2,2.2-0.8
			c0.3,0.1,0.6,0.3,0.8,0.5c0.4,0.2,0.8,0.4,1.1,0.5c0.6,0.1,1.2-0.3,1-1c0-0.1-0.1-0.1-0.1-0.2c-0.9-0.7-0.8-2.8,0.7-2.7
			c0.7,0.1,1.6,0.7,2.2,1.4c1.1,1.1,2,2.7,2.8,3.7c2.8,3.8,5.3,7.9,8,11.8c2.3,3.2,4.5,6.5,6.4,10c1.2,1.7,2.5,3.3,3.9,4.7
			c-1.5,1.1-2.8,2.3-4.2,3.7c-1.6-4.1-4.5-7.7-6.8-11.4c-2.6-4.1-5.3-8.2-8.6-11.6c-0.3-0.3-0.9,0.1-0.7,0.5
			c1.7,4.5,4.3,8.7,6.9,12.7c2.4,3.8,4.6,8.1,7.8,11.3c-1.3,1.3-2.5,2.6-3.7,4c-1.9-4-5.1-7.4-7.8-10.8c-2.9-3.8-5.9-7.7-9.6-10.9
			c-0.3-0.3-0.9,0.1-0.7,0.5c2.1,4.4,5.1,8.3,8,12.1c2.7,3.5,5.2,7.7,8.7,10.5c-0.9,0.9-1.7,1.8-2.6,2.7c-0.4,0.4-0.7,0.7-1.1,1.1
			c-2.4-3.8-6.1-6.8-9.1-10c-3.4-3.4-6.8-6.9-10.8-9.6c-0.4-0.2-0.8,0.2-0.6,0.6c2.6,4.1,6,7.6,9.4,11.1c3.1,3.1,6.1,6.9,9.8,9.3
			c-0.9,0.9-1.7,1.7-2.6,2.6c-0.9,0.9-1.7,1.7-2.6,2.6c-2.4-3.7-6.2-6.7-9.3-9.8c-3.4-3.4-7-6.8-11.1-9.4c-0.4-0.2-0.8,0.2-0.6,0.6
			c2.7,4,6.2,7.5,9.6,10.8c3.1,3.1,6.2,6.8,10,9.1c-0.4,0.4-0.7,0.7-1.1,1.1c-0.9,0.9-1.8,1.7-2.7,2.6c-2.9-3.4-7-6-10.5-8.7
			c-3.8-2.9-7.7-5.9-12.1-8c-0.4-0.2-0.8,0.3-0.5,0.7c3.1,3.7,7,6.7,10.9,9.6c3.4,2.6,6.9,5.9,10.8,7.8c-1.3,1.2-2.7,2.5-4,3.7
			c-3.2-3.2-7.5-5.4-11.3-7.8c-4.1-2.6-8.2-5.2-12.7-6.9c-0.4-0.2-0.8,0.4-0.5,0.7c3.4,3.4,7.6,6,11.6,8.6c3.6,2.3,7.3,5.2,11.4,6.8
			c-1.3,1.3-2.6,2.7-3.7,4.2c-1.4-1.4-3-2.7-4.7-3.9C202.9,84.3,199.6,82.1,196.4,79.8z M267.5,72.8c1.2,3.7-1.7,8-2.6,11.5
			c-0.9,3.2-0.8,6.7-0.4,10c0.9,7.2,5,13.2,10.6,17.6c7,5.4,15.3,8.4,21.9,14.4c4.8,4.4,9.2,10.2,12.1,16.5c0.2,0.6,0.5,1.2,0.8,1.8
			c0.7,1.8,1.3,3.7,1.7,5.6c0,0.3,0.1,0.5,0.1,0.8c0.1,0.9-0.3,1.6-0.7,2.2c-0.6,0.4-1.3,0.8-2.2,0.7c-0.3,0-0.5-0.1-0.8-0.1
			c-1.9-0.4-3.8-1-5.6-1.7c-0.6-0.3-1.2-0.5-1.8-0.8c-6.3-2.8-12.1-7.2-16.5-12.1c-6-6.6-9-14.9-14.4-21.9
			c-4.4-5.6-10.4-9.7-17.6-10.6c-3.3-0.4-6.7-0.5-10,0.4c-3.5,1-7.9,3.8-11.5,2.6c-0.2-0.2-0.4-0.4-0.5-0.5
			c-0.1-0.1-0.2-0.2-0.3-0.3c5-3.7,9.2-9,13.5-13.4c1.7-1.7,3.4-3.4,5.1-5.1c1.7-1.7,3.4-3.4,5.1-5.1c4.4-4.4,9.7-8.5,13.4-13.5
			c0.1,0.1,0.2,0.2,0.3,0.3C267.1,72.4,267.3,72.6,267.5,72.8z M256.3,61.2c3,3.1,5.8,6.7,9.2,9.4c-5,3.7-9.2,9-13.6,13.4
			c-1.7,1.7-3.4,3.4-5.1,5.1c-1.7,1.7-3.4,3.4-5.1,5.1c-4.4,4.4-9.7,8.6-13.4,13.6c-2.7-3.4-6.3-6.2-9.4-9.2c-1.6-1.6-6.3-4.5-6.5-7
			c4.9-3.7,9.1-9,13.4-13.4c1.7-1.7,3.4-3.4,5.1-5.1c1.7-1.7,3.4-3.4,5.1-5.1c4.4-4.3,9.6-8.5,13.4-13.4
			C251.7,54.9,254.7,59.5,256.3,61.2z"/>
		<path class="st3" d="M249.4,60.7c-5.6,4.8-10.6,10.3-16,15.4c-2.7,2.5-5.4,5-8.1,7.5c-2.7,2.5-5.9,4.8-7.8,8
			c-0.3,0.5,0.3,1,0.8,0.8c6.4-2.7,12-9.8,16.8-14.7c5.2-5.2,10.6-10.6,14.8-16.6C250.3,60.8,249.7,60.4,249.4,60.7z"/>
		<path class="st3" d="M258,72.6c-5.5,3.8-10.1,9.2-14.8,13.9c-4.8,4.8-12,10.1-14.9,16.3c-0.2,0.4,0.2,0.8,0.6,0.6
			c5.8-2.8,10.4-9.3,14.8-13.8c5.1-5.2,10.9-10.3,15-16.3C259,72.9,258.4,72.3,258,72.6z"/>
		<path class="st3" d="M294.8,137.5c-0.8,0.8-1.1,2.1-0.9,3.2c0,0.2,0,0.4,0.1,0.6c0.4,1.7,1.7,2.9,3.4,3.2c3.2,0.6,5.8-2.8,4.6-5.8
			C300.8,135.7,297,135.3,294.8,137.5z M298.3,142.7c-1,0.3-2-0.5-2.5-1.3c-0.1-0.2-0.2-0.4-0.2-0.6c0-0.4,0.1-0.8,0.3-1.2
			c0.8-1.6,2.8-1.8,3.9-0.5C301.1,140.4,299.9,142.3,298.3,142.7z"/>
	</g>
</g>
<g class="st1">
	<g>
		<path class="st2" d="M331.6,32.9c2.3,2.7,6.9,4.5,9.4,5.6c0.9,0.4,1.8,0.8,2.7,1.2c1.2,0.8,2.2,1.5,2.9,3c1.4,3-1.6,5.6-4.3,5.6
			c-0.7,0-1.1,0.8-0.9,1.4c1.1,3.2-1.9,5.3-4.7,3.6c-0.1-0.1-0.3-0.2-0.4-0.3C333.2,47,331.4,39.8,331.6,32.9z"/>
		<path class="st2" d="M348.4,65.6c-4.6-1.4-7.9-5.6-10.3-9.5c0.6,0.2,1.2,0.3,1.6,0.2c3-0.1,4.4-3.3,4.1-5.9
			c2.9-0.5,5.5-2.9,5.4-5.9c0-0.8-0.2-1.7-0.6-2.6c7.1,3.3,14,7.9,13.4,16.6C361.5,65.3,353.9,67.3,348.4,65.6z"/>
		<path class="st2" d="M365,77.2c-2-3.2-3.8-6.7-6.1-9.7c2.1-1.2,3.7-3,4.8-5c3,2.4,6.6,4.2,9.8,6.2c4.3,2.7,8.4,5.6,12.3,8.7
			c-1.7,2.8-2.9,5.6-5.3,8.1c-1.8,1.8-4.8,2.8-6.3,4.8C371,86.1,367.9,81.7,365,77.2z"/>
		<path class="st2" d="M409.6,98.8c6.9,7.3,13.2,15.2,18.8,23.5c5.1,7.4,8.8,15.5,13.3,23.2c-7.7-4.6-15.8-8.3-23.2-13.3
			c-8.3-5.7-16.2-11.9-23.5-18.8c-7-6.6-13.4-13.7-19.4-21.2c2.6-0.2,5.2-2.8,7-4.5c2.3-2.2,4.5-5.2,5.4-8.4
			C395.7,85.2,402.9,91.8,409.6,98.8z"/>
	</g>
	<path class="st3" d="M390,77.2c-7.6-5.8-16.6-12.9-25.8-16c1.3-3.5,1.1-7.6-1.1-11.3c-2.8-4.7-7-7.6-11.8-10
		c-3.1-1.5-8.9-3.1-13.3-5.4c0-0.1-0.1-0.2-0.2-0.2c-0.2-0.1-0.3-0.1-0.5-0.2c-2.5-1.4-4.5-3.2-5.1-5.4c0-0.4-0.1-0.7,0-1.1
		c0.1-1-1.5-1.6-1.8-0.5c-3.1,9.6,0.6,19.9,4.7,28.6c3.6,7.7,12.2,16.3,21.6,12.9c0.3-0.1,0.6-0.3,1-0.4c3.1,9.1,10.2,18,15.9,25.6
		c6.2,8.2,13.2,15.8,20.8,22.8c7.6,7,15.7,13.4,24.3,19c7.9,5.1,16.4,10.7,25.5,13.4c0.1,0.1,0.3,0.1,0.4,0.1c0.2,0,0.4-0.1,0.5-0.2
		c0,0,0,0,0.1-0.1c0,0,0,0,0.1-0.1c0.1-0.1,0.2-0.3,0.2-0.5c0-0.1,0-0.3-0.1-0.4c-2.7-9.1-8.3-17.6-13.4-25.5
		c-5.6-8.6-12-16.7-19-24.3C405.8,90.4,398.2,83.4,390,77.2z M331.6,32.9c2.3,2.7,6.9,4.5,9.4,5.6c0.9,0.4,1.8,0.8,2.7,1.2
		c1.2,0.8,2.2,1.5,2.9,3c1.4,3-1.6,5.6-4.3,5.6c-0.7,0-1.1,0.8-0.9,1.4c1.1,3.2-1.9,5.3-4.7,3.6c-0.1-0.1-0.3-0.2-0.4-0.3
		C333.2,47,331.4,39.8,331.6,32.9z M348.4,65.6c-4.6-1.4-7.9-5.6-10.3-9.5c0.6,0.2,1.2,0.3,1.6,0.2c3-0.1,4.4-3.3,4.1-5.9
		c2.9-0.5,5.5-2.9,5.4-5.9c0-0.8-0.2-1.7-0.6-2.6c7.1,3.3,14,7.9,13.4,16.6C361.5,65.3,353.9,67.3,348.4,65.6z M365,77.2
		c-2-3.2-3.8-6.7-6.1-9.7c2.1-1.2,3.7-3,4.8-5c3,2.4,6.6,4.2,9.8,6.2c4.3,2.7,8.4,5.6,12.3,8.7c-1.7,2.8-2.9,5.6-5.3,8.1
		c-1.8,1.8-4.8,2.8-6.3,4.8C371,86.1,367.9,81.7,365,77.2z M409.6,98.8c6.9,7.3,13.2,15.2,18.8,23.5c5.1,7.4,8.8,15.5,13.3,23.2
		c-7.7-4.6-15.8-8.3-23.2-13.3c-8.3-5.7-16.2-11.9-23.5-18.8c-7-6.6-13.4-13.7-19.4-21.2c2.6-0.2,5.2-2.8,7-4.5
		c2.3-2.2,4.5-5.2,5.4-8.4C395.7,85.2,402.9,91.8,409.6,98.8z"/>
</g>
<g class="st1">
	<path class="st2" d="M517.1,41.4c-0.1-0.5-0.1-1-0.2-1.5c0-0.5,0-1.1,0.1-1.6c1.7-3.7,9.4-6.7,13.1-7.8c5.2-1.6,10.4-2.8,15.8-3.5
		c5.6-0.7,11.3-0.9,16.9-1c5.7,0.1,11.3,0.2,16.9,1c5.4,0.7,10.7,1.9,15.8,3.5c3.8,1.2,11.4,4.1,13.1,7.8c0.1,0.6,0.1,1.1,0.1,1.6
		c-0.1,0.5-0.1,1-0.2,1.5c-0.2,0.3-0.4,0.6-0.6,0.9c-0.3-6.6-14.5-9.6-19.6-10.9c-6.1-1.6-12.4-2.4-18.7-2.8c-0.1,0-0.2,0-0.3,0
		c-2.1-0.4-4.3-0.4-6.5-0.4c-2.2-0.1-4.4,0-6.5,0.4c-0.1,0-0.2,0-0.3,0c-6.3,0.5-12.6,1.3-18.7,2.8c-5.2,1.3-19.3,4.3-19.6,10.9
		C517.5,42,517.3,41.7,517.1,41.4z"/>
	<path class="st2" d="M525.1,49.4c6.6,2.4,13.4,4.4,20.4,5.5c0.9,0.1,1.8,0.3,2.7,0.4c4.8,0.9,9.7,1.2,14.6,1.2c0,0,0.1,0,0.1,0
		c0,0,0.1,0,0.1,0c4.9,0.1,9.8-0.3,14.6-1.2c0.9-0.1,1.8-0.3,2.7-0.4c7-1.1,13.8-3.1,20.4-5.5c1.9-0.7,4.3-1.5,6.4-2.7
		c-4.1,6.9-14.5,9.5-23.6,11.2c-2,0.4-4,0.7-6,0.9c-4.9,0.3-9.7,0.9-14.6,0.9c-4.9,0-9.8-0.6-14.6-0.9c-2-0.2-4-0.6-6-0.9
		c-9.1-1.7-19.5-4.4-23.6-11.2C520.8,47.9,523.3,48.7,525.1,49.4z"/>
	<path class="st2" d="M520.4,44.4c1.4-8.7,18.6-11.2,26.8-12.5c3.4-0.5,6.9-0.9,10.3-1.1c1.8,0,3.6-0.1,5.4-0.1
		c1.8,0,3.6,0.1,5.4,0.1c3.5,0.2,6.9,0.6,10.3,1.1c8.2,1.3,25.5,3.7,26.8,12.5c0,0,0,0,0,0c-9,5.5-22,7.6-32.5,8.8
		c-3.3,0.4-6.6,0.5-10,0.6c-3.3,0-6.6-0.2-10-0.6C542.4,52.1,529.4,49.9,520.4,44.4C520.4,44.4,520.4,44.4,520.4,44.4z"/>
	<path class="st2" d="M583.5,148c-2,0.4-4,0.7-6,0.9c-4.9,0.3-9.7,0.9-14.6,0.9c-4.9,0-9.8-0.6-14.6-0.9c-2-0.2-4-0.6-6-0.9
		c-9.1-1.7-19.5-4.4-23.6-11.2c2.1,1.2,4.6,2,6.4,2.7c6.6,2.4,13.4,4.4,20.4,5.5c0.9,0.1,1.8,0.3,2.7,0.4c4.8,0.9,9.7,1.2,14.6,1.2
		c0,0,0.1,0,0.1,0c0,0,0.1,0,0.1,0c4.9,0.1,9.8-0.3,14.6-1.2c0.9-0.1,1.8-0.3,2.7-0.4c7-1.1,13.8-3.1,20.4-5.5
		c1.9-0.7,4.3-1.5,6.4-2.7C603,143.7,592.6,146.3,583.5,148z"/>
	<path class="st2" d="M605.3,134.5c-9,5.5-22,7.6-32.5,8.8c-3.3,0.4-6.6,0.5-10,0.6c-3.3,0-6.6-0.2-10-0.6
		c-10.5-1.2-23.5-3.3-32.5-8.8c-2-1.9-2.8-4-3.1-6.6c0.1-1.4,0.2-2.8,0.3-4.2c0.3-4.4,0.4-8.7,0.5-13.1c0.2-8.1,0.4-16.2,0.4-24.3
		c0-11.6,0.3-23.5-0.5-35.1c0.3,0.3,0.7,0.5,1,0.8c3.7,3.3,8.4,5.3,13.4,6.6c9.2,2.4,20,4.1,30.3,4c10.4,0.1,21.1-1.6,30.3-4
		c5-1.3,9.7-3.3,13.4-6.6c0.3-0.2,0.7-0.5,1-0.8c-0.8,11.7-0.5,23.5-0.5,35.1c0,5.2,0.1,10.4,0.2,15.6c-4.5-1.5-9.2-4-12.8-5.8
		c-5.8-2.9-11.3-6.4-16.7-10c-1.4-1-2.9-2-4.3-3.1c0.8-1.4,1.3-2.9,1.4-4.6c0.9-10.9-11.6-17.4-20.1-10.7
		c-5.6,4.4-5.4,14.7-0.4,18.5c4.7,4.8,12.4,3.9,16.9-0.4c0.2,0.2,0.5,0.3,0.7,0.5c4,2.8,8.1,5.5,12.2,8.1c7.3,4.5,15,8.1,23.1,10.7
		c0,1.8,0.1,3.6,0.1,5.5c0.1,4.4,0.2,8.7,0.5,13.1c0.1,1.4,0.2,2.8,0.3,4.2C608.2,130.5,607.3,132.6,605.3,134.5z"/>
	<path class="st2" d="M568.5,79.4c1.7-3.8-1.7-7.7-5.5-8c-2.1-0.1-4,1.1-5.2,2.7c-0.5,0.7-0.9,1.8-0.9,2.9c-0.1,1,0,2,0.5,2.9
		c1.7,3.4,5.9,4,8.8,2.2c0.8,0.6,1.7,1.2,2.5,1.8c-3.7,3.1-9.9,2.6-13-1.8c-1.9-2.7-1.8-6.4-0.3-9.3c1.5-3,4.8-3.9,7.8-4.6
		c5,0.5,9.3,5.4,8.3,10.8c-0.1,0.7-0.3,1.3-0.6,1.9C570,80.4,569.3,79.9,568.5,79.4z"/>
	<path class="st2" d="M562.7,76.2c-1.1-0.5-1.7,1.1-1.1,1.8c0.6,0.7,1.2,1.4,1.9,2c-2,0.4-4.5-1.2-3.7-3.4c0.2-0.5,0.5-0.9,0.9-1.2
		c0.4-0.3,1-0.6,1.5-0.8c2-0.5,3.5,1.2,3.4,3C564.7,77.1,563.7,76.6,562.7,76.2z"/>
</g>
<path class="st0" d="M610.6,82.7c0.1-12,0.8-24.1,0.5-36.2c0.1-0.1,0.1-0.3,0.2-0.4c0.5-1.6,1.1-4.6,0.6-7
	c-0.6-8.2-15.6-11.5-22.4-13.1c-7.9-1.9-16.8-3-25.6-3c-0.3,0-0.6,0-1,0c-0.3,0-0.6,0-1,0c-8.8,0-17.7,1.2-25.6,3
	c-6.8,1.6-21.8,4.9-22.4,13.1c-0.5,2.3,0,5.4,0.6,7c0.1,0.1,0.1,0.3,0.2,0.4c-0.3,13.9,0.6,27.9,0.5,41.7
	c-0.1,8.1-0.2,16.2-0.4,24.3c-0.1,3.7-0.7,8-0.8,12.2c-1.1,5.2-0.3,12.7,4.1,16.3c3.8,3.9,9,6.3,14.5,7.7c9.2,2.4,20,4.1,30.3,4
	c10.4,0.1,21.1-1.6,30.3-4c5.5-1.4,10.7-3.7,14.5-7.7c4.4-3.6,5.1-11.1,4.1-16.3c-0.1-4.2-0.7-8.5-0.8-12.2
	c-0.1-2.1-0.1-4.2-0.1-6.3c5.7,1.3,10.6-0.8,11-7.3C622.2,91.9,616.3,85.8,610.6,82.7z M517.1,41.4c-0.1-0.5-0.1-1-0.2-1.5
	c0-0.5,0-1.1,0.1-1.6c1.7-3.7,9.4-6.7,13.1-7.8c5.2-1.6,10.4-2.8,15.8-3.5c5.6-0.7,11.3-0.9,16.9-1c5.7,0.1,11.3,0.2,16.9,1
	c5.4,0.7,10.7,1.9,15.8,3.5c3.8,1.2,11.4,4.1,13.1,7.8c0.1,0.6,0.1,1.1,0.1,1.6c-0.1,0.5-0.1,1-0.2,1.5c-0.2,0.3-0.4,0.6-0.6,0.9
	c-0.3-6.6-14.5-9.6-19.6-10.9c-6.1-1.6-12.4-2.4-18.7-2.8c-0.1,0-0.2,0-0.3,0c-2.1-0.4-4.3-0.4-6.5-0.4c-2.2-0.1-4.4,0-6.5,0.4
	c-0.1,0-0.2,0-0.3,0c-6.3,0.5-12.6,1.3-18.7,2.8c-5.2,1.3-19.3,4.3-19.6,10.9C517.5,42,517.3,41.7,517.1,41.4z M525.1,49.4
	c6.6,2.4,13.4,4.4,20.4,5.5c0.9,0.1,1.8,0.3,2.7,0.4c4.8,0.9,9.7,1.2,14.6,1.2c0,0,0.1,0,0.1,0c0,0,0.1,0,0.1,0
	c4.9,0.1,9.8-0.3,14.6-1.2c0.9-0.1,1.8-0.3,2.7-0.4c7-1.1,13.8-3.1,20.4-5.5c1.9-0.7,4.3-1.5,6.4-2.7c-4.1,6.9-14.5,9.5-23.6,11.2
	c-2,0.4-4,0.7-6,0.9c-4.9,0.3-9.7,0.9-14.6,0.9c-4.9,0-9.8-0.6-14.6-0.9c-2-0.2-4-0.6-6-0.9c-9.1-1.7-19.5-4.4-23.6-11.2
	C520.8,47.9,523.3,48.7,525.1,49.4z M520.4,44.4c1.4-8.7,18.6-11.2,26.8-12.5c3.4-0.5,6.9-0.9,10.3-1.1c1.8,0,3.6-0.1,5.4-0.1
	c1.8,0,3.6,0.1,5.4,0.1c3.5,0.2,6.9,0.6,10.3,1.1c8.2,1.3,25.5,3.7,26.8,12.5c0,0,0,0,0,0c-9,5.5-22,7.6-32.5,8.8
	c-3.3,0.4-6.6,0.5-10,0.6c-3.3,0-6.6-0.2-10-0.6C542.4,52.1,529.4,49.9,520.4,44.4C520.4,44.4,520.4,44.4,520.4,44.4z M583.5,148
	c-2,0.4-4,0.7-6,0.9c-4.9,0.3-9.7,0.9-14.6,0.9c-4.9,0-9.8-0.6-14.6-0.9c-2-0.2-4-0.6-6-0.9c-9.1-1.7-19.5-4.4-23.6-11.2
	c2.1,1.2,4.6,2,6.4,2.7c6.6,2.4,13.4,4.4,20.4,5.5c0.9,0.1,1.8,0.3,2.7,0.4c4.8,0.9,9.7,1.2,14.6,1.2c0,0,0.1,0,0.1,0
	c0,0,0.1,0,0.1,0c4.9,0.1,9.8-0.3,14.6-1.2c0.9-0.1,1.8-0.3,2.7-0.4c7-1.1,13.8-3.1,20.4-5.5c1.9-0.7,4.3-1.5,6.4-2.7
	C603,143.7,592.6,146.3,583.5,148z M605.3,134.5c-9,5.5-22,7.6-32.5,8.8c-3.3,0.4-6.6,0.5-10,0.6c-3.3,0-6.6-0.2-10-0.6
	c-10.5-1.2-23.5-3.3-32.5-8.8c-2-1.9-2.8-4-3.1-6.6c0.1-1.4,0.2-2.8,0.3-4.2c0.3-4.4,0.4-8.7,0.5-13.1c0.2-8.1,0.4-16.2,0.4-24.3
	c0-11.6,0.3-23.5-0.5-35.1c0.3,0.3,0.7,0.5,1,0.8c3.7,3.3,8.4,5.3,13.4,6.6c9.2,2.4,20,4.1,30.3,4c10.4,0.1,21.1-1.6,30.3-4
	c5-1.3,9.7-3.3,13.4-6.6c0.3-0.2,0.7-0.5,1-0.8c-0.8,11.7-0.5,23.5-0.5,35.1c0,5.2,0.1,10.4,0.2,15.6c-4.5-1.5-9.2-4-12.8-5.8
	c-5.8-2.9-11.3-6.4-16.7-10c-1.4-1-2.9-2-4.3-3.1c0.8-1.4,1.3-2.9,1.4-4.6c0.9-10.9-11.6-17.4-20.1-10.7c-5.6,4.4-5.4,14.7-0.4,18.5
	c4.7,4.8,12.4,3.9,16.9-0.4c0.2,0.2,0.5,0.3,0.7,0.5c4,2.8,8.1,5.5,12.2,8.1c7.3,4.5,15,8.1,23.1,10.7c0,1.8,0.1,3.6,0.1,5.5
	c0.1,4.4,0.2,8.7,0.5,13.1c0.1,1.4,0.2,2.8,0.3,4.2C608.2,130.5,607.3,132.6,605.3,134.5z M568.5,79.4c1.7-3.8-1.7-7.7-5.5-8
	c-2.1-0.1-4,1.1-5.2,2.7c-0.5,0.7-0.9,1.8-0.9,2.9c-0.1,1,0,2,0.5,2.9c1.7,3.4,5.9,4,8.8,2.2c0.8,0.6,1.7,1.2,2.5,1.8
	c-3.7,3.1-9.9,2.6-13-1.8c-1.9-2.7-1.8-6.4-0.3-9.3c1.5-3,4.8-3.9,7.8-4.6c5,0.5,9.3,5.4,8.3,10.8c-0.1,0.7-0.3,1.3-0.6,1.9
	C570,80.4,569.3,79.9,568.5,79.4z M562.7,76.2c-1.1-0.5-1.7,1.1-1.1,1.8c0.6,0.7,1.2,1.4,1.9,2c-2,0.4-4.5-1.2-3.7-3.4
	c0.2-0.5,0.5-0.9,0.9-1.2c0.4-0.3,1-0.6,1.5-0.8c2-0.5,3.5,1.2,3.4,3C564.7,77.1,563.7,76.6,562.7,76.2z M613.9,103.1
	c-1,0-2.1-0.1-3.1-0.3c-0.1-4.9-0.2-9.7-0.2-14.6c0-0.8,0-1.5,0-2.3c2.2,1.6,3.9,3.5,5.4,5.9C618.1,95.2,620.3,103,613.9,103.1z"/>
<g class="st1">
	<path class="st2" d="M502.2,109.8c3.1-1.9,5.7-5,8.3-7.5c1.4-1.4,3-2.7,4.4-4.2c1.5-1.4,2.8-3,4.2-4.4c2.5-2.6,5.6-5.1,7.5-8.3
		c1.8,2.3,4.2,4.3,6.2,6.2c1.5,1.5,3.1,3,4.6,4.5c0.9,0.9,1.1,1.8,0.9,2.6c-2.6,2-4.8,4.7-7.1,7.1c-1.4,1.4-3,2.8-4.3,4.4
		c-1.5,1.3-2.9,2.9-4.4,4.3c-2.3,2.3-5.1,4.5-7.1,7.1c-0.9,0.2-1.7,0-2.6-0.9c-1.5-1.5-3-3-4.5-4.6
		C506.5,114,504.5,111.6,502.2,109.8z"/>
	<path class="st2" d="M565.3,117.5c0.2,0.7,0.4,2.1-0.7,2c-0.4,0-0.8-0.1-1.1-0.3c-0.9,0-1.3,0.9-1,1.7c0,0,0,0,0,0
		c0.1,0.1,0.2,0.2,0.3,0.4c0.2,0.1,0.4,0.2,0.6,0.3c0.5,0.4,0.8,1.1,0.6,1.7c-0.3,0.8-1.2,1-2,0.7c-0.2,0-0.4,0.1-0.7,0.1
		c-0.8,0.3-0.9,1.2-0.3,1.8c0.5,0.5,1.1,1.5,0.6,2.2c-0.5,0.7-1.2,1-2,0.5c-0.2-0.1-0.5-0.3-0.8-0.5c-0.8-0.3-1.6,0.3-1.6,1.1
		c0,0,0,0.1,0,0.1c0.3,0.8,1,1,1.4,1.6c0.5,0.8,0.4,1.6-0.2,2.3c-0.5,0.5-1.3,0.6-1.9,0.2c-0.4-0.3-0.8-0.7-1.2-0.9
		c-0.2-0.1-0.4-0.2-0.7-0.3c0,0-0.1,0-0.1,0c-0.6,0.1-1.1,0.8-1,1.5c0.1,0.1,0.2,0.3,0.3,0.4c0.4,0.5,0.8,1.1,0.8,1.8
		c0,0.3-0.1,0.5-0.2,0.7c0,0,0,0,0,0.1c0,0.1-0.1,0.1-0.1,0.2c0,0-0.1,0.1-0.1,0.1c0,0-0.1,0.1-0.1,0.1c-0.1,0-0.1,0.1-0.2,0.1
		c0,0,0,0-0.1,0c-0.2,0.1-0.4,0.2-0.7,0.2c-0.7,0-1.3-0.4-1.8-0.7c-0.1,0-0.2-0.2-0.4-0.3c-0.7-0.1-1.4,0.3-1.5,1c0,0,0,0.1,0,0.1
		c0.1,0.2,0.2,0.4,0.3,0.7c0.2,0.4,0.6,0.8,0.9,1.2c0.3,0.6,0.3,1.4-0.2,1.9c-0.7,0.6-1.5,0.7-2.3,0.2c-0.6-0.4-0.9-1.2-1.6-1.4
		c0,0-0.1,0-0.1,0c-0.7,0-1.4,0.8-1.1,1.6c0.2,0.3,0.3,0.6,0.5,0.8c0.5,0.8,0.2,1.5-0.5,2c-0.8,0.5-1.7-0.1-2.2-0.6
		c-0.6-0.6-1.6-0.5-1.8,0.3c-0.1,0.2-0.1,0.5-0.1,0.7c0.3,0.8,0.1,1.7-0.7,2c-0.6,0.2-1.3,0-1.7-0.6c-0.1-0.2-0.2-0.4-0.3-0.6
		c-0.1-0.1-0.2-0.2-0.4-0.3c0,0,0,0,0,0c-0.8-0.3-1.7,0.1-1.7,1c0.2,0.3,0.3,0.8,0.3,1.1c0,1.1-1.4,0.9-2,0.7c-1.7-0.5-3-2.7-4-3.9
		c-0.5-0.7-1.2-1.4-1.7-2.2c-1.6-2-3.2-4-4.6-6.2c-2.5-4-5.3-8.4-6.9-12.9c0.3-0.3,0.6-0.6,0.9-0.9c0.7-0.6,1.5-1.3,2.2-1.9
		c0.9,3.5,2.9,6.9,4.7,9.8c2.1,3.4,4.3,7.2,7.5,9.7c0.3,0.2,0.7-0.1,0.5-0.4c-1.6-4.3-4.5-8.1-6.6-12.1c-1.5-2.8-2.7-5.9-4.6-8.5
		c0.9-0.9,1.8-1.8,2.7-2.7c0.6-0.6,1.2-1.1,1.8-1.7c0,0,0,0,0,0.1c1,4,4,7.7,6.6,10.8c2.6,3.1,5.2,6.5,8.7,8.6
		c0.3,0.2,0.6-0.2,0.5-0.5c-2.1-4-5.5-7.4-8.2-11.1c-2.1-2.9-3.8-6.2-6.4-8.5c-0.1-0.1-0.2-0.1-0.3-0.2c0.6-0.6,1.3-1.2,1.8-1.8
		c0.6-0.6,1.2-1.2,1.8-1.8c0,0.1,0.1,0.2,0.2,0.3c2.4,2.7,5.7,4.4,8.5,6.4c3.7,2.7,7.1,6,11.1,8.2c0.3,0.2,0.7-0.2,0.5-0.5
		c-2.1-3.5-5.5-6.1-8.6-8.7c-3.1-2.6-6.9-5.6-10.8-6.6c0,0,0,0-0.1,0c0.6-0.6,1.1-1.2,1.7-1.8c0.9-0.9,1.8-1.8,2.7-2.7
		c2.6,1.9,5.7,3.1,8.5,4.6c4,2.2,7.8,5,12.1,6.6c0.3,0.1,0.6-0.3,0.4-0.5c-2.5-3.2-6.3-5.3-9.7-7.5c-2.9-1.8-6.3-3.9-9.8-4.7
		c0.7-0.7,1.3-1.4,1.9-2.2c0.4-0.3,0.7-0.5,0.9-0.9c4.5,1.6,8.9,4.3,12.9,6.9c2.2,1.4,4.2,2.9,6.2,4.6c0.8,0.5,1.5,1.2,2.2,1.7
		C562.7,114.5,564.9,115.9,565.3,117.5z"/>
	<path class="st2" d="M507.7,82.4c-5.1-1.2-9.5-4.1-13-8.1c-4.1-4.8-7-10.4-10.8-15.3c-2.5-3.3-5.3-6.4-8.9-8.4
		c-2.3-1.3-7.9-4.5-11.2-3.5c-1,3.3,2.2,8.9,3.5,11.2c2,3.6,5.2,6.5,8.4,8.9c5,3.8,10.6,6.7,15.3,10.8c4,3.4,6.9,7.8,8.1,13
		c1.4,6.1-1.4,11.8,1.8,17.5c2-3.1,5.1-5.5,7.7-8c1.4-1.4,2.8-3,4.4-4.3c1.3-1.5,2.9-2.9,4.3-4.4c2.5-2.6,4.9-5.7,8-7.7
		C519.5,81,513.8,83.8,507.7,82.4z M474,63.6c-1.2-0.8-1.9-2.2-1.9-3.6c0-0.2-0.1-0.5-0.1-0.7c0-1.5,0.8-3.2,2.3-3.9
		c3.3-1.5,7.1,0.7,7,4.5C481,63.6,476.9,65.5,474,63.6z"/>
</g>
<g class="st1">
	<path class="st3" d="M527.2,88.1c-4.1,3.6-7.7,7.7-11.5,11.7c-3.3,3.5-7.2,6.9-9.9,10.8c-0.2,0.3,0.2,0.7,0.5,0.5
		c4.2-2.3,7.7-6.3,11.1-9.6c3.9-3.8,7.6-8.2,10.4-12.9C528,88.2,527.5,87.8,527.2,88.1z"/>
	<path class="st3" d="M535.3,96.2c-4.1,3.6-7.7,7.7-11.5,11.7c-3.3,3.5-7.2,6.9-9.9,10.8c-0.2,0.3,0.2,0.7,0.5,0.5
		c4.2-2.3,7.7-6.3,11.1-9.6c3.9-3.8,7.6-8.2,10.4-12.9C536.1,96.2,535.6,95.9,535.3,96.2z"/>
	<path class="st3" d="M540.9,99.1c0.2-0.4,0.4-0.8,0.5-1.3c0.1-0.3,0-0.7-0.3-1c-2.5-2.8-5.2-5.4-7.8-8c-2.1-2.2-4.2-4.8-7-6.2
		c-3.7-4.4-10.1-2.9-15.4-2.8c-9.6,0.2-15.9-9.6-20.4-16.6c-4.2-6.4-8.6-12.2-15.5-15.9c-2.9-1.6-10.2-5-13.1-2
		c-3,2.9,0.4,10.2,2,13.1c3.7,6.9,9.5,11.3,15.9,15.5c7,4.6,16.8,10.9,16.6,20.4c-0.1,5.3-1.6,11.7,2.8,15.4c1.4,2.7,4,4.8,6.2,7
		c2.7,2.6,5.3,5.3,8,7.8c0.3,0.2,0.6,0.4,1,0.3c0.5-0.2,0.9-0.3,1.3-0.5c3.5,9,7.4,17.7,14.7,24.4c1.9,1.8,3.9,3.2,6.6,2.1
		c0.8-0.3,1.2-0.9,1.5-1.5c1.9,0.6,4-0.4,4.5-2.5c2.3,0.6,4.4-0.8,4.6-3.1c2.5,0.5,4.7-1.3,4.6-3.9c1.1,0,2-0.4,2.8-1.3
		c0.9-0.7,1.3-1.7,1.3-2.8c2.5,0.1,4.4-2.1,3.9-4.6c2.3-0.2,3.7-2.3,3.1-4.6c2.1-0.6,3.2-2.6,2.5-4.5c0.6-0.2,1.2-0.7,1.5-1.5
		c1.1-2.7-0.3-4.6-2.1-6.6C558.6,106.4,549.9,102.5,540.9,99.1z M499.2,90.9c-1.2-5.1-4.1-9.5-8.1-13c-4.8-4.1-10.4-7-15.3-10.8
		c-3.3-2.5-6.4-5.3-8.4-8.9c-1.3-2.3-4.5-7.9-3.5-11.2c3.3-1,8.9,2.2,11.2,3.5c3.6,2,6.5,5.2,8.9,8.4c3.8,5,6.7,10.6,10.8,15.3
		c3.4,4,7.8,6.9,13,8.1c6.1,1.4,11.8-1.4,17.5,1.8c-3.1,2-5.5,5.1-8,7.7c-1.4,1.4-3,2.8-4.3,4.4c-1.5,1.3-2.9,2.9-4.4,4.3
		c-2.6,2.5-5.7,4.9-7.7,8C497.8,102.7,500.6,97,499.2,90.9z M502.2,109.8c3.1-1.9,5.7-5,8.3-7.5c1.4-1.4,3-2.7,4.4-4.2
		c1.5-1.4,2.8-3,4.2-4.4c2.5-2.6,5.6-5.1,7.5-8.3c1.8,2.3,4.2,4.3,6.2,6.2c1.5,1.5,3.1,3,4.6,4.5c0.9,0.9,1.1,1.8,0.9,2.6
		c-2.6,2-4.8,4.7-7.1,7.1c-1.4,1.4-3,2.8-4.3,4.4c-1.5,1.3-2.9,2.9-4.4,4.3c-2.3,2.3-5.1,4.5-7.1,7.1c-0.9,0.2-1.7,0-2.6-0.9
		c-1.5-1.5-3-3-4.5-4.6C506.5,114,504.5,111.6,502.2,109.8z M565.3,117.5c0.2,0.7,0.4,2.1-0.7,2c-0.4,0-0.8-0.1-1.1-0.3
		c-0.9,0-1.3,0.9-1,1.7c0,0,0,0,0,0c0.1,0.1,0.2,0.2,0.3,0.4c0.2,0.1,0.4,0.2,0.6,0.3c0.5,0.4,0.8,1.1,0.6,1.7c-0.3,0.8-1.2,1-2,0.7
		c-0.2,0-0.4,0.1-0.7,0.1c-0.8,0.3-0.9,1.2-0.3,1.8c0.5,0.5,1.1,1.5,0.6,2.2c-0.5,0.7-1.2,1-2,0.5c-0.2-0.1-0.5-0.3-0.8-0.5
		c-0.8-0.3-1.6,0.3-1.6,1.1c0,0,0,0.1,0,0.1c0.3,0.8,1,1,1.4,1.6c0.5,0.8,0.4,1.6-0.2,2.3c-0.5,0.5-1.3,0.6-1.9,0.2
		c-0.4-0.3-0.8-0.7-1.2-0.9c-0.2-0.1-0.4-0.2-0.7-0.3c0,0-0.1,0-0.1,0c-0.6,0.1-1.1,0.8-1,1.5c0.1,0.1,0.2,0.3,0.3,0.4
		c0.4,0.5,0.8,1.1,0.8,1.8c0,0.3-0.1,0.5-0.2,0.7c0,0,0,0,0,0.1c0,0.1-0.1,0.1-0.1,0.2c0,0-0.1,0.1-0.1,0.1c0,0-0.1,0.1-0.1,0.1
		c-0.1,0-0.1,0.1-0.2,0.1c0,0,0,0-0.1,0c-0.2,0.1-0.4,0.2-0.7,0.2c-0.7,0-1.3-0.4-1.8-0.7c-0.1,0-0.2-0.2-0.4-0.3
		c-0.7-0.1-1.4,0.3-1.5,1c0,0,0,0.1,0,0.1c0.1,0.2,0.2,0.4,0.3,0.7c0.2,0.4,0.6,0.8,0.9,1.2c0.3,0.6,0.3,1.4-0.2,1.9
		c-0.7,0.6-1.5,0.7-2.3,0.2c-0.6-0.4-0.9-1.2-1.6-1.4c0,0-0.1,0-0.1,0c-0.7,0-1.4,0.8-1.1,1.6c0.2,0.3,0.3,0.6,0.5,0.8
		c0.5,0.8,0.2,1.5-0.5,2c-0.8,0.5-1.7-0.1-2.2-0.6c-0.6-0.6-1.6-0.5-1.8,0.3c-0.1,0.2-0.1,0.5-0.1,0.7c0.3,0.8,0.1,1.7-0.7,2
		c-0.6,0.2-1.3,0-1.7-0.6c-0.1-0.2-0.2-0.4-0.3-0.6c-0.1-0.1-0.2-0.2-0.4-0.3c0,0,0,0,0,0c-0.8-0.3-1.7,0.1-1.7,1
		c0.2,0.3,0.3,0.8,0.3,1.1c0,1.1-1.4,0.9-2,0.7c-1.7-0.5-3-2.7-4-3.9c-0.5-0.7-1.2-1.4-1.7-2.2c-1.6-2-3.2-4-4.6-6.2
		c-2.5-4-5.3-8.4-6.9-12.9c0.3-0.3,0.6-0.6,0.9-0.9c0.7-0.6,1.5-1.3,2.2-1.9c0.9,3.5,2.9,6.9,4.7,9.8c2.1,3.4,4.3,7.2,7.5,9.7
		c0.3,0.2,0.7-0.1,0.5-0.4c-1.6-4.3-4.5-8.1-6.6-12.1c-1.5-2.8-2.7-5.9-4.6-8.5c0.9-0.9,1.8-1.8,2.7-2.7c0.6-0.6,1.2-1.1,1.8-1.7
		c0,0,0,0,0,0.1c1,4,4,7.7,6.6,10.8c2.6,3.1,5.2,6.5,8.7,8.6c0.3,0.2,0.6-0.2,0.5-0.5c-2.1-4-5.5-7.4-8.2-11.1
		c-2.1-2.9-3.8-6.2-6.4-8.5c-0.1-0.1-0.2-0.1-0.3-0.2c0.6-0.6,1.3-1.2,1.8-1.8c0.6-0.6,1.2-1.2,1.8-1.8c0,0.1,0.1,0.2,0.2,0.3
		c2.4,2.7,5.7,4.4,8.5,6.4c3.7,2.7,7.1,6,11.1,8.2c0.3,0.2,0.7-0.2,0.5-0.5c-2.1-3.5-5.5-6.1-8.6-8.7c-3.1-2.6-6.9-5.6-10.8-6.6
		c0,0,0,0-0.1,0c0.6-0.6,1.1-1.2,1.7-1.8c0.9-0.9,1.8-1.8,2.7-2.7c2.6,1.9,5.7,3.1,8.5,4.6c4,2.2,7.8,5,12.1,6.6
		c0.3,0.1,0.6-0.3,0.4-0.5c-2.5-3.2-6.3-5.3-9.7-7.5c-2.9-1.8-6.3-3.9-9.8-4.7c0.7-0.7,1.3-1.4,1.9-2.2c0.4-0.3,0.7-0.5,0.9-0.9
		c4.5,1.6,8.9,4.3,12.9,6.9c2.2,1.4,4.2,2.9,6.2,4.6c0.8,0.5,1.5,1.2,2.2,1.7C562.7,114.5,564.9,115.9,565.3,117.5z"/>
	<path class="st3" d="M474.2,55.5c-1.5,0.7-2.3,2.3-2.3,3.9c0,0.2,0,0.5,0.1,0.7c0,1.4,0.7,2.8,1.9,3.6c2.9,1.8,7.1-0.1,7.2-3.7
		C481.3,56.2,477.5,54,474.2,55.5z M478.3,59.6c0.1,1.4-1.4,2.3-2.6,1.8c-0.9-0.4-1.1-1.2-1.1-2.1c0.1-0.3,0.2-0.6,0.5-0.9
		C476.2,57.1,478.2,58.1,478.3,59.6z"/>
</g>
<g class="st1">
	<g>
		<path class="st2" d="M157.7,329.7C157.8,329.7,157.8,329.7,157.7,329.7c0.5,2.8-1.5,6.2-3.7,8.4c-1.9,1.9-4.7,3.6-6.8,2.8
			c-0.3-0.1-0.5-0.2-0.7-0.4c0,0,0,0,0,0c-1.8-2.7-4.1-5.1-6.3-7.4c-0.7-0.7-1.5-1.5-2.2-2.3c-2.6-2.8-5.3-5.7-8-8.4l-2.5-2.6
			c-6.3-6.7-13.7-14.4-20.9-22c-3.7-3.9-7.5-7.9-11.2-11.7c-3.6-3.7-7.3-7.6-11-11.4l-0.3-0.3c-5.9-6.2-12-12.6-20-16.5
			c0,0-0.1,0-0.1-0.1c0,0,0-0.1,0-0.1l0.3-0.3c0.2-0.3,0.4-0.5,0.7-0.8c0,0,0,0,0,0c0.6-0.6,1.2-1.2,1.9-1.8c2-2,3.9-4,5.7-6
			c0.6-0.6,1.2-1.3,1.7-1.9c0,0,0.1,0,0.1,0c0,0,0.1,0,0.1,0.1c3.9,8.2,10.4,14.4,16.7,20.4l0.3,0.3c3.8,3.6,7.7,7.3,11.4,10.9
			c3.8,3.7,7.8,7.5,11.7,11.3c7.6,7.2,15.3,14.5,22,20.9l2.6,2.4c2.8,2.6,5.6,5.3,8.4,8c0.8,0.7,1.5,1.5,2.3,2.2
			C152.4,325.4,154.9,327.8,157.7,329.7z"/>
		<path class="st2" d="M63.8,234.1c-0.2,3.4,3.2,5.9,6.3,8c1,0.7,1.9,1.4,2.7,2c0,0,0,0.1,0,0.1c0,0,0,0.1,0,0.1
			c-0.7,0.7-1.4,1.4-2.1,2.2c-3.1,3.2-6.3,6.6-9,10.2l-0.3,0.3c-0.2,0.2-0.4,0.4-0.6,0.6c0,0,0,0,0,0c0,0-0.1,0-0.1,0
			c0,0-0.1,0-0.1-0.1c-0.6-1.2-1.5-2.2-2.7-3.1c-1.3-1.3-2.8-2.1-4.5-2.6l-0.4-0.2c-0.6-0.4-1.2-0.7-1.8-1.1c-0.6-0.3-1.2-0.7-1.7-1
			c-0.5-0.3-1-0.7-1.4-1c-1.1-0.9-2.3-1.8-3.7-2.1c-0.2,0-0.3,0-0.5,0.1c-0.1,0.1-0.2,0.3-0.1,0.4c0.4,1.9,2,3,3.4,4l0.6,0.4
			c0,0,0.1,0.1,0,0.1c0,0,0,0.1-0.1,0.1c-3.5,0.7-7.1,2.6-9.9,5.3c-2.1,2.1-3.6,4.6-4.3,7.2c0,0,0,0.1-0.1,0.1c0,0-0.1,0-0.1,0
			c-1.5-1.8-3.3-3.4-4.9-5l-0.7-0.6c-0.2-0.2-0.5-0.4-0.9-0.8c-2-1.6-5.6-4.7-5.7-6.6c0-0.5,0.2-0.8,0.5-1.1c3.4-2.5,7-4.8,10.6-7
			c1.8-1.1,3.6-2.2,5.3-3.4c0.3-0.2,0.5-0.5,0.6-0.8c0,0,0,0,0-0.1c0.2-0.2,0.4-0.6,0.4-1.1c-0.4-3,1-6.2,4.2-9.5
			c2.4-2.4,5.2-4.3,7.7-5.9c4.6-3,10.2-4.9,16.4-5.5c6.6-0.7,13.7,0.9,19.9,4.4c0.1,0,0.1,0.1,0.1,0.1c0,0.1-0.1,0.1-0.1,0.1
			c-4.9-1.3-10.1-0.6-15.3,2c-1.6,0.8-3,1.8-4.2,3C65.2,228.8,63.9,231.4,63.8,234.1z"/>
	</g>
	<path class="st3" d="M67.8,233.9c-0.2-1.8,0.7-3.7,2.4-5.4c1.5-1.5,3.5-2.8,5.7-3.6c3.6-1.4,7.8-1.4,12.1-0.1
		c2.8,1.1,5.9,2.4,8.8,4.7c0.4,0.4,1.1,0.2,1.5-0.1c0.1-0.1,0.4-0.5,0.1-1c-8.2-11.1-21.1-16.2-35.3-14c-6.2,1-12.5,3.9-18.7,8.8
		c-1.3,1-2.5,2.1-3.5,3.1c-4,4-5.6,7.7-4.8,11.2c0,0,0,0.1-0.1,0.1c-3.7,2.4-7.4,4.9-11.2,7.3c-0.5,0.3-1.1,0.7-1.7,1
		c-1.3,0.8-2.6,1.6-3.7,2.6c-0.8,0.8-1.3,1.6-1.6,2.6c-0.5,1.8,1.8,3.8,3.4,5.1c0.3,0.3,0.6,0.5,0.8,0.7c0.8,0.7,1.6,1.5,2.4,2.3
		c1.9,1.9,4,3.8,6.1,5.6c0.6,0.6,1.4,1.5,2.4,2.1c0.9,0.5,1.7,0,2.2-0.5c0.7-0.7,1.3-1.8,1.5-2.8c0,0,0,0,0,0
		c0.6-0.7,1.2-1.5,1.8-2.3c0.9-1.2,1.9-2.5,3-3.6c1.5-1.5,3.1-2.5,4.9-3.2c3.6-1.4,8.1,0,12.1,3.5c0,0,0,0,0,0
		c0.2,0.6,0.6,1.2,1,1.6c0,0,0,0,0,0c0.1,0.3,0.3,0.5,0.6,0.6c0.3,0.1,0.5,0.1,0.8,0c0,0,0,0,0,0c0.2,0,0.5-0.1,0.6-0.2
		c0.4-0.2,0.8-0.5,1.3-1c0,0,0.1,0,0.2,0c12.2,8.7,22.3,20.1,32.2,31.1c3.3,3.7,6.8,7.5,10.2,11.2c6.8,7.2,13.7,14.5,20.4,21.6
		l0.5,0.5c1.7,1.8,3.5,3.9,5.2,5.8c2.7,3.1,5.5,6.4,8.6,9.2c1.6,1.7,3.3,3.2,4.4,4.2c3,2.7,7,1.6,9.4-0.5c1-0.9,1.9-1.7,2.9-2.6
		c2.7-2.7,4.1-5.1,4.3-7.4c0.3-2.8-0.8-5.1-2.7-6c0,0,0,0,0,0c-3.4-4.4-7.7-8.1-12-11.8c-1.9-1.7-4-3.4-5.8-5.2l-1-0.9
		c-6.9-6.5-14-13.3-21.1-19.9c-3.7-3.4-7.5-6.9-11.2-10.2c-11.1-10-22.7-20.3-31.4-32.7c0,0,0-0.1,0-0.1l0.1-0.1
		c0.5-0.6,0.5-1.4,0-2c-1.3-1.6-2.6-2.7-4.3-3.8C69.2,237.7,67.9,235.9,67.8,233.9z M157.7,329.7
		C157.8,329.7,157.8,329.7,157.7,329.7c0.5,2.8-1.5,6.2-3.7,8.4c-1.9,1.9-4.7,3.6-6.8,2.8c-0.3-0.1-0.5-0.2-0.7-0.4c0,0,0,0,0,0
		c-1.8-2.7-4.1-5.1-6.3-7.4c-0.7-0.7-1.5-1.5-2.2-2.3c-2.6-2.8-5.3-5.7-8-8.4l-2.5-2.6c-6.3-6.7-13.7-14.4-20.9-22
		c-3.7-3.9-7.5-7.9-11.2-11.7c-3.6-3.7-7.3-7.6-11-11.4l-0.3-0.3c-5.9-6.2-12-12.6-20-16.5c0,0-0.1,0-0.1-0.1c0,0,0-0.1,0-0.1
		l0.3-0.3c0.2-0.3,0.4-0.5,0.7-0.8c0,0,0,0,0,0c0.6-0.6,1.2-1.2,1.9-1.8c2-2,3.9-4,5.7-6c0.6-0.6,1.2-1.3,1.7-1.9c0,0,0.1,0,0.1,0
		c0,0,0.1,0,0.1,0.1c3.9,8.2,10.4,14.4,16.7,20.4l0.3,0.3c3.8,3.6,7.7,7.3,11.4,10.9c3.8,3.7,7.8,7.5,11.7,11.3
		c7.6,7.2,15.3,14.5,22,20.9l2.6,2.4c2.8,2.6,5.6,5.3,8.4,8c0.8,0.7,1.5,1.5,2.3,2.2C152.4,325.4,154.9,327.8,157.7,329.7z
		 M63.8,234.1c-0.2,3.4,3.2,5.9,6.3,8c1,0.7,1.9,1.4,2.7,2c0,0,0,0.1,0,0.1c0,0,0,0.1,0,0.1c-0.7,0.7-1.4,1.4-2.1,2.2
		c-3.1,3.2-6.3,6.6-9,10.2l-0.3,0.3c-0.2,0.2-0.4,0.4-0.6,0.6c0,0,0,0,0,0c0,0-0.1,0-0.1,0c0,0-0.1,0-0.1-0.1
		c-0.6-1.2-1.5-2.2-2.7-3.1c-1.3-1.3-2.8-2.1-4.5-2.6l-0.4-0.2c-0.6-0.4-1.2-0.7-1.8-1.1c-0.6-0.3-1.2-0.7-1.7-1
		c-0.5-0.3-1-0.7-1.4-1c-1.1-0.9-2.3-1.8-3.7-2.1c-0.2,0-0.3,0-0.5,0.1c-0.1,0.1-0.2,0.3-0.1,0.4c0.4,1.9,2,3,3.4,4l0.6,0.4
		c0,0,0.1,0.1,0,0.1c0,0,0,0.1-0.1,0.1c-3.5,0.7-7.1,2.6-9.9,5.3c-2.1,2.1-3.6,4.6-4.3,7.2c0,0,0,0.1-0.1,0.1c0,0-0.1,0-0.1,0
		c-1.5-1.8-3.3-3.4-4.9-5l-0.7-0.6c-0.2-0.2-0.5-0.4-0.9-0.8c-2-1.6-5.6-4.7-5.7-6.6c0-0.5,0.2-0.8,0.5-1.1c3.4-2.5,7-4.8,10.6-7
		c1.8-1.1,3.6-2.2,5.3-3.4c0.3-0.2,0.5-0.5,0.6-0.8c0,0,0,0,0-0.1c0.2-0.2,0.4-0.6,0.4-1.1c-0.4-3,1-6.2,4.2-9.5
		c2.4-2.4,5.2-4.3,7.7-5.9c4.6-3,10.2-4.9,16.4-5.5c6.6-0.7,13.7,0.9,19.9,4.4c0.1,0,0.1,0.1,0.1,0.1c0,0.1-0.1,0.1-0.1,0.1
		c-4.9-1.3-10.1-0.6-15.3,2c-1.6,0.8-3,1.8-4.2,3C65.2,228.8,63.9,231.4,63.8,234.1z"/>
</g>
<g class="st1">
	<path class="st2" d="M308.4,320.9c0.2,0.8,0.3,1.5-0.1,1.6c-0.3-0.2-0.6-0.3-0.8-0.5c-0.2-0.1-0.4-0.2-0.6-0.4
		c-2-1.5-4.4-2.7-6.5-3.9c-0.1-0.1-0.3-0.1-0.4-0.2c-0.1-0.1-0.2-0.1-0.3-0.1c-4.6-1.3-8.4,4.9-9.2,8.6c-0.6,3,0.6,5.2,2.6,6.9
		c0.7,0.5,1.4,1,2.2,1.4c1.6,0.8,3.4,1.2,4.9,2.3c-0.5,0.5-1,0.9-1.5,1.2c-2.4,0.7-6.3,0.3-7.7,0.2c-2.9-0.1-5.2-1.1-7.2-2.8
		c-3.7-4.7-2.9-13.1,0.4-17.8c0.3-0.4-0.3-0.7-0.6-0.5c-1.5,1.3-2.6,3.2-3.3,5.4c-1.3-5.8-5.6-10.7-9.8-14.8
		c-5.8-5.6-11.6-11.8-17.8-17.2c-0.6-0.6-1.1-1.1-1.7-1.7c-3-3-5.9-6-8.9-9c-0.3-0.3-0.5-0.5-0.8-0.8c-0.2-0.2-0.4-0.4-0.6-0.6
		c-2.2-2.1-4.3-4.2-6.5-6.3c-1.4-1.4-2.8-2.9-4.1-4.4c-0.2-0.2-0.5-0.4-0.7-0.6c-3.1-3.2-6.1-6.5-9.3-9.7c-3.3-3.4-7.5-7.9-12.3-8.5
		c0.5-0.5,0.9-1,1.2-1.7c0-0.1,0-0.2-0.1-0.1c-4.1,1.6-7.3,2.8-11.6,0.7c-4.3-2.1-5.7-6.7-7.9-10.6c-0.2-0.8-0.3-1.5,0.1-1.6
		c0.3,0.2,0.6,0.3,0.8,0.5c0.2,0.1,0.4,0.2,0.6,0.4c2,1.5,4.3,2.6,6.4,3.8c0.1,0.1,0.3,0.1,0.4,0.1c0.1,0.1,0.2,0.1,0.2,0.1
		c4.5,1.3,8.2-4.8,9-8.4c0.6-2.9-0.6-5.1-2.6-6.7c-0.7-0.5-1.4-1-2.1-1.4c-1.6-0.8-3.4-1.2-4.8-2.2c0.5-0.5,1-0.9,1.5-1.1
		c2.3-0.7,6.1-0.2,7.5-0.2c2.8,0.1,5.1,1.1,7.1,2.7c3.6,4.6,2.8,12.8-0.4,17.4c-0.3,0.4,0.3,0.7,0.6,0.4c1.5-1.3,2.6-3.2,3.2-5.3
		c1.3,5.7,5.5,10.5,9.6,14.5c4.9,4.8,9.8,9.9,15,14.7c4.1,4.5,8.8,8.6,13,12.7c4.6,4.5,9.2,9.7,14.2,14c2.8,2.9,5.6,5.9,8.4,8.8
		c3.3,3.4,7.7,8.1,12.5,8.7c-0.5,0.5-0.9,1.1-1.2,1.7c0,0.1,0,0.2,0.1,0.1c4.2-1.6,7.4-2.9,11.8-0.7
		C304.6,312.3,306.1,317,308.4,320.9z"/>
	<path class="st3" d="M293.8,306.5c-4.5,0.4-7.7-0.8-11.2-4.1c-1.9-1.8-3.8-3.7-5.6-5.6c-1.1-1.1-2.2-2.3-3.4-3.4
		c-3.4-4.5-7.7-8.6-11.9-12.5c-1.5-1.4-2.8-2.6-4.2-4c-1.6-1.6-3.2-3.3-4.9-5c-3.2-3.3-6.4-6.7-9.9-9.6c-2.2-2.2-4.5-4.4-6.7-6.5
		c-1.2-1.2-2.5-2.3-3.7-3.5c-0.6-0.6-1.2-1.2-1.8-1.7c-2.9-2.7-5.8-5.6-8.2-8.8c-2.4-3.2-3.3-6.8-4.2-10.6l-0.1-0.6
		c0.1-4.7-1.6-8.7-4.3-10.4c-0.3-0.2-0.5-0.4-0.8-0.6c-2.3-1.4-4.7-1.6-7.1-1.7c-1.4-0.3-3.1-0.2-4.5-0.1c-2.4,0.1-4,0.5-4.9,1.4
		c-0.7,0.6-1.3,1.3-1.6,2.2c-0.2,0.5,0.1,0.9,0.5,1.2c0.2,0.1,0.3,0.2,0.5,0.3c0.5,0.4,1.1,0.7,1.6,0.9c0.3,0.2,0.5,0.3,0.8,0.5
		c0.3,0.1,0.5,0.3,0.8,0.4c0.5,0.3,1,0.6,1.5,1l0.2,0.1c0.3,0.2,0.6,0.4,0.9,0.5c0.3,0.2,0.6,0.4,0.9,0.6c0.7,0.4,1.7,1,2,1.7
		c0.7,1.4,0.5,2.9-0.5,4.6c-0.6,0.9-1.4,2.2-2.4,3.1c-0.6,0.6-1.3,1.1-1.7,1.2c-0.2,0-0.3,0-0.5,0.1c-0.1,0-0.2,0-0.3,0l-0.2,0
		c-0.1,0-0.2,0-0.3,0l-0.1,0c0,0-0.1,0-0.1,0c-0.6-0.1-1.3-0.4-2.1-0.8c-0.8-0.5-1.7-0.9-2.6-1.4c-1.4-0.7-2.8-1.4-4.1-2.4
		c-0.3-0.1-0.7-0.1-1.1,0.2c-1.4,1.1-1.6,2.9-0.7,4.7l0.2,0.5c0.5,1.1,1.1,2.3,1.8,3.4c1.8,3.6,4.6,6.6,7.8,8.3
		c1.8,1,4.1,1.3,6.2,0.9c4.4-0.4,7.5,0.8,11,4.1c1.9,1.8,3.7,3.6,5.5,5.4c1.1,1.1,2.3,2.3,3.4,3.5c1.3,1.3,2.7,2.8,4,4.2l0.3,0.3
		c0.1,0.1,0.2,0.2,0.3,0.4l0.5,0.5c0.3,0.3,0.5,0.5,0.8,0.8c2.5,2.5,5,5,7.5,7.4c1.7,1.7,3.5,3.5,5.7,5.9l0.8,0.8
		c1.6,1.6,3.1,3.1,4.7,4.7c0.6,0.6,1.1,1.1,1.7,1.7c1.1,1.1,2.2,2.3,3.3,3.3c2.6,2.6,5.3,5.2,7.9,7.7c1.2,1.2,2.5,2.4,3.7,3.5
		c0.6,0.6,1.2,1.2,1.8,1.8c2.9,2.8,5.9,5.7,8.4,8.9c2.5,3.2,3.3,6.9,4.2,10.8l0.2,0.7c-0.1,4.8,1.6,8.9,4.4,10.6
		c0.3,0.2,0.5,0.4,0.8,0.6c2.3,1.4,4.8,1.6,7.3,1.7c1.5,0.3,3.1,0.2,4.6,0.1c2.5-0.1,4.1-0.5,5-1.4c0.2-0.1,0.3-0.3,0.5-0.4
		c0.5-0.5,0.9-1.1,1.2-1.8c0.2-0.5-0.1-1-0.5-1.2c-0.2-0.1-0.3-0.2-0.5-0.3c-0.5-0.4-1.1-0.7-1.6-1c-0.3-0.2-0.6-0.3-0.8-0.5
		c-0.3-0.2-0.5-0.3-0.8-0.5c-0.5-0.3-1-0.6-1.5-1l-0.2-0.1c-0.3-0.2-0.6-0.4-0.9-0.6c-0.3-0.2-0.6-0.4-0.9-0.6
		c-0.7-0.4-1.7-1-2.1-1.8c-0.7-1.4-0.5-3,0.5-4.7c0.6-0.9,1.4-2.2,2.5-3.2c0.7-0.7,1.3-1.1,1.8-1.3c0.2,0,0.3,0,0.5-0.1
		c0.1,0,0.2,0,0.3,0l0.2,0c0.1,0,0.2,0,0.3,0l0.1,0c0,0,0.1,0,0.1,0c0.6,0.1,1.4,0.4,2.1,0.8c0.8,0.5,1.7,1,2.6,1.4
		c1.4,0.7,2.9,1.5,4.2,2.4c0.3,0.1,0.7,0.1,1.1-0.2c0.1-0.1,0.2-0.2,0.3-0.3c0,0,0,0,0,0c1.1-1.1,1.3-2.8,0.4-4.5l-0.2-0.5
		c-0.5-1.1-1.1-2.3-1.8-3.4c-1.9-3.7-4.7-6.7-7.9-8.5C298.3,306.4,296,306.1,293.8,306.5z M293,333.1c0.6,0.5,1.4,1,2.2,1.4
		c0.6,0.3,1.3,0.6,2,0.8c0.9,0.4,1.9,0.7,2.7,1.3c-0.4,0.4-0.8,0.7-1.2,0.9c-1.9,0.6-4.8,0.4-6.5,0.3c-0.4,0-0.8,0-1-0.1
		c-2.7-0.1-5-1-7.1-2.7c-3.7-4.6-2.7-12.9,0.4-17.5c0.2-0.2,0.1-0.5-0.1-0.7c-0.2-0.2-0.6-0.3-0.9,0c-0.2,0.1-0.3,0.3-0.5,0.4
		c-1.1,1.1-2,2.6-2.6,4.3c-1.6-5.8-6-10.6-9.7-14.2c-1.7-1.7-3.5-3.5-5.2-5.2c-4-4-8.2-8.2-12.6-12l-0.5-0.5
		c-0.4-0.4-0.8-0.8-1.2-1.2c-3-3-5.9-6-8.9-9c-0.2-0.2-0.4-0.4-0.5-0.6l-0.2-0.3c-0.2-0.2-0.4-0.4-0.7-0.6c-1.8-1.7-3.6-3.5-5.3-5.2
		l-1.1-1.1c-1.4-1.4-2.8-2.9-4.1-4.4l-0.3-0.2c-0.2-0.1-0.3-0.3-0.4-0.4c-1-1-1.9-2-2.9-3c-2.1-2.2-4.2-4.5-6.4-6.7l-0.3-0.3
		c-3.2-3.3-7.2-7.4-11.7-8.2c0.4-0.4,0.7-0.9,0.9-1.4c0.1-0.1,0-0.3-0.1-0.4c-0.1-0.1-0.2-0.1-0.3-0.1l-0.1,0
		c-4.1,1.6-7.1,2.7-11.3,0.6c-3.3-1.6-4.9-4.8-6.4-7.9c-0.4-0.9-0.9-1.8-1.4-2.6c-0.2-0.8-0.2-1.1-0.1-1.2c0.1,0.1,0.2,0.2,0.4,0.2
		c0.1,0.1,0.2,0.1,0.3,0.2c0.2,0.1,0.4,0.2,0.6,0.3c1.4,1.1,3,1.9,4.5,2.8c0.6,0.4,1.3,0.7,1.9,1.1c0.1,0.1,0.3,0.1,0.4,0.2
		c0.1,0.1,0.2,0.1,0.3,0.1c1.9,0.6,3.8-0.1,5.6-1.9c2-2,3.3-4.8,3.7-6.7c0.6-2.7-0.3-5-2.7-7c-0.6-0.5-1.3-1-2.2-1.4
		c-0.6-0.3-1.3-0.6-1.9-0.8c-0.9-0.3-1.8-0.7-2.6-1.2c0.4-0.4,0.8-0.7,1.2-0.9c1.8-0.5,4.7-0.4,6.4-0.3c0.4,0,0.8,0,1,0.1
		c2.6,0.1,4.9,0.9,6.9,2.6c3.6,4.5,2.7,12.7-0.4,17.1c-0.2,0.2-0.1,0.5,0.1,0.7c0.2,0.2,0.6,0.3,0.8,0c1.3-1.1,2.3-2.7,3-4.7
		c1.6,5.6,5.9,10.4,9.5,13.9c1.7,1.7,3.5,3.4,5.1,5.1c3.2,3.2,6.5,6.5,9.8,9.5c2.6,2.9,5.5,5.6,8.4,8.3c1.6,1.5,3.1,2.9,4.6,4.4
		c1.5,1.5,3,3,4.5,4.6c3.1,3.2,6.3,6.5,9.7,9.4l1.7,1.8c2.2,2.3,4.5,4.7,6.7,7l0.3,0.3c3.3,3.4,7.4,7.6,11.9,8.4
		c-0.4,0.5-0.7,0.9-0.9,1.4c-0.1,0.1,0,0.3,0.1,0.4c0.1,0.1,0.2,0.1,0.3,0.1l0.1,0c4.2-1.6,7.3-2.8,11.5-0.6c3.4,1.7,5,4.9,6.6,8
		c0.5,0.9,0.9,1.8,1.4,2.7c0.2,0.8,0.2,1.1,0.1,1.2c-0.1-0.1-0.3-0.2-0.4-0.2c-0.1-0.1-0.2-0.1-0.3-0.2c-0.2-0.1-0.4-0.3-0.6-0.4
		c-1.4-1.1-3-2-4.6-2.8c-0.7-0.4-1.3-0.7-1.9-1.1c-0.1-0.1-0.3-0.1-0.5-0.2c-0.1-0.1-0.2-0.1-0.3-0.1c-1.9-0.6-3.9,0.1-5.7,1.9
		c-2,2-3.3,4.9-3.7,6.8C289.6,328.8,290.6,331.1,293,333.1z"/>
</g>
<g class="st1">
	<g>
		<path class="st2" d="M333,221.8c0.3-0.3,0.5-0.6,0.7-0.9c0.1-0.1,0.2-0.2,0.3-0.3c0.1-0.1,0.2-0.2,0.3-0.3
			c0.3-0.2,0.6-0.5,0.9-0.7c0.3,0.2,0.6,0.4,0.9,0.6c-0.6,0.4-1.1,1-1.6,1.5c-0.3,0.4-0.6,0.7-0.9,1.1
			C333.5,222.4,333.3,222.1,333,221.8z"/>
		<path class="st2" d="M340.9,232.8c-0.9-1.5-1.9-2.8-2.9-4.2c-1.1-1.5-2.2-3.1-3.3-4.6c0.5-0.3,0.9-0.7,1.3-1.1
			c0.6-0.6,1.2-1.2,1.5-1.9c1.6,1.1,3.1,2.3,4.7,3.4c1.4,1,2.8,2.1,4.3,3c0.1,0.6,0.5,1.1,1,1.7c1.1,1.4,2.1,2.9,1.7,4.8
			C348.4,237.8,343.1,233.6,340.9,232.8z"/>
		<path class="st2" d="M382.8,271.2c-4.7-4.7-9.3-9.5-14-14.2c-6.3-6.4-13.1-14.2-21-19.2c1.1-0.2,2.1-0.6,2.8-1.6
			c0.4-0.5,0.7-1.1,0.9-1.8c5,7.8,12.7,14.6,19.1,20.8c4.7,4.7,9.5,9.4,14.2,14c3.8,3.7,7.5,8.2,11.8,11.3c-0.4,0.4-0.8,0.8-1.2,1.2
			c-0.4,0.4-0.8,0.8-1.2,1.2C391,278.6,386.5,274.9,382.8,271.2z"/>
		<path class="st2" d="M435.4,308.8c5.5,5.5,10.8,11.5,17,16.3c0,0,0,0.1,0,0.1c-0.2,3.9-1.7,6.8-4.1,9.4c-2.6,2.4-5.5,3.9-9.4,4.1
			c0,0-0.1,0-0.1,0c-4.9-6.1-10.8-11.5-16.3-17c-4.5-4.5-8.9-9.7-14.2-13.5c0,0,0,0,0-0.1c2.1-6.9-5.5-16.1-12.8-17
			c1.2-1.2,2.4-2.5,3.5-3.8c1-1.2,2.1-2.3,2.6-3.7c0.1-0.2-0.2-0.4-0.3-0.3c-1.5,0.5-2.6,1.6-3.8,2.6c-1.6,1.3-3.1,2.6-4.5,4.1
			c-0.2,0.2-0.3,0.4-0.3,0.6c-0.3-0.3-0.6-0.7-0.8-1.1c-0.1-0.2-0.1-0.6,0.1-0.8c0.3-0.3,0.6-0.6,1-0.9c0,0,0,0,0.1,0
			c1.4-1.4,2.8-2.9,4.2-4.4c1.5-1.4,2.9-2.8,4.4-4.2c0,0,0,0,0-0.1c0.2-0.4,0.6-0.7,0.9-1c0.2-0.2,0.5-0.2,0.8-0.1
			c0.6,0.3,1.2,0.8,1.5,1.4c0.1,0.3,0.1,0.7,0.1,1c-0.1,7.6,9.8,16.2,17.1,14c0,0,0,0,0.1,0C425.6,299.8,430.8,304.2,435.4,308.8z"
			/>
	</g>
	<g>
		<path class="st3" d="M422.1,292.8c-0.1-0.1-0.2-0.1-0.2-0.1c0,0,0,0,0,0c-3.6-1.3-6.8-1.4-9.9-4c-2.7-2.2-3.5-5.1-4.7-8
			c-0.1-0.9-0.4-1.8-0.7-2.4c-0.2-0.6-1.1-1.3-1.9-1.7c-0.8-0.6-1.6-1-2.5-0.7c-1.3,0.4-2.1,1.4-3,2.3c-0.3,0.3-0.5,0.5-0.8,0.8
			c-2.8-3.8-6.7-6.9-10-10.2c-4.3-4.2-8.6-8.4-12.8-12.6c-9.3-9-18.2-17.3-25.5-28.1c-0.1-0.1-0.1-0.1-0.2-0.2c0-0.1,0-0.1-0.1-0.2
			c-1.4-1.8-3.3-3-5.2-4.3c-2.8-1.9-5.6-3.9-8.4-5.8c-0.5-0.3-0.9-0.1-1.1,0.2c-0.5,0.2-0.9,0.7-1.3,1.1c-0.2,0.2-0.3,0.3-0.5,0.5
			c-0.2,0.2-0.4,0.4-0.5,0.5c-0.4,0.4-0.9,0.8-1.1,1.3c-0.3,0.2-0.5,0.7-0.2,1.1c1.9,2.8,3.8,5.6,5.8,8.4c1.3,1.9,2.5,3.8,4.3,5.2
			c0.1,0,0.1,0.1,0.2,0.1c0.1,0.1,0.1,0.1,0.2,0.2c10.8,7.3,19,16.3,28.1,25.5c4.2,4.3,8.4,8.6,12.6,12.8c3.3,3.3,6.4,7.2,10.2,10
			c-0.3,0.3-0.6,0.5-0.8,0.8c-0.9,1-1.9,1.8-2.3,3c-0.3,0.8,0.1,1.7,0.7,2.5c0.4,0.9,1.2,1.7,1.7,1.9c0.7,0.3,1.6,0.5,2.4,0.7
			c2.9,1.2,5.8,2,8,4.7c2.6,3.1,2.7,6.4,4,9.9c0,0,0,0,0,0c0,0.1,0,0.2,0.1,0.2c4.2,6.2,10.4,11.3,15.7,16.5
			c5.3,5.3,10.4,11,16.4,15.6c0.2,0.1,0.4,0.2,0.5,0.2c0,0,0,0,0,0c4.1,0.3,8.4-1.2,11.2-4.2c3-2.7,4.6-7.1,4.2-11.2c0,0,0,0,0,0
			c0-0.2,0-0.3-0.2-0.5c-4.6-6-10.3-11.1-15.6-16.4C433.3,303.2,428.3,296.9,422.1,292.8z M333,221.8c0.3-0.3,0.5-0.6,0.7-0.9
			c0.1-0.1,0.2-0.2,0.3-0.3c0.1-0.1,0.2-0.2,0.3-0.3c0.3-0.2,0.6-0.5,0.9-0.7c0.3,0.2,0.6,0.4,0.9,0.6c-0.6,0.4-1.1,1-1.6,1.5
			c-0.3,0.4-0.6,0.7-0.9,1.1C333.5,222.4,333.3,222.1,333,221.8z M340.9,232.8c-0.9-1.5-1.9-2.8-2.9-4.2c-1.1-1.5-2.2-3.1-3.3-4.6
			c0.5-0.3,0.9-0.7,1.3-1.1c0.6-0.6,1.2-1.2,1.5-1.9c1.6,1.1,3.1,2.3,4.7,3.4c1.4,1,2.8,2.1,4.3,3c0.1,0.6,0.5,1.1,1,1.7
			c1.1,1.4,2.1,2.9,1.7,4.8C348.4,237.8,343.1,233.6,340.9,232.8z M382.8,271.2c-4.7-4.7-9.3-9.5-14-14.2
			c-6.3-6.4-13.1-14.2-21-19.2c1.1-0.2,2.1-0.6,2.8-1.6c0.4-0.5,0.7-1.1,0.9-1.8c5,7.8,12.7,14.6,19.1,20.8c4.7,4.7,9.5,9.4,14.2,14
			c3.8,3.7,7.5,8.2,11.8,11.3c-0.4,0.4-0.8,0.8-1.2,1.2c-0.4,0.4-0.8,0.8-1.2,1.2C391,278.6,386.5,274.9,382.8,271.2z M435.4,308.8
			c5.5,5.5,10.8,11.5,17,16.3c0,0,0,0.1,0,0.1c-0.2,3.9-1.7,6.8-4.1,9.4c-2.6,2.4-5.5,3.9-9.4,4.1c0,0-0.1,0-0.1,0
			c-4.9-6.1-10.8-11.5-16.3-17c-4.5-4.5-8.9-9.7-14.2-13.5c0,0,0,0,0-0.1c2.1-6.9-5.5-16.1-12.8-17c1.2-1.2,2.4-2.5,3.5-3.8
			c1-1.2,2.1-2.3,2.6-3.7c0.1-0.2-0.2-0.4-0.3-0.3c-1.5,0.5-2.6,1.6-3.8,2.6c-1.6,1.3-3.1,2.6-4.5,4.1c-0.2,0.2-0.3,0.4-0.3,0.6
			c-0.3-0.3-0.6-0.7-0.8-1.1c-0.1-0.2-0.1-0.6,0.1-0.8c0.3-0.3,0.6-0.6,1-0.9c0,0,0,0,0.1,0c1.4-1.4,2.8-2.9,4.2-4.4
			c1.5-1.4,2.9-2.8,4.4-4.2c0,0,0,0,0-0.1c0.2-0.4,0.6-0.7,0.9-1c0.2-0.2,0.5-0.2,0.8-0.1c0.6,0.3,1.2,0.8,1.5,1.4
			c0.1,0.3,0.1,0.7,0.1,1c-0.1,7.6,9.8,16.2,17.1,14c0,0,0,0,0.1,0C425.6,299.8,430.8,304.2,435.4,308.8z"/>
		<path class="st3" d="M414.5,301.9c2.8,5.4,8.4,9.7,12.7,14c5,5,10,9.7,15.7,13.8c0.3,0.2,0.7-0.2,0.5-0.5
			c-3.8-5.1-8-9.7-12.4-14.1c-4.7-4.7-9.6-11-15.6-14.1C414.8,300.7,414.2,301.3,414.5,301.9z"/>
		<path class="st3" d="M410.4,305.9c2.8,5.4,8.4,9.7,12.7,14c5,5,10,9.7,15.7,13.8c0.3,0.2,0.7-0.2,0.5-0.5
			c-3.8-5.1-8-9.7-12.4-14.1c-4.7-4.7-9.6-11-15.6-14.1C410.7,304.8,410.1,305.3,410.4,305.9z"/>
		<path class="st3" d="M418.5,297.8c2.8,5.4,8.4,9.7,12.7,14c5,5,10,9.7,15.7,13.8c0.3,0.2,0.7-0.2,0.5-0.5
			c-3.8-5.1-8-9.7-12.4-14.1c-4.7-4.7-9.6-11-15.6-14.1C418.8,296.7,418.2,297.2,418.5,297.8z"/>
	</g>
</g>
<g class="st1">
	<g>
		<path class="st2" d="M595.8,333.2c2.8,0.9,4.8,3.8,7.2,5.2c-0.2-1.4,0-2.8,0.7-4.1c2.7-4.7,7.9-7,8.4-12.8
			c0.4-5.9-0.2-12.3,5.7-14.6c-4.4-3.8-13.6-3.7-14.3-10.2c-4.6,1.3-8.3-3.5-10.6-7.1c-2.5-4-5.1-7.5-9-10.3
			c-1.1-0.8-6.6-4.7-7.3-1.9c-0.7,2.7-0.9,5.6-1.2,8.3c-1,8.6-2.1,18.5-0.4,27.1c1,5.3,10.3,9.4,8.4,15.5c0,0,0,0,0,0
			C586.7,331.9,591.4,331.8,595.8,333.2z M589.8,300.5c2.6-3.2,7-3.9,10.5-2.2c0.7,0.3,1.3,0.9,1.7,1.4c0,0,0.1,0.1,0.1,0.1
			c3,3.3-0.6,8.9-2.3,11.8c-2.7,4.6,0,9.9-3.1,14.3c-2.2,3-6.4,2.3-9.1,0.6C579.5,321.3,585.3,306.1,589.8,300.5z"/>
		<path class="st2" d="M483.8,234.3c0.9,0,2.1,0.5,2.9,1.2c0.8,0.7,1.2,2,1.2,2.9c0,0.3-0.1,0.7-0.2,1c0.3-0.1,0.7-0.2,1-0.2
			c0.9,0,2.1,0.5,2.9,1.2c0.8,0.7,1.2,2,1.2,2.9c0,0.3-0.1,0.7-0.2,1c0.3-0.1,0.7-0.2,1-0.2c0.9,0,2.1,0.5,2.9,1.2
			c0.8,0.7,1.2,2,1.2,2.9c0,0.3-0.1,0.7-0.2,1c0.3-0.1,0.7-0.2,1-0.2c0.9,0,2.1,0.5,2.9,1.2c0.8,0.7,1.2,2,1.2,2.9
			c0,0.3-0.1,0.7-0.2,1c0.3-0.1,0.7-0.2,1-0.2c0.9,0,2.1,0.5,2.9,1.2c0.8,0.7,1.2,2,1.2,2.9c0,0.3-0.1,0.7-0.2,1
			c0.3-0.1,0.7-0.2,1-0.2c0.9,0,2.1,0.5,2.9,1.2c0.8,0.7,1.2,2,1.2,2.9c0,0.3-0.1,0.7-0.2,1c0.3-0.1,0.7-0.2,1-0.2
			c0.9,0,2.1,0.5,2.9,1.2c0.8,0.7,1.2,2,1.2,2.9c0,0.3-0.1,0.7-0.2,1c0.3-0.1,0.7-0.2,1-0.2c0.9,0,2.1,0.5,2.9,1.2
			c0.8,0.7,1.2,2,1.2,2.9c0,0.3-0.1,0.7-0.2,1c0.3-0.1,0.7-0.2,1-0.2c0.9,0,2.1,0.5,2.9,1.2c0.8,0.7,1.2,2,1.2,2.9
			c0,0.3-0.1,0.7-0.2,1c0.3-0.1,0.7-0.2,1-0.2c0.9,0,2.1,0.5,2.9,1.2c0.8,0.7,1.2,2,1.2,2.9c0,0.3-0.1,0.7-0.2,1
			c0.3-0.1,0.7-0.2,1-0.2c0.9,0,2.1,0.5,2.9,1.2c0.8,0.7,1.2,2,1.2,2.9c0,0.3-0.1,0.7-0.2,1c0.3-0.1,0.7-0.2,1-0.2
			c0.9,0,2.1,0.5,2.9,1.2c0.8,0.7,1.2,2,1.2,2.9c0,0.3-0.1,0.7-0.2,1c0.3-0.1,0.7-0.2,1-0.2c0.9,0,2.1,0.5,2.9,1.2
			c0.8,0.7,1.2,2,1.2,2.9c0,0.3-0.1,0.7-0.2,1c0.3-0.1,0.7-0.2,1-0.2c0.9,0,2.1,0.5,2.9,1.2c0.8,0.7,1.2,2,1.2,2.9
			c0,0.3-0.1,0.7-0.2,1c0.3-0.1,0.7-0.2,1-0.2c0.9,0,2.1,0.5,2.9,1.2c0.8,0.7,1.2,2,1.2,2.9c0,0.3-0.1,0.7-0.2,1
			c0.3-0.1,0.7-0.2,1-0.2c0.9,0,2.1,0.5,2.9,1.2c0.8,0.7,1.2,2,1.2,2.9c0,0.3-0.1,0.7-0.2,1c0.3-0.1,0.7-0.2,1-0.2
			c0.9,0,2.1,0.5,2.9,1.2c0.8,0.7,1.2,2,1.2,2.9c0,0.3-0.1,0.7-0.2,1c0.3-0.1,0.7-0.2,1-0.2c0.9,0,2.1,0.5,2.9,1.2
			c0.8,0.7,1.2,2,1.2,2.9c0,0.3-0.1,0.7-0.2,1c0.3-0.1,0.7-0.2,1-0.2c0.2,0,0.5,0,0.8,0.1c0.4-0.6,0.9-1,1.5-1.5
			c0.5-0.4,1-0.9,1.5-1.2c-0.7-0.8-1.3-1.6-2-2.5c-2.3-3.1-2.9-6-3.1-9.8c-0.4-9.5,0.4-19,1.8-28.4c0.2-1.1,0.2-3.6,1-5.1
			c-15.7-8.6-30.6-18.8-45.8-28.3c-7.8-4.9-15.7-9.8-23.5-14.7c-6.9-4.3-14.5-8.3-20.9-13.5c-1.1,1.7-2.7,3.1-4.1,4.5
			c-0.9,0.9-1.9,2.1-3,2.8c0.7,0.7,1.1,1.9,1.1,2.7c0,0.3-0.1,0.7-0.2,1c0.3-0.1,0.7-0.2,1-0.2c0.9,0,2.1,0.5,2.9,1.2
			c0.8,0.7,1.2,2,1.2,2.9c0,0.3-0.1,0.7-0.2,1C483.1,234.3,483.5,234.3,483.8,234.3z M482.4,226.4c0.1-1.6,1.1-3,2.6-3.4
			c0.5-0.1,1-0.2,1.4-0.1c1-0.1,2.1,0.3,2.9,1c2.2,2,1.7,5.6-1.1,6.9C485.4,232,482.2,229.5,482.4,226.4z"/>
	</g>
	<g>
		<path class="st3" d="M587.7,326.5c2.7,1.7,6.9,2.5,9.1-0.6c3.2-4.4,0.4-9.7,3.1-14.3c1.7-2.9,5.3-8.4,2.3-11.8
			c0,0-0.1-0.1-0.1-0.1c-0.4-0.6-1-1.1-1.7-1.4c-3.5-1.8-8-1-10.5,2.2C585.3,306.1,579.5,321.3,587.7,326.5z M589.6,306.7
			c0.8-1.6,3.4-5.7,6.2-6.5c4.5,1.4,5.5,3.8,3,7.3c-0.5,0.9-1,1.8-1.6,2.7c-0.7,1.4-1.2,2.6-1.6,4.1c-0.7,2.5,1.5,10.1-2.6,10.6
			C583.5,326.1,587.6,310.7,589.6,306.7z"/>
		<path class="st3" d="M483.9,236.3c0.5,0.1,1,0.3,1.4,0.6c0.3,0.5,0.5,0.9,0.6,1.4c0.2,1.1,0,2.2-0.4,3.2c0,0,0,0.1,0,0.1
			c0,0,0,0,0.1,0c1-0.3,2.1-0.6,3.2-0.4c0.5,0.1,1,0.3,1.4,0.6c0.3,0.5,0.5,0.9,0.6,1.4c0.2,1.1,0,2.2-0.4,3.2c0,0,0,0.1,0,0.1
			c0,0,0,0,0.1,0c1-0.3,2.1-0.6,3.2-0.4c0.5,0.1,1,0.3,1.4,0.6c0.3,0.5,0.5,0.9,0.6,1.4c0.2,1.1,0,2.2-0.4,3.2c0,0,0,0.1,0,0.1
			c0,0,0,0,0.1,0c1-0.3,2.1-0.6,3.2-0.4c0.5,0.1,1,0.3,1.4,0.6c0.3,0.5,0.5,0.9,0.6,1.4c0.2,1.1,0,2.2-0.4,3.2c0,0,0,0.1,0,0.1
			c0,0,0,0,0.1,0c1-0.3,2.1-0.6,3.2-0.4c0.5,0.1,1,0.3,1.4,0.6c0.3,0.5,0.5,0.9,0.6,1.4c0.2,1.1,0,2.2-0.4,3.2c0,0,0,0.1,0,0.1
			c0,0,0,0,0.1,0c1-0.3,2.1-0.6,3.2-0.4c0.5,0.1,1,0.3,1.4,0.6c0.3,0.5,0.5,0.9,0.6,1.4c0.2,1.1,0,2.2-0.4,3.2c0,0,0,0.1,0,0.1
			c0,0,0,0,0.1,0c1-0.3,2.1-0.6,3.2-0.4c0.5,0.1,1,0.3,1.4,0.6c0.3,0.5,0.5,0.9,0.6,1.4c0.2,1.1,0,2.2-0.4,3.2c0,0,0,0.1,0,0.1
			c0,0,0,0,0.1,0c1-0.3,2.1-0.6,3.2-0.4c0.5,0.1,1,0.3,1.4,0.6c0.3,0.5,0.5,0.9,0.6,1.4c0.2,1.1,0,2.2-0.4,3.2c0,0,0,0.1,0,0.1
			c0,0,0,0,0.1,0c1-0.3,2.1-0.6,3.2-0.4c0.5,0.1,1,0.3,1.4,0.6c0.3,0.5,0.5,0.9,0.6,1.4c0.2,1.1,0,2.2-0.4,3.2c0,0,0,0.1,0,0.1
			c0,0,0,0,0.1,0c1-0.3,2.1-0.6,3.2-0.4c0.5,0.1,1,0.3,1.4,0.6c0.3,0.5,0.5,0.9,0.6,1.4c0.2,1.1,0,2.2-0.4,3.2c0,0,0,0.1,0,0.1
			c0,0,0,0,0.1,0c1-0.3,2.1-0.6,3.2-0.4c0.5,0.1,1,0.3,1.4,0.6c0.3,0.5,0.5,0.9,0.6,1.4c0.2,1.1,0,2.2-0.4,3.2c0,0,0,0.1,0,0.1
			c0,0,0,0,0.1,0c1-0.3,2.1-0.6,3.2-0.4c0.5,0.1,1,0.3,1.4,0.6c0.3,0.5,0.5,0.9,0.6,1.4c0.2,1.1,0,2.2-0.4,3.2c0,0,0,0.1,0,0.1
			c0,0,0,0,0.1,0c1-0.3,2.1-0.6,3.2-0.4c0.5,0.1,1,0.3,1.4,0.6c0.3,0.5,0.5,0.9,0.6,1.4c0.2,1.1,0,2.2-0.4,3.2c0,0,0,0.1,0,0.1
			c0,0,0,0,0.1,0c1-0.3,2.1-0.6,3.2-0.4c0.5,0.1,1,0.3,1.4,0.6c0.3,0.5,0.5,0.9,0.6,1.4c0.2,1.1,0,2.2-0.4,3.2c0,0,0,0.1,0,0.1
			c0,0,0,0,0.1,0c1-0.3,2.1-0.6,3.2-0.4c0.5,0.1,1,0.3,1.4,0.6c0.3,0.5,0.5,0.9,0.6,1.4c0.2,1.1,0,2.2-0.4,3.2c0,0,0,0.1,0,0.1
			c0,0,0,0,0.1,0c1-0.3,2.1-0.6,3.2-0.4c0.5,0.1,1,0.3,1.4,0.6c0.3,0.5,0.5,0.9,0.6,1.4c0.2,1.1,0,2.2-0.4,3.2c0,0,0,0.1,0,0.1
			c0,0,0,0,0.1,0c1-0.3,2.1-0.6,3.2-0.4c0.5,0.1,1,0.3,1.4,0.6c0.3,0.5,0.5,0.9,0.6,1.4c0.2,1.1,0,2.2-0.4,3.2c0,0,0,0.1,0,0.1
			c0,0,0,0,0.1,0c1-0.3,2.1-0.6,3.2-0.4c0.5,0.1,1,0.3,1.4,0.6c0.3,0.5,0.5,0.9,0.6,1.4c0.2,1.1,0,2.2-0.4,3.2c0,0,0,0.1,0,0.1
			c0,0,0,0,0.1,0c0.9-0.3,1.8-0.5,2.8-0.4c0,0,0,0,0,0c0.2,0.1,0.4,0.1,0.5,0.2c0.4,0.1,0.8,0.3,1.2,0.2c0.5-0.1,1.2-0.4,1.5-0.8
			c0.4-0.3,0.8-0.7,1.2-1.1c0.4-0.4,0.9-0.8,1.2-1.2c1.4,1.8,2.6,3.7,3,6.5c-0.1,0.3-0.1,0.7,0.2,1c3.2,4.4,7.5,4.3,12.4,5.8
			c4.6,1.4,6.9,6.2,11.9,6.5c1.2,0.1,2-1.4,1.4-2.3c-3.4-5.4,7.3-10.2,8.1-15.6c0.8-5.4-1.7-13.9,5.8-15.2c0.9-0.2,1.4-1.4,0.9-2.2
			c-3.9-6.5-13-5-16.6-11.6c-0.1-0.2-0.3-0.4-0.5-0.4c-0.1-0.1-0.2-0.2-0.4-0.2c-6.3-1.4-7.9-5.9-11.2-10.8
			c-1.9-2.9-4.7-5.4-7.7-7.2c-2.8-1.7-6-3.8-9.3-3.1c-14.8-10.5-30.7-19.7-46.1-29.4c-7.8-4.9-15.6-9.8-23.5-14.7
			c-7.1-4.5-14.3-9.8-22-13.2c-0.5-0.2-1,0-1.3,0.4c-0.1,0-0.2,0.1-0.3,0.1c-2,1.2-3.7,3.2-5.3,4.9c-1.2,1.2-2.6,2.3-2.7,4
			c0,0.1,0.1,0.3,0.1,0.4c0.1,0.3,0.3,0.6,0.5,0.9c0.3,0.5,0.5,1,0.6,1.5c0.2,1.1,0,2.2-0.4,3.2c0,0,0,0.1,0,0.1c0,0,0,0,0.1,0
			c1-0.3,2.1-0.6,3.2-0.4c0.5,0.1,1,0.3,1.4,0.6c0.3,0.5,0.5,0.9,0.6,1.4c0.2,1.1,0,2.2-0.4,3.2c0,0,0,0.1,0,0.1c0,0,0,0,0.1,0
			C481.7,236.3,482.8,236.1,483.9,236.3z M575,312.7c-1.7-8.6-0.6-18.5,0.4-27.1c0.3-2.7,0.5-5.7,1.2-8.3c0.7-2.8,6.2,1.1,7.3,1.9
			c3.8,2.8,6.5,6.3,9,10.3c2.2,3.6,5.9,8.4,10.6,7.1c0.8,6.5,10,6.4,14.3,10.2c-5.8,2.3-5.2,8.8-5.7,14.6c-0.4,5.9-5.7,8.2-8.4,12.8
			c-0.7,1.3-0.9,2.7-0.7,4.1c-2.5-1.4-4.5-4.3-7.2-5.2c-4.4-1.3-9.1-1.3-12.3-5c0,0,0,0,0,0C585.3,322.1,576,318,575,312.7z
			 M482.8,234.4c0.1-0.3,0.2-0.7,0.2-1c0-0.9-0.5-2.1-1.2-2.9c-0.7-0.8-2-1.2-2.9-1.2c-0.3,0-0.7,0.1-1,0.2c0.1-0.3,0.2-0.7,0.2-1
			c0-0.8-0.4-2-1.1-2.7c1.2-0.7,2.1-1.9,3-2.8c1.4-1.4,3-2.8,4.1-4.5c6.4,5.2,14,9.2,20.9,13.5c7.8,4.9,15.7,9.8,23.5,14.7
			c15.2,9.5,30.1,19.6,45.8,28.3c-0.8,1.6-0.9,4-1,5.1c-1.4,9.4-2.2,18.9-1.8,28.4c0.2,3.8,0.8,6.7,3.1,9.8c0.7,0.9,1.4,1.7,2,2.5
			c-0.6,0.3-1,0.8-1.5,1.2c-0.5,0.5-1.1,0.9-1.5,1.5c-0.3-0.1-0.6-0.1-0.8-0.1c-0.3,0-0.7,0.1-1,0.2c0.1-0.3,0.2-0.7,0.2-1
			c0-0.9-0.5-2.1-1.2-2.9c-0.7-0.8-2-1.2-2.9-1.2c-0.3,0-0.7,0.1-1,0.2c0.1-0.3,0.2-0.7,0.2-1c0-0.9-0.5-2.1-1.2-2.9
			c-0.7-0.8-2-1.2-2.9-1.2c-0.3,0-0.7,0.1-1,0.2c0.1-0.3,0.2-0.7,0.2-1c0-0.9-0.5-2.1-1.2-2.9c-0.7-0.8-2-1.2-2.9-1.2
			c-0.3,0-0.7,0.1-1,0.2c0.1-0.3,0.2-0.7,0.2-1c0-0.9-0.5-2.1-1.2-2.9c-0.7-0.8-2-1.2-2.9-1.2c-0.3,0-0.7,0.1-1,0.2
			c0.1-0.3,0.2-0.7,0.2-1c0-0.9-0.5-2.1-1.2-2.9c-0.7-0.8-2-1.2-2.9-1.2c-0.3,0-0.7,0.1-1,0.2c0.1-0.3,0.2-0.7,0.2-1
			c0-0.9-0.5-2.1-1.2-2.9c-0.7-0.8-2-1.2-2.9-1.2c-0.3,0-0.7,0.1-1,0.2c0.1-0.3,0.2-0.7,0.2-1c0-0.9-0.5-2.1-1.2-2.9
			c-0.7-0.8-2-1.2-2.9-1.2c-0.3,0-0.7,0.1-1,0.2c0.1-0.3,0.2-0.7,0.2-1c0-0.9-0.5-2.1-1.2-2.9c-0.7-0.8-2-1.2-2.9-1.2
			c-0.3,0-0.7,0.1-1,0.2c0.1-0.3,0.2-0.7,0.2-1c0-0.9-0.5-2.1-1.2-2.9c-0.7-0.8-2-1.2-2.9-1.2c-0.3,0-0.7,0.1-1,0.2
			c0.1-0.3,0.2-0.7,0.2-1c0-0.9-0.5-2.1-1.2-2.9c-0.7-0.8-2-1.2-2.9-1.2c-0.3,0-0.7,0.1-1,0.2c0.1-0.3,0.2-0.7,0.2-1
			c0-0.9-0.5-2.1-1.2-2.9c-0.7-0.8-2-1.2-2.9-1.2c-0.3,0-0.7,0.1-1,0.2c0.1-0.3,0.2-0.7,0.2-1c0-0.9-0.5-2.1-1.2-2.9
			c-0.7-0.8-2-1.2-2.9-1.2c-0.3,0-0.7,0.1-1,0.2c0.1-0.3,0.2-0.7,0.2-1c0-0.9-0.5-2.1-1.2-2.9c-0.7-0.8-2-1.2-2.9-1.2
			c-0.3,0-0.7,0.1-1,0.2c0.1-0.3,0.2-0.7,0.2-1c0-0.9-0.5-2.1-1.2-2.9c-0.7-0.8-2-1.2-2.9-1.2c-0.3,0-0.7,0.1-1,0.2
			c0.1-0.3,0.2-0.7,0.2-1c0-0.9-0.5-2.1-1.2-2.9c-0.7-0.8-2-1.2-2.9-1.2c-0.3,0-0.7,0.1-1,0.2c0.1-0.3,0.2-0.7,0.2-1
			c0-0.9-0.5-2.1-1.2-2.9c-0.7-0.8-2-1.2-2.9-1.2c-0.3,0-0.7,0.1-1,0.2c0.1-0.3,0.2-0.7,0.2-1c0-0.9-0.5-2.1-1.2-2.9
			c-0.7-0.8-2-1.2-2.9-1.2c-0.3,0-0.7,0.1-1,0.2c0.1-0.3,0.2-0.7,0.2-1c0-0.9-0.5-2.1-1.2-2.9c-0.7-0.8-2-1.2-2.9-1.2
			C483.5,234.3,483.1,234.3,482.8,234.4z"/>
		<path class="st3" d="M488.3,230.7c2.8-1.3,3.3-4.8,1.1-6.9c-0.8-0.7-1.9-1.1-2.9-1c-0.5-0.1-1,0-1.4,0.1c-1.5,0.5-2.5,1.9-2.6,3.4
			C482.2,229.5,485.4,232,488.3,230.7z M485.7,226.1c0.2-0.3,0.5-0.6,0.9-0.8c0.4,0,0.8,0.1,1,0.5c0.5,0.8,0.4,2-0.7,2.2
			C485.9,228.2,485.2,227,485.7,226.1z"/>
	</g>
</g>
<g class="st1">
	<g>
		<path class="st2" d="M174,433.9c-0.4-0.5-0.9-0.9-1.4-1.3c-0.1-0.1-0.2-0.2-0.3-0.3c0.1-0.1,0.2-0.2,0.3-0.3
			c0.3-0.3,0.6-0.5,0.9-0.8c0.8,1.1,2.5,1.6,3.6,2.2c0.1,0.1,0.2,0.1,0.4,0.2C176.3,433.6,175.1,433.7,174,433.9z"/>
		<path class="st2" d="M181.1,433.3c-0.9-0.7-2.2-1.1-3.1-1.5c-0.5-0.2-0.9-0.5-1.4-0.8c2.3,0.2,4.6,0.3,6.8,0.3
			c0.8,1,2.3,1.5,3.4,2C184.9,433.2,183,433.2,181.1,433.3z"/>
		<path class="st2" d="M193.7,433.4c-0.8,0-1.5,0-2.3-0.1c-1-0.7-2.4-1.1-3.4-1.5c-0.4-0.2-0.8-0.4-1.2-0.6c2.3,0,4.6-0.1,6.9-0.1
			c0,0,0,0,0,0c0.7,1.1,2.4,1.5,3.5,2c0.1,0,0.2,0.1,0.3,0.2C196.3,433.4,195,433.4,193.7,433.4z"/>
		<path class="st2" d="M201.4,433c-0.7-0.9-2.2-1.2-3.1-1.5c-0.2-0.1-0.4-0.2-0.6-0.3c2.4,0.1,4.9,0.4,7.3,0.5
			c0.6,0.5,1.5,0.8,2.1,1.1C205.3,432.8,203.4,432.9,201.4,433z"/>
		<path class="st2" d="M213.1,432.9c0,0.1,0,0.3,0,0.4c-0.8-0.2-1.7-0.3-2.6-0.4c-0.5-0.6-1.3-0.9-2-1.2c1.6,0,3.1-0.2,4.6-0.5
			C213.2,431.8,213.1,432.4,213.1,432.9z"/>
		<path class="st2" d="M220.8,435.8c0,1,0,2,0.1,2.9c0,0.6,0,1.1,0,1.7c-2.1-0.9-4.1-2-6.3-2.5c0,0,0,0-0.1,0c0.4-1.2,0.2-2.6,0.3-4
			c0.1-2.5,0.1-4.9,0.1-7.4c2.1-0.5,4-1.5,6-2.4c0.1,2.7-0.2,5.5,0,8.1C220.8,433.4,220.8,434.6,220.8,435.8z"/>
		<path class="st2" d="M239.6,430c-0.3,2.9-0.5,5.8-0.2,8.6c-0.1,0.8-0.2,1.6-0.1,2.4c-0.7-0.2-1.5-0.3-2.3-0.4
			c0.6-1.5,0.3-3.4,0.3-5c0.1-2.2,0-4.7-0.5-6.9c-0.1-0.2-0.4-0.2-0.5,0c-0.6,2.2-0.6,4.6-0.8,6.9c-0.1,1.5-0.4,3.4,0.1,5
			c-1.9,0-3.8,0.2-5.6,0.3c-1.5,0-3.1,0-4.6,0.1c0.8-3.8,0.3-8.4-0.8-11.9c0-0.1-0.2-0.1-0.2,0c-0.3,2-0.2,4.1-0.3,6.1
			c-0.1,2-0.4,4-0.3,6c-0.3,0-0.6,0.1-0.9,0.2c0.2-2.2,0.4-4.8,0-7.1c0-0.5,0-0.9,0-1.4c0-0.9,0-1.8,0.1-2.7
			c0.3-2.3,0.2-4.7-0.1-6.8c2.3,0.5,4.9,0.3,7.2,0.4c2.3,0.1,5,0.5,7.5,0.2c0.7,0.1,1.5,0.1,2.2,0.1
			C239.7,425.9,239.6,428,239.6,430z"/>
		<path class="st2" d="M262,444.2c-3-0.4-6.2,0.3-9.3-0.1c-3.5-0.4-6.8-1.7-10.2-2.4c-0.3-0.2-0.6-0.4-0.9-0.6
			c0.1-0.7-0.1-1.3-0.1-2c0,0,0-0.1,0-0.1c0-0.6,0-1.1,0-1.7c0.2-2.5,0.1-5-0.1-7.5c0.1-2.2,0.3-4.4,0.2-6.6
			c0.2-0.1,0.4-0.2,0.6-0.3c3.5-0.6,6.8-2,10.4-2.4c3.2-0.4,6.4,0.4,9.5-0.1C261.4,427.8,261.2,436.6,262,444.2z"/>
		<path class="st2" d="M263.8,444.8c0.9-7.8,0.8-16.9-0.2-24.7c0-0.2-0.1-0.3-0.2-0.4c0,0,0,0,0,0c0.7-0.3,1.3-1,1.9-1.4
			c0,4.4,3.6,7.9,8.1,8.3c10.2,0.9,20.2,2.7,30.4,3.5c0.2,0,0.3-0.3,0.1-0.4c-5.5-2.4-11.3-3.4-17.3-4.2c-6.8-0.9-17.6,1-19.3-7.3
			c5.5,1.1,12.2,0.3,17.6,0.4c5.7,0.1,11.8,0.7,17.5,0.1c9.9,2.9,13.3,16.6,7.7,25.6c-5.5-1.4-4.5-7.6-3.9-11.8
			c0-0.2-0.2-0.4-0.4-0.2c-3.1,3.1-3.2,10.6,0.4,13.3c-3.9,0.7-7.4,3-9.6,6.3c-3.4,5,0.9,12.2,2.3,17.1c1.7,6.2,1.1,12.4,1.6,18.6
			c-8.9,2-13.7-14.1-15.4-20.2c-1.4-5.1-0.2-9.1,2-13.7c1.3-2.7,1.8-5.2,1.3-8.1c-0.9-5.1-7.9-6-11.9-5.8c-4.7,0.2-9.6,2.7-12.6,6.5
			C264,445.8,263.9,445.3,263.8,444.8z"/>
		<path class="st2" d="M274.3,465.9c-1.4,0.6-3.2,0.4-5.2-0.2c-3-1-0.3-4.5-0.2-6.2c0.1-1.3,0-4.2-1.1-5.8c2.1,0.2,4,1.1,5.8,2.8
			C276.3,459,277,463.5,274.3,465.9z"/>
		<path class="st2" d="M306.8,522.5c-0.3,3.8,0.6,13.4-4.9,13.6c-4.9,0.2-9.9,0-14.8,0c-9.3,0-18.5-0.1-27.8,0
			c-5.4,0.1-4.8-13.4-3.9-22.2c8.2,1.3,16.8,1,25,1.1c8.9,0,18,0,26.8-0.9C307.2,516.9,307,519.7,306.8,522.5z"/>
		<path class="st2" d="M307.3,511.8c-8.3,0.1-16.7,0.6-25,0.5c-8.8-0.1-17.8-0.8-26.7-0.5c0.1-1.4,0.3-2.7,0.4-3.6
			c2-3,7.7-3.7,10.6-4.6c3.7-1.2,7.4-2.2,10.9-3.7c3.2-1.3,7-4.8,6.2-8.8c-0.5-2.2-1.5-3.8-2.8-5.6c-2.7-3.6-2.2-7.2-2.3-11.4
			c0-2.4-1-4.6-2.6-5.9c2-1.7,2.7-6,2.2-8.4c-1.3-6.4-8-9.2-13.8-8.1c0-1-0.1-2-0.2-3c2.6-2.7,5.1-4.9,8.8-6.2
			c4.2-1.5,12.6-1.6,13.2,4.7c0.3,3.5-2.7,7.3-3.9,10.6c-1.2,3.3-0.5,7,0.2,10.3c1.5,6.6,4.4,13.7,9.2,18.6c2,2.1,6.3,4.7,9.2,3.4
			c0,0.1,0,0.1,0,0.2c0.4,3,3.2,6,6.2,5.7C307.3,501.3,307.4,506.5,307.3,511.8z"/>
		<path class="st2" d="M310.5,505.2c-0.2,0-0.3,0-0.5,0.1c-0.1-2.2-0.2-4.4-0.4-6.7c1.2-0.1,2-0.1,2,1.4c0,1.1,0,2.3,0.1,3.4
			C311.7,504.6,311.8,505.3,310.5,505.2z"/>
	</g>
	<g>
		<path class="st3" d="M312.9,497.3c-1-0.9-2.2-1-3.5-0.7c-0.1-0.5-0.1-1-0.1-1.5c0.1-0.4,0-0.9-0.5-1c-0.1,0-0.1,0-0.2,0
			c-0.2-0.1-0.3-0.1-0.5-0.1c-5.6-1.5-4.8-6.8-4.7-11.7c0.1-4.2-0.5-8.3-1.3-12.4c-0.9-4.5-3.4-8.7-3.8-13.3
			c-0.6-6.7,7.5-7.8,11.8-9.9c0.1,0,0.3,0,0.4-0.1c6.5-4.2,5.3-15.5,2.8-21.6c-2-4.9-7.2-8.7-12.4-8.5c-5.2-0.6-10.7-0.3-15.8-0.4
			c-6.2-0.1-14.1-1.6-20,0.2c-0.1,0-0.1,0-0.2,0.1c-0.3,0-0.5,0.1-0.7,0.3c-0.6,0.5-1.5,1.1-1.9,1.9c-5.7-2.4-16.5-0.3-20.9,3.1
			c0,0-0.1,0.1-0.1,0.1c0,0,0,0-0.1,0.1c0,0-0.1,0-0.1,0c0,0,0,0,0,0c-0.3,0-0.5-0.1-0.8-0.1c-0.1,0-0.1,0-0.2,0
			c-2.9-0.4-6-0.4-9.1-0.2c-1,0-1.9-0.1-2.9-0.1c-2.2-0.3-4.5-0.1-6.5,0.2c-0.1,0-0.2,0.1-0.2,0.1c-2.5,1-5.2,1.7-7.5,3.2
			c-0.1,0.1-0.2,0.2-0.3,0.2c-0.2,0.1-0.4,0.4-0.4,0.7c0,1.5,0,2.9,0,4.4c-5.5-1.4-12-0.4-17.6-0.5c-7.2-0.1-14.5-1-21.7-0.3
			c-0.2-0.2-0.6-0.3-0.9,0c-0.5,0.4-1,0.8-1.5,1.3c-0.5,0.4-0.9,0.8-1,1.4c0,0,0,0,0,0.1c0,0,0,0.1,0,0.1c0,0,0,0,0,0c0,0,0,0,0,0
			c0,0,0,0.1,0,0.1c0,0,0,0,0,0.1c0.1,0.6,0.6,1,1,1.4c0.5,0.4,0.9,0.9,1.5,1.3c0.3,0.2,0.6,0.2,0.9,0c7.2,0.7,14.4-0.2,21.7-0.3
			c5.6-0.1,12.1,0.9,17.6-0.5c0,1-0.1,1.9,0.1,2.9c0,0.5,0,1,0.1,1.5c0,0.1,0.1,0.2,0.1,0.3c0,0.2,0.2,0.5,0.4,0.7
			c2.3,1.4,5,2.2,7.5,3.2c0,0.1,0.1,0.1,0.2,0.1c2,0.3,4.3,0.5,6.5,0.2c1.2,0,2.4-0.1,3.6-0.1c2.9,0,5.9,0.5,8.6-0.7
			c0.6,0.4,1.3,0.8,2,1.1c4.9,3,14.7,4.7,20,2.5c-0.1,2.4,0.1,4.8,0.2,7.2c0,0.7,0.7,1.2,1.3,1c0.6-0.2,1.3-0.3,1.9-0.4
			c0.1,0.2,0.2,0.4,0.3,0.6c1.2,2.2,1.3,4.7,0.3,7.1c-0.9,2-1.6,4,0.7,5.4c1.3,0.8,3.3,1.6,5.1,1.7c0,0,0.1,0,0.1,0.1
			c6.5,1.5,2.4,10.8,4.6,15.2c0.9,1.9,2.2,3.4,3.4,5.1c3.7,5-2.2,8.4-5.8,9.7c-5.5,1.9-11.1,3.5-16.5,5.5c-2.2,0.8-4,2.4-3.7,4.6
			c-1.1,4.8-1.3,9.6-1.3,14.5c0,4.1-0.4,10.7,2.2,14.1c1.9,2.4,7.4,1.5,9.8,1.5c6.8,0,13.6,0,20.4,0c6,0,12,0.2,18,0
			c4-0.1,4.6-3.5,5.1-6.7c1.2-8.1,1.8-16.4,1.6-24.6c1.1,0.2,2.4,0.4,3.3-0.5c1.2-1.2,0.6-3.5,0.6-4.9
			C313.8,500.7,314,498.3,312.9,497.3z M174,433.9c-0.4-0.5-0.9-0.9-1.4-1.3c-0.1-0.1-0.2-0.2-0.3-0.3c0.1-0.1,0.2-0.2,0.3-0.3
			c0.3-0.3,0.6-0.5,0.9-0.8c0.8,1.1,2.5,1.6,3.6,2.2c0.1,0.1,0.2,0.1,0.4,0.2C176.3,433.6,175.1,433.7,174,433.9z M181.1,433.3
			c-0.9-0.7-2.2-1.1-3.1-1.5c-0.5-0.2-0.9-0.5-1.4-0.8c2.3,0.2,4.6,0.3,6.8,0.3c0.8,1,2.3,1.5,3.4,2
			C184.9,433.2,183,433.2,181.1,433.3z M193.7,433.4c-0.8,0-1.5,0-2.3-0.1c-1-0.7-2.4-1.1-3.4-1.5c-0.4-0.2-0.8-0.4-1.2-0.6
			c2.3,0,4.6-0.1,6.9-0.1c0,0,0,0,0,0c0.7,1.1,2.4,1.5,3.5,2c0.1,0,0.2,0.1,0.3,0.2C196.3,433.4,195,433.4,193.7,433.4z M201.4,433
			c-0.7-0.9-2.2-1.2-3.1-1.5c-0.2-0.1-0.4-0.2-0.6-0.3c2.4,0.1,4.9,0.4,7.3,0.5c0.6,0.5,1.5,0.8,2.1,1.1
			C205.3,432.8,203.4,432.9,201.4,433z M213.1,432.9c0,0.1,0,0.3,0,0.4c-0.8-0.2-1.7-0.3-2.6-0.4c-0.5-0.6-1.3-0.9-2-1.2
			c1.6,0,3.1-0.2,4.6-0.5C213.2,431.8,213.1,432.4,213.1,432.9z M220.8,435.8c0,1,0,2,0.1,2.9c0,0.6,0,1.1,0,1.7
			c-2.1-0.9-4.1-2-6.3-2.5c0,0,0,0-0.1,0c0.4-1.2,0.2-2.6,0.3-4c0.1-2.5,0.1-4.9,0.1-7.4c2.1-0.5,4-1.5,6-2.4c0.1,2.7-0.2,5.5,0,8.1
			C220.8,433.4,220.8,434.6,220.8,435.8z M239.6,430c-0.3,2.9-0.5,5.8-0.2,8.6c-0.1,0.8-0.2,1.6-0.1,2.4c-0.7-0.2-1.5-0.3-2.3-0.4
			c0.6-1.5,0.3-3.4,0.3-5c0.1-2.2,0-4.7-0.5-6.9c-0.1-0.2-0.4-0.2-0.5,0c-0.6,2.2-0.6,4.6-0.8,6.9c-0.1,1.5-0.4,3.4,0.1,5
			c-1.9,0-3.8,0.2-5.6,0.3c-1.5,0-3.1,0-4.6,0.1c0.8-3.8,0.3-8.4-0.8-11.9c0-0.1-0.2-0.1-0.2,0c-0.3,2-0.2,4.1-0.3,6.1
			c-0.1,2-0.4,4-0.3,6c-0.3,0-0.6,0.1-0.9,0.2c0.2-2.2,0.4-4.8,0-7.1c0-0.5,0-0.9,0-1.4c0-0.9,0-1.8,0.1-2.7
			c0.3-2.3,0.2-4.7-0.1-6.8c2.3,0.5,4.9,0.3,7.2,0.4c2.3,0.1,5,0.5,7.5,0.2c0.7,0.1,1.5,0.1,2.2,0.1
			C239.7,425.9,239.6,428,239.6,430z M262,444.2c-3-0.4-6.2,0.3-9.3-0.1c-3.5-0.4-6.8-1.7-10.2-2.4c-0.3-0.2-0.6-0.4-0.9-0.6
			c0.1-0.7-0.1-1.3-0.1-2c0,0,0-0.1,0-0.1c0-0.6,0-1.1,0-1.7c0.2-2.5,0.1-5-0.1-7.5c0.1-2.2,0.3-4.4,0.2-6.6
			c0.2-0.1,0.4-0.2,0.6-0.3c3.5-0.6,6.8-2,10.4-2.4c3.2-0.4,6.4,0.4,9.5-0.1C261.4,427.8,261.2,436.6,262,444.2z M263.8,444.8
			c0.9-7.8,0.8-16.9-0.2-24.7c0-0.2-0.1-0.3-0.2-0.4c0,0,0,0,0,0c0.7-0.3,1.3-1,1.9-1.4c0,4.4,3.6,7.9,8.1,8.3
			c10.2,0.9,20.2,2.7,30.4,3.5c0.2,0,0.3-0.3,0.1-0.4c-5.5-2.4-11.3-3.4-17.3-4.2c-6.8-0.9-17.6,1-19.3-7.3
			c5.5,1.1,12.2,0.3,17.6,0.4c5.7,0.1,11.8,0.7,17.5,0.1c9.9,2.9,13.3,16.6,7.7,25.6c-5.5-1.4-4.5-7.6-3.9-11.8
			c0-0.2-0.2-0.4-0.4-0.2c-3.1,3.1-3.2,10.6,0.4,13.3c-3.9,0.7-7.4,3-9.6,6.3c-3.4,5,0.9,12.2,2.3,17.1c1.7,6.2,1.1,12.4,1.6,18.6
			c-8.9,2-13.7-14.1-15.4-20.2c-1.4-5.1-0.2-9.1,2-13.7c1.3-2.7,1.8-5.2,1.3-8.1c-0.9-5.1-7.9-6-11.9-5.8c-4.7,0.2-9.6,2.7-12.6,6.5
			C264,445.8,263.9,445.3,263.8,444.8z M274.3,465.9c-1.4,0.6-3.2,0.4-5.2-0.2c-3-1-0.3-4.5-0.2-6.2c0.1-1.3,0-4.2-1.1-5.8
			c2.1,0.2,4,1.1,5.8,2.8C276.3,459,277,463.5,274.3,465.9z M306.8,522.5c-0.3,3.8,0.6,13.4-4.9,13.6c-4.9,0.2-9.9,0-14.8,0
			c-9.3,0-18.5-0.1-27.8,0c-5.4,0.1-4.8-13.4-3.9-22.2c8.2,1.3,16.8,1,25,1.1c8.9,0,18,0,26.8-0.9
			C307.2,516.9,307,519.7,306.8,522.5z M307.3,511.8c-8.3,0.1-16.7,0.6-25,0.5c-8.8-0.1-17.8-0.8-26.7-0.5c0.1-1.4,0.3-2.7,0.4-3.6
			c2-3,7.7-3.7,10.6-4.6c3.7-1.2,7.4-2.2,10.9-3.7c3.2-1.3,7-4.8,6.2-8.8c-0.5-2.2-1.5-3.8-2.8-5.6c-2.7-3.6-2.2-7.2-2.3-11.4
			c0-2.4-1-4.6-2.6-5.9c2-1.7,2.7-6,2.2-8.4c-1.3-6.4-8-9.2-13.8-8.1c0-1-0.1-2-0.2-3c2.6-2.7,5.1-4.9,8.8-6.2
			c4.2-1.5,12.6-1.6,13.2,4.7c0.3,3.5-2.7,7.3-3.9,10.6c-1.2,3.3-0.5,7,0.2,10.3c1.5,6.6,4.4,13.7,9.2,18.6c2,2.1,6.3,4.7,9.2,3.4
			c0,0.1,0,0.1,0,0.2c0.4,3,3.2,6,6.2,5.7C307.3,501.3,307.4,506.5,307.3,511.8z M310.5,505.2c-0.2,0-0.3,0-0.5,0.1
			c-0.1-2.2-0.2-4.4-0.4-6.7c1.2-0.1,2-0.1,2,1.4c0,1.1,0,2.3,0.1,3.4C311.7,504.6,311.8,505.3,310.5,505.2z"/>
		<path class="st3" d="M282.3,449.9c-0.1-1.6-1.1-2.9-2.3-3.8c-1.2-0.9-3-0.9-4.4-0.3c-1.4,0.7-2.1,1.7-2.1,3.3c0,0.1,0,0.2,0.1,0.3
			c0.1,3.3,4.2,5.5,7.1,4.2C282,453,282.4,451.1,282.3,449.9z M276.2,450.3c-0.5-0.7-0.5-1.8,0.4-2.1c0.4-0.1,1.1-0.1,1.4-0.1
			c0.1,0,0.2,0,0.3-0.1c0.9,0.2,1.5,0.9,1.6,2.2C280.1,452.6,277,451.4,276.2,450.3z"/>
	</g>
</g>
<g class="st1">
	<g>
		<path class="st2" d="M46.7,425.2c1.5,0.7,3.3,1.1,5,1.2c4.5,0.3,8.9-0.4,13.4-0.6c7-0.3,12.7,3.2,17.9,7.6c0,0.2,0,0.5,0.2,0.7
			c1.6,1.9,3.3,3.8,5,5.6c-2.1,3.3-3.3,7-5.9,10.2c-2,2.5-5.3,4.1-7,6.8c-1.5-1.4-3-2.9-4.8-3.9c2.2-0.6,4.2-1.7,5.9-3.2
			c5.9-5.6,3.2-15-3.1-18.7c-4.2-2.4-10.8-1.1-13.9,2.7c-1.9,1.3-2.9,3.7-3.3,6.2c-4-4.5-9.3-8.3-13.8-12.1
			C43.5,425.9,44.3,424.1,46.7,425.2z"/>
		<path class="st2" d="M20.5,426.2c0.4-0.3,0.7-0.6,1.1-0.9c7.8,6.6,14.9,13.7,22,21.1c-0.2,0.2-0.3,0.4-0.5,0.6
			C35.8,439.8,28,433.1,20.5,426.2z"/>
		<path class="st2" d="M71.5,471.9c-5.1-4.5-10.2-8.9-15.2-13.4c-2.7-2.4-5.4-4.8-8.1-7.2c-0.5-0.4-3.7-2.4-2.9-3.5
			c0.8-1.1,1.6-2.2,2.4-3.3c8.5,8.3,18,15.8,26.9,23.6C73.5,469.4,72.5,470.6,71.5,471.9z"/>
		<path class="st2" d="M55.3,442.8c-2.6,4.2-6.8-1.1-9-3c-2.4-2.1-4.8-4.1-7.2-6.1c0.7-1.1,1.5-2.3,2-3.5c4.6,4.2,9.4,9,14.7,12.2
			C55.5,442.6,55.4,442.7,55.3,442.8z"/>
		<path class="st2" d="M59.5,445.9c-1.6-2.4-1.4-4.6-0.5-6.6c0,0,0,0,0,0c3.2-4.5,6.8-8.3,12.7-5.7c5.6,2.5,6,9.6,2.5,13.9
			C70.1,452.5,62.7,450.8,59.5,445.9z"/>
		<path class="st2" d="M187.9,487.8c0.7,1.3,0.8,2.6,0.6,3.9c-0.9-1-1.8-1.9-2.7-2.9c-0.7-0.8-1.4-1.6-2.3-2.3
			c-3.6-3.8-7.9-6.2-13.7-5.1c-6.8,1.2-8,9.4-6.5,14.9c2.6,9.6,12.7,16.1,6.6,26.9c-2.7,4.8-8.3,6.9-13.5,7
			c-6.4,0-11.2-4.4-14.7-9.2c0.4-0.3,0.8-0.7,1.1-1.1c3.4,5.5,9.4,8.7,15.9,8c6.8-0.7,11.5-7.1,10.7-13.7c-0.4-3.5-2.8-6.6-4.7-9.3
			c-3.4-4.8-6-10.1-5.2-16.2c1-7.4,7.7-10.5,14.4-9.5C179.7,479.9,184.2,483.7,187.9,487.8z"/>
		<path class="st2" d="M90.3,441.8c-1.5,6.2-7.9,15-13.7,16.1c2.9,2.6,5.7,5.2,8.4,8c2.6,2.6,5.5,5.2,8.2,7.9c2,1.8,3.9,3.8,5.8,5.7
			c3,3,6.1,6,8.3,9.7c0.2,0.4-0.2,0.8-0.6,0.6c-2.9-1.8-5.3-4.2-7.7-6.6c0.4,1.2,0.7,2.3,1,3.5c1.9,7.9,5.3,14.4,11.6,19.6
			c3.5,2.9,7.2,5.4,11.2,7.6c3.2,1.8,6.8,4.3,10.3,5.4c12.6,3.7,9.6-11.1,6.6-17.7c-3.8-8.6-9.5-16.2-15.6-23.4
			c-1.9,0.1-3.7-0.4-5.6,0.1c-2.3,0.6-4.1,1.9-6.2,2.9c-0.7,0.3-1.2-0.3-1-1c1.3-3,6.3-5.2,10.3-4.9c-0.6-0.7-1.3-1.4-1.9-2.2
			c-1.4,0.4-3.1,0.1-4.5,0.6c-1.3,0.5-2.4,1.2-3.4,2.2c-0.6,0.6-1,1.1-1.9,1.3c-0.3,0.1-0.6-0.1-0.7-0.4c-0.6-3,4.4-6.3,8.1-6.4
			c-0.5-0.5-1-1.1-1.5-1.6c-0.4,0.1-0.8,0.1-1.2,0.2c-1.1,0.3-2.2,0.5-3.2,1.1c-1.6,0.9-2.8,2.7-4.5,3.2c-0.4,0.1-0.9-0.3-0.9-0.7
			c0-2.3,2.9-4.2,4.8-5c0.8-0.3,2-0.8,3.1-1c-0.6-0.7-1.2-1.4-1.9-2.1c-0.4,0.1-0.8,0.2-1.2,0.3c-1.1,0.3-2.1,0.8-3,1.4
			c-0.9,0.6-2.4,2.6-3.7,2.2c-0.2-0.1-0.2-0.2-0.3-0.4c-0.2-0.3-0.1-0.6,0-0.9c1-2,3-3.3,5-4.1c0.4-0.2,0.9-0.4,1.5-0.5
			c-3.8-4.2-7.7-8.4-11.7-12.5C95.8,447.1,93,444.5,90.3,441.8z M133.3,492.2c3,5.4,7.7,17.5,0.5,21.6c-2.8,1.6-6.3-1.2-8.2-3
			c-2.8-2.8-6-5.6-8.5-8.8c-3.6-3.9-4.9-10-0.7-14.1C122.4,482,129.7,485.7,133.3,492.2z"/>
		<path class="st2" d="M131.3,494.8c-0.8,0.7-1.5,1.4-2.3,2.2c-1.4,1.4-2.2-0.6-3.2-1.7c-1.9-2.1-3.7-4.5-5.8-6.4
			c0,0,0.1-0.1,0.1-0.1C124.9,485.2,128.9,490.2,131.3,494.8z"/>
	</g>
	<g>
		<path class="st3" d="M116.4,487.9c-4.3,4.2-2.9,10.2,0.7,14.1c2.5,3.2,5.7,6,8.5,8.8c1.8,1.8,5.4,4.6,8.2,3
			c7.2-4.1,2.5-16.2-0.5-21.6C129.7,485.7,122.4,482,116.4,487.9z M131.3,494.8c-0.8,0.7-1.5,1.4-2.3,2.2c-1.4,1.4-2.2-0.6-3.2-1.7
			c-1.9-2.1-3.7-4.5-5.8-6.4c0,0,0.1-0.1,0.1-0.1C124.9,485.2,128.9,490.2,131.3,494.8z M134.5,506.2c0.3,2.3-0.9,4-3.4,5.2
			c-1.6-0.2-3.6-2.5-4.8-3.6c-2.3-2.2-4.6-4.6-7.2-6.6c-1.9-3.5-3-7.4-0.7-10.6c2.3,3.3,5.4,6.5,8.2,9.3c1.8,1.8,4.3-0.7,6-2.4
			c0.2,0.6,0.4,1.1,0.6,1.5C134,501.3,134.3,503.7,134.5,506.2z"/>
		<path class="st3" d="M156.9,488.2c-1.2,9.3,4.3,15.2,8.5,22.7c3.5,6.3-0.5,12.5-6.9,14.2c-6,1.5-11-2.5-14.6-6.8
			c1-1.9,1.5-4.2,1.5-6.3c0-6.5-3.5-13.5-6.7-19c-4.1-7.1-9.5-13.4-14.8-19.7c-6.3-7.4-12.8-14.6-19.6-21.7c-4.8-5-9.6-10.4-14.9-15
			c-4-5.1-8.7-9.6-15-11.9c-4.1-1.5-8-1.8-12.3-1.5c-5.8,0.4-11.5,1.6-16.7-1.7c-0.4-0.3-1.2-0.2-1.5,0.2c-1.4,1.8-2.8,3.5-4.2,5.3
			c-0.3,0.3-0.4,0.7-0.4,1.1c-1.4,1.4-2.2,3.4-3.2,5.1c-0.3,0.5-0.2,1.3,0.2,1.7c3.3,2.7,6.6,5.5,9.9,8.2c-0.5,0.6-0.9,1.1-1.4,1.7
			c-6.9-7.8-14.6-14.9-22.5-21.7c-0.5-0.4-1-0.4-1.5,0c-0.9,0.8-1.8,1.5-2.7,2.3c-0.4,0.4-0.4,1.1,0,1.5c7.9,7.3,15.6,15,23.9,21.8
			c0,0.2,0.1,0.5,0.3,0.7c9.4,8.5,18.8,16.9,28.3,25.3c0.5,0.4,1.4,0.6,1.9,0c1.6-1.9,3.1-3.9,4.6-5.8c0.4-0.5,0.6-1.3,0-1.8
			c-7.5-6.5-14.9-13.5-22.6-19.9c0.7-0.4,1.4-1.1,1.8-1.9c0.2,0.7,0.4,1.4,0.7,2c2.2,4.5,6.7,6.4,11.1,6c1,1.9,2.6,3.1,4.3,4.6
			c3.1,2.8,6.3,5.6,9.3,8.5c4.4,4,8.4,9,13,12.9c2.6,5.3,2.9,11.9,5.4,17.4c3.3,7.3,9.9,12.6,16.4,16.9c5.7,3.7,13.1,8.9,20.1,9.1
			c1.3,0,2.4-0.2,3.4-0.7c5.9,13.4,25.8,15.1,32.9,1.6c4-7.6,0.3-15-3.8-21.5c-3-4.8-6.7-12.5-0.8-16.8c5-3.7,11.5,1,15.8,4.6
			c0.2,0.3,0.4,0.5,0.7,0.8c0,0,0,0,0,0c0.9,1.4,2.2,2.7,3.3,4c0.5,0.6,1.5,0.2,1.7-0.5c0.8-3,0.6-6.6-1.5-8.9
			C180.7,474.2,159.1,471,156.9,488.2z M46.7,425.2c1.5,0.7,3.3,1.1,5,1.2c4.5,0.3,8.9-0.4,13.4-0.6c7-0.3,12.7,3.2,17.9,7.6
			c0,0.2,0,0.5,0.2,0.7c1.6,1.9,3.3,3.8,5,5.6c-2.1,3.3-3.3,7-5.9,10.2c-2,2.5-5.3,4.1-7,6.8c-1.5-1.4-3-2.9-4.8-3.9
			c2.2-0.6,4.2-1.7,5.9-3.2c5.9-5.6,3.2-15-3.1-18.7c-4.2-2.4-10.8-1.1-13.9,2.7c-1.9,1.3-2.9,3.7-3.3,6.2c-4-4.5-9.3-8.3-13.8-12.1
			C43.5,425.9,44.3,424.1,46.7,425.2z M20.5,426.2c0.4-0.3,0.7-0.6,1.1-0.9c7.8,6.6,14.9,13.7,22,21.1c-0.2,0.2-0.3,0.4-0.5,0.6
			C35.8,439.8,28,433.1,20.5,426.2z M71.5,471.9c-5.1-4.5-10.2-8.9-15.2-13.4c-2.7-2.4-5.4-4.8-8.1-7.2c-0.5-0.4-3.7-2.4-2.9-3.5
			c0.8-1.1,1.6-2.2,2.4-3.3c8.5,8.3,18,15.8,26.9,23.6C73.5,469.4,72.5,470.6,71.5,471.9z M55.3,442.8c-2.6,4.2-6.8-1.1-9-3
			c-2.4-2.1-4.8-4.1-7.2-6.1c0.7-1.1,1.5-2.3,2-3.5c4.6,4.2,9.4,9,14.7,12.2C55.5,442.6,55.4,442.7,55.3,442.8z M59.5,445.9
			c-1.6-2.4-1.4-4.6-0.5-6.6c0,0,0,0,0,0c3.2-4.5,6.8-8.3,12.7-5.7c5.6,2.5,6,9.6,2.5,13.9C70.1,452.5,62.7,450.8,59.5,445.9z
			 M133,519.2c-3.6-1-7.1-3.5-10.3-5.4c-3.9-2.2-7.7-4.7-11.2-7.6c-6.3-5.2-9.7-11.7-11.6-19.6c-0.3-1.2-0.6-2.4-1-3.5
			c2.4,2.4,4.8,4.9,7.7,6.6c0.4,0.2,0.8-0.2,0.6-0.6c-2.1-3.7-5.3-6.7-8.3-9.7c-1.9-1.9-3.7-3.9-5.8-5.7c-2.7-2.8-5.6-5.4-8.2-7.9
			c-2.8-2.7-5.6-5.4-8.4-8c5.8-1.1,12.2-9.9,13.7-16.1c2.7,2.7,5.5,5.3,8.1,8c4,4.1,7.9,8.3,11.7,12.5c-0.5,0.1-1,0.3-1.5,0.5
			c-2,0.9-3.9,2.2-5,4.1c-0.1,0.3-0.2,0.6,0,0.9c0.1,0.1,0.2,0.3,0.3,0.4c1.3,0.4,2.8-1.6,3.7-2.2c0.9-0.6,1.9-1,3-1.4
			c0.4-0.1,0.8-0.2,1.2-0.3c0.6,0.7,1.3,1.4,1.9,2.1c-1.2,0.2-2.3,0.7-3.1,1c-1.9,0.8-4.8,2.7-4.8,5c0,0.4,0.5,0.8,0.9,0.7
			c1.7-0.6,2.9-2.4,4.5-3.2c1-0.5,2.1-0.8,3.2-1.1c0.4-0.1,0.8-0.1,1.2-0.2c0.5,0.5,1,1.1,1.5,1.6c-3.8,0.2-8.8,3.4-8.1,6.4
			c0.1,0.3,0.4,0.5,0.7,0.4c0.9-0.2,1.3-0.7,1.9-1.3c1-1,2.1-1.7,3.4-2.2c1.4-0.5,3.1-0.2,4.5-0.6c0.6,0.7,1.3,1.4,1.9,2.2
			c-3.9-0.3-9,1.9-10.3,4.9c-0.3,0.7,0.3,1.3,1,1c2.1-0.9,3.9-2.3,6.2-2.9c1.9-0.5,3.7,0,5.6-0.1c6.1,7.2,11.8,14.9,15.6,23.4
			C142.6,508.1,145.6,522.8,133,519.2z M187.9,487.8c0.7,1.3,0.8,2.6,0.6,3.9c-0.9-1-1.8-1.9-2.7-2.9c-0.7-0.8-1.4-1.6-2.3-2.3
			c-3.6-3.8-7.9-6.2-13.7-5.1c-6.8,1.2-8,9.4-6.5,14.9c2.6,9.6,12.7,16.1,6.6,26.9c-2.7,4.8-8.3,6.9-13.5,7
			c-6.4,0-11.2-4.4-14.7-9.2c0.4-0.3,0.8-0.7,1.1-1.1c3.4,5.5,9.4,8.7,15.9,8c6.8-0.7,11.5-7.1,10.7-13.7c-0.4-3.5-2.8-6.6-4.7-9.3
			c-3.4-4.8-6-10.1-5.2-16.2c1-7.4,7.7-10.5,14.4-9.5C179.7,479.9,184.2,483.7,187.9,487.8z"/>
	</g>
</g>
<g class="st1">
	<g>
		<path class="st2" d="M417.7,406.4c18.6,3.3,35,14.2,44.8,30.3c3,5,5.3,10.4,6.8,16c-1.9-0.4-3.6-0.7-5.4-1.7
			c-2.9-1.6-4.7-4.7-6.4-7.5c-2.3-3.9-4.3-8-7.2-11.6c-5.5-6.9-12.4-12.4-20.4-16.2c-8.5-4.1-18.1-5.5-27.4-5
			c-5.1,0.3-10,1.6-14.8,3.1c-6,2-11.1,2.8-16-1.1C385.2,405,403.3,403.9,417.7,406.4z"/>
		<path class="st2" d="M358.8,424.6c0,0,0.1,0,0.1,0c13.4-0.6,17.8,13.1,19.6,24c0.6,3.4,1.1,6.7,1.8,9.8c-4.8,0.1-9.6,0.3-14.4,0.4
			c-4.6,0.2-9.7-0.2-14.3,0.6C350.7,447.2,351.6,435.1,358.8,424.6z"/>
		<path class="st2" d="M360.1,501.6c0.1-1.2,0.1-2.3,0-3.5c0-2-0.4-2.8,2-2.7c3.3,0.2,6.7,0.3,10,0.5c0.1,1.9,0.3,3.8,0.4,5.8
			C368.4,501.6,364.2,501.6,360.1,501.6z"/>
		<path class="st2" d="M362.8,486.8c0-1.3,0.1-2.6-0.1-3.8c2.3,0.1,4.6,0.7,6.9,2c-0.2,0.7-0.1,1.4-0.1,2.2c0,1.8,0,3.7,0.1,5.5
			c-2.2-0.3-4.6-0.4-6.9-0.5C362.9,490.4,362.8,488.6,362.8,486.8z"/>
		<path class="st2" d="M387.1,515.3c-3.4,0-6.8,0.1-10.2,0.1c-1.8,0-3.7,0-5.6,0c-0.1-3.4,0-7.3-0.8-10.7c1.2,0,2.5,0,3.7,0
			c0.8,0,1.6-0.7,1.5-1.5c-0.3-2.9-0.5-5.8-0.8-8.7c-0.1-0.8-0.6-1.4-1.4-1.4l-1.9-0.1c0,0,0-0.1,0-0.1c0-1.7-0.1-3.3-0.1-5
			c0-0.5,0-1.1,0-1.6c4.6,3.6,5.2,9.3,5.8,14.9c0.6,5.1,5,7,9.8,7.5c0,0.3,0,0.7,0,1C387.1,511.6,387.1,513.4,387.1,515.3z"/>
		<path class="st2" d="M364.3,511.2c0.5-0.3,1-0.6,1.2-0.9c0.6-0.7,0.9-1.7,0.8-2.6c0-0.9-0.3-1.9-0.8-2.6c-0.1-0.1-0.1-0.2-0.2-0.2
			c1.1,0,2.3,0,3.4,0c-0.4,3.4,0.2,7.2,0.6,10.7c-1,0-2,0-3,0c0-0.3,0.1-0.5,0.1-0.8c0-0.9-0.3-1.9-0.8-2.6
			C365.3,511.8,364.8,511.4,364.3,511.2z"/>
		<path class="st2" d="M366.3,548.9c-0.1-0.6-0.4-1.2-0.8-1.7c-0.2-0.3-0.7-0.6-1.2-0.9c0.5-0.3,1-0.6,1.2-0.9
			c0.6-0.7,0.9-1.7,0.8-2.6c0-0.9-0.3-1.9-0.8-2.6c-0.2-0.3-0.7-0.6-1.2-0.9c0.5-0.3,1-0.6,1.2-0.9c0.6-0.7,0.9-1.7,0.8-2.6
			c0-0.9-0.3-1.9-0.8-2.6c-0.2-0.3-0.7-0.6-1.2-0.9c0.5-0.3,1-0.6,1.2-0.9c0.6-0.7,0.9-1.7,0.8-2.6c0-0.9-0.3-1.9-0.8-2.6
			c-0.1-0.2-0.4-0.4-0.7-0.6c1.7,0.1,3.4,0,5.1,0c-0.8,5.1-0.2,11.5,0.5,16.4C370.9,544.7,367.9,546.4,366.3,548.9z"/>
		<path class="st2" d="M436.7,516.9c0.2,0.6-0.1,1.6-0.1,1.9c-0.1,1.2-0.2,2.3-0.1,3.4c-5.9-0.9-12.2-0.3-18.2-0.2
			c-6.9,0.1-13.8,0.3-20.7,0.4c-6.9,0.1-13.8,0.2-20.7,0.3c-5.1,0.1-10.4-0.3-15.6,0.4c-0.6,0-1.1,0.1-1.7,0.1c0-0.5,0-0.9,0-1.4
			c0-1.3,0-2.7,0-4.1c5.6,0.9,11.6,0.3,17.2,0.2c6.9-0.1,13.8-0.2,20.7-0.3c6.9-0.1,13.8-0.1,20.7-0.2
			C424.3,517.5,430.8,518,436.7,516.9z"/>
		<path class="st2" d="M420.3,514.8c-0.7,0-1.3,0-2,0c-6.9,0.1-13.8,0.3-20.7,0.4c-2.8,0-5.5,0.1-8.3,0.1c0.1-2.2,0-4.3,0-6.5
			c2.9,0.1,5.7-0.2,7.8-0.4c8.3-1,16.3-4,24.1-7.1c-0.7,2.3-0.6,5-0.8,7.4C420.3,510.6,419.8,512.9,420.3,514.8z"/>
		<path class="st2" d="M398.5,505c-3.3,0.6-6.7,0.7-10.1,0.6c-4.8-0.2-7.9-1.8-8.2-7.4c-0.2-4.2-1.4-8.3-4.2-11.6
			c-5.3-6.2-14.4-8.8-21.7-4.9c-0.8-6.7-1.9-13.6-2.5-20.5c4,0.4,8.3,0,12.3-0.2c5.6-0.1,11.2-0.3,16.8-0.5
			c1.4,5.1,3.4,9.9,7.2,14.3c5.2,6.1,13.4,10.2,21.3,10.9c2.4,0.2,4.7,0.2,7,0c4.4-0.4,6.4,2.6,8.1,5.8c0.8,1.4,1.7,2.6,2.8,3.4
			C417.5,498.7,407.7,503.3,398.5,505z"/>
		<path class="st2" d="M474.3,466.5c-0.1-3-0.5-6.1-1-9.1c0.9-0.2,1.7-0.5,2.6-0.8c0.9,2.7,1.7,5.4,2.2,8.2
			C476.7,465.3,475.4,465.7,474.3,466.5z"/>
		<path class="st2" d="M486.3,458.7c-0.8,0.2-1.6,0.4-2.4,0.7c-1.4,0.4-2.7,0.7-4.1,1.2c-0.2-0.7-0.3-1.4-0.5-2.2
			c2.3-0.3,4.6-0.9,6.9-1.5C488,456.5,487.5,458.3,486.3,458.7z"/>
		<path class="st2" d="M453,471.9c3.3-1,6.9-0.9,10.3-1.2c2.7-0.2,5.5-0.4,8.2-0.2c0-1.5,0-2.9-0.1-4.1c-2.9-0.1-6.4,0.1-9.1-0.9
			c-0.4-0.2-0.4-0.7,0-0.9c2.6-1,6-1,8.9-1.1c0,0,0,0,0,0c-0.3-2.8-0.8-5.7-1.4-8.5c-8.5,3.1-14.5-9.9-17.8-15.4
			c-5.5-9.3-13.7-17.1-23.6-21.5c-12.1-5.4-25.8-6.2-38.5-2.1c-5.8,1.9-16.6,4.7-20.3-2c-2.7,1.8-5.2,3.8-7.4,6.2
			c-0.5,0.6-1,1.1-1.4,1.7c7.6,0,14.1,6,17,12.8c3.2,7.5,3.2,16,5.2,23.9c0.5,0.3,0.6,0.9,0.4,1.4c0.6,2.2,1.4,4.3,2.4,6.4
			c4.8,9.1,14.4,16.2,24.9,16.6c4.2,0.1,8.4-1.1,12.2,1.2c3.9,2.4,3.8,8.1,8.4,9.6c10.6-3.7,21.3-5.8,31.6-1.9
			c2.9-0.1,4.8-2.2,6.1-5.3c-4.9,0.5-9.9,0.4-14.8,0.4c-4.3,0-8.7,0.2-12.9-0.7c-0.4-0.1-0.4-0.7,0-0.8c4.8-1.2,9.8-1.1,14.7-1.3
			c4.6-0.1,9.3-0.5,13.9-0.1c0.4-1.5,0.7-3.1,1-4.7c-4,0.5-8,0.5-12,0.6c-4.3,0.1-8.6,0.4-12.8-0.5c-0.3-0.1-0.2-0.5,0-0.5
			c4.1-1.2,8.6-1.3,12.8-1.4c4.1-0.2,8.2-0.6,12.3-0.3c0.1-1.3,0.2-2.6,0.3-3.9c-3.2,0.4-6.4,0.1-9.6,0c-3-0.1-6-0.1-8.9-0.8
			C452.7,472.3,452.7,471.9,453,471.9z M438.4,454.7c-4.6-1.3-8.9-3.4-13.5-4.9c-5.3-1.7-10.4-1.9-15.9-1.8
			c-7.5,0.2-17.9,0.1-22.3-7.3c-2.1-3.5-2.4-7.5-0.6-10.6c0.9-3.6,3.3-6.9,6.5-8.9c7-4.4,15.8-4.6,23.8-2.9
			c8,1.8,15.7,5.2,22.1,10.5c4.9,4.1,13.1,11.4,13.3,18.4C452,455.4,444.8,456.6,438.4,454.7z"/>
		<path class="st2" d="M407.8,420.7c-1.2,3.5-1.8,8.8-4.8,9.8c-2.1,0.7-4.9,0.4-7.1,0.6c-2.5,0.2-5,0.4-7.5,0.7
			C390.4,423.7,399.2,420.8,407.8,420.7z"/>
	</g>
	<g>
		<path class="st3" d="M438.4,428.9c-6.4-5.2-14.1-8.7-22.1-10.5c-8-1.7-16.7-1.5-23.8,2.9c-3.2,2-5.6,5.3-6.5,8.9
			c-1.8,3.1-1.5,7.1,0.6,10.6c4.4,7.4,14.8,7.5,22.3,7.3c5.5-0.2,10.6,0.1,15.9,1.8c4.6,1.5,8.9,3.6,13.5,4.9
			c6.5,1.9,13.7,0.7,13.4-7.5C451.5,440.3,443.3,432.9,438.4,428.9z M407.8,420.7c-1.2,3.5-1.8,8.8-4.8,9.8
			c-2.1,0.7-4.9,0.4-7.1,0.6c-2.5,0.2-5,0.4-7.5,0.7C390.4,423.7,399.2,420.8,407.8,420.7z M444.5,452.6c-3.2,0.3-6.9-1.3-9.8-2.3
			c-5.7-2.1-11.1-4.6-17.2-5.4c-6.7-0.9-13.3,0.6-20-0.8c-3.9-0.8-7.8-3.8-9.5-7.4c-0.1-0.8,0-1.5,0-2.2c5.5,0,12.1,0.2,17.1-1.9
			c1.5-0.7,2.3-2.8,2.7-4.3c0.7-2.5,1.5-5.1,1.8-7.7c2.5,0.1,5,0.4,7.3,0.9c11.5,2.5,21.8,9.8,28.6,19.3
			C447.4,443.8,452.2,451.9,444.5,452.6z"/>
		<path class="st3" d="M490.5,456.5c-0.4-1.8-2.4-2.3-3.9-2.2c-2.5,0.2-5.4,0.8-7.9,1.6c-0.2-0.5-0.3-1-0.5-1.5
			c-0.2-0.7-1-1.3-1.8-1c-1.2,0.4-2.4,0.9-3.6,1.4c-0.6-2.7-1.4-5.3-2.3-7.9c-7-20.1-23.5-34.8-43.6-41.2
			c-19.5-6.3-45.5-4.7-62.1,8.3c-20.6,16.1-18.7,45.9-12.8,68.6c0.1,0.3,0.2,0.5,0.5,0.6c-0.1,0.7,0.4,1.5,1.2,1.2
			c2.3-0.8,4.6-1.4,6.8-1.5c-0.2,1.2-0.1,2.5-0.1,3.8c0,1.8-0.1,3.6,0.3,5.4c-0.8,0-1.6,0-2.3-0.1c-0.6,0-1.1,0.5-1.1,1.1
			c0,0.2,0,0.4,0,0.7c0,0,0,0,0,0c-0.4,3.1-0.6,6.2-0.4,9.3c0,0.9,0.7,1.6,1.6,1.6c1.5,0,2.9,0,4.4,0c0.2,0.1,0.3,0.2,0.5,0.3
			c0.4,0.3,0.7,0.9,0.9,1.3c0.2,0.4,0.4,0.8,0.5,1.2c-0.1,0.4-0.3,0.8-0.5,1.2c-0.2,0.4-0.6,1-0.9,1.3c-0.4,0.4-1,0.4-1.4,0.8
			c0,0,0,0.1,0,0.1c0,0,0,0.1,0,0.1c0.4,0.4,0.9,0.4,1.4,0.8c0.4,0.3,0.7,0.9,0.9,1.3c0.2,0.4,0.4,0.8,0.5,1.2
			c-0.1,0.3-0.2,0.6-0.3,0.9c-2.2,0.1-4.3,0.4-6.4,1c-0.2,0.1-0.3,0.2-0.3,0.4c-0.2,0.2-0.3,0.4-0.3,0.8c0,1.2,0.1,2.4,0.1,3.6
			c0,0.7,0,1.5,0.1,2.3c0,0.2,0,0.5-0.1,0.7c0,0.6,0.5,1,1,1c1.1,0,2.3,0,3.4,0c0.4,0.3,0.9,0.4,1.3,0.8c0.4,0.3,0.7,0.9,0.9,1.3
			c0.2,0.4,0.4,0.8,0.5,1.2c-0.1,0.4-0.3,0.8-0.5,1.2c-0.2,0.4-0.6,1-0.9,1.3c-0.4,0.4-1,0.4-1.4,0.8c0,0,0,0.1,0,0.1
			c0,0,0,0.1,0,0.1c0.4,0.4,0.9,0.4,1.4,0.8c0.4,0.3,0.7,0.9,0.9,1.3c0.2,0.4,0.4,0.8,0.5,1.2c-0.1,0.4-0.3,0.8-0.5,1.2
			c-0.2,0.4-0.6,1-0.9,1.3c-0.4,0.4-1,0.4-1.4,0.8c0,0,0,0.1,0,0.1c0,0,0,0.1,0,0.1c0.4,0.4,0.9,0.4,1.4,0.8
			c0.4,0.3,0.7,0.9,0.9,1.3c0.2,0.4,0.4,0.8,0.5,1.2c-0.1,0.4-0.3,0.8-0.5,1.2c-0.2,0.4-0.6,1-0.9,1.3c-0.4,0.4-1,0.4-1.4,0.8
			c0,0,0,0.1,0,0.1c0,0,0,0.1,0,0.1c0.4,0.4,0.9,0.4,1.4,0.8c0.4,0.3,0.7,0.9,0.9,1.3c0.5,1,0.6,2.1,1.1,3c0,0,0,0,0,0
			c0,0.5,0.7,0.6,0.9,0.2c1.8-2.4,3.4-4.3,6-5.9c0.3-0.2,0.6-0.5,0.5-0.9c-0.6-6.3,0.4-13.4-1.1-19.6c1.8-0.1,3.6-0.1,5.3-0.2
			c6.9-0.1,13.8-0.2,20.7-0.3c6.9-0.1,13.8-0.1,20.7-0.2c6.2-0.1,12.9,0.5,19-0.8c0.3-0.1,0.4-0.2,0.5-0.5c0.1-0.1,0.2-0.2,0.2-0.3
			c0.6-1.7,0.5-3.5,0.7-5.3c0.1-1.3,0-2.3-1.1-3.1c-0.8-0.6-2.5-0.3-3.7-0.1c-3.8-0.3-7.7-0.2-11.6,0c0.5-1.5,0.4-3.3,0.6-4.8
			c0.3-2.9,1-6.5,0.2-9.4c1.6-0.6,3.1-1.2,4.7-1.8c11.8-4.5,22.9-6.5,35.4-4c0.5,0.1,1-0.1,1.3-0.5c6.2-0.5,8.3-11.6,9.1-16.6
			c0.5-3,0.7-6,0.7-9c1.9,0,3.7-0.9,5.5-1.6c0.7-0.3,1-0.8,0.9-1.6c-0.1-0.8-0.3-1.7-0.4-2.5c2.6-0.6,5.3-1.3,7.8-2.2
			C490,459.9,490.8,458.4,490.5,456.5z M417.7,406.4c18.6,3.3,35,14.2,44.8,30.3c3,5,5.3,10.4,6.8,16c-1.9-0.4-3.6-0.7-5.4-1.7
			c-2.9-1.6-4.7-4.7-6.4-7.5c-2.3-3.9-4.3-8-7.2-11.6c-5.5-6.9-12.4-12.4-20.4-16.2c-8.5-4.1-18.1-5.5-27.4-5
			c-5.1,0.3-10,1.6-14.8,3.1c-6,2-11.1,2.8-16-1.1C385.2,405,403.3,403.9,417.7,406.4z M358.8,424.6c0,0,0.1,0,0.1,0
			c13.4-0.6,17.8,13.1,19.6,24c0.6,3.4,1.1,6.7,1.8,9.8c-4.8,0.1-9.6,0.3-14.4,0.4c-4.6,0.2-9.7-0.2-14.3,0.6
			C350.7,447.2,351.6,435.1,358.8,424.6z M360.1,501.6c0.1-1.2,0.1-2.3,0-3.5c0-2-0.4-2.8,2-2.7c3.3,0.2,6.7,0.3,10,0.5
			c0.1,1.9,0.3,3.8,0.4,5.8C368.4,501.6,364.2,501.6,360.1,501.6z M362.8,486.8c0-1.3,0.1-2.6-0.1-3.8c2.3,0.1,4.6,0.7,6.9,2
			c-0.2,0.7-0.1,1.4-0.1,2.2c0,1.8,0,3.7,0.1,5.5c-2.2-0.3-4.6-0.4-6.9-0.5C362.9,490.4,362.8,488.6,362.8,486.8z M387.1,515.3
			c-3.4,0-6.8,0.1-10.2,0.1c-1.8,0-3.7,0-5.6,0c-0.1-3.4,0-7.3-0.8-10.7c1.2,0,2.5,0,3.7,0c0.8,0,1.6-0.7,1.5-1.5
			c-0.3-2.9-0.5-5.8-0.8-8.7c-0.1-0.8-0.6-1.4-1.4-1.4l-1.9-0.1c0,0,0-0.1,0-0.1c0-1.7-0.1-3.3-0.1-5c0-0.5,0-1.1,0-1.6
			c4.6,3.6,5.2,9.3,5.8,14.9c0.6,5.1,5,7,9.8,7.5c0,0.3,0,0.7,0,1C387.1,511.6,387.1,513.4,387.1,515.3z M364.3,511.2
			c0.5-0.3,1-0.6,1.2-0.9c0.6-0.7,0.9-1.7,0.8-2.6c0-0.9-0.3-1.9-0.8-2.6c-0.1-0.1-0.1-0.2-0.2-0.2c1.1,0,2.3,0,3.4,0
			c-0.4,3.4,0.2,7.2,0.6,10.7c-1,0-2,0-3,0c0-0.3,0.1-0.5,0.1-0.8c0-0.9-0.3-1.9-0.8-2.6C365.3,511.8,364.8,511.4,364.3,511.2z
			 M366.3,548.9c-0.1-0.6-0.4-1.2-0.8-1.7c-0.2-0.3-0.7-0.6-1.2-0.9c0.5-0.3,1-0.6,1.2-0.9c0.6-0.7,0.9-1.7,0.8-2.6
			c0-0.9-0.3-1.9-0.8-2.6c-0.2-0.3-0.7-0.6-1.2-0.9c0.5-0.3,1-0.6,1.2-0.9c0.6-0.7,0.9-1.7,0.8-2.6c0-0.9-0.3-1.9-0.8-2.6
			c-0.2-0.3-0.7-0.6-1.2-0.9c0.5-0.3,1-0.6,1.2-0.9c0.6-0.7,0.9-1.7,0.8-2.6c0-0.9-0.3-1.9-0.8-2.6c-0.1-0.2-0.4-0.4-0.7-0.6
			c1.7,0.1,3.4,0,5.1,0c-0.8,5.1-0.2,11.5,0.5,16.4C370.9,544.7,367.9,546.4,366.3,548.9z M436.7,516.9c0.2,0.6-0.1,1.6-0.1,1.9
			c-0.1,1.2-0.2,2.3-0.1,3.4c-5.9-0.9-12.2-0.3-18.2-0.2c-6.9,0.1-13.8,0.3-20.7,0.4c-6.9,0.1-13.8,0.2-20.7,0.3
			c-5.1,0.1-10.4-0.3-15.6,0.4c-0.6,0-1.1,0.1-1.7,0.1c0-0.5,0-0.9,0-1.4c0-1.3,0-2.7,0-4.1c5.6,0.9,11.6,0.3,17.2,0.2
			c6.9-0.1,13.8-0.2,20.7-0.3c6.9-0.1,13.8-0.1,20.7-0.2C424.3,517.5,430.8,518,436.7,516.9z M420.3,514.8c-0.7,0-1.3,0-2,0
			c-6.9,0.1-13.8,0.3-20.7,0.4c-2.8,0-5.5,0.1-8.3,0.1c0.1-2.2,0-4.3,0-6.5c2.9,0.1,5.7-0.2,7.8-0.4c8.3-1,16.3-4,24.1-7.1
			c-0.7,2.3-0.6,5-0.8,7.4C420.3,510.6,419.8,512.9,420.3,514.8z M398.5,505c-3.3,0.6-6.7,0.7-10.1,0.6c-4.8-0.2-7.9-1.8-8.2-7.4
			c-0.2-4.2-1.4-8.3-4.2-11.6c-5.3-6.2-14.4-8.8-21.7-4.9c-0.8-6.7-1.9-13.6-2.5-20.5c4,0.4,8.3,0,12.3-0.2
			c5.6-0.1,11.2-0.3,16.8-0.5c1.4,5.1,3.4,9.9,7.2,14.3c5.2,6.1,13.4,10.2,21.3,10.9c2.4,0.2,4.7,0.2,7,0c4.4-0.4,6.4,2.6,8.1,5.8
			c0.8,1.4,1.7,2.6,2.8,3.4C417.5,498.7,407.7,503.3,398.5,505z M471.5,470.5c-2.7-0.3-5.5-0.1-8.2,0.2c-3.4,0.3-7,0.2-10.3,1.2
			c-0.2,0.1-0.2,0.4,0,0.5c2.9,0.8,5.9,0.7,8.9,0.8c3.2,0.1,6.4,0.4,9.6,0c-0.1,1.3-0.1,2.6-0.3,3.9c-4.1-0.3-8.2,0.1-12.3,0.3
			c-4.2,0.2-8.7,0.2-12.8,1.4c-0.2,0.1-0.3,0.5,0,0.5c4.2,1,8.6,0.6,12.8,0.5c4,0,8.1,0,12-0.6c-0.2,1.6-0.6,3.2-1,4.7
			c-4.6-0.3-9.3,0-13.9,0.1c-4.9,0.1-10,0.1-14.7,1.3c-0.4,0.1-0.4,0.7,0,0.8c4.3,0.8,8.6,0.7,12.9,0.7c4.9,0,9.9,0.1,14.8-0.4
			c-1.3,3.1-3.3,5.2-6.1,5.3c-10.3-4-21-1.8-31.6,1.9c-4.6-1.4-4.5-7.2-8.4-9.6c-3.8-2.3-8-1-12.2-1.2c-10.6-0.4-20.2-7.4-24.9-16.6
			c-1.1-2-1.8-4.2-2.4-6.4c0.2-0.5,0.1-1.1-0.4-1.4c-1.9-7.9-2-16.3-5.2-23.9c-2.9-6.9-9.3-12.8-17-12.8c0.5-0.6,0.9-1.1,1.4-1.7
			c2.2-2.4,4.7-4.5,7.4-6.2c3.8,6.7,14.5,3.9,20.3,2c12.7-4.1,26.4-3.3,38.5,2.1c9.9,4.4,18.1,12.2,23.6,21.5
			c3.3,5.5,9.2,18.5,17.8,15.4c0.6,2.8,1.1,5.6,1.4,8.5c0,0,0,0,0,0c-2.8,0.1-6.2,0.1-8.9,1.1c-0.4,0.2-0.4,0.7,0,0.9
			c2.7,1,6.2,0.9,9.1,0.9C471.5,467.6,471.5,469,471.5,470.5z M474.3,466.5c-0.1-3-0.5-6.1-1-9.1c0.9-0.2,1.7-0.5,2.6-0.8
			c0.9,2.7,1.7,5.4,2.2,8.2C476.7,465.3,475.4,465.7,474.3,466.5z M486.3,458.7c-0.8,0.2-1.6,0.4-2.4,0.7c-1.4,0.4-2.7,0.7-4.1,1.2
			c-0.2-0.7-0.3-1.4-0.5-2.2c2.3-0.3,4.6-0.9,6.9-1.5C488,456.5,487.5,458.3,486.3,458.7z"/>
	</g>
</g>
<g class="st1">
	<g>
		<path class="st2" d="M614.4,525.7c1.5,1.7,3,3.4,4.4,5c-0.4,0.4-0.8,0.8-1.3,1.2c-1.4-1.3-2.7-2.7-4-4c-1.2-1.2-2.2-2.6-3.6-3.5
			c0.3-0.2,0.6-0.5,0.8-0.7c0.4-0.4,0.8-0.7,1.2-1.1C612.6,523.7,613.5,524.6,614.4,525.7z"/>
		<path class="st2" d="M608.7,516.9c0.5,0.7,1.1,1.4,1.7,2.1c1,1.2,0.2,1.4-0.8,2.3c-0.4,0.4-2,2.3-2.8,1.7c0,0,0,0-0.1-0.1
			c0.3-0.3,0.6-0.6,0.9-0.9c0.5-0.6,1.1-1.2,1.2-2c0.1-0.5-0.3-0.9-0.8-0.8c-0.7,0.1-1.2,0.5-1.8,1c-0.4,0.4-0.9,0.7-1.3,1.2
			c-0.2-0.1-0.3-0.3-0.5-0.4c-0.1-0.1-0.2-0.2-0.3-0.2c0.5-0.4,0.9-0.9,1.3-1.4c0.6-0.7,1.1-1.3,1.5-2.2c0.3-0.7-0.6-1.2-1.2-0.9
			c-0.8,0.3-1.3,0.9-1.9,1.5c-0.5,0.5-1,0.9-1.4,1.5c-0.3-0.3-0.6-0.5-1-0.8c1.4-1.3,2.7-3,3.9-4.2c0,0,0.3-0.3,0.7-0.7
			C606.9,514.7,607.8,515.8,608.7,516.9z"/>
		<path class="st2" d="M594.4,496.5c3.6,4.7,7.1,9.7,11.3,13.9c-1.1,0.6-2,1.9-2.8,2.7c-1.5,1.5-3.7,3.1-5,5
			c-4.2-4.2-9.2-7.7-13.9-11.3c-3.8-3-7.6-6.3-11.7-8.9c2.5-2.4,4.9-4.9,7.4-7.4c1.9-1.9,4.2-3.8,5.7-6.1
			C587.9,488.7,591.3,492.6,594.4,496.5z"/>
		<path class="st2" d="M492.2,406.5c-0.7-1.3-1.3-2.7-2.2-4c1.3,0.8,2.7,1.5,4,2.2c1.1,0.6,2.3,1.3,3.4,1.8
			c-0.8,0.5-1.4,1.4-1.6,2.1c-0.2,0.6,0.5,1.5,1.2,1.2c0.8-0.3,1.2-0.8,1.8-1.5c0.2-0.2,0.3-0.5,0.4-0.7c1.5,2.2,3.9,4.1,5.6,5.9
			c1.7,1.7,3.4,3.8,5.4,5.1c-0.5,0.5-1,1.1-1.5,1.6c-0.8,0.8-1.7,1.6-2.6,2.4c-1.3-2-3.4-3.7-5.1-5.3c-2-2-4.2-4.6-6.6-6.1
			C494.1,409.6,493,408,492.2,406.5z"/>
		<path class="st2" d="M521.4,443.2c-5.2-5.3-10.3-11-16-15.8c1.7-1.1,3.1-2.7,4.5-4.1c1.7-1.6,3.9-3.1,5.1-5.2
			c4.8,5.6,10.4,10.6,15.6,15.8c4.3,4.3,8.5,9.1,13.5,12.7c0,0-0.1,0.1-0.1,0.1c-1.6,1.6-3.5,3.2-4.9,5c-1.8,1.5-3.4,3.3-5,4.9
			c0,0-0.1,0.1-0.1,0.1C530.5,451.7,525.7,447.5,521.4,443.2z"/>
		<path class="st2" d="M529,465c2.2-2.3,4.4-4.6,6.6-7c1.6-1.7,3.4-3.3,4.8-5.1c1.8-1.4,3.4-3.3,5.1-4.8c2.4-2.2,4.7-4.4,7-6.6
			c0.7,0.9,1.6,1.7,2.6,2.6c1.1,1.1,3.2,2.5,4.1,4.1c-2.6,1.7-4.6,4.6-6.9,6.7c-3,3-5.8,6.2-8.6,9.4c-0.1,0.1,0,0.3,0.2,0.2
			c3.9-2,7.4-4.4,10.7-7.3c1.7-1.5,3.6-3.2,5.1-5.1c0,1-0.1,1.9,0.1,2.8c0,0.8,0.2,1.6,0.5,2.3c-2.5,1.5-4.4,4-6.3,6.1
			c-2.4,2.7-5.3,5-7.8,7.7c-0.4,0.4,0.1,1.1,0.6,0.8c3.3-1.7,6.2-4.2,9.1-6.6c2-1.7,4.3-3.7,5.5-6.1c0.7,0.9,1.5,1.7,2.4,2.4
			c2.1,2.6,4.7,4.9,6.8,7.3c4.3,4.7,8.6,9.3,13,14c-2.2,1.6-4,3.9-5.9,5.8c-2.4,2.5-4.9,5-7.3,7.6c-4.7-4.4-9.4-8.7-14.1-13
			c-2.4-2.2-4.7-4.8-7.3-6.8c-0.9-1-1.9-2.1-3-2.8c-1-0.7-2.4-1.1-3.6-1.2c-1.6-0.3-3.3,0-5-0.1c-2.4,0-4.4-3.2-5.8-4.7
			C530.7,466.6,530,465.7,529,465z"/>
	</g>
	<g>
		<g>
			<path class="st3" d="M533.9,474.3c2.4,1.9,7,1.3,9.8,1.2c0.2,0,0.3-0.1,0.4-0.1c2.3,4,6.6,7.1,10,10.2c4.8,4.5,9.7,9,14.5,13.4
				c0.3,0.3,0.7,0.4,1.1,0.4c4,4.2,9.1,7.6,13.6,11.1c4.5,3.5,9,7.4,13.9,10.2c0.6,0.3,1.2,0.1,1.5-0.4c0.4-0.2,0.7-0.4,1.1-0.6
				c1.5,2.1,3.8,3.8,5.6,5.4c1,0.9,2,0.7,3,0.2c0.9,1.5,2.4,2.7,3.6,3.9c1.6,1.6,3.2,3.3,4.7,5c0.4,0.5,1.2,0.4,1.6,0
				c1-0.9,1.9-1.8,2.9-2.7c0.5-0.5,0.4-1.2,0-1.7c-1.5-1.7-3-3.5-4.6-5.2c-1.1-1.3-2.2-2.7-3.6-3.6c0.4-0.7,0.5-1.6,0-2.6
				c-0.7-1.3-2-2.6-2.9-3.7c-0.9-1-1.7-2-2.7-2.9c0.2-0.3,0.3-0.5,0.4-0.8c0.4-0.3,0.6-0.9,0.3-1.5c-2.8-5-6.7-9.4-10.2-13.9
				c-3.6-4.5-6.9-9.6-11.1-13.6c0-0.4-0.1-0.7-0.4-1.1c-4.5-4.9-8.9-9.7-13.4-14.5c-3.1-3.3-6.2-7.6-10.2-10
				c0.1-0.1,0.1-0.3,0.1-0.4c0.1-2.8,0.7-7.4-1.2-9.8c-1.6-2-3.7-3.7-5.6-5.4c-0.9-0.7-1.5-1.4-2.3-1.8c-0.1-0.1-0.3-0.2-0.4-0.4
				c-0.5-0.4-1.1-0.5-1.6-0.1c-0.1,0-0.1,0.1-0.1,0.1c0,0,0,0,0,0c-2,2.1-4.1,4.2-6.1,6.3c-4.1-5.5-9.6-10.1-14.4-14.8
				c-5.1-5-10-10.5-15.7-14.9c-0.5-0.4-1-0.3-1.4-0.1c-0.1,0-0.2,0.1-0.3,0.1c-0.6,0.3-1.3,0.8-1.8,1.2c-0.3,0.2-0.7,0.5-1,0.9
				c-1.4-2.4-4.1-4.6-5.9-6.6c-1.9-2-3.8-4.5-6.2-5.8c-1.5-1.3-3.6-2-5.2-2.7c-1.9-0.9-3.8-2.1-5.7-2.2c0,0-0.1,0-0.1,0c0,0,0,0,0,0
				c0,0-0.1,0-0.1,0.1c0,0,0,0-0.1,0.1c0,0,0,0,0,0c0,0,0,0.1,0,0.1c0.1,1.9,1.3,3.9,2.2,5.7c0.8,1.6,1.5,3.7,2.7,5.2
				c1.3,2.4,3.8,4.3,5.8,6.2c2,1.9,4.2,4.5,6.6,5.9c-0.9,0.9-1.7,2-2.2,3.2c0,0.1-0.1,0.1-0.1,0.2c0,0,0,0.1,0,0.1
				c0,0.1,0,0.2,0,0.3c0,0.2,0.1,0.5,0.3,0.7c4.4,5.6,9.9,10.6,14.9,15.7c4.8,4.8,9.4,10.3,14.8,14.4c-2.1,2-4.2,4-6.3,6.1
				c0,0,0,0,0,0c0,0-0.1,0.1-0.1,0.1c-0.3,0.5-0.3,1.1,0.1,1.6c0.1,0.1,0.2,0.3,0.4,0.4c0.4,0.8,1,1.5,1.8,2.3
				C530.2,470.6,531.9,472.7,533.9,474.3z M614.4,525.7c1.5,1.7,3,3.4,4.4,5c-0.4,0.4-0.8,0.8-1.3,1.2c-1.4-1.3-2.7-2.7-4-4
				c-1.2-1.2-2.2-2.6-3.6-3.5c0.3-0.2,0.6-0.5,0.8-0.7c0.4-0.4,0.8-0.7,1.2-1.1C612.6,523.7,613.5,524.6,614.4,525.7z M608.7,516.9
				c0.5,0.7,1.1,1.4,1.7,2.1c1,1.2,0.2,1.4-0.8,2.3c-0.4,0.4-2,2.3-2.8,1.7c0,0,0,0-0.1-0.1c0.3-0.3,0.6-0.6,0.9-0.9
				c0.5-0.6,1.1-1.2,1.2-2c0.1-0.5-0.3-0.9-0.8-0.8c-0.7,0.1-1.2,0.5-1.8,1c-0.4,0.4-0.9,0.7-1.3,1.2c-0.2-0.1-0.3-0.3-0.5-0.4
				c-0.1-0.1-0.2-0.2-0.3-0.2c0.5-0.4,0.9-0.9,1.3-1.4c0.6-0.7,1.1-1.3,1.5-2.2c0.3-0.7-0.6-1.2-1.2-0.9c-0.8,0.3-1.3,0.9-1.9,1.5
				c-0.5,0.5-1,0.9-1.4,1.5c-0.3-0.3-0.6-0.5-1-0.8c1.4-1.3,2.7-3,3.9-4.2c0,0,0.3-0.3,0.7-0.7C606.9,514.7,607.8,515.8,608.7,516.9
				z M594.4,496.5c3.6,4.7,7.1,9.7,11.3,13.9c-1.1,0.6-2,1.9-2.8,2.7c-1.5,1.5-3.7,3.1-5,5c-4.2-4.2-9.2-7.7-13.9-11.3
				c-3.8-3-7.6-6.3-11.7-8.9c2.5-2.4,4.9-4.9,7.4-7.4c1.9-1.9,4.2-3.8,5.7-6.1C587.9,488.7,591.3,492.6,594.4,496.5z M492.2,406.5
				c-0.7-1.3-1.3-2.7-2.2-4c1.3,0.8,2.7,1.5,4,2.2c1.1,0.6,2.3,1.3,3.4,1.8c-0.8,0.5-1.4,1.4-1.6,2.1c-0.2,0.6,0.5,1.5,1.2,1.2
				c0.8-0.3,1.2-0.8,1.8-1.5c0.2-0.2,0.3-0.5,0.4-0.7c1.5,2.2,3.9,4.1,5.6,5.9c1.7,1.7,3.4,3.8,5.4,5.1c-0.5,0.5-1,1.1-1.5,1.6
				c-0.8,0.8-1.7,1.6-2.6,2.4c-1.3-2-3.4-3.7-5.1-5.3c-2-2-4.2-4.6-6.6-6.1C494.1,409.6,493,408,492.2,406.5z M521.4,443.2
				c-5.2-5.3-10.3-11-16-15.8c1.7-1.1,3.1-2.7,4.5-4.1c1.7-1.6,3.9-3.1,5.1-5.2c4.8,5.6,10.4,10.6,15.6,15.8
				c4.3,4.3,8.5,9.1,13.5,12.7c0,0-0.1,0.1-0.1,0.1c-1.6,1.6-3.5,3.2-4.9,5c-1.8,1.5-3.4,3.3-5,4.9c0,0-0.1,0.1-0.1,0.1
				C530.5,451.7,525.7,447.5,521.4,443.2z M529,465c2.2-2.3,4.4-4.6,6.6-7c1.6-1.7,3.4-3.3,4.8-5.1c1.8-1.4,3.4-3.3,5.1-4.8
				c2.4-2.2,4.7-4.4,7-6.6c0.7,0.9,1.6,1.7,2.6,2.6c1.1,1.1,3.2,2.5,4.1,4.1c-2.6,1.7-4.6,4.6-6.9,6.7c-3,3-5.8,6.2-8.6,9.4
				c-0.1,0.1,0,0.3,0.2,0.2c3.9-2,7.4-4.4,10.7-7.3c1.7-1.5,3.6-3.2,5.1-5.1c0,1-0.1,1.9,0.1,2.8c0,0.8,0.2,1.6,0.5,2.3
				c-2.5,1.5-4.4,4-6.3,6.1c-2.4,2.7-5.3,5-7.8,7.7c-0.4,0.4,0.1,1.1,0.6,0.8c3.3-1.7,6.2-4.2,9.1-6.6c2-1.7,4.3-3.7,5.5-6.1
				c0.7,0.9,1.5,1.7,2.4,2.4c2.1,2.6,4.7,4.9,6.8,7.3c4.3,4.7,8.6,9.3,13,14c-2.2,1.6-4,3.9-5.9,5.8c-2.4,2.5-4.9,5-7.3,7.6
				c-4.7-4.4-9.4-8.7-14.1-13c-2.4-2.2-4.7-4.8-7.3-6.8c-0.9-1-1.9-2.1-3-2.8c-1-0.7-2.4-1.1-3.6-1.2c-1.6-0.3-3.3,0-5-0.1
				c-2.4,0-4.4-3.2-5.8-4.7C530.7,466.6,530,465.7,529,465z"/>
		</g>
		<path class="st3" d="M540.5,448.2c0.8-0.8,0.8-2.1,0-2.9c-0.8-0.8-2.1-0.8-2.9,0c-0.8,0.8-0.8,2.1,0,2.9
			C538.4,449,539.7,449,540.5,448.2z"/>
		<path class="st3" d="M535.7,453c0.8-0.8,0.8-2.1,0-2.9c-0.8-0.8-2.1-0.8-2.9,0c-0.8,0.8-0.8,2.1,0,2.9
			C533.6,453.8,534.9,453.8,535.7,453z"/>
		<path class="st3" d="M534.3,446.8c0.8-0.8,0.8-2.1,0-2.9s-2.1-0.8-2.9,0c-0.8,0.8-0.8,2.1,0,2.9
			C532.2,447.6,533.5,447.6,534.3,446.8z"/>
	</g>
</g>
</svg>
