<?xml version="1.0" encoding="utf-8"?>
<!-- Generator: Adobe Illustrator 19.0.0, SVG Export Plug-In . SVG Version: 6.00 Build 0)  -->
<svg version="1.1" id="OBJECTS" xmlns="http://www.w3.org/2000/svg" xmlns:xlink="http://www.w3.org/1999/xlink" x="0px" y="0px"
	 viewBox="0 0 639.7 567.9" style="enable-background:new 0 0 639.7 567.9;" xml:space="preserve">
<style type="text/css">
	._x005B_Por_x0020_defecto_x005D_{fill:#FFFFFF;stroke:#000000;stroke-miterlimit:10;}
	.Graphic_x0020_Style{fill:#FFFFFF;}
	.st0{fill:#FFFFFF;}
	.st1{fill:#333333;}
</style>
<g>
	<g>
		<path class="st0" d="M70.1,4.7c0.1-0.1,0.2-0.2,0.3-0.4C71.8,3,73,2.7,74.2,2.9c3.3,1,7,5.8,9.2,8.3c-0.3,0-0.5-0.1-0.8-0.1
			C77.6,10.2,72.5,9,67.3,8C68.3,6.9,69.2,5.8,70.1,4.7z"/>
		<path class="st0" d="M26,87.7c-1,0.9-3,3.4-4.7,3.9c-0.5,0-1-0.1-1.6-0.3c-1.4-0.9-2.6-1.9-3.9-3c-1.4-1.5-2.6-3-3.5-3.9
			c-0.1-0.1-0.2-0.2-0.3-0.3c4.6,0.9,9.7,2.1,14.7,2.9C26.5,87.3,26.2,87.5,26,87.7z"/>
		<path class="st0" d="M29.7,83.8c-5.7-1.1-11.6-1.7-17-2.7c-1.8-0.3-3.5-0.7-5.3-1c-2-1.8-3.9-3.9-4.5-5.9c-0.2-1.2,0-2.4,1.4-3.8
			c0.1-0.1,0.2-0.2,0.4-0.3c2.6-2.1,5.1-4.4,7.6-6.8c5.7,1.3,11.5,2.2,17.1,3.3C34,67.5,39,68.6,44,69.5
			C39.3,74.2,34.3,78.9,29.7,83.8z"/>
		<path class="st0" d="M51.9,61.5c-1.1,1-2.1,2.1-3.2,3.2c0,0,0,0,0,0c-0.5,0.5-1,1-1.5,1.6c-5.7-1.1-11.6-1.7-16.9-2.7
			c-5-0.9-10-2.1-15.1-3.1c3.8-3.8,7.4-7.7,11-11.4c1.1-1.1,2.2-2.3,3.3-3.4c5.8,1.3,11.7,2.3,17.4,3.4c4.5,0.9,9.5,2,14.5,2.9
			c-0.9,0.9-1.7,1.7-2.6,2.6C56.5,56.9,54.3,59.3,51.9,61.5z"/>
		<path class="st0" d="M69.2,44.2c-1.5,1.5-3,3-4.5,4.4c-0.1,0-0.1,0.1-0.2,0.1c-5.7-1.1-11.5-1.7-16.9-2.7
			C42.6,45.2,37.4,44,32.2,43c1.8-1.8,3.6-3.6,5.3-5.4c3.2-3.1,6.3-6.2,9.4-9.3c5.8,1.3,11.7,2.3,17.4,3.4c4.5,0.9,9.5,2,14.5,2.9
			C75.6,37.7,72.4,41.1,69.2,44.2z"/>
		<path class="st0" d="M91.3,19.7c0.2,0.5,0.3,1.1,0.3,1.6c-0.5,1.8-3,3.7-3.9,4.7c-0.4,0.4-0.7,0.8-1.1,1.2c-1.5,1.3-3,2.7-4.5,4.1
			c-5.7-1.1-11.6-1.7-16.9-2.7c-5.1-0.9-10.2-2.1-15.4-3.1c4.9-4.8,10.2-9.6,15-14.7c5.7,1.3,11.5,2.2,17.1,3.3
			c1.9,0.4,3.8,0.8,5.8,1.2c0.2,0.2,0.4,0.3,0.5,0.5C89.3,17,90.4,18.3,91.3,19.7z"/>
		<path class="st0" d="M147.8,130.7c-3.7-0.9-7.3-4.6-10.1-6.6c-5.8-4.1-11.5-8.5-16.9-13.1c-8.5-7.2-21.2-16.5-23.3-28.2
			c-3,1.9-5.6,4.2-8.1,6.6c-2.4,2.5-4.6,5.1-6.6,8.1c11.7,2.1,21,14.8,28.2,23.3c4.6,5.4,9,11.1,13.1,16.9c2,2.8,5.6,6.4,6.6,10.1
			c0.2,0.7,0.4,1.3,0.6,2.1c2.7-1.5,5.2-3,7.6-5c1.1-0.9,2.1-1.9,3.2-2.9c1-1,2-2,2.9-3.2c1.9-2.4,3.5-4.9,5-7.6
			C149.1,131.1,148.5,130.9,147.8,130.7z M142.4,135.3c-0.3,1.6-1.2,3.4-2.5,4.6c-1.2,1.3-3,2.2-4.6,2.5c-3.1,0.6-5.1-1.7-6.5-4.1
			c-1.2-2.2-3.8-6.2-3-8.9c0.2-0.8,0.7-1.7,1.3-2.2c0,0,0,0,0.1-0.1c0,0,0,0,0.1-0.1c0.6-0.6,1.4-1,2.2-1.3c2.7-0.8,6.7,1.8,8.9,3
			C140.7,130.1,143.1,132.2,142.4,135.3z"/>
	</g>
	<g>
		<path class="st1" d="M138.3,128.8c-2.2-1.2-6.2-3.8-8.9-3c-0.8,0.2-1.7,0.7-2.2,1.3c0,0,0,0-0.1,0.1c0,0,0,0-0.1,0.1
			c-0.6,0.6-1,1.4-1.3,2.2c-0.8,2.7,1.8,6.7,3,8.9c1.3,2.4,3.4,4.8,6.5,4.1c1.6-0.3,3.4-1.2,4.6-2.5c1.3-1.2,2.2-3,2.5-4.6
			C143.1,132.2,140.7,130.1,138.3,128.8z M138.2,138C138.2,138,138.1,138.1,138.2,138c-0.1,0.1-0.1,0.2-0.2,0.2
			c-2.6,2.2-5.1,2.1-6.9-1.2c-1.3-2.4-3.6-5.6-2.3-8.1c2.6-1.3,5.7,1,8.1,2.3C140.3,132.9,140.4,135.4,138.2,138z"/>
		<path class="st1" d="M92.5,9.5C90,7.1,86.4,6,84.2,8.3c-1.9-1.9-3.8-3.8-5.7-5.6c-1-1-2.7-2.8-4.3-2.6c-0.5,0-1,0.1-1.5,0.3
			c-0.3,0-0.7,0.1-1,0.2C70,1,68.8,2.8,67.6,4c-0.7,0.7-1.5,1.4-2.1,2.3c-6.4,5.5-12.4,12.1-18.3,17.9c-0.7,0.6-1.3,1.3-2,1.9
			c-0.7,0.6-1.5,1.2-2.2,1.8c-1.6,1.8-3.2,3.5-4.8,5.2c-2.5,2.5-5,5-7.5,7.5c-1.7,1.7-3.3,3.6-5.1,5.2l-1.4,1.4
			c-5.8,5.9-12.4,11.9-17.9,18.3C5.5,66.1,4.8,67,4,67.6c-1.2,1.1-3,2.4-3.6,4c-0.1,0.4-0.2,0.7-0.2,1c-0.1,0.5-0.2,1-0.3,1.5
			c-0.2,1.6,1.6,3.3,2.6,4.3c2.2,2.2,4.3,4.4,6.5,6.5c2.6,2.6,5.1,5.2,7.7,7.7c0.9,0.9,1.9,1.8,3.2,2.1c1.8,0.4,3.4-0.3,4.2-1.6
			c0.8-0.7,1.5-1.5,2.1-2.2c0.7-0.8,1.4-1.5,2.2-2.3c6.2-5.5,11.9-11.9,17.6-17.7c4.1-4.2,8.3-8.4,12.4-12.6
			c4.2-4.1,8.4-8.3,12.6-12.4c5.8-5.7,12.2-11.4,17.7-17.6c0.8-0.7,1.5-1.5,2.3-2.2c0.6-0.6,1.5-1.3,2.2-2.1c1.3-0.8,2-2.4,1.6-4.2
			c-0.3-1.3-1.2-2.3-2.1-3.2c-2-2.1-4.2-4.2-6.3-6.3c4.2-0.5,7.8,4.6,10.6,7.4c3.4,3.4,6.8,6.6,10.2,10c0,0.1,0,0.1,0.1,0.2
			c-0.5,0.9-0.7,2.1-1,3c-0.2,0.6-0.4,1.1-0.6,1.7c-3.6,7.6-6.3,15.8-9.5,23.6c-3.9,9.7-7.9,19.3-11.7,29.1c0,0.1,0,0.1,0,0.1
			c0,0,0,0,0,0c-0.2,0.5-0.2,1.1,0.3,1.6c0.2,0.2,1,1.1,1.9,1.8c-2.5,2.7-4.6,5.9-6.3,8.9c-0.3,0.5,0,1.3,0.6,1.4
			c2.9,0.6,5.7,1.5,8.2,3c7.2,5.2,13.2,12.4,18.8,18.9c4.2,4.8,8.1,9.8,12.2,14.8c3.3,4,6.4,7.4,8.5,11.9c0.4,1.2,0.6,2.4,0.8,3.6
			c0.1,0.8,0.8,1.2,1.5,0.9c3.4-1.5,7.3-3.6,10.6-6.3c0.8-0.6,1.6-1.4,2.4-2.1c0.8-0.8,1.5-1.6,2.1-2.4c2.7-3.3,4.8-7.2,6.3-10.6
			c0.3-0.7-0.1-1.4-0.9-1.5c-1.3-0.1-2.5-0.4-3.6-0.8c-4.5-2.1-7.9-5.2-11.9-8.5c-4.9-4.1-9.9-8-14.8-12.2
			c-6.5-5.6-13.7-11.6-18.9-18.8c-1.5-2.5-2.4-5.4-3-8.2c-0.1-0.6-0.9-0.9-1.4-0.6c-3.3,1.9-6.7,4.1-9.5,6.9
			c-0.4-0.5-0.8-0.9-1.3-1.3c0.1-0.5,0.3-1.1,0.4-1.6c3.7-8.9,7.3-17.8,10.9-26.7c3.9-9.5,8.6-19,11.4-29c0.3-0.4,0.3-1-0.2-1.5
			C104,21.3,98.4,15.2,92.5,9.5z M70.1,4.7c0.1-0.1,0.2-0.2,0.3-0.4C71.8,3,73,2.7,74.2,2.9c3.3,1,7,5.8,9.2,8.3
			c-0.3,0-0.5-0.1-0.8-0.1C77.6,10.2,72.5,9,67.3,8C68.3,6.9,69.2,5.8,70.1,4.7z M26,87.7c-1,0.9-3,3.4-4.7,3.9
			c-0.5,0-1-0.1-1.6-0.3c-1.4-0.9-2.6-1.9-3.9-3c-1.4-1.5-2.6-3-3.5-3.9c-0.1-0.1-0.2-0.2-0.3-0.3c4.6,0.9,9.7,2.1,14.7,2.9
			C26.5,87.3,26.2,87.5,26,87.7z M29.7,83.8c-5.7-1.1-11.6-1.7-17-2.7c-1.8-0.3-3.5-0.7-5.3-1c-2-1.8-3.9-3.9-4.5-5.9
			c-0.2-1.2,0-2.4,1.4-3.8c0.1-0.1,0.2-0.2,0.4-0.3c2.6-2.1,5.1-4.4,7.6-6.8c5.7,1.3,11.5,2.2,17.1,3.3C34,67.5,39,68.6,44,69.5
			C39.3,74.2,34.3,78.9,29.7,83.8z M51.9,61.5c-1.1,1-2.1,2.1-3.2,3.2c0,0,0,0,0,0c-0.5,0.5-1,1-1.5,1.6c-5.7-1.1-11.6-1.7-16.9-2.7
			c-5-0.9-10-2.1-15.1-3.1c3.8-3.8,7.4-7.7,11-11.4c1.1-1.1,2.2-2.3,3.3-3.4c5.8,1.3,11.7,2.3,17.4,3.4c4.5,0.9,9.5,2,14.5,2.9
			c-0.9,0.9-1.7,1.7-2.6,2.6C56.5,56.9,54.3,59.3,51.9,61.5z M69.2,44.2c-1.5,1.5-3,3-4.5,4.4c-0.1,0-0.1,0.1-0.2,0.1
			c-5.7-1.1-11.5-1.7-16.9-2.7C42.6,45.2,37.4,44,32.2,43c1.8-1.8,3.6-3.6,5.3-5.4c3.2-3.1,6.3-6.2,9.4-9.3
			c5.8,1.3,11.7,2.3,17.4,3.4c4.5,0.9,9.5,2,14.5,2.9C75.6,37.7,72.4,41.1,69.2,44.2z M91.3,19.7c0.2,0.5,0.3,1.1,0.3,1.6
			c-0.5,1.8-3,3.7-3.9,4.7c-0.4,0.4-0.7,0.8-1.1,1.2c-1.5,1.3-3,2.7-4.5,4.1c-5.7-1.1-11.6-1.7-16.9-2.7c-5.1-0.9-10.2-2.1-15.4-3.1
			c4.9-4.8,10.2-9.6,15-14.7c5.7,1.3,11.5,2.2,17.1,3.3c1.9,0.4,3.8,0.8,5.8,1.2c0.2,0.2,0.4,0.3,0.5,0.5
			C89.3,17,90.4,18.3,91.3,19.7z M97.5,82.8c2.1,11.7,14.8,21,23.3,28.2c5.4,4.6,11.1,9,16.9,13.1c2.8,2,6.4,5.6,10.1,6.6
			c0.7,0.2,1.3,0.4,2.1,0.6c-1.5,2.7-3,5.2-5,7.6C144,140,143,141,142,142c-1,1-2,2-3.2,2.9c-2.4,1.9-4.9,3.5-7.6,5
			c-0.1-0.7-0.3-1.4-0.6-2.1c-0.9-3.7-4.6-7.3-6.6-10.1c-4.1-5.8-8.5-11.5-13.1-16.9c-7.2-8.5-16.5-21.2-28.2-23.3
			c1.9-3,4.2-5.6,6.6-8.1C91.9,87,94.5,84.8,97.5,82.8z"/>
	</g>
</g>
<g>
	<g>
		<path class="st0" d="M189.1,67.8c-4.1-2.9-8.4-5.5-12.4-8.5c-1.1-0.8-2.7-1.8-3.9-3c-0.8-0.7-1.5-1.6-1.5-2.3
			c-0.1-1.6,2-1.7,2.8-0.8c0.1,0,0.1,0.1,0.2,0.1c0.7,0.3,1.2-0.4,1-1c-0.1-0.3-0.4-0.8-0.6-1.2c-0.2-0.3-0.4-0.6-0.5-0.9
			c-0.4-1-0.1-1.9,0.9-2.3c1-0.4,2.1,0,2.8,0.7c0.1,0.1,0.3,0.2,0.4,0.3c0.1,0,0.1,0.1,0.2,0.1c0.3,0.1,0.5,0.1,0.8,0.1
			c0.1,0,0.1,0,0.2-0.1c0.4-0.2,0.6-0.7,0.4-1.1c-0.2-0.2-0.4-0.4-0.6-0.6c-0.8-1-1.2-2.4-0.5-3.5c0.8-1.1,2.3-1,3.4-0.5
			c0.1,0.1,0.4,0.2,0.6,0.5c0.9,0.6,2-0.2,1.9-1c-0.7-0.7-1.3-1.4-1.7-2.1c-0.6-1-0.5-2.2,0.7-2.7c0.7-0.3,1.4-0.3,1.9,0
			c0.3,0.1,0.5,0.2,0.7,0.4c0.3,0.1,0.5,0.4,0.8,0.6c0,0,0,0,0,0c1,0.5,1.7-0.5,1.5-1.4c-0.7-0.7-1.3-1.5-1.1-2.4c0.1-1,1-1.5,2-1.5
			c0.7,0,1.3,0.4,1.7,0.9c0.3,0.2,0.7,0.2,1,0.1c0.2-0.1,0.4-0.3,0.5-0.5c0.1-0.2,0-0.4-0.1-0.6c-0.4-0.4-0.9-1-0.8-1.6
			c0.1-1,0.7-1.6,1.7-1.6c0.5,0.1,1,0.3,1.5,0.5c0.1,0,0.2,0.1,0.3,0c0.2,0,0.4-0.1,0.5-0.2c0.2-0.1,0.2-0.3,0.2-0.5
			c0-0.1,0-0.2,0-0.3c-0.2-0.5-0.4-1-0.5-1.5c0-1,0.6-1.6,1.6-1.7c0.6-0.1,1.1,0.4,1.6,0.8c0.2,0.1,0.4,0.2,0.6,0.1
			c0.2-0.1,0.4-0.3,0.5-0.5c0.1-0.3,0.1-0.7-0.1-1c-0.5-0.5-0.9-1.1-0.9-1.7c0-1,0.5-1.8,1.5-2c0.9-0.1,1.8,0.4,2.4,1.1
			c0.9,0.2,1.9-0.6,1.4-1.5c0,0,0,0,0,0c-0.2-0.2-0.4-0.5-0.6-0.8c-0.2-0.2-0.3-0.5-0.4-0.7c-0.2-0.5-0.3-1.2,0-1.9
			c0.5-1.1,1.7-1.3,2.7-0.7c0.7,0.4,1.4,1,2.1,1.7c0.8,0.1,1.6-1,1-1.9c-0.2-0.3-0.4-0.5-0.5-0.6c-0.6-1.1-0.7-2.6,0.5-3.4
			c1.1-0.8,2.6-0.4,3.5,0.5c0.2,0.2,0.4,0.4,0.6,0.6c0.4,0.2,0.8,0,1.1-0.4c0-0.1,0-0.1,0.1-0.2c0.1-0.2,0.1-0.5-0.1-0.8
			c0-0.1-0.1-0.1-0.1-0.2c-0.1-0.1-0.2-0.3-0.3-0.4c-0.7-0.7-1.1-1.8-0.7-2.8c0.4-1,1.3-1.3,2.3-0.9c0.3,0.1,0.6,0.3,0.9,0.5
			c0.4,0.2,0.8,0.4,1.2,0.6c0.6,0.1,1.3-0.4,1-1c0-0.1-0.1-0.1-0.1-0.2c-0.9-0.8-0.9-2.9,0.8-2.8c0.8,0.1,1.6,0.7,2.3,1.5
			c1.2,1.2,2.2,2.8,3,3.9c3,4.1,5.6,8.3,8.5,12.4c2.4,3.4,4.7,6.9,6.8,10.6c1.3,1.8,2.6,3.5,4.2,5c-1.5,1.2-3,2.5-4.4,3.9
			c-1.7-4.3-4.7-8.2-7.2-12c-2.7-4.3-5.6-8.7-9.1-12.3c-0.3-0.3-0.9,0.1-0.8,0.5c1.8,4.8,4.6,9.2,7.3,13.5c2.5,4,4.8,8.6,8.2,11.9
			c-1.3,1.4-2.6,2.8-3.9,4.2c-2-4.2-5.4-7.8-8.2-11.5c-3.1-4-6.3-8.2-10.2-11.5c-0.4-0.3-0.9,0.1-0.7,0.6c2.2,4.6,5.4,8.8,8.5,12.8
			c2.9,3.7,5.5,8.1,9.2,11.2c-0.9,1-1.8,1.9-2.7,2.9c-0.4,0.4-0.8,0.8-1.2,1.2c-2.5-4-6.4-7.2-9.7-10.6c-3.6-3.6-7.2-7.3-11.5-10.2
			c-0.4-0.3-0.9,0.3-0.6,0.6c2.7,4.3,6.4,8.1,10,11.7c3.3,3.3,6.4,7.3,10.3,9.9c-0.9,0.9-1.8,1.8-2.7,2.7c-0.9,0.9-1.8,1.8-2.7,2.7
			c-2.6-3.9-6.6-7.1-9.9-10.3c-3.6-3.6-7.4-7.2-11.7-10c-0.4-0.2-0.9,0.3-0.6,0.6c2.8,4.3,6.5,7.9,10.2,11.5
			c3.3,3.3,6.6,7.2,10.6,9.7c-0.4,0.4-0.8,0.8-1.2,1.2c-0.9,0.9-1.9,1.8-2.9,2.7c-3.1-3.6-7.4-6.3-11.2-9.2
			c-4.1-3.1-8.2-6.3-12.8-8.5c-0.4-0.2-0.9,0.4-0.6,0.7c3.3,3.9,7.4,7.1,11.5,10.2c3.7,2.8,7.3,6.2,11.5,8.2
			c-1.4,1.3-2.8,2.6-4.2,3.9c-3.4-3.4-7.9-5.7-11.9-8.2c-4.3-2.7-8.7-5.5-13.5-7.3c-0.4-0.2-0.8,0.4-0.5,0.8c3.6,3.6,8,6.4,12.3,9.1
			c3.9,2.5,7.7,5.5,12,7.2c-1.4,1.4-2.7,2.9-3.9,4.4c-1.5-1.5-3.2-2.9-5-4.2C196,72.5,192.5,70.2,189.1,67.8z"/>
		<path class="st0" d="M252.5,48c3.2,3.3,6.2,7.1,9.7,10c-5.3,3.9-9.7,9.6-14.4,14.2c-1.8,1.8-3.6,3.6-5.4,5.4
			c-1.8,1.8-3.6,3.6-5.4,5.4c-4.7,4.6-10.3,9.1-14.2,14.4c-2.9-3.6-6.7-6.5-10-9.7c-1.7-1.7-6.6-4.8-6.9-7.4
			c5.2-3.9,9.6-9.5,14.2-14.2c1.8-1.8,3.6-3.6,5.4-5.4c1.8-1.8,3.6-3.6,5.4-5.4c4.6-4.6,10.2-9,14.2-14.2
			C247.7,41.4,250.8,46.3,252.5,48z"/>
		<path class="st0" d="M263.9,59.8c-0.1-0.1-0.2-0.2-0.3-0.4c-4,5.3-9.6,9.7-14.2,14.3c-1.8,1.8-3.6,3.6-5.4,5.4
			c-1.8,1.8-3.6,3.6-5.4,5.4c-4.6,4.7-9,10.3-14.3,14.2c0.1,0.1,0.3,0.2,0.4,0.3c0.2,0.2,0.4,0.3,0.6,0.6c3.9,1.3,8.5-1.7,12.2-2.8
			c3.4-0.9,7.1-0.9,10.5-0.4c7.6,1,14,5.3,18.6,11.2c5.8,7.4,8.9,16.2,15.3,23.2c4.7,5.1,10.8,9.8,17.4,12.8
			c0.6,0.2,1.3,0.5,1.9,0.8c1.9,0.8,3.9,1.4,5.9,1.8c0.3,0,0.6,0.1,0.9,0.1c1,0.1,1.7-0.3,2.4-0.7c0.5-0.7,0.8-1.4,0.7-2.4
			c0-0.3-0.1-0.6-0.1-0.9c-0.4-2-1-4-1.8-5.9c-0.3-0.6-0.6-1.3-0.8-1.9c-3-6.7-7.7-12.8-12.8-17.4c-7-6.4-15.8-9.5-23.2-15.3
			c-6-4.6-10.3-11-11.2-18.6c-0.4-3.5-0.5-7.1,0.4-10.5c1-3.7,4-8.3,2.8-12.2C264.2,60.2,264,60,263.9,59.8z M300.9,130.3
			c1.2,3.1-1.4,6.7-4.9,6.1c-1.8-0.3-3.2-1.6-3.6-3.4c0-0.2-0.1-0.4-0.1-0.7c-0.2-1.2,0.1-2.6,0.9-3.4
			C295.7,126.5,299.7,127,300.9,130.3z"/>
	</g>
	<g>
		<path class="st1" d="M244.8,38.8c-1.9-4.8-5.9-9.3-8.8-13.5c-2.1-3-4.2-5.9-6.3-8.9c-1-1.7-2.2-3.3-3.2-4.9c-1.4-2-3-5.9-5.4-7.1
			c-2.3-1.2-5.5,0.1-5.4,2.1c0,0.1-0.1,0.2-0.1,0.3c-2.6-0.7-5.5,1.8-5.3,4.6c-2.4,0-4.4,2-4.4,4.5c-2.6-0.4-5,1.7-4.9,4.5
			c-2.5-0.3-4.6,1.6-4.5,4.1c-2,0.1-3.7,2-3.1,3.9c-1.9-0.6-3.9,1.1-3.9,3.1c-2.4-0.1-4.3,1.9-4.1,4.5c-2.8-0.1-4.9,2.3-4.5,4.9
			c-2.5,0-4.5,2-4.5,4.4c-2.9-0.2-5.3,2.7-4.6,5.3c-0.1,0-0.2,0-0.3,0.1c-2,0-3.3,3.2-2.1,5.4c1.2,2.3,5,4,7.1,5.4
			c1.6,1.1,3.2,2.2,4.9,3.2c2.9,2.1,5.9,4.2,8.9,6.3c4.2,2.9,8.6,6.9,13.5,8.8c-0.4,0.3-0.5,0.9-0.2,1.3c3.3,3.7,7,7.1,10.6,10.5
			c2.6,2.5,5.1,5.1,8,7.1c0,0.2,0.1,0.3,0.3,0.4c0.8,0.7,1.4,1.5,2.2,2.2c5.8,2.5,12.8-3,19-2.9c11.6,0.2,19.2,6.8,24.8,16.5
			c7.3,12.6,17.9,26.8,32.4,31.7c1.9,0.9,4.2,1.4,5.9,1.6c0.6,0.1,1.5,0.1,2.3,0c0,0,0.1,0,0.1,0c0.1,0,0.3,0,0.4-0.1
			c1.1-0.1,2-0.5,2.6-1.1c0.7-0.5,1-1.5,1.1-2.6c0-0.1,0.1-0.2,0.1-0.4c0,0,0-0.1,0-0.1c0.1-0.9,0-1.7,0-2.3c-0.2-1.7-0.7-4-1.6-5.9
			c-4.9-14.5-19.1-25.1-31.7-32.4c-9.7-5.6-16.2-13.2-16.5-24.8c-0.1-6.2,5.4-13.2,2.9-19c-0.7-0.8-1.5-1.4-2.2-2.2
			c-0.1-0.1-0.3-0.2-0.4-0.3c-2-2.9-4.7-5.4-7.1-8c-3.4-3.6-6.8-7.3-10.5-10.6C245.6,38.3,245.1,38.4,244.8,38.8z M189.1,67.8
			c-4.1-2.9-8.4-5.5-12.4-8.5c-1.1-0.8-2.7-1.8-3.9-3c-0.8-0.7-1.5-1.6-1.5-2.3c-0.1-1.6,2-1.7,2.8-0.8c0.1,0,0.1,0.1,0.2,0.1
			c0.7,0.3,1.2-0.4,1-1c-0.1-0.3-0.4-0.8-0.6-1.2c-0.2-0.3-0.4-0.6-0.5-0.9c-0.4-1-0.1-1.9,0.9-2.3c1-0.4,2.1,0,2.8,0.7
			c0.1,0.1,0.3,0.2,0.4,0.3c0.1,0,0.1,0.1,0.2,0.1c0.3,0.1,0.5,0.1,0.8,0.1c0.1,0,0.1,0,0.2-0.1c0.4-0.2,0.6-0.7,0.4-1.1
			c-0.2-0.2-0.4-0.4-0.6-0.6c-0.8-1-1.2-2.4-0.5-3.5c0.8-1.1,2.3-1,3.4-0.5c0.1,0.1,0.4,0.2,0.6,0.5c0.9,0.6,2-0.2,1.9-1
			c-0.7-0.7-1.3-1.4-1.7-2.1c-0.6-1-0.5-2.2,0.7-2.7c0.7-0.3,1.4-0.3,1.9,0c0.3,0.1,0.5,0.2,0.7,0.4c0.3,0.1,0.5,0.4,0.8,0.6
			c0,0,0,0,0,0c1,0.5,1.7-0.5,1.5-1.4c-0.7-0.7-1.3-1.5-1.1-2.4c0.1-1,1-1.5,2-1.5c0.7,0,1.3,0.4,1.7,0.9c0.3,0.2,0.7,0.2,1,0.1
			c0.2-0.1,0.4-0.3,0.5-0.5c0.1-0.2,0-0.4-0.1-0.6c-0.4-0.4-0.9-1-0.8-1.6c0.1-1,0.7-1.6,1.7-1.6c0.5,0.1,1,0.3,1.5,0.5
			c0.1,0,0.2,0.1,0.3,0c0.2,0,0.4-0.1,0.5-0.2c0.2-0.1,0.2-0.3,0.2-0.5c0-0.1,0-0.2,0-0.3c-0.2-0.5-0.4-1-0.5-1.5
			c0-1,0.6-1.6,1.6-1.7c0.6-0.1,1.1,0.4,1.6,0.8c0.2,0.1,0.4,0.2,0.6,0.1c0.2-0.1,0.4-0.3,0.5-0.5c0.1-0.3,0.1-0.7-0.1-1
			c-0.5-0.5-0.9-1.1-0.9-1.7c0-1,0.5-1.8,1.5-2c0.9-0.1,1.8,0.4,2.4,1.1c0.9,0.2,1.9-0.6,1.4-1.5c0,0,0,0,0,0
			c-0.2-0.2-0.4-0.5-0.6-0.8c-0.2-0.2-0.3-0.5-0.4-0.7c-0.2-0.5-0.3-1.2,0-1.9c0.5-1.1,1.7-1.3,2.7-0.7c0.7,0.4,1.4,1,2.1,1.7
			c0.8,0.1,1.6-1,1-1.9c-0.2-0.3-0.4-0.5-0.5-0.6c-0.6-1.1-0.7-2.6,0.5-3.4c1.1-0.8,2.6-0.4,3.5,0.5c0.2,0.2,0.4,0.4,0.6,0.6
			c0.4,0.2,0.8,0,1.1-0.4c0-0.1,0-0.1,0.1-0.2c0.1-0.2,0.1-0.5-0.1-0.8c0-0.1-0.1-0.1-0.1-0.2c-0.1-0.1-0.2-0.3-0.3-0.4
			c-0.7-0.7-1.1-1.8-0.7-2.8c0.4-1,1.3-1.3,2.3-0.9c0.3,0.1,0.6,0.3,0.9,0.5c0.4,0.2,0.8,0.4,1.2,0.6c0.6,0.1,1.3-0.4,1-1
			c0-0.1-0.1-0.1-0.1-0.2c-0.9-0.8-0.9-2.9,0.8-2.8c0.8,0.1,1.6,0.7,2.3,1.5c1.2,1.2,2.2,2.8,3,3.9c3,4.1,5.6,8.3,8.5,12.4
			c2.4,3.4,4.7,6.9,6.8,10.6c1.3,1.8,2.6,3.5,4.2,5c-1.5,1.2-3,2.5-4.4,3.9c-1.7-4.3-4.7-8.2-7.2-12c-2.7-4.3-5.6-8.7-9.1-12.3
			c-0.3-0.3-0.9,0.1-0.8,0.5c1.8,4.8,4.6,9.2,7.3,13.5c2.5,4,4.8,8.6,8.2,11.9c-1.3,1.4-2.6,2.8-3.9,4.2c-2-4.2-5.4-7.8-8.2-11.5
			c-3.1-4-6.3-8.2-10.2-11.5c-0.4-0.3-0.9,0.1-0.7,0.6c2.2,4.6,5.4,8.8,8.5,12.8c2.9,3.7,5.5,8.1,9.2,11.2c-0.9,1-1.8,1.9-2.7,2.9
			c-0.4,0.4-0.8,0.8-1.2,1.2c-2.5-4-6.4-7.2-9.7-10.6c-3.6-3.6-7.2-7.3-11.5-10.2c-0.4-0.3-0.9,0.3-0.6,0.6c2.7,4.3,6.4,8.1,10,11.7
			c3.3,3.3,6.4,7.3,10.3,9.9c-0.9,0.9-1.8,1.8-2.7,2.7c-0.9,0.9-1.8,1.8-2.7,2.7c-2.6-3.9-6.6-7.1-9.9-10.3
			c-3.6-3.6-7.4-7.2-11.7-10c-0.4-0.2-0.9,0.3-0.6,0.6c2.8,4.3,6.5,7.9,10.2,11.5c3.3,3.3,6.6,7.2,10.6,9.7
			c-0.4,0.4-0.8,0.8-1.2,1.2c-0.9,0.9-1.9,1.8-2.9,2.7c-3.1-3.6-7.4-6.3-11.2-9.2c-4.1-3.1-8.2-6.3-12.8-8.5
			c-0.4-0.2-0.9,0.4-0.6,0.7c3.3,3.9,7.4,7.1,11.5,10.2c3.7,2.8,7.3,6.2,11.5,8.2c-1.4,1.3-2.8,2.6-4.2,3.9
			c-3.4-3.4-7.9-5.7-11.9-8.2c-4.3-2.7-8.7-5.5-13.5-7.3c-0.4-0.2-0.8,0.4-0.5,0.8c3.6,3.6,8,6.4,12.3,9.1c3.9,2.5,7.7,5.5,12,7.2
			c-1.4,1.4-2.7,2.9-3.9,4.4c-1.5-1.5-3.2-2.9-5-4.2C196,72.5,192.5,70.2,189.1,67.8z M264.4,60.3c1.3,3.9-1.7,8.5-2.8,12.2
			c-0.9,3.4-0.9,7.1-0.4,10.5c1,7.6,5.3,14,11.2,18.6c7.4,5.8,16.2,8.9,23.2,15.3c5.1,4.7,9.8,10.8,12.8,17.4
			c0.2,0.6,0.5,1.3,0.8,1.9c0.8,1.9,1.4,3.9,1.8,5.9c0,0.3,0.1,0.6,0.1,0.9c0.1,1-0.3,1.7-0.7,2.4c-0.7,0.5-1.4,0.8-2.4,0.7
			c-0.3,0-0.6-0.1-0.9-0.1c-2-0.4-4-1-5.9-1.8c-0.6-0.3-1.3-0.6-1.9-0.8c-6.7-3-12.8-7.7-17.4-12.8c-6.4-7-9.5-15.8-15.3-23.2
			c-4.6-6-11-10.3-18.6-11.2c-3.5-0.4-7.1-0.5-10.5,0.4c-3.7,1-8.3,4-12.2,2.8c-0.2-0.2-0.4-0.4-0.6-0.6c-0.1-0.1-0.2-0.2-0.4-0.3
			c5.3-4,9.7-9.6,14.3-14.2c1.8-1.8,3.6-3.6,5.4-5.4c1.8-1.8,3.6-3.6,5.4-5.4c4.7-4.6,10.3-9,14.2-14.3c0.1,0.1,0.2,0.3,0.3,0.4
			C264,60,264.2,60.2,264.4,60.3z M252.5,48c3.2,3.3,6.2,7.1,9.7,10c-5.3,3.9-9.7,9.6-14.4,14.2c-1.8,1.8-3.6,3.6-5.4,5.4
			c-1.8,1.8-3.6,3.6-5.4,5.4c-4.7,4.6-10.3,9.1-14.2,14.4c-2.9-3.6-6.7-6.5-10-9.7c-1.7-1.7-6.6-4.8-6.9-7.4
			c5.2-3.9,9.6-9.5,14.2-14.2c1.8-1.8,3.6-3.6,5.4-5.4c1.8-1.8,3.6-3.6,5.4-5.4c4.6-4.6,10.2-9,14.2-14.2
			C247.7,41.4,250.8,46.3,252.5,48z"/>
		<path class="st1" d="M245.3,47.5c-5.9,5-11.3,10.9-16.9,16.3c-2.8,2.7-5.7,5.3-8.6,8c-2.9,2.7-6.2,5.1-8.3,8.5
			c-0.3,0.6,0.3,1.1,0.8,0.8c6.8-2.9,12.7-10.4,17.8-15.5c5.5-5.5,11.2-11.2,15.7-17.6C246.2,47.6,245.6,47.3,245.3,47.5z"/>
		<path class="st1" d="M254.3,60.1c-5.8,4-10.7,9.7-15.7,14.7c-5.1,5.1-12.7,10.7-15.8,17.3c-0.2,0.4,0.2,0.9,0.7,0.7
			c6.1-2.9,11.1-9.8,15.7-14.6c5.3-5.5,11.6-10.9,15.9-17.3C255.4,60.4,254.8,59.8,254.3,60.1z"/>
		<path class="st1" d="M293.3,128.9c-0.8,0.8-1.1,2.2-0.9,3.4c0,0.2,0,0.4,0.1,0.7c0.4,1.8,1.8,3.1,3.6,3.4c3.4,0.6,6.1-3,4.9-6.1
			C299.7,127,295.7,126.5,293.3,128.9z M297,134.4c-1.1,0.3-2.2-0.5-2.7-1.4c-0.1-0.2-0.2-0.4-0.2-0.7c0-0.4,0.1-0.9,0.3-1.2
			c0.8-1.7,2.9-1.9,4.1-0.6C300,132,298.7,133.9,297,134.4z"/>
	</g>
</g>
<g>
	<g>
		<path class="st0" d="M332.3,18.1c2.5,2.8,7.3,4.7,10,6c0.9,0.4,1.9,0.8,2.9,1.3c1.3,0.8,2.3,1.6,3.1,3.2c1.5,3.2-1.7,5.9-4.6,5.9
			c-0.8,0-1.2,0.9-0.9,1.5c1.2,3.4-2.1,5.6-5,3.8c-0.1-0.1-0.3-0.2-0.4-0.3C334,33,332.1,25.4,332.3,18.1z"/>
		<path class="st0" d="M350.1,52.7c-4.9-1.5-8.3-5.9-10.9-10.1c0.7,0.2,1.3,0.3,1.7,0.3c3.2-0.1,4.6-3.5,4.3-6.3
			c3-0.5,5.8-3,5.8-6.3c0-0.9-0.3-1.8-0.7-2.7c7.5,3.5,14.8,8.3,14.2,17.5C364,52.4,355.9,54.5,350.1,52.7z"/>
		<path class="st0" d="M367.7,65c-2.1-3.4-4-7.1-6.5-10.3c2.2-1.3,3.9-3.1,5-5.3c3.2,2.5,7,4.4,10.4,6.6c4.5,2.8,8.9,5.9,13.1,9.2
			c-1.8,3-3.1,5.9-5.6,8.6c-1.9,1.9-5.1,3-6.6,5.1C374,74.4,370.7,69.8,367.7,65z"/>
		<path class="st0" d="M414.9,87.9c7.3,7.7,13.9,16.1,19.9,24.9c5.3,7.8,9.3,16.4,14.1,24.5c-8.1-4.8-16.7-8.8-24.5-14.1
			c-8.8-6-17.1-12.6-24.9-19.9c-7.4-7-14.2-14.5-20.5-22.4c2.8-0.2,5.5-3,7.4-4.8c2.5-2.3,4.8-5.5,5.8-8.9
			C400.2,73.5,407.8,80.5,414.9,87.9z"/>
	</g>
	<path class="st1" d="M394.1,65c-8.1-6.1-17.6-13.7-27.3-16.9c1.4-3.7,1.2-8.1-1.2-12c-3-4.9-7.4-8-12.5-10.5
		c-3.2-1.6-9.4-3.2-14.1-5.7c0-0.1-0.1-0.2-0.2-0.2c-0.2-0.1-0.3-0.1-0.5-0.2c-2.7-1.5-4.8-3.4-5.4-5.8c0-0.4-0.1-0.8,0-1.2
		c0.1-1.1-1.5-1.7-1.9-0.5c-3.3,10.1,0.7,21,5,30.2c3.8,8.1,12.9,17.2,22.8,13.7c0.4-0.1,0.7-0.3,1-0.4c3.3,9.7,10.8,19,16.9,27.1
		c6.6,8.7,14,16.8,22,24.1c8,7.4,16.6,14.2,25.7,20.1c8.3,5.4,17.4,11.4,27,14.2c0.1,0.1,0.3,0.1,0.5,0.1c0.2,0,0.4-0.1,0.5-0.2
		c0,0,0,0,0.1-0.1c0,0,0,0,0.1-0.1c0.1-0.1,0.2-0.3,0.2-0.5c0-0.2,0-0.3-0.1-0.5c-2.9-9.6-8.8-18.7-14.2-27
		c-5.9-9.1-12.7-17.7-20.1-25.7C410.9,79,402.8,71.6,394.1,65z M332.3,18.1c2.5,2.8,7.3,4.7,10,6c0.9,0.4,1.9,0.8,2.9,1.3
		c1.3,0.8,2.3,1.6,3.1,3.2c1.5,3.2-1.7,5.9-4.6,5.9c-0.8,0-1.2,0.9-0.9,1.5c1.2,3.4-2.1,5.6-5,3.8c-0.1-0.1-0.3-0.2-0.4-0.3
		C334,33,332.1,25.4,332.3,18.1z M350.1,52.7c-4.9-1.5-8.3-5.9-10.9-10.1c0.7,0.2,1.3,0.3,1.7,0.3c3.2-0.1,4.6-3.5,4.3-6.3
		c3-0.5,5.8-3,5.8-6.3c0-0.9-0.3-1.8-0.7-2.7c7.5,3.5,14.8,8.3,14.2,17.5C364,52.4,355.9,54.5,350.1,52.7z M367.7,65
		c-2.1-3.4-4-7.1-6.5-10.3c2.2-1.3,3.9-3.1,5-5.3c3.2,2.5,7,4.4,10.4,6.6c4.5,2.8,8.9,5.9,13.1,9.2c-1.8,3-3.1,5.9-5.6,8.6
		c-1.9,1.9-5.1,3-6.6,5.1C374,74.4,370.7,69.8,367.7,65z M414.9,87.9c7.3,7.7,13.9,16.1,19.9,24.9c5.3,7.8,9.3,16.4,14.1,24.5
		c-8.1-4.8-16.7-8.8-24.5-14.1c-8.8-6-17.1-12.6-24.9-19.9c-7.4-7-14.2-14.5-20.5-22.4c2.8-0.2,5.5-3,7.4-4.8
		c2.5-2.3,4.8-5.5,5.8-8.9C400.2,73.5,407.8,80.5,414.9,87.9z"/>
</g>
<g>
	<g>
		<g>
			<path class="st0" d="M528.8,27.1c-0.1-0.5-0.1-1-0.2-1.6c0-0.6,0-1.1,0.1-1.7c1.8-4,9.9-7.1,13.9-8.3c5.5-1.7,11.1-3,16.8-3.7
				c6-0.8,11.9-0.9,17.9-1c6,0.1,12,0.2,17.9,1c5.7,0.8,11.3,2.1,16.8,3.7c4,1.2,12.1,4.3,13.9,8.3c0.1,0.6,0.1,1.2,0.1,1.7
				c-0.1,0.5-0.1,1-0.2,1.6c-0.2,0.3-0.4,0.6-0.7,1c-0.3-7-15.3-10.1-20.8-11.5c-6.4-1.6-13.1-2.5-19.8-3c-0.1,0-0.2,0-0.3,0
				c-2.2-0.4-4.5-0.5-6.9-0.4c-2.3-0.1-4.7,0-6.9,0.4c-0.1,0-0.2,0-0.3,0c-6.7,0.5-13.3,1.3-19.8,3c-5.5,1.4-20.4,4.5-20.8,11.5
				C529.2,27.7,528.9,27.4,528.8,27.1z"/>
			<path class="st0" d="M537.2,35.6c7,2.6,14.2,4.6,21.6,5.8c0.9,0.1,1.9,0.3,2.8,0.4c5.1,1,10.2,1.3,15.4,1.3c0,0,0.1,0,0.1,0
				c0,0,0.1,0,0.1,0c5.2,0.1,10.4-0.3,15.4-1.3c0.9-0.1,1.9-0.3,2.8-0.4c7.4-1.2,14.6-3.2,21.6-5.8c2-0.7,4.6-1.6,6.8-2.8
				c-4.3,7.3-15.3,10.1-25,11.9c-2.1,0.4-4.2,0.7-6.3,1c-5.2,0.3-10.3,0.9-15.5,0.9c-5.2,0-10.3-0.6-15.5-0.9
				c-2.1-0.3-4.2-0.6-6.3-1c-9.6-1.8-20.7-4.6-25-11.9C532.7,34,535.3,34.9,537.2,35.6z"/>
			<path class="st0" d="M532.2,30.3c1.4-9.3,19.7-11.8,28.4-13.2c3.6-0.6,7.3-1,10.9-1.2c1.9,0,3.8-0.1,5.7-0.1
				c1.9,0,3.8,0.2,5.7,0.1c3.7,0.2,7.3,0.6,10.9,1.2c8.7,1.3,27,3.9,28.4,13.2c0,0,0,0,0,0c-9.5,5.8-23.3,8.1-34.4,9.3
				c-3.5,0.4-7,0.5-10.6,0.6c-3.5,0-7-0.2-10.6-0.6C555.6,38.4,541.7,36.1,532.2,30.3C532.2,30.3,532.2,30.3,532.2,30.3z"/>
			<path class="st0" d="M599,140c-2.1,0.4-4.2,0.7-6.3,1c-5.2,0.3-10.3,0.9-15.5,0.9c-5.2,0-10.3-0.6-15.5-0.9
				c-2.1-0.3-4.2-0.6-6.3-1c-9.6-1.8-20.7-4.6-25-11.9c2.2,1.2,4.8,2.1,6.8,2.8c7,2.6,14.2,4.6,21.6,5.8c0.9,0.1,1.9,0.3,2.8,0.4
				c5.1,1,10.2,1.3,15.4,1.3c0,0,0.1,0,0.1,0c0,0,0.1,0,0.1,0c5.2,0.1,10.4-0.3,15.4-1.3c0.9-0.1,1.9-0.3,2.8-0.4
				c7.4-1.2,14.6-3.2,21.6-5.8c2-0.7,4.6-1.6,6.8-2.8C619.7,135.4,608.7,138.2,599,140z"/>
			<path class="st0" d="M622.2,125.7c-9.5,5.8-23.3,8.1-34.4,9.3c-3.5,0.4-7,0.5-10.6,0.6c-3.5,0-7-0.2-10.6-0.6
				c-11.1-1.2-24.9-3.5-34.4-9.3c-2.1-2-3-4.2-3.2-7c0.1-1.5,0.2-3,0.3-4.5c0.3-4.6,0.4-9.2,0.6-13.9c0.3-8.6,0.4-17.2,0.4-25.7
				c0-12.3,0.4-24.8-0.5-37.2c0.3,0.3,0.7,0.6,1.1,0.8c3.9,3.5,8.9,5.6,14.2,7c9.8,2.5,21.1,4.4,32.1,4.2c11,0.2,22.4-1.7,32.1-4.2
				c5.3-1.4,10.3-3.5,14.2-7c0.4-0.3,0.7-0.5,1.1-0.8c-0.9,12.4-0.5,24.9-0.5,37.2c0,5.5,0.1,11,0.2,16.5c-4.8-1.5-9.7-4.2-13.5-6.1
				c-6.2-3.1-12-6.7-17.7-10.6c-1.5-1-3-2.1-4.5-3.3c0.8-1.4,1.4-3.1,1.5-4.9C591,54.8,577.8,48,568.8,55c-6,4.7-5.8,15.6-0.4,19.6
				c5,5.1,13.1,4.2,17.9-0.4c0.2,0.2,0.5,0.3,0.7,0.5c4.2,3,8.5,5.9,13,8.6c7.7,4.7,15.9,8.6,24.5,11.4c0,1.9,0.1,3.9,0.1,5.8
				c0.1,4.6,0.2,9.2,0.6,13.9c0.1,1.5,0.2,3,0.3,4.5C625.1,121.5,624.2,123.7,622.2,125.7z"/>
			<path class="st0" d="M583.2,67.3c1.8-4-1.8-8.2-5.9-8.4c-2.3-0.2-4.2,1.1-5.5,2.9c-0.6,0.8-1,1.9-1,3c-0.1,1,0,2.1,0.5,3.1
				c1.8,3.6,6.2,4.3,9.3,2.4c0.9,0.7,1.8,1.3,2.7,1.9c-3.9,3.3-10.5,2.8-13.8-1.9c-2-2.9-1.9-6.8-0.3-9.8c1.6-3.2,5.1-4.2,8.3-4.9
				c5.3,0.5,9.8,5.7,8.8,11.4c-0.1,0.7-0.4,1.4-0.6,2C584.8,68.5,584,67.9,583.2,67.3z"/>
			<path class="st0" d="M577,63.9c-1.2-0.5-1.8,1.2-1.1,1.9c0.6,0.8,1.3,1.5,2,2.1c-2.1,0.5-4.7-1.2-3.9-3.6
				c0.3-0.5,0.5-0.9,0.9-1.3c0.5-0.4,1-0.6,1.6-0.8c2.1-0.5,3.7,1.3,3.6,3.2C579.1,64.9,578.1,64.4,577,63.9z"/>
		</g>
		<path class="st1" d="M627.7,70.8c0.1-12.7,0.9-25.6,0.6-38.3c0.1-0.2,0.1-0.3,0.2-0.5c0.6-1.7,1.2-4.9,0.6-7.4
			c-0.6-8.7-16.5-12.2-23.7-13.9c-8.4-2-17.8-3.2-27.1-3.2c-0.3,0-0.7,0-1,0c-0.3,0-0.7,0-1,0c-9.3,0.1-18.7,1.2-27.1,3.2
			c-7.2,1.7-23.1,5.2-23.7,13.9c-0.6,2.5,0,5.7,0.6,7.4c0.1,0.2,0.1,0.3,0.2,0.5c-0.4,14.7,0.7,29.5,0.6,44.2
			c-0.1,8.6-0.2,17.2-0.4,25.7c-0.1,3.9-0.8,8.5-0.9,12.9c-1.1,5.5-0.4,13.5,4.3,17.2c4.1,4.2,9.5,6.6,15.4,8.1
			c9.8,2.5,21.1,4.4,32.1,4.2c11,0.2,22.4-1.7,32.1-4.2c5.9-1.5,11.3-4,15.4-8.1c4.7-3.8,5.4-11.7,4.3-17.2c-0.1-4.4-0.7-9-0.9-12.9
			c-0.1-2.2-0.1-4.5-0.2-6.7c6,1.3,11.3-0.9,11.6-7.8C640,80.6,633.8,74.1,627.7,70.8z M528.8,27.1c-0.1-0.5-0.1-1-0.2-1.6
			c0-0.6,0-1.1,0.1-1.7c1.8-4,9.9-7.1,13.9-8.3c5.5-1.7,11.1-3,16.8-3.7c6-0.8,11.9-0.9,17.9-1c6,0.1,12,0.2,17.9,1
			c5.7,0.8,11.3,2.1,16.8,3.7c4,1.2,12.1,4.3,13.9,8.3c0.1,0.6,0.1,1.2,0.1,1.7c-0.1,0.5-0.1,1-0.2,1.6c-0.2,0.3-0.4,0.6-0.7,1
			c-0.3-7-15.3-10.1-20.8-11.5c-6.4-1.6-13.1-2.5-19.8-3c-0.1,0-0.2,0-0.3,0c-2.2-0.4-4.5-0.5-6.9-0.4c-2.3-0.1-4.7,0-6.9,0.4
			c-0.1,0-0.2,0-0.3,0c-6.7,0.5-13.3,1.3-19.8,3c-5.5,1.4-20.4,4.5-20.8,11.5C529.2,27.7,528.9,27.4,528.8,27.1z M537.2,35.6
			c7,2.6,14.2,4.6,21.6,5.8c0.9,0.1,1.9,0.3,2.8,0.4c5.1,1,10.2,1.3,15.4,1.3c0,0,0.1,0,0.1,0c0,0,0.1,0,0.1,0
			c5.2,0.1,10.4-0.3,15.4-1.3c0.9-0.1,1.9-0.3,2.8-0.4c7.4-1.2,14.6-3.2,21.6-5.8c2-0.7,4.6-1.6,6.8-2.8c-4.3,7.3-15.3,10.1-25,11.9
			c-2.1,0.4-4.2,0.7-6.3,1c-5.2,0.3-10.3,0.9-15.5,0.9c-5.2,0-10.3-0.6-15.5-0.9c-2.1-0.3-4.2-0.6-6.3-1c-9.6-1.8-20.7-4.6-25-11.9
			C532.7,34,535.3,34.9,537.2,35.6z M532.2,30.3c1.4-9.3,19.7-11.8,28.4-13.2c3.6-0.6,7.3-1,10.9-1.2c1.9,0,3.8-0.1,5.7-0.1
			c1.9,0,3.8,0.2,5.7,0.1c3.7,0.2,7.3,0.6,10.9,1.2c8.7,1.3,27,3.9,28.4,13.2c0,0,0,0,0,0c-9.5,5.8-23.3,8.1-34.4,9.3
			c-3.5,0.4-7,0.5-10.6,0.6c-3.5,0-7-0.2-10.6-0.6C555.6,38.4,541.7,36.1,532.2,30.3C532.2,30.3,532.2,30.3,532.2,30.3z M599,140
			c-2.1,0.4-4.2,0.7-6.3,1c-5.2,0.3-10.3,0.9-15.5,0.9c-5.2,0-10.3-0.6-15.5-0.9c-2.1-0.3-4.2-0.6-6.3-1c-9.6-1.8-20.7-4.6-25-11.9
			c2.2,1.2,4.8,2.1,6.8,2.8c7,2.6,14.2,4.6,21.6,5.8c0.9,0.1,1.9,0.3,2.8,0.4c5.1,1,10.2,1.3,15.4,1.3c0,0,0.1,0,0.1,0
			c0,0,0.1,0,0.1,0c5.2,0.1,10.4-0.3,15.4-1.3c0.9-0.1,1.9-0.3,2.8-0.4c7.4-1.2,14.6-3.2,21.6-5.8c2-0.7,4.6-1.6,6.8-2.8
			C619.7,135.4,608.7,138.2,599,140z M622.2,125.7c-9.5,5.8-23.3,8.1-34.4,9.3c-3.5,0.4-7,0.5-10.6,0.6c-3.5,0-7-0.2-10.6-0.6
			c-11.1-1.2-24.9-3.5-34.4-9.3c-2.1-2-3-4.2-3.2-7c0.1-1.5,0.2-3,0.3-4.5c0.3-4.6,0.4-9.2,0.6-13.9c0.3-8.6,0.4-17.2,0.4-25.7
			c0-12.3,0.4-24.8-0.5-37.2c0.3,0.3,0.7,0.6,1.1,0.8c3.9,3.5,8.9,5.6,14.2,7c9.8,2.5,21.1,4.4,32.1,4.2c11,0.2,22.4-1.7,32.1-4.2
			c5.3-1.4,10.3-3.5,14.2-7c0.4-0.3,0.7-0.5,1.1-0.8c-0.9,12.4-0.5,24.9-0.5,37.2c0,5.5,0.1,11,0.2,16.5c-4.8-1.5-9.7-4.2-13.5-6.1
			c-6.2-3.1-12-6.7-17.7-10.6c-1.5-1-3-2.1-4.5-3.3c0.8-1.4,1.4-3.1,1.5-4.9C591,54.8,577.8,48,568.8,55c-6,4.7-5.8,15.6-0.4,19.6
			c5,5.1,13.1,4.2,17.9-0.4c0.2,0.2,0.5,0.3,0.7,0.5c4.2,3,8.5,5.9,13,8.6c7.7,4.7,15.9,8.6,24.5,11.4c0,1.9,0.1,3.9,0.1,5.8
			c0.1,4.6,0.2,9.2,0.6,13.9c0.1,1.5,0.2,3,0.3,4.5C625.1,121.5,624.2,123.7,622.2,125.7z M583.2,67.3c1.8-4-1.8-8.2-5.9-8.4
			c-2.3-0.2-4.2,1.1-5.5,2.9c-0.6,0.8-1,1.9-1,3c-0.1,1,0,2.1,0.5,3.1c1.8,3.6,6.2,4.3,9.3,2.4c0.9,0.7,1.8,1.3,2.7,1.9
			c-3.9,3.3-10.5,2.8-13.8-1.9c-2-2.9-1.9-6.8-0.3-9.8c1.6-3.2,5.1-4.2,8.3-4.9c5.3,0.5,9.8,5.7,8.8,11.4c-0.1,0.7-0.4,1.4-0.6,2
			C584.8,68.5,584,67.9,583.2,67.3z M577,63.9c-1.2-0.5-1.8,1.2-1.1,1.9c0.6,0.8,1.3,1.5,2,2.1c-2.1,0.5-4.7-1.2-3.9-3.6
			c0.3-0.5,0.5-0.9,0.9-1.3c0.5-0.4,1-0.6,1.6-0.8c2.1-0.5,3.7,1.3,3.6,3.2C579.1,64.9,578.1,64.4,577,63.9z M631.3,92.4
			c-1.1,0-2.2-0.1-3.3-0.3c-0.1-5.1-0.2-10.3-0.2-15.4c0-0.8,0-1.6,0-2.4c2.3,1.7,4.1,3.7,5.8,6.3C635.7,84.1,638,92.3,631.3,92.4z"
			/>
	</g>
	<g>
		<g>
			<path class="st0" d="M512.9,99.5c3.3-2,6-5.3,8.8-7.9c1.5-1.5,3.2-2.9,4.7-4.5c1.6-1.5,3-3.2,4.5-4.7c2.7-2.7,5.9-5.4,7.9-8.8
				c1.9,2.5,4.4,4.5,6.6,6.6c1.6,1.6,3.2,3.1,4.8,4.7c1,1,1.2,1.9,1,2.8c-2.8,2.1-5.1,5-7.5,7.5c-1.5,1.5-3.1,3-4.5,4.6
				c-1.6,1.4-3.1,3.1-4.6,4.5c-2.5,2.4-5.4,4.7-7.5,7.5c-0.9,0.2-1.8,0-2.8-1c-1.6-1.6-3.1-3.2-4.7-4.8
				C517.5,104,515.4,101.4,512.9,99.5z"/>
			<path class="st0" d="M579.8,107.7c0.2,0.7,0.4,2.2-0.8,2.2c-0.4,0-0.8-0.1-1.2-0.3c-0.9,0-1.4,1-1.1,1.8c0,0,0,0,0,0
				c0.1,0.1,0.2,0.3,0.3,0.4c0.2,0.1,0.5,0.2,0.7,0.4c0.6,0.4,0.8,1.1,0.6,1.8c-0.3,0.9-1.3,1.1-2.1,0.8c-0.2,0-0.5,0.1-0.7,0.1
				c-0.9,0.3-1,1.3-0.4,1.9c0.6,0.6,1.2,1.5,0.6,2.3c-0.5,0.7-1.3,1.1-2.1,0.6c-0.2-0.1-0.6-0.3-0.9-0.5c-0.9-0.3-1.7,0.3-1.7,1.1
				c0,0,0,0.1,0,0.1c0.3,0.8,1.1,1.1,1.5,1.7c0.6,0.8,0.4,1.7-0.2,2.4c-0.5,0.6-1.4,0.6-2,0.3c-0.4-0.3-0.8-0.7-1.3-1
				c-0.2-0.1-0.5-0.2-0.7-0.3c0,0-0.1,0-0.1,0c-0.7,0.1-1.2,0.8-1,1.6c0.1,0.2,0.2,0.3,0.3,0.4c0.4,0.6,0.8,1.2,0.8,1.9
				c0,0.3-0.1,0.5-0.2,0.8c0,0,0,0,0,0.1c0,0.1-0.1,0.1-0.1,0.2c0,0-0.1,0.1-0.1,0.1c0,0-0.1,0.1-0.1,0.1c-0.1,0-0.1,0.1-0.2,0.1
				c0,0,0,0-0.1,0c-0.2,0.1-0.5,0.2-0.8,0.2c-0.7,0-1.3-0.4-1.9-0.8c-0.1-0.1-0.2-0.2-0.4-0.3c-0.7-0.1-1.5,0.4-1.6,1
				c0,0,0,0.1,0,0.1c0.1,0.2,0.2,0.5,0.3,0.7c0.3,0.4,0.7,0.8,1,1.3c0.4,0.6,0.3,1.5-0.3,2c-0.7,0.6-1.6,0.8-2.4,0.2
				c-0.7-0.4-0.9-1.2-1.7-1.5c0,0-0.1,0-0.1,0c-0.8,0-1.5,0.8-1.1,1.7c0.2,0.3,0.4,0.7,0.5,0.9c0.5,0.8,0.2,1.6-0.6,2.1
				c-0.8,0.6-1.8-0.1-2.3-0.6c-0.6-0.6-1.6-0.5-1.9,0.4c-0.1,0.3-0.1,0.5-0.1,0.7c0.3,0.8,0.1,1.8-0.8,2.1c-0.7,0.2-1.4,0-1.8-0.6
				c-0.2-0.2-0.3-0.4-0.4-0.7c-0.1-0.1-0.3-0.2-0.4-0.3c0,0,0,0,0,0c-0.8-0.3-1.8,0.2-1.8,1.1c0.2,0.4,0.3,0.8,0.3,1.2
				c0,1.2-1.5,1-2.2,0.8c-1.8-0.5-3.2-2.8-4.2-4.2c-0.6-0.7-1.3-1.5-1.8-2.3c-1.7-2.1-3.4-4.3-4.9-6.6c-2.7-4.3-5.6-8.9-7.3-13.7
				c0.4-0.3,0.7-0.6,0.9-1c0.8-0.6,1.5-1.3,2.3-2c0.9,3.7,3.1,7.3,5,10.4c2.2,3.6,4.5,7.6,7.9,10.3c0.3,0.2,0.7-0.1,0.6-0.4
				c-1.7-4.5-4.7-8.6-7-12.8c-1.6-3-2.8-6.3-4.9-9c1-1,1.9-2,2.8-2.9c0.6-0.6,1.2-1.2,1.9-1.8c0,0,0,0,0,0.1c1.1,4.2,4.2,8.2,7,11.5
				c2.7,3.3,5.5,6.9,9.2,9.1c0.3,0.2,0.7-0.2,0.5-0.5c-2.3-4.2-5.8-7.9-8.7-11.7c-2.2-3-4-6.5-6.8-9c-0.1-0.1-0.2-0.1-0.3-0.2
				c0.7-0.6,1.3-1.3,2-1.9c0.7-0.6,1.3-1.3,1.9-2c0,0.1,0.1,0.2,0.2,0.3c2.5,2.8,6,4.6,9,6.8c3.9,2.8,7.5,6.4,11.7,8.7
				c0.3,0.2,0.7-0.2,0.5-0.5c-2.2-3.7-5.8-6.5-9.1-9.2c-3.3-2.7-7.3-5.9-11.5-7c0,0,0,0-0.1,0c0.6-0.6,1.2-1.3,1.8-1.9
				c0.9-0.9,1.9-1.9,2.9-2.8c2.7,2,6,3.3,9,4.9c4.2,2.3,8.3,5.3,12.8,7c0.3,0.1,0.7-0.3,0.4-0.6c-2.7-3.4-6.7-5.7-10.3-7.9
				c-3.1-1.9-6.7-4.1-10.4-5c0.7-0.7,1.4-1.5,2-2.3c0.4-0.3,0.7-0.6,1-0.9c4.8,1.7,9.4,4.6,13.7,7.3c2.3,1.5,4.5,3.1,6.6,4.9
				c0.8,0.5,1.5,1.3,2.3,1.8C577,104.5,579.3,106,579.8,107.7z"/>
			<path class="st0" d="M518.8,70.5c-5.4-1.2-10.1-4.3-13.7-8.6c-4.3-5.1-7.4-11-11.4-16.2c-2.6-3.5-5.6-6.8-9.5-8.9
				c-2.4-1.4-8.4-4.8-11.9-3.7c-1.1,3.5,2.3,9.4,3.7,11.9c2.2,3.8,5.5,6.8,8.9,9.5c5.3,4,11.2,7.1,16.2,11.4
				c4.2,3.6,7.3,8.3,8.6,13.7c1.5,6.5-1.4,12.5,1.9,18.6c2.1-3.2,5.4-5.8,8.1-8.4c1.5-1.5,3-3.1,4.6-4.5c1.4-1.6,3.1-3.1,4.5-4.6
				c2.6-2.7,5.2-6.1,8.4-8.1C531.3,69.1,525.3,72,518.8,70.5z M483,50.6c-1.3-0.8-2-2.3-2.1-3.8c-0.1-0.2-0.1-0.5-0.1-0.7
				c0-1.6,0.9-3.4,2.4-4.1c3.5-1.6,7.5,0.8,7.4,4.8C490.5,50.6,486.1,52.6,483,50.6z"/>
		</g>
		<g>
			<path class="st1" d="M539.5,76.5c-4.3,3.8-8.2,8.2-12.1,12.4c-3.5,3.7-7.6,7.3-10.5,11.4c-0.2,0.3,0.2,0.7,0.5,0.5
				c4.4-2.5,8.2-6.6,11.8-10.2c4.1-4.1,8-8.7,11-13.7C540.3,76.6,539.8,76.3,539.5,76.5z"/>
			<path class="st1" d="M548,85.1c-4.3,3.8-8.2,8.2-12.1,12.4c-3.5,3.7-7.6,7.3-10.5,11.4c-0.2,0.3,0.2,0.7,0.5,0.5
				c4.4-2.5,8.2-6.6,11.8-10.2c4.1-4.1,8-8.7,11-13.7C548.9,85.2,548.3,84.8,548,85.1z"/>
			<path class="st1" d="M553.9,88.2c0.2-0.4,0.4-0.9,0.6-1.3c0.1-0.4,0-0.8-0.3-1c-2.6-2.9-5.5-5.7-8.2-8.5
				c-2.3-2.3-4.5-5.1-7.4-6.6c-3.9-4.6-10.7-3-16.3-3c-10.1,0.2-16.8-10.2-21.6-17.6c-4.5-6.8-9.1-12.9-16.4-16.9
				c-3.1-1.7-10.8-5.3-13.9-2.1c-3.2,3.1,0.4,10.8,2.1,13.9c4,7.3,10,11.9,16.9,16.4c7.4,4.8,17.8,11.5,17.6,21.6
				c-0.1,5.6-1.7,12.4,3,16.3c1.5,2.9,4.3,5.1,6.6,7.4c2.8,2.7,5.6,5.6,8.5,8.2c0.3,0.2,0.7,0.4,1,0.3c0.5-0.2,0.9-0.4,1.3-0.6
				c3.7,9.6,7.8,18.7,15.5,25.9c2.1,1.9,4.1,3.3,7,2.2c0.8-0.3,1.3-0.9,1.6-1.6c2.1,0.7,4.2-0.4,4.8-2.7c2.4,0.6,4.7-0.9,4.9-3.3
				c2.6,0.5,5-1.4,4.9-4.1c1.1,0,2.2-0.5,2.9-1.4c0.9-0.8,1.4-1.8,1.4-2.9c2.7,0.1,4.6-2.2,4.1-4.9c2.4-0.3,3.9-2.5,3.3-4.9
				c2.2-0.6,3.4-2.8,2.7-4.8c0.7-0.3,1.3-0.7,1.6-1.6c1.1-2.8-0.3-4.9-2.2-7C572.6,96,563.5,91.8,553.9,88.2z M509.8,79.5
				c-1.2-5.4-4.3-10.1-8.6-13.7c-5.1-4.3-11-7.4-16.2-11.4c-3.5-2.6-6.8-5.6-8.9-9.5c-1.4-2.4-4.8-8.4-3.7-11.9
				c3.5-1.1,9.4,2.3,11.9,3.7c3.8,2.2,6.8,5.5,9.5,8.9c4,5.3,7.1,11.2,11.4,16.2c3.6,4.2,8.3,7.3,13.7,8.6
				c6.5,1.5,12.5-1.4,18.6,1.9c-3.2,2.1-5.8,5.4-8.4,8.1c-1.5,1.5-3.1,3-4.5,4.6c-1.6,1.4-3.1,3.1-4.6,4.5c-2.7,2.6-6.1,5.2-8.1,8.4
				C508.3,92.1,511.2,86,509.8,79.5z M512.9,99.5c3.3-2,6-5.3,8.8-7.9c1.5-1.5,3.2-2.9,4.7-4.5c1.6-1.5,3-3.2,4.5-4.7
				c2.7-2.7,5.9-5.4,7.9-8.8c1.9,2.5,4.4,4.5,6.6,6.6c1.6,1.6,3.2,3.1,4.8,4.7c1,1,1.2,1.9,1,2.8c-2.8,2.1-5.1,5-7.5,7.5
				c-1.5,1.5-3.1,3-4.5,4.6c-1.6,1.4-3.1,3.1-4.6,4.5c-2.5,2.4-5.4,4.7-7.5,7.5c-0.9,0.2-1.8,0-2.8-1c-1.6-1.6-3.1-3.2-4.7-4.8
				C517.5,104,515.4,101.4,512.9,99.5z M579.8,107.7c0.2,0.7,0.4,2.2-0.8,2.2c-0.4,0-0.8-0.1-1.2-0.3c-0.9,0-1.4,1-1.1,1.8
				c0,0,0,0,0,0c0.1,0.1,0.2,0.3,0.3,0.4c0.2,0.1,0.5,0.2,0.7,0.4c0.6,0.4,0.8,1.1,0.6,1.8c-0.3,0.9-1.3,1.1-2.1,0.8
				c-0.2,0-0.5,0.1-0.7,0.1c-0.9,0.3-1,1.3-0.4,1.9c0.6,0.6,1.2,1.5,0.6,2.3c-0.5,0.7-1.3,1.1-2.1,0.6c-0.2-0.1-0.6-0.3-0.9-0.5
				c-0.9-0.3-1.7,0.3-1.7,1.1c0,0,0,0.1,0,0.1c0.3,0.8,1.1,1.1,1.5,1.7c0.6,0.8,0.4,1.7-0.2,2.4c-0.5,0.6-1.4,0.6-2,0.3
				c-0.4-0.3-0.8-0.7-1.3-1c-0.2-0.1-0.5-0.2-0.7-0.3c0,0-0.1,0-0.1,0c-0.7,0.1-1.2,0.8-1,1.6c0.1,0.2,0.2,0.3,0.3,0.4
				c0.4,0.6,0.8,1.2,0.8,1.9c0,0.3-0.1,0.5-0.2,0.8c0,0,0,0,0,0.1c0,0.1-0.1,0.1-0.1,0.2c0,0-0.1,0.1-0.1,0.1c0,0-0.1,0.1-0.1,0.1
				c-0.1,0-0.1,0.1-0.2,0.1c0,0,0,0-0.1,0c-0.2,0.1-0.5,0.2-0.8,0.2c-0.7,0-1.3-0.4-1.9-0.8c-0.1-0.1-0.2-0.2-0.4-0.3
				c-0.7-0.1-1.5,0.4-1.6,1c0,0,0,0.1,0,0.1c0.1,0.2,0.2,0.5,0.3,0.7c0.3,0.4,0.7,0.8,1,1.3c0.4,0.6,0.3,1.5-0.3,2
				c-0.7,0.6-1.6,0.8-2.4,0.2c-0.7-0.4-0.9-1.2-1.7-1.5c0,0-0.1,0-0.1,0c-0.8,0-1.5,0.8-1.1,1.7c0.2,0.3,0.4,0.7,0.5,0.9
				c0.5,0.8,0.2,1.6-0.6,2.1c-0.8,0.6-1.8-0.1-2.3-0.6c-0.6-0.6-1.6-0.5-1.9,0.4c-0.1,0.3-0.1,0.5-0.1,0.7c0.3,0.8,0.1,1.8-0.8,2.1
				c-0.7,0.2-1.4,0-1.8-0.6c-0.2-0.2-0.3-0.4-0.4-0.7c-0.1-0.1-0.3-0.2-0.4-0.3c0,0,0,0,0,0c-0.8-0.3-1.8,0.2-1.8,1.1
				c0.2,0.4,0.3,0.8,0.3,1.2c0,1.2-1.5,1-2.2,0.8c-1.8-0.5-3.2-2.8-4.2-4.2c-0.6-0.7-1.3-1.5-1.8-2.3c-1.7-2.1-3.4-4.3-4.9-6.6
				c-2.7-4.3-5.6-8.9-7.3-13.7c0.4-0.3,0.7-0.6,0.9-1c0.8-0.6,1.5-1.3,2.3-2c0.9,3.7,3.1,7.3,5,10.4c2.2,3.6,4.5,7.6,7.9,10.3
				c0.3,0.2,0.7-0.1,0.6-0.4c-1.7-4.5-4.7-8.6-7-12.8c-1.6-3-2.8-6.3-4.9-9c1-1,1.9-2,2.8-2.9c0.6-0.6,1.2-1.2,1.9-1.8
				c0,0,0,0,0,0.1c1.1,4.2,4.2,8.2,7,11.5c2.7,3.3,5.5,6.9,9.2,9.1c0.3,0.2,0.7-0.2,0.5-0.5c-2.3-4.2-5.8-7.9-8.7-11.7
				c-2.2-3-4-6.5-6.8-9c-0.1-0.1-0.2-0.1-0.3-0.2c0.7-0.6,1.3-1.3,2-1.9c0.7-0.6,1.3-1.3,1.9-2c0,0.1,0.1,0.2,0.2,0.3
				c2.5,2.8,6,4.6,9,6.8c3.9,2.8,7.5,6.4,11.7,8.7c0.3,0.2,0.7-0.2,0.5-0.5c-2.2-3.7-5.8-6.5-9.1-9.2c-3.3-2.7-7.3-5.9-11.5-7
				c0,0,0,0-0.1,0c0.6-0.6,1.2-1.3,1.8-1.9c0.9-0.9,1.9-1.9,2.9-2.8c2.7,2,6,3.3,9,4.9c4.2,2.3,8.3,5.3,12.8,7
				c0.3,0.1,0.7-0.3,0.4-0.6c-2.7-3.4-6.7-5.7-10.3-7.9c-3.1-1.9-6.7-4.1-10.4-5c0.7-0.7,1.4-1.5,2-2.3c0.4-0.3,0.7-0.6,1-0.9
				c4.8,1.7,9.4,4.6,13.7,7.3c2.3,1.5,4.5,3.1,6.6,4.9c0.8,0.5,1.5,1.3,2.3,1.8C577,104.5,579.3,106,579.8,107.7z"/>
			<path class="st1" d="M483.3,42c-1.5,0.7-2.4,2.5-2.4,4.1c0,0.3,0,0.5,0.1,0.7c0,1.5,0.8,3,2.1,3.8c3.1,1.9,7.5-0.1,7.6-3.9
				C490.8,42.8,486.8,40.4,483.3,42z M487.6,46.4c0.1,1.5-1.5,2.5-2.7,1.9c-0.9-0.4-1.2-1.3-1.1-2.2c0.1-0.3,0.3-0.7,0.5-0.9
				C485.4,43.7,487.5,44.7,487.6,46.4z"/>
		</g>
	</g>
</g>
<g>
	<g>
		<path class="st0" d="M148.2,332.4C148.2,332.4,148.2,332.4,148.2,332.4c0.5,2.9-1.6,6.5-3.9,8.9c-2,2-5,3.8-7.2,2.9
			c-0.3-0.1-0.5-0.3-0.8-0.4c0,0,0,0,0,0c-1.9-2.9-4.3-5.4-6.7-7.8c-0.8-0.8-1.5-1.6-2.3-2.4c-2.8-3-5.7-6-8.4-8.9l-2.6-2.7
			c-6.7-7.1-14.5-15.3-22.1-23.3c-3.9-4.2-8-8.3-11.9-12.4c-3.8-3.9-7.8-8-11.6-12.1l-0.3-0.3c-6.2-6.6-12.7-13.3-21.1-17.4
			c0,0-0.1,0-0.1-0.1c0,0,0-0.1,0-0.1l0.3-0.3c0.2-0.3,0.5-0.6,0.7-0.8c0,0,0,0,0,0c0.6-0.6,1.3-1.2,2-1.9c2.1-2.1,4.1-4.3,6-6.4
			c0.6-0.7,1.2-1.3,1.8-2c0,0,0.1,0,0.1,0c0,0,0.1,0,0.1,0.1c4.1,8.7,11,15.3,17.7,21.6l0.3,0.3c4,3.8,8.1,7.8,12.1,11.6
			c4.1,3.9,8.2,8,12.4,11.9c8,7.6,16.2,15.4,23.3,22.1l2.7,2.6c2.9,2.8,6,5.6,8.9,8.4c0.8,0.8,1.6,1.5,2.4,2.3
			C142.6,327.9,145.2,330.4,148.2,332.4z"/>
		<path class="st0" d="M48.7,231.1c-0.2,3.6,3.4,6.2,6.7,8.5c1.1,0.7,2.1,1.5,2.9,2.2c0,0,0,0.1,0,0.1c0,0,0,0.1,0,0.1
			c-0.7,0.8-1.4,1.5-2.2,2.3c-3.3,3.4-6.6,7-9.5,10.8l-0.3,0.3c-0.2,0.2-0.4,0.4-0.6,0.7c0,0,0,0,0,0c0,0-0.1,0-0.1,0
			c0,0-0.1,0-0.1-0.1c-0.7-1.2-1.6-2.3-2.8-3.3c-1.3-1.3-2.9-2.3-4.7-2.7l-0.4-0.2c-0.6-0.4-1.3-0.8-1.9-1.1
			c-0.6-0.3-1.3-0.7-1.8-1.1c-0.5-0.3-1-0.7-1.5-1.1c-1.2-0.9-2.5-1.9-4-2.2c-0.2,0-0.4,0-0.5,0.1c-0.1,0.1-0.2,0.3-0.1,0.5
			c0.5,2,2.1,3.1,3.6,4.3l0.6,0.4c0,0,0.1,0.1,0,0.1c0,0,0,0.1-0.1,0.1c-3.8,0.7-7.6,2.8-10.5,5.6c-2.3,2.3-3.9,4.9-4.6,7.7
			c0,0,0,0.1-0.1,0.1c0,0-0.1,0-0.1,0c-1.6-1.9-3.5-3.6-5.2-5.2l-0.7-0.7c-0.2-0.2-0.5-0.4-0.9-0.8c-2.1-1.7-5.9-4.9-6-7
			c0-0.5,0.2-0.9,0.6-1.2c3.6-2.6,7.4-5,11.2-7.4c1.9-1.2,3.8-2.4,5.6-3.6c0.3-0.2,0.5-0.5,0.6-0.8c0,0,0,0,0-0.1
			c0.2-0.2,0.5-0.6,0.4-1.2c-0.5-3.2,1-6.6,4.5-10c2.5-2.5,5.5-4.6,8.2-6.3c4.8-3.1,10.9-5.2,17.4-5.8c7-0.7,14.5,0.9,21.1,4.7
			c0.1,0,0.1,0.1,0.1,0.2c0,0.1-0.1,0.1-0.1,0.1c-5.1-1.4-10.7-0.6-16.2,2.1c-1.7,0.9-3.2,1.9-4.5,3.2
			C50.2,225.5,48.9,228.3,48.7,231.1z"/>
	</g>
	<path class="st1" d="M52.9,231c-0.2-1.9,0.7-3.9,2.6-5.7c1.6-1.6,3.8-3,6-3.9c3.8-1.5,8.2-1.5,12.8-0.1c3,1.1,6.2,2.5,9.3,5
		c0.5,0.4,1.2,0.2,1.5-0.1c0.1-0.1,0.4-0.5,0.1-1.1c-8.7-11.8-22.3-17.2-37.4-14.8c-6.5,1-13.2,4.2-19.8,9.4
		c-1.4,1.1-2.7,2.2-3.7,3.3c-4.2,4.2-5.9,8.2-5,11.8c0,0.1,0,0.1-0.1,0.1c-3.9,2.6-7.9,5.2-11.8,7.8c-0.6,0.4-1.2,0.7-1.8,1.1
		c-1.4,0.8-2.8,1.7-3.9,2.7c-0.8,0.8-1.4,1.7-1.7,2.8c-0.5,2,1.9,4,3.6,5.4c0.4,0.3,0.7,0.6,0.9,0.8c0.8,0.8,1.7,1.6,2.5,2.4
		c2.1,2,4.2,4,6.4,5.9c0.6,0.7,1.5,1.6,2.5,2.2c0.9,0.5,1.8,0,2.3-0.6c0.7-0.7,1.3-1.9,1.6-3c0,0,0,0,0-0.1c0.7-0.8,1.3-1.6,1.9-2.4
		c1-1.3,2-2.6,3.2-3.8c1.6-1.6,3.2-2.7,5.2-3.4c3.8-1.4,8.6,0,12.8,3.7c0,0,0,0,0,0c0.3,0.7,0.6,1.3,1.1,1.7c0,0,0,0,0,0
		c0.1,0.3,0.3,0.6,0.6,0.7c0.3,0.1,0.6,0.1,0.8,0c0,0,0,0,0,0c0.3,0,0.5-0.1,0.7-0.2c0.4-0.2,0.8-0.6,1.3-1c0,0,0.1,0,0.2,0
		c12.9,9.2,23.7,21.3,34.1,32.9c3.5,3.9,7.2,8,10.8,11.9c7.2,7.6,14.5,15.4,21.6,22.8l0.5,0.5c1.8,1.9,3.7,4.1,5.5,6.1
		c2.9,3.3,5.9,6.8,9.1,9.8c1.7,1.8,3.5,3.4,4.7,4.5c3.2,2.8,7.4,1.7,10-0.5c1-0.9,2.1-1.8,3-2.8c2.9-2.9,4.3-5.4,4.6-7.9
		c0.3-2.9-0.8-5.4-2.9-6.4c0,0,0,0,0,0c-3.6-4.6-8.2-8.6-12.7-12.5c-2.1-1.8-4.2-3.6-6.1-5.5l-1.1-1c-7.3-6.9-14.9-14.1-22.3-21.1
		c-3.9-3.7-7.9-7.3-11.9-10.8c-11.8-10.6-24-21.5-33.3-34.6c0,0,0-0.1,0-0.2l0.1-0.1c0.6-0.6,0.6-1.4,0-2.2c-1.4-1.7-2.8-2.8-4.5-4
		C54.5,235,53.1,233,52.9,231z M148.2,332.4C148.2,332.4,148.2,332.4,148.2,332.4c0.5,2.9-1.6,6.5-3.9,8.9c-2,2-5,3.8-7.2,2.9
		c-0.3-0.1-0.5-0.3-0.8-0.4c0,0,0,0,0,0c-1.9-2.9-4.3-5.4-6.7-7.8c-0.8-0.8-1.5-1.6-2.3-2.4c-2.8-3-5.7-6-8.4-8.9l-2.6-2.7
		c-6.7-7.1-14.5-15.3-22.1-23.3c-3.9-4.2-8-8.3-11.9-12.4c-3.8-3.9-7.8-8-11.6-12.1l-0.3-0.3c-6.2-6.6-12.7-13.3-21.1-17.4
		c0,0-0.1,0-0.1-0.1c0,0,0-0.1,0-0.1l0.3-0.3c0.2-0.3,0.5-0.6,0.7-0.8c0,0,0,0,0,0c0.6-0.6,1.3-1.2,2-1.9c2.1-2.1,4.1-4.3,6-6.4
		c0.6-0.7,1.2-1.3,1.8-2c0,0,0.1,0,0.1,0c0,0,0.1,0,0.1,0.1c4.1,8.7,11,15.3,17.7,21.6l0.3,0.3c4,3.8,8.1,7.8,12.1,11.6
		c4.1,3.9,8.2,8,12.4,11.9c8,7.6,16.2,15.4,23.3,22.1l2.7,2.6c2.9,2.8,6,5.6,8.9,8.4c0.8,0.8,1.6,1.5,2.4,2.3
		C142.6,327.9,145.2,330.4,148.2,332.4z M48.7,231.1c-0.2,3.6,3.4,6.2,6.7,8.5c1.1,0.7,2.1,1.5,2.9,2.2c0,0,0,0.1,0,0.1
		c0,0,0,0.1,0,0.1c-0.7,0.8-1.4,1.5-2.2,2.3c-3.3,3.4-6.6,7-9.5,10.8l-0.3,0.3c-0.2,0.2-0.4,0.4-0.6,0.7c0,0,0,0,0,0
		c0,0-0.1,0-0.1,0c0,0-0.1,0-0.1-0.1c-0.7-1.2-1.6-2.3-2.8-3.3c-1.3-1.3-2.9-2.3-4.7-2.7l-0.4-0.2c-0.6-0.4-1.3-0.8-1.9-1.1
		c-0.6-0.3-1.3-0.7-1.8-1.1c-0.5-0.3-1-0.7-1.5-1.1c-1.2-0.9-2.5-1.9-4-2.2c-0.2,0-0.4,0-0.5,0.1c-0.1,0.1-0.2,0.3-0.1,0.5
		c0.5,2,2.1,3.1,3.6,4.3l0.6,0.4c0,0,0.1,0.1,0,0.1c0,0,0,0.1-0.1,0.1c-3.8,0.7-7.6,2.8-10.5,5.6c-2.3,2.3-3.9,4.9-4.6,7.7
		c0,0,0,0.1-0.1,0.1c0,0-0.1,0-0.1,0c-1.6-1.9-3.5-3.6-5.2-5.2l-0.7-0.7c-0.2-0.2-0.5-0.4-0.9-0.8c-2.1-1.7-5.9-4.9-6-7
		c0-0.5,0.2-0.9,0.6-1.2c3.6-2.6,7.4-5,11.2-7.4c1.9-1.2,3.8-2.4,5.6-3.6c0.3-0.2,0.5-0.5,0.6-0.8c0,0,0,0,0-0.1
		c0.2-0.2,0.5-0.6,0.4-1.2c-0.5-3.2,1-6.6,4.5-10c2.5-2.5,5.5-4.6,8.2-6.3c4.8-3.1,10.9-5.2,17.4-5.8c7-0.7,14.5,0.9,21.1,4.7
		c0.1,0,0.1,0.1,0.1,0.2c0,0.1-0.1,0.1-0.1,0.1c-5.1-1.4-10.7-0.6-16.2,2.1c-1.7,0.9-3.2,1.9-4.5,3.2
		C50.2,225.5,48.9,228.3,48.7,231.1z"/>
</g>
<g>
	<path class="st0" d="M307.7,323.1c0.2,0.8,0.3,1.6-0.1,1.7c-0.3-0.2-0.6-0.4-0.9-0.5c-0.2-0.1-0.4-0.3-0.6-0.4
		c-2.1-1.6-4.7-2.8-6.9-4.1c-0.2-0.1-0.3-0.1-0.4-0.2c-0.1-0.1-0.2-0.1-0.3-0.1c-4.8-1.4-8.9,5.2-9.7,9.1c-0.7,3.2,0.6,5.5,2.8,7.3
		c0.7,0.6,1.5,1.1,2.3,1.5c1.7,0.9,3.6,1.3,5.2,2.4c-0.5,0.5-1,0.9-1.6,1.2c-2.5,0.7-6.6,0.3-8.1,0.2c-3-0.1-5.5-1.2-7.7-2.9
		c-3.9-4.9-3-13.8,0.4-18.8c0.3-0.4-0.3-0.8-0.6-0.5c-1.6,1.4-2.8,3.4-3.5,5.7c-1.4-6.1-5.9-11.3-10.4-15.7
		c-6.1-6-12.3-12.5-18.9-18.2c-0.6-0.6-1.2-1.2-1.8-1.8c-3.1-3.2-6.3-6.4-9.4-9.6c-0.3-0.3-0.6-0.6-0.8-0.9
		c-0.2-0.2-0.5-0.5-0.7-0.7c-2.3-2.2-4.6-4.4-6.8-6.6c-1.5-1.5-2.9-3-4.3-4.6c-0.3-0.2-0.5-0.4-0.8-0.6c-3.3-3.4-6.5-6.9-9.8-10.3
		c-3.5-3.6-8-8.4-13-9c0.5-0.5,0.9-1.1,1.2-1.8c0-0.1,0-0.2-0.1-0.1c-4.4,1.7-7.7,3-12.3,0.7c-4.6-2.3-6.1-7.1-8.4-11.2
		c-0.2-0.8-0.3-1.6,0.1-1.7c0.3,0.2,0.6,0.4,0.8,0.5c0.2,0.1,0.4,0.3,0.6,0.4c2.1,1.6,4.6,2.8,6.7,4c0.1,0.1,0.3,0.1,0.4,0.2
		c0.1,0.1,0.2,0.1,0.3,0.1c4.7,1.4,8.7-5.1,9.5-8.9c0.7-3.1-0.6-5.4-2.7-7.1c-0.7-0.5-1.4-1-2.2-1.5c-1.7-0.8-3.5-1.3-5.1-2.3
		c0.5-0.5,1-0.9,1.6-1.2c2.5-0.7,6.5-0.3,7.9-0.2c3,0.1,5.4,1.1,7.5,2.9c3.9,4.8,3,13.5-0.4,18.4c-0.3,0.4,0.3,0.7,0.6,0.5
		c1.6-1.3,2.7-3.3,3.4-5.6c1.4,6,5.8,11.1,10.2,15.4c5.2,5.1,10.4,10.5,15.9,15.5c4.3,4.8,9.4,9.1,13.7,13.4
		c4.8,4.8,9.7,10.3,15,14.9c3,3.1,5.9,6.2,8.9,9.3c3.5,3.6,8.2,8.6,13.3,9.2c-0.5,0.5-0.9,1.1-1.3,1.8c0,0.1,0,0.2,0.1,0.1
		c4.5-1.7,7.9-3,12.5-0.7C303.7,314,305.3,318.9,307.7,323.1z"/>
	<path class="st1" d="M292.2,307.8c-4.8,0.4-8.1-0.8-11.9-4.4c-2-1.9-4-3.9-5.9-5.9c-1.2-1.2-2.4-2.4-3.6-3.6
		c-3.6-4.8-8.2-9.1-12.6-13.2c-1.5-1.4-3-2.8-4.4-4.2c-1.7-1.7-3.4-3.4-5.2-5.3c-3.4-3.5-6.8-7.1-10.5-10.1
		c-2.3-2.4-4.8-4.7-7.1-6.9c-1.3-1.2-2.6-2.5-3.9-3.7c-0.6-0.6-1.3-1.2-1.9-1.8c-3-2.9-6.2-5.9-8.7-9.3c-2.6-3.4-3.5-7.2-4.4-11.2
		l-0.2-0.7c0.1-5-1.7-9.2-4.6-11c-0.3-0.3-0.5-0.5-0.8-0.6c-2.4-1.5-5-1.7-7.5-1.8c-1.5-0.3-3.2-0.2-4.7-0.1
		c-2.5,0.1-4.2,0.6-5.2,1.5c-0.8,0.6-1.3,1.4-1.7,2.3c-0.2,0.5,0.1,1,0.5,1.2c0.2,0.1,0.3,0.2,0.5,0.3c0.5,0.4,1.1,0.8,1.7,1
		c0.3,0.2,0.6,0.3,0.9,0.5c0.3,0.2,0.6,0.3,0.8,0.5c0.5,0.3,1,0.7,1.6,1l0.2,0.2c0.3,0.2,0.6,0.4,0.9,0.6c0.3,0.2,0.6,0.4,1,0.6
		c0.7,0.4,1.8,1.1,2.2,1.8c0.7,1.5,0.6,3.1-0.6,4.8c-0.6,0.9-1.5,2.3-2.5,3.3c-0.7,0.7-1.3,1.1-1.8,1.3c-0.2,0-0.3,0-0.5,0.1
		c-0.1,0-0.2,0-0.3,0l-0.2,0c-0.1,0-0.2,0-0.3,0l-0.1,0c0,0-0.1,0-0.1,0c-0.7-0.1-1.4-0.4-2.2-0.8c-0.9-0.5-1.8-1-2.7-1.5
		c-1.5-0.8-3-1.5-4.4-2.5c-0.4-0.1-0.8-0.1-1.1,0.2c-1.5,1.1-1.7,3.1-0.8,5l0.2,0.5c0.5,1.1,1.2,2.4,1.9,3.5c2,3.8,4.9,7,8.2,8.8
		c1.9,1.1,4.3,1.4,6.6,1c4.7-0.4,7.9,0.8,11.6,4.3c2,1.9,3.9,3.8,5.8,5.8c1.2,1.2,2.4,2.5,3.6,3.7c1.4,1.4,2.9,2.9,4.3,4.4l0.4,0.4
		c0.1,0.1,0.2,0.3,0.3,0.4l0.5,0.6c0.3,0.3,0.6,0.6,0.8,0.8c2.6,2.6,5.3,5.2,7.9,7.9c1.8,1.8,3.7,3.7,6,6.2l0.8,0.8
		c1.6,1.7,3.3,3.3,4.9,5c0.6,0.6,1.2,1.2,1.8,1.8c1.1,1.2,2.3,2.4,3.5,3.5c2.7,2.8,5.6,5.5,8.4,8.2c1.3,1.3,2.6,2.5,3.9,3.7
		c0.6,0.6,1.3,1.3,2,1.9c3.1,3,6.3,6,8.9,9.5c2.6,3.4,3.5,7.3,4.5,11.5l0.2,0.7c-0.1,5.1,1.7,9.4,4.7,11.2c0.3,0.3,0.6,0.5,0.9,0.7
		c2.5,1.5,5.1,1.7,7.7,1.8c1.5,0.3,3.3,0.2,4.8,0.1c2.6-0.1,4.3-0.6,5.3-1.5c0.2-0.1,0.3-0.3,0.5-0.4c0.5-0.5,0.9-1.2,1.2-1.9
		c0.2-0.5-0.1-1-0.5-1.3c-0.2-0.1-0.3-0.2-0.5-0.4c-0.6-0.4-1.1-0.8-1.7-1c-0.3-0.2-0.6-0.3-0.9-0.5c-0.3-0.2-0.6-0.3-0.8-0.5
		c-0.5-0.3-1-0.7-1.6-1.1l-0.2-0.1c-0.3-0.2-0.6-0.4-0.9-0.6c-0.3-0.2-0.6-0.4-1-0.6c-0.8-0.5-1.8-1.1-2.2-1.9
		c-0.8-1.5-0.6-3.2,0.6-4.9c0.6-0.9,1.5-2.3,2.6-3.4c0.7-0.7,1.4-1.2,1.9-1.3c0.2,0,0.3,0,0.5-0.1c0.1,0,0.2,0,0.3-0.1l0.2,0
		c0.1,0,0.2,0,0.3,0l0.1,0.1c0,0,0.1,0,0.1,0c0.7,0.1,1.4,0.4,2.2,0.9c0.9,0.5,1.8,1,2.8,1.5c1.5,0.8,3.1,1.6,4.5,2.6
		c0.4,0.2,0.8,0.1,1.1-0.2c0.1-0.1,0.2-0.2,0.3-0.3c0,0,0,0,0,0c1.2-1.2,1.3-3,0.5-4.8l-0.3-0.5c-0.6-1.1-1.2-2.4-1.9-3.6
		c-2-3.9-5-7.1-8.4-9C297,307.7,294.5,307.4,292.2,307.8z M291.4,336c0.6,0.5,1.4,1.1,2.3,1.5c0.7,0.3,1.4,0.6,2.1,0.9
		c1,0.4,2,0.8,2.9,1.3c-0.4,0.4-0.9,0.7-1.3,0.9c-2,0.6-5.1,0.4-6.9,0.3c-0.4,0-0.8-0.1-1.1-0.1c-2.8-0.1-5.3-1-7.5-2.8
		c-3.9-4.9-2.9-13.7,0.5-18.5c0.2-0.3,0.1-0.6-0.1-0.8c-0.2-0.2-0.6-0.3-0.9,0c-0.2,0.1-0.3,0.3-0.5,0.5c-1.2,1.2-2.1,2.7-2.8,4.6
		c-1.7-6.1-6.3-11.2-10.3-15c-1.8-1.8-3.7-3.7-5.5-5.5c-4.3-4.3-8.7-8.7-13.3-12.7l-0.5-0.5c-0.4-0.4-0.9-0.9-1.3-1.3
		c-3.1-3.2-6.3-6.4-9.4-9.6c-0.2-0.2-0.4-0.4-0.6-0.6l-0.3-0.3c-0.2-0.2-0.5-0.5-0.7-0.7c-1.9-1.8-3.8-3.7-5.6-5.5l-1.2-1.2
		c-1.5-1.5-3-3.1-4.4-4.6l-0.3-0.2c-0.2-0.1-0.3-0.3-0.5-0.4c-1-1.1-2-2.1-3-3.2c-2.2-2.3-4.5-4.7-6.8-7.1l-0.3-0.3
		c-3.4-3.5-7.6-7.9-12.4-8.7c0.4-0.5,0.7-1,1-1.5c0.1-0.1,0-0.3-0.1-0.4c-0.1-0.1-0.2-0.1-0.4-0.1l-0.1,0c-4.4,1.7-7.5,2.9-12,0.7
		c-3.5-1.7-5.2-5.1-6.8-8.3c-0.5-0.9-0.9-1.9-1.5-2.8c-0.2-0.8-0.2-1.1-0.1-1.3c0.1,0.1,0.3,0.2,0.4,0.2c0.1,0.1,0.2,0.1,0.3,0.2
		c0.2,0.1,0.4,0.3,0.6,0.4c1.5,1.1,3.2,2,4.8,2.9c0.7,0.4,1.3,0.7,2,1.1c0.1,0.1,0.3,0.1,0.5,0.2c0.1,0.1,0.2,0.1,0.3,0.1
		c2,0.6,4.1-0.1,6-2c2.1-2.1,3.4-5,3.9-7.1c0.6-2.9-0.3-5.3-2.8-7.4c-0.6-0.5-1.4-1-2.3-1.5c-0.7-0.3-1.4-0.6-2-0.9
		c-0.9-0.4-1.9-0.8-2.8-1.3c0.4-0.4,0.8-0.7,1.2-0.9c2-0.6,5-0.4,6.8-0.3c0.4,0,0.8,0.1,1.1,0.1c2.8,0.1,5.2,1,7.3,2.8
		c3.8,4.8,2.8,13.4-0.4,18.1c-0.2,0.3-0.1,0.6,0.1,0.8c0.2,0.2,0.6,0.3,0.9,0c1.4-1.2,2.5-2.9,3.2-4.9c1.7,6,6.2,11,10,14.7
		c1.8,1.8,3.7,3.6,5.5,5.4c3.4,3.4,6.9,6.9,10.4,10.1c2.8,3.1,5.9,6,8.9,8.8c1.7,1.6,3.3,3.1,4.9,4.7c1.6,1.6,3.1,3.2,4.8,4.9
		c3.3,3.4,6.7,6.9,10.2,10l1.8,1.9c2.3,2.5,4.7,5,7.1,7.5l0.3,0.3c3.5,3.6,7.8,8.1,12.6,8.9c-0.4,0.5-0.7,1-1,1.5
		c-0.1,0.1,0,0.3,0.1,0.4c0.1,0.1,0.2,0.1,0.4,0.1l0.1,0c4.5-1.7,7.7-2.9,12.2-0.7c3.6,1.8,5.3,5.2,7,8.5c0.5,0.9,1,1.9,1.5,2.8
		c0.2,0.9,0.2,1.2,0.1,1.3c-0.1-0.1-0.3-0.2-0.4-0.3c-0.1-0.1-0.2-0.1-0.3-0.2c-0.2-0.1-0.4-0.3-0.6-0.4c-1.5-1.1-3.2-2.1-4.9-3
		c-0.7-0.4-1.4-0.8-2-1.1c-0.1-0.1-0.3-0.1-0.5-0.2c-0.1-0.1-0.2-0.1-0.3-0.1c-2-0.6-4.1,0.1-6.1,2.1c-2.1,2.1-3.5,5.1-4,7.2
		C287.9,331.4,288.8,333.9,291.4,336z"/>
</g>
<g>
	<g>
		<path class="st0" d="M333.8,218.1c0.3-0.3,0.5-0.6,0.8-1c0.1-0.1,0.2-0.2,0.3-0.4c0.1-0.1,0.2-0.2,0.4-0.3c0.3-0.3,0.7-0.5,1-0.8
			c0.3,0.2,0.6,0.4,0.9,0.7c-0.7,0.4-1.2,1-1.7,1.6c-0.3,0.4-0.7,0.8-0.9,1.2C334.3,218.8,334.1,218.4,333.8,218.1z"/>
		<path class="st0" d="M342.2,229.8c-0.9-1.5-2.1-3-3.1-4.4c-1.2-1.6-2.3-3.2-3.5-4.9c0.5-0.3,0.9-0.7,1.4-1.1
			c0.6-0.6,1.3-1.2,1.6-2.1c1.7,1.2,3.3,2.4,5,3.6c1.5,1,2.9,2.2,4.5,3.1c0.1,0.7,0.6,1.1,1.1,1.8c1.2,1.5,2.2,3.1,1.8,5
			C350.1,235,344.5,230.7,342.2,229.8z"/>
		<path class="st0" d="M386.5,270.4c-4.9-5-9.9-10-14.8-15.1c-6.7-6.8-13.8-15-22.2-20.3c1.1-0.2,2.2-0.7,2.9-1.7
			c0.4-0.6,0.7-1.2,0.9-1.9c5.3,8.3,13.4,15.4,20.2,22c5,4.9,10,9.9,15.1,14.8c4,3.9,7.9,8.6,12.5,11.9c-0.4,0.4-0.9,0.9-1.3,1.3
			c-0.4,0.4-0.9,0.9-1.3,1.3C395.2,278.3,390.5,274.4,386.5,270.4z"/>
		<path class="st0" d="M442.2,310.2c5.8,5.8,11.5,12.1,18,17.3c0,0,0,0.1,0,0.1c-0.3,4.1-1.8,7.2-4.3,10c-2.8,2.5-5.9,4.1-10,4.3
			c0,0-0.1,0-0.1,0c-5.1-6.5-11.4-12.1-17.3-18c-4.8-4.8-9.5-10.3-15-14.3c0,0,0,0,0-0.1c2.2-7.3-5.9-17-13.5-18
			c1.3-1.3,2.5-2.6,3.7-4.1c1.1-1.2,2.2-2.4,2.8-4c0.1-0.2-0.2-0.4-0.4-0.4c-1.5,0.6-2.8,1.7-4,2.8c-1.7,1.4-3.3,2.8-4.8,4.4
			c-0.2,0.2-0.3,0.4-0.4,0.6c-0.3-0.3-0.6-0.7-0.8-1.1c-0.1-0.3-0.1-0.6,0.1-0.8c0.3-0.3,0.6-0.7,1-0.9c0,0,0,0,0.1,0
			c1.5-1.5,3-3.1,4.5-4.6c1.6-1.5,3.1-3,4.6-4.5c0,0,0,0,0-0.1c0.2-0.4,0.6-0.7,0.9-1c0.2-0.2,0.6-0.3,0.8-0.1
			c0.6,0.3,1.3,0.8,1.6,1.5c0.2,0.3,0.1,0.7,0.1,1.1c-0.1,8,10.3,17.2,18.1,14.8c0,0,0,0,0.1,0C431.8,300.8,437.4,305.4,442.2,310.2
			z"/>
	</g>
	<g>
		<path class="st1" d="M428.1,293.3c-0.1-0.1-0.2-0.1-0.2-0.1c0,0,0,0,0,0c-3.8-1.4-7.2-1.5-10.5-4.2c-2.9-2.3-3.7-5.4-5-8.5
			c-0.1-0.9-0.4-1.9-0.7-2.6c-0.2-0.6-1.1-1.4-2.1-1.8c-0.8-0.6-1.7-1-2.6-0.8c-1.4,0.5-2.2,1.5-3.2,2.4c-0.3,0.3-0.6,0.6-0.9,0.9
			c-3-4-7.1-7.4-10.6-10.8c-4.5-4.4-9.1-8.9-13.6-13.3c-9.8-9.6-19.3-18.4-27-29.7c-0.1-0.1-0.1-0.1-0.2-0.2c0-0.1,0-0.1-0.1-0.2
			c-1.5-2-3.5-3.2-5.5-4.5c-3-2.1-5.9-4.1-8.9-6.1c-0.5-0.3-0.9-0.2-1.2,0.2c-0.5,0.2-1,0.7-1.4,1.2c-0.2,0.2-0.4,0.4-0.5,0.6
			c-0.2,0.2-0.4,0.4-0.6,0.5c-0.4,0.4-1,0.8-1.2,1.4c-0.3,0.3-0.5,0.7-0.2,1.2c2,3,4,6,6.1,8.9c1.4,2,2.6,4.1,4.5,5.5
			c0.1,0,0.1,0.1,0.2,0.1c0.1,0.1,0.1,0.1,0.2,0.2c11.4,7.8,20.2,17.2,29.7,27c4.4,4.5,8.9,9.1,13.3,13.6c3.5,3.5,6.8,7.6,10.8,10.6
			c-0.3,0.3-0.6,0.6-0.9,0.9c-1,1-2,1.9-2.4,3.2c-0.3,0.9,0.1,1.8,0.8,2.6c0.5,0.9,1.3,1.8,1.8,2.1c0.7,0.3,1.6,0.6,2.6,0.7
			c3.1,1.3,6.2,2.2,8.5,5c2.7,3.3,2.8,6.7,4.2,10.5c0,0,0,0,0,0c0,0.1,0,0.2,0.1,0.2c4.4,6.6,11,11.9,16.6,17.5
			c5.6,5.6,11.1,11.6,17.4,16.5c0.2,0.1,0.4,0.2,0.5,0.2c0,0,0,0,0.1,0c4.4,0.4,8.9-1.3,11.8-4.5c3.2-2.9,4.8-7.5,4.5-11.8
			c0,0,0,0,0-0.1c0-0.2,0-0.4-0.2-0.5c-4.8-6.3-10.9-11.8-16.5-17.4C440,304.3,434.6,297.7,428.1,293.3z M333.8,218.1
			c0.3-0.3,0.5-0.6,0.8-1c0.1-0.1,0.2-0.2,0.3-0.4c0.1-0.1,0.2-0.2,0.4-0.3c0.3-0.3,0.7-0.5,1-0.8c0.3,0.2,0.6,0.4,0.9,0.7
			c-0.7,0.4-1.2,1-1.7,1.6c-0.3,0.4-0.7,0.8-0.9,1.2C334.3,218.8,334.1,218.4,333.8,218.1z M342.2,229.8c-0.9-1.5-2.1-3-3.1-4.4
			c-1.2-1.6-2.3-3.2-3.5-4.9c0.5-0.3,0.9-0.7,1.4-1.1c0.6-0.6,1.3-1.2,1.6-2.1c1.7,1.2,3.3,2.4,5,3.6c1.5,1,2.9,2.2,4.5,3.1
			c0.1,0.7,0.6,1.1,1.1,1.8c1.2,1.5,2.2,3.1,1.8,5C350.1,235,344.5,230.7,342.2,229.8z M386.5,270.4c-4.9-5-9.9-10-14.8-15.1
			c-6.7-6.8-13.8-15-22.2-20.3c1.1-0.2,2.2-0.7,2.9-1.7c0.4-0.6,0.7-1.2,0.9-1.9c5.3,8.3,13.4,15.4,20.2,22c5,4.9,10,9.9,15.1,14.8
			c4,3.9,7.9,8.6,12.5,11.9c-0.4,0.4-0.9,0.9-1.3,1.3c-0.4,0.4-0.9,0.9-1.3,1.3C395.2,278.3,390.5,274.4,386.5,270.4z M442.2,310.2
			c5.8,5.8,11.5,12.1,18,17.3c0,0,0,0.1,0,0.1c-0.3,4.1-1.8,7.2-4.3,10c-2.8,2.5-5.9,4.1-10,4.3c0,0-0.1,0-0.1,0
			c-5.1-6.5-11.4-12.1-17.3-18c-4.8-4.8-9.5-10.3-15-14.3c0,0,0,0,0-0.1c2.2-7.3-5.9-17-13.5-18c1.3-1.3,2.5-2.6,3.7-4.1
			c1.1-1.2,2.2-2.4,2.8-4c0.1-0.2-0.2-0.4-0.4-0.4c-1.5,0.6-2.8,1.7-4,2.8c-1.7,1.4-3.3,2.8-4.8,4.4c-0.2,0.2-0.3,0.4-0.4,0.6
			c-0.3-0.3-0.6-0.7-0.8-1.1c-0.1-0.3-0.1-0.6,0.1-0.8c0.3-0.3,0.6-0.7,1-0.9c0,0,0,0,0.1,0c1.5-1.5,3-3.1,4.5-4.6
			c1.6-1.5,3.1-3,4.6-4.5c0,0,0,0,0-0.1c0.2-0.4,0.6-0.7,0.9-1c0.2-0.2,0.6-0.3,0.8-0.1c0.6,0.3,1.3,0.8,1.6,1.5
			c0.2,0.3,0.1,0.7,0.1,1.1c-0.1,8,10.3,17.2,18.1,14.8c0,0,0,0,0.1,0C431.8,300.8,437.4,305.4,442.2,310.2z"/>
		<path class="st1" d="M420,302.9c3,5.7,8.9,10.3,13.4,14.8c5.3,5.2,10.6,10.2,16.6,14.6c0.3,0.2,0.7-0.2,0.5-0.5
			c-4-5.4-8.4-10.3-13.2-15c-5-5-10.1-11.6-16.5-14.9C420.4,301.7,419.7,302.3,420,302.9z"/>
		<path class="st1" d="M415.8,307.2c3,5.7,8.9,10.3,13.4,14.8c5.3,5.2,10.6,10.2,16.6,14.6c0.3,0.2,0.7-0.2,0.5-0.5
			c-4-5.4-8.4-10.3-13.2-15c-5-5-10.1-11.6-16.5-14.9C416.1,306,415.4,306.6,415.8,307.2z"/>
		<path class="st1" d="M424.3,298.6c3,5.7,8.9,10.3,13.4,14.8c5.3,5.2,10.6,10.2,16.6,14.6c0.3,0.2,0.7-0.2,0.5-0.5
			c-4-5.4-8.4-10.3-13.2-15c-5-5-10.1-11.6-16.5-14.9C424.7,297.4,424,298,424.3,298.6z"/>
	</g>
</g>
<g>
	<g>
		<path class="st0" d="M612,336.1c3,0.9,5,4,7.7,5.5c-0.2-1.5,0-3,0.8-4.3c2.9-4.9,8.4-7.4,8.9-13.6c0.5-6.2-0.2-13,6-15.5
			c-4.6-4.1-14.4-4-15.2-10.8c-4.9,1.4-8.8-3.7-11.2-7.5c-2.6-4.3-5.4-7.9-9.5-10.9c-1.2-0.8-7-5-7.7-2c-0.7,2.8-0.9,5.9-1.3,8.8
			c-1.1,9.1-2.2,19.6-0.4,28.7c1.1,5.6,10.9,10,8.9,16.4c0,0,0,0,0,0C602.4,334.7,607.4,334.6,612,336.1z M605.7,301.5
			c2.7-3.3,7.4-4.2,11.2-2.3c0.7,0.4,1.3,0.9,1.8,1.5c0,0,0.1,0.1,0.1,0.1c3.2,3.5-0.6,9.4-2.4,12.5c-2.8,4.9,0.1,10.5-3.3,15.1
			c-2.3,3.2-6.8,2.4-9.7,0.6C594.8,323.5,600.9,307.4,605.7,301.5z"/>
		<path class="st0" d="M493.5,231.3c0.9,0,2.2,0.5,3,1.3c0.8,0.8,1.3,2.1,1.3,3c0,0.4-0.1,0.7-0.2,1.1c0.4-0.1,0.7-0.2,1.1-0.2
			c0.9,0,2.2,0.5,3,1.3c0.8,0.8,1.3,2.1,1.3,3c0,0.4-0.1,0.7-0.2,1.1c0.4-0.1,0.7-0.2,1.1-0.2c0.9,0,2.2,0.5,3,1.3
			c0.8,0.8,1.3,2.1,1.3,3c0,0.4-0.1,0.7-0.2,1.1c0.4-0.1,0.7-0.2,1.1-0.2c0.9,0,2.2,0.5,3,1.3c0.8,0.8,1.3,2.1,1.3,3
			c0,0.4-0.1,0.7-0.2,1.1c0.4-0.1,0.7-0.2,1.1-0.2c0.9,0,2.2,0.5,3,1.3c0.8,0.8,1.3,2.1,1.3,3c0,0.4-0.1,0.7-0.2,1.1
			c0.4-0.1,0.7-0.2,1.1-0.2c0.9,0,2.2,0.5,3,1.3c0.8,0.8,1.3,2.1,1.3,3c0,0.4-0.1,0.7-0.2,1.1c0.4-0.1,0.7-0.2,1.1-0.2
			c0.9,0,2.2,0.5,3,1.3c0.8,0.8,1.3,2.1,1.3,3c0,0.4-0.1,0.7-0.2,1.1c0.4-0.1,0.7-0.2,1.1-0.2c0.9,0,2.2,0.5,3,1.3
			c0.8,0.8,1.3,2.1,1.3,3c0,0.4-0.1,0.7-0.2,1.1c0.4-0.1,0.7-0.2,1.1-0.2c0.9,0,2.2,0.5,3,1.3c0.8,0.8,1.3,2.1,1.3,3
			c0,0.4-0.1,0.7-0.2,1.1c0.4-0.1,0.7-0.2,1.1-0.2c0.9,0,2.2,0.5,3,1.3c0.8,0.8,1.3,2.1,1.3,3c0,0.4-0.1,0.7-0.2,1.1
			c0.4-0.1,0.7-0.2,1.1-0.2c0.9,0,2.2,0.5,3,1.3c0.8,0.8,1.3,2.1,1.3,3c0,0.4-0.1,0.7-0.2,1.1c0.4-0.1,0.7-0.2,1.1-0.2
			c0.9,0,2.2,0.5,3,1.3c0.8,0.8,1.3,2.1,1.3,3c0,0.4-0.1,0.7-0.2,1.1c0.4-0.1,0.7-0.2,1.1-0.2c0.9,0,2.2,0.5,3,1.3
			c0.8,0.8,1.3,2.1,1.3,3c0,0.4-0.1,0.7-0.2,1.1c0.4-0.1,0.7-0.2,1.1-0.2c0.9,0,2.2,0.5,3,1.3c0.8,0.8,1.3,2.1,1.3,3
			c0,0.4-0.1,0.7-0.2,1.1c0.4-0.1,0.7-0.2,1.1-0.2c0.9,0,2.2,0.5,3,1.3c0.8,0.8,1.3,2.1,1.3,3c0,0.4-0.1,0.7-0.2,1.1
			c0.4-0.1,0.7-0.2,1.1-0.2c0.9,0,2.2,0.5,3,1.3c0.8,0.8,1.3,2.1,1.3,3c0,0.4-0.1,0.7-0.2,1.1c0.4-0.1,0.7-0.2,1.1-0.2
			c0.9,0,2.2,0.5,3,1.3c0.8,0.8,1.3,2.1,1.3,3c0,0.4-0.1,0.7-0.2,1.1c0.4-0.1,0.7-0.2,1.1-0.2c0.9,0,2.2,0.5,3,1.3
			c0.8,0.8,1.3,2.1,1.3,3c0,0.4-0.1,0.7-0.2,1.1c0.4-0.1,0.7-0.2,1.1-0.2c0.3,0,0.6,0,0.9,0.1c0.4-0.6,1-1.1,1.6-1.6
			c0.5-0.4,1-0.9,1.6-1.3c-0.7-0.8-1.4-1.7-2.1-2.6c-2.4-3.3-3.1-6.4-3.3-10.4c-0.5-10,0.4-20.1,1.9-30c0.2-1.2,0.2-3.8,1.1-5.5
			c-16.6-9.1-32.4-19.9-48.5-29.9c-8.3-5.2-16.6-10.3-24.9-15.5c-7.3-4.6-15.4-8.8-22.1-14.3c-1.2,1.8-2.9,3.3-4.4,4.8
			c-1,1-2,2.3-3.2,3c0.7,0.8,1.1,2,1.1,2.9c0,0.4-0.1,0.7-0.2,1.1c0.4-0.1,0.7-0.2,1.1-0.2c0.9,0,2.2,0.5,3,1.3
			c0.8,0.8,1.3,2.1,1.3,3c0,0.4-0.1,0.7-0.2,1.1C492.8,231.4,493.1,231.3,493.5,231.3z M492,223c0.1-1.7,1.2-3.1,2.8-3.6
			c0.5-0.2,1-0.2,1.5-0.1c1.1-0.1,2.3,0.3,3.1,1c2.4,2.2,1.8,5.9-1.1,7.3C495.1,228.9,491.8,226.3,492,223z"/>
	</g>
	<g>
		<path class="st1" d="M603.5,329c2.8,1.8,7.3,2.6,9.7-0.6c3.3-4.6,0.5-10.2,3.3-15.1c1.8-3.1,5.6-8.9,2.4-12.5c0,0-0.1-0.1-0.1-0.1
			c-0.5-0.6-1.1-1.2-1.8-1.5c-3.7-1.9-8.4-1.1-11.2,2.3C600.9,307.4,594.8,323.5,603.5,329z M605.5,308.1c0.9-1.7,3.6-6.1,6.5-6.9
			c4.8,1.5,5.8,4,3.2,7.7c-0.6,1-1.1,1.9-1.7,2.9c-0.7,1.4-1.3,2.8-1.7,4.3c-0.7,2.7,1.6,10.7-2.7,11.3
			C599.1,328.6,603.3,312.3,605.5,308.1z"/>
		<path class="st1" d="M493.5,233.5c0.6,0.1,1,0.3,1.5,0.6c0.3,0.5,0.5,0.9,0.6,1.5c0.3,1.2,0,2.3-0.4,3.4c0,0,0,0.1,0,0.1
			c0,0,0,0,0.1,0c1.1-0.4,2.2-0.6,3.4-0.4c0.6,0.1,1,0.3,1.5,0.6c0.3,0.5,0.5,0.9,0.6,1.5c0.3,1.2,0,2.3-0.4,3.4c0,0,0,0.1,0,0.1
			c0,0,0,0,0.1,0c1.1-0.4,2.2-0.6,3.4-0.4c0.6,0.1,1,0.3,1.5,0.6c0.3,0.5,0.5,0.9,0.6,1.5c0.3,1.2,0,2.3-0.4,3.4c0,0,0,0.1,0,0.1
			c0,0,0,0,0.1,0c1.1-0.4,2.2-0.6,3.4-0.4c0.6,0.1,1,0.3,1.5,0.6c0.3,0.5,0.5,0.9,0.6,1.5c0.3,1.2,0,2.3-0.4,3.4c0,0,0,0.1,0,0.1
			c0,0,0,0,0.1,0c1.1-0.4,2.2-0.6,3.4-0.4c0.6,0.1,1,0.3,1.5,0.6c0.3,0.5,0.5,0.9,0.6,1.5c0.3,1.2,0,2.3-0.4,3.4c0,0,0,0.1,0,0.1
			c0,0,0,0,0.1,0c1.1-0.4,2.2-0.6,3.4-0.4c0.6,0.1,1,0.3,1.5,0.6c0.3,0.5,0.5,0.9,0.6,1.5c0.3,1.2,0,2.3-0.4,3.4c0,0,0,0.1,0,0.1
			c0,0,0,0,0.1,0c1.1-0.4,2.2-0.6,3.4-0.4c0.6,0.1,1,0.3,1.5,0.6c0.3,0.5,0.5,0.9,0.6,1.5c0.3,1.2,0,2.3-0.4,3.4c0,0,0,0.1,0,0.1
			c0,0,0,0,0.1,0c1.1-0.4,2.2-0.6,3.4-0.4c0.6,0.1,1,0.3,1.5,0.6c0.3,0.5,0.5,0.9,0.6,1.5c0.3,1.2,0,2.3-0.4,3.4c0,0,0,0.1,0,0.1
			c0,0,0,0,0.1,0c1.1-0.4,2.2-0.6,3.4-0.4c0.6,0.1,1,0.3,1.5,0.6c0.3,0.5,0.5,0.9,0.6,1.5c0.3,1.2,0,2.3-0.4,3.4c0,0,0,0.1,0,0.1
			c0,0,0,0,0.1,0c1.1-0.4,2.2-0.6,3.4-0.4c0.6,0.1,1,0.3,1.5,0.6c0.3,0.5,0.5,0.9,0.6,1.5c0.3,1.2,0,2.3-0.4,3.4c0,0,0,0.1,0,0.1
			c0,0,0,0,0.1,0c1.1-0.4,2.2-0.6,3.4-0.4c0.6,0.1,1,0.3,1.5,0.6c0.3,0.5,0.5,0.9,0.6,1.5c0.3,1.2,0,2.3-0.4,3.4c0,0,0,0.1,0,0.1
			c0,0,0,0,0.1,0c1.1-0.4,2.2-0.6,3.4-0.4c0.6,0.1,1,0.3,1.5,0.6c0.3,0.5,0.5,0.9,0.6,1.5c0.3,1.2,0,2.3-0.4,3.4c0,0,0,0.1,0,0.1
			c0,0,0,0,0.1,0c1.1-0.4,2.2-0.6,3.4-0.4c0.6,0.1,1,0.3,1.5,0.6c0.3,0.5,0.5,0.9,0.6,1.5c0.3,1.2,0,2.3-0.4,3.4c0,0,0,0.1,0,0.1
			c0,0,0,0,0.1,0c1.1-0.4,2.2-0.6,3.4-0.4c0.6,0.1,1,0.3,1.5,0.6c0.3,0.5,0.5,0.9,0.6,1.5c0.3,1.2,0,2.3-0.4,3.4c0,0,0,0.1,0,0.1
			c0,0,0,0,0.1,0c1.1-0.4,2.2-0.6,3.4-0.4c0.6,0.1,1,0.3,1.5,0.6c0.3,0.5,0.5,0.9,0.6,1.5c0.3,1.2,0,2.3-0.4,3.4c0,0,0,0.1,0,0.1
			c0,0,0,0,0.1,0c1.1-0.4,2.2-0.6,3.4-0.4c0.6,0.1,1,0.3,1.5,0.6c0.3,0.5,0.5,0.9,0.6,1.5c0.3,1.2,0,2.3-0.4,3.4c0,0,0,0.1,0,0.1
			c0,0,0,0,0.1,0c1.1-0.4,2.2-0.6,3.4-0.4c0.6,0.1,1,0.3,1.5,0.6c0.3,0.5,0.5,0.9,0.6,1.5c0.3,1.2,0,2.3-0.4,3.4c0,0,0,0.1,0,0.1
			c0,0,0,0,0.1,0c1.1-0.4,2.2-0.6,3.4-0.4c0.6,0.1,1,0.3,1.5,0.6c0.3,0.5,0.5,0.9,0.6,1.5c0.3,1.2,0,2.3-0.4,3.4c0,0,0,0.1,0,0.1
			c0,0,0,0,0.1,0c1-0.3,1.9-0.5,2.9-0.4c0,0,0,0,0,0c0.2,0.1,0.4,0.1,0.6,0.2c0.4,0.1,0.9,0.3,1.3,0.2c0.6-0.1,1.2-0.4,1.6-0.9
			c0.4-0.3,0.8-0.8,1.2-1.1c0.5-0.4,0.9-0.8,1.3-1.3c1.5,1.9,2.7,3.9,3.2,6.8c-0.1,0.3-0.1,0.7,0.2,1.1c3.4,4.7,8,4.6,13.1,6.2
			c4.9,1.5,7.3,6.6,12.6,6.9c1.2,0.1,2.1-1.4,1.4-2.5c-3.6-5.7,7.8-10.8,8.6-16.5c0.8-5.7-1.8-14.7,6.1-16.1c1-0.2,1.5-1.5,1-2.3
			c-4.2-6.9-13.7-5.3-17.5-12.3c-0.1-0.2-0.3-0.4-0.5-0.4c-0.1-0.1-0.2-0.2-0.4-0.3c-6.7-1.5-8.3-6.2-11.8-11.4c-2-3-5-5.7-8.2-7.6
			c-3-1.8-6.3-4-9.8-3.3c-15.7-11.2-32.6-20.9-48.9-31.1c-8.3-5.2-16.5-10.4-24.8-15.6c-7.6-4.7-15.2-10.4-23.3-14
			c-0.5-0.2-1.1,0-1.4,0.4c-0.1,0-0.2,0.1-0.3,0.1c-2.1,1.3-4,3.4-5.7,5.2c-1.2,1.3-2.8,2.4-2.9,4.3c0,0.1,0.1,0.3,0.1,0.4
			c0.1,0.3,0.3,0.6,0.5,1c0.3,0.5,0.5,1,0.7,1.6c0.3,1.2,0,2.3-0.4,3.4c0,0,0,0.1,0,0.1c0,0,0,0,0.1,0c1.1-0.4,2.2-0.6,3.4-0.4
			c0.6,0.1,1,0.3,1.5,0.6c0.3,0.5,0.5,0.9,0.6,1.5c0.3,1.2,0,2.3-0.4,3.4c0,0,0,0.1,0,0.1c0,0,0,0,0.1,0
			C491.2,233.5,492.4,233.2,493.5,233.5z M590.1,314.4c-1.7-9.1-0.6-19.6,0.4-28.7c0.3-2.9,0.6-6,1.3-8.8c0.7-2.9,6.5,1.2,7.7,2
			c4.1,3,6.9,6.6,9.5,10.9c2.4,3.8,6.3,8.9,11.2,7.5c0.8,6.9,10.6,6.8,15.2,10.8c-6.2,2.5-5.5,9.3-6,15.5c-0.5,6.2-6,8.6-8.9,13.6
			c-0.8,1.3-1,2.8-0.8,4.3c-2.6-1.5-4.7-4.6-7.7-5.5c-4.6-1.4-9.6-1.4-13.1-5.3c0,0,0,0,0,0C600.9,324.3,591.1,320,590.1,314.4z
			 M492.4,231.5c0.1-0.4,0.2-0.7,0.2-1.1c0-0.9-0.5-2.2-1.3-3c-0.8-0.8-2.1-1.3-3-1.3c-0.4,0-0.7,0.1-1.1,0.2
			c0.1-0.4,0.2-0.7,0.2-1.1c0-0.8-0.4-2.1-1.1-2.9c1.2-0.7,2.3-2,3.2-3c1.5-1.5,3.2-3,4.4-4.8c6.7,5.5,14.8,9.7,22.1,14.3
			c8.3,5.2,16.6,10.3,24.9,15.5c16,10,31.9,20.8,48.5,29.9c-0.9,1.6-0.9,4.3-1.1,5.5c-1.4,9.9-2.3,20-1.9,30c0.2,4,0.8,7.1,3.3,10.4
			c0.7,1,1.4,1.8,2.1,2.6c-0.6,0.3-1.1,0.8-1.6,1.3c-0.6,0.5-1.2,0.9-1.6,1.6c-0.3-0.1-0.6-0.1-0.9-0.1c-0.4,0-0.7,0.1-1.1,0.2
			c0.1-0.4,0.2-0.7,0.2-1.1c0-0.9-0.5-2.2-1.3-3c-0.8-0.8-2.1-1.3-3-1.3c-0.4,0-0.7,0.1-1.1,0.2c0.1-0.4,0.2-0.7,0.2-1.1
			c0-0.9-0.5-2.2-1.3-3c-0.8-0.8-2.1-1.3-3-1.3c-0.4,0-0.7,0.1-1.1,0.2c0.1-0.4,0.2-0.7,0.2-1.1c0-0.9-0.5-2.2-1.3-3
			c-0.8-0.8-2.1-1.3-3-1.3c-0.4,0-0.7,0.1-1.1,0.2c0.1-0.4,0.2-0.7,0.2-1.1c0-0.9-0.5-2.2-1.3-3c-0.8-0.8-2.1-1.3-3-1.3
			c-0.4,0-0.7,0.1-1.1,0.2c0.1-0.4,0.2-0.7,0.2-1.1c0-0.9-0.5-2.2-1.3-3c-0.8-0.8-2.1-1.3-3-1.3c-0.4,0-0.7,0.1-1.1,0.2
			c0.1-0.4,0.2-0.7,0.2-1.1c0-0.9-0.5-2.2-1.3-3c-0.8-0.8-2.1-1.3-3-1.3c-0.4,0-0.7,0.1-1.1,0.2c0.1-0.4,0.2-0.7,0.2-1.1
			c0-0.9-0.5-2.2-1.3-3c-0.8-0.8-2.1-1.3-3-1.3c-0.4,0-0.7,0.1-1.1,0.2c0.1-0.4,0.2-0.7,0.2-1.1c0-0.9-0.5-2.2-1.3-3
			c-0.8-0.8-2.1-1.3-3-1.3c-0.4,0-0.7,0.1-1.1,0.2c0.1-0.4,0.2-0.7,0.2-1.1c0-0.9-0.5-2.2-1.3-3c-0.8-0.8-2.1-1.3-3-1.3
			c-0.4,0-0.7,0.1-1.1,0.2c0.1-0.4,0.2-0.7,0.2-1.1c0-0.9-0.5-2.2-1.3-3c-0.8-0.8-2.1-1.3-3-1.3c-0.4,0-0.7,0.1-1.1,0.2
			c0.1-0.4,0.2-0.7,0.2-1.1c0-0.9-0.5-2.2-1.3-3c-0.8-0.8-2.1-1.3-3-1.3c-0.4,0-0.7,0.1-1.1,0.2c0.1-0.4,0.2-0.7,0.2-1.1
			c0-0.9-0.5-2.2-1.3-3c-0.8-0.8-2.1-1.3-3-1.3c-0.4,0-0.7,0.1-1.1,0.2c0.1-0.4,0.2-0.7,0.2-1.1c0-0.9-0.5-2.2-1.3-3
			c-0.8-0.8-2.1-1.3-3-1.3c-0.4,0-0.7,0.1-1.1,0.2c0.1-0.4,0.2-0.7,0.2-1.1c0-0.9-0.5-2.2-1.3-3c-0.8-0.8-2.1-1.3-3-1.3
			c-0.4,0-0.7,0.1-1.1,0.2c0.1-0.4,0.2-0.7,0.2-1.1c0-0.9-0.5-2.2-1.3-3c-0.8-0.8-2.1-1.3-3-1.3c-0.4,0-0.7,0.1-1.1,0.2
			c0.1-0.4,0.2-0.7,0.2-1.1c0-0.9-0.5-2.2-1.3-3c-0.8-0.8-2.1-1.3-3-1.3c-0.4,0-0.7,0.1-1.1,0.2c0.1-0.4,0.2-0.7,0.2-1.1
			c0-0.9-0.5-2.2-1.3-3c-0.8-0.8-2.1-1.3-3-1.3c-0.4,0-0.7,0.1-1.1,0.2c0.1-0.4,0.2-0.7,0.2-1.1c0-0.9-0.5-2.2-1.3-3
			c-0.8-0.8-2.1-1.3-3-1.3C493.1,231.3,492.8,231.4,492.4,231.5z"/>
		<path class="st1" d="M498.2,227.5c3-1.3,3.5-5.1,1.1-7.3c-0.8-0.7-2-1.1-3.1-1c-0.5-0.1-1,0-1.5,0.1c-1.6,0.5-2.7,2-2.8,3.6
			C491.8,226.3,495.1,228.9,498.2,227.5z M495.5,222.7c0.2-0.4,0.6-0.6,0.9-0.8c0.4,0,0.9,0.1,1.1,0.5c0.5,0.8,0.4,2.1-0.8,2.3
			C495.7,224.9,494.9,223.6,495.5,222.7z"/>
	</g>
</g>
<g>
	<g>
		<path class="st0" d="M165.4,442.7c-0.5-0.5-1-1-1.5-1.4c-0.1-0.1-0.2-0.2-0.4-0.3c0.1-0.1,0.2-0.2,0.4-0.3c0.3-0.3,0.7-0.6,1-0.9
			c0.9,1.1,2.6,1.7,3.8,2.3c0.1,0.1,0.2,0.1,0.4,0.2C167.8,442.4,166.6,442.5,165.4,442.7z"/>
		<path class="st0" d="M172.9,442.1c-1-0.7-2.3-1.1-3.3-1.6c-0.5-0.2-1-0.6-1.5-0.9c2.4,0.2,4.8,0.3,7.2,0.3
			c0.8,1.1,2.4,1.6,3.6,2.1C177,442,174.9,442,172.9,442.1z"/>
		<path class="st0" d="M186.3,442.2c-0.8,0-1.6,0-2.4-0.1c-1-0.8-2.5-1.1-3.6-1.6c-0.4-0.2-0.8-0.4-1.3-0.6c2.4,0,4.9-0.1,7.3-0.1
			c0,0,0,0,0,0c0.8,1.2,2.5,1.6,3.7,2.1c0.1,0,0.2,0.1,0.4,0.2C189,442.2,187.6,442.2,186.3,442.2z"/>
		<path class="st0" d="M194.5,441.8c-0.7-0.9-2.3-1.2-3.3-1.6c-0.2-0.1-0.4-0.2-0.6-0.3c2.5,0.1,5.1,0.4,7.7,0.5
			c0.6,0.5,1.6,0.8,2.3,1.1C198.5,441.5,196.5,441.7,194.5,441.8z"/>
		<path class="st0" d="M206.9,441.7c0,0.1,0,0.3,0,0.4c-0.9-0.2-1.8-0.3-2.7-0.4c-0.6-0.6-1.4-0.9-2.1-1.3c1.7-0.1,3.3-0.2,4.9-0.5
			C206.9,440.5,206.9,441.1,206.9,441.7z"/>
		<path class="st0" d="M215,444.8c0,1,0,2.1,0.1,3.1c0,0.6,0,1.2,0,1.8c-2.2-1-4.4-2.1-6.7-2.6c0,0-0.1,0-0.1,0
			c0.4-1.3,0.2-2.8,0.3-4.2c0.1-2.6,0.1-5.2,0.2-7.8c2.2-0.5,4.3-1.6,6.4-2.5c0.1,2.9-0.2,5.8,0,8.6C215,442.2,215,443.5,215,444.8z
			"/>
		<path class="st0" d="M234.9,438.6c-0.3,3.1-0.5,6.2-0.2,9.1c-0.1,0.9-0.2,1.7-0.1,2.6c-0.8-0.2-1.6-0.4-2.4-0.4
			c0.6-1.6,0.3-3.6,0.4-5.3c0.1-2.4,0-5-0.5-7.3c-0.1-0.2-0.4-0.2-0.5,0c-0.6,2.3-0.7,4.9-0.9,7.3c-0.1,1.6-0.4,3.6,0.1,5.2
			c-2,0-4.1,0.2-5.9,0.3c-1.6,0-3.3,0-4.9,0.1c0.8-4,0.3-8.9-0.9-12.6c0-0.1-0.2-0.1-0.2,0c-0.3,2.2-0.2,4.3-0.3,6.5
			c-0.1,2.1-0.4,4.2-0.3,6.3c-0.3,0.1-0.6,0.1-1,0.2c0.2-2.4,0.4-5,0-7.5c0-0.5,0-1,0-1.5c0-0.9,0-1.9,0.1-2.9
			c0.3-2.4,0.2-5-0.1-7.2c2.5,0.6,5.1,0.4,7.7,0.4c2.5,0.1,5.3,0.5,7.9,0.2c0.8,0.1,1.5,0.1,2.3,0.1
			C234.9,434.3,234.9,436.5,234.9,438.6z"/>
		<path class="st0" d="M258.6,453.7c-3.2-0.4-6.6,0.3-9.8-0.1c-3.7-0.5-7.2-1.8-10.8-2.5c-0.3-0.2-0.6-0.4-0.9-0.7
			c0.1-0.7-0.1-1.4-0.1-2.1c0,0,0-0.1,0-0.1c0-0.6,0-1.2,0-1.8c0.2-2.6,0.1-5.3-0.1-8c0.1-2.3,0.4-4.7,0.2-7
			c0.2-0.1,0.5-0.2,0.7-0.4c3.7-0.7,7.2-2.1,11-2.6c3.3-0.4,6.8,0.4,10.1-0.1C257.9,436.3,257.8,445.6,258.6,453.7z"/>
		<path class="st0" d="M260.5,454.3c1-8.3,0.8-17.9-0.2-26.2c0-0.2-0.1-0.4-0.2-0.5c0,0,0,0,0,0c0.7-0.4,1.4-1,2-1.5
			c0,4.6,3.8,8.4,8.6,8.8c10.8,1,21.4,2.8,32.2,3.7c0.2,0,0.3-0.3,0.1-0.4c-5.9-2.6-11.9-3.6-18.3-4.5c-7.2-0.9-18.7,1.1-20.4-7.7
			c5.8,1.2,12.9,0.3,18.6,0.5c6.1,0.1,12.5,0.8,18.6,0.1c10.5,3.1,14.1,17.6,8.2,27.1c-5.8-1.5-4.8-8-4.1-12.5
			c0-0.2-0.2-0.4-0.4-0.3c-3.3,3.3-3.4,11.2,0.4,14.1c-4.1,0.7-7.8,3.2-10.2,6.7c-3.6,5.3,1,12.9,2.4,18.1
			c1.8,6.6,1.2,13.1,1.7,19.7c-9.4,2.1-14.5-15-16.3-21.4c-1.5-5.4-0.2-9.7,2.1-14.5c1.4-2.8,1.9-5.5,1.4-8.6
			c-0.9-5.4-8.4-6.4-12.6-6.1c-5,0.3-10.2,2.9-13.4,6.9C260.7,455.3,260.6,454.8,260.5,454.3z"/>
		<path class="st0" d="M271.6,476.7c-1.5,0.7-3.4,0.5-5.5-0.2c-3.2-1-0.4-4.7-0.2-6.5c0.1-1.4,0-4.4-1.1-6.2
			c2.2,0.2,4.3,1.2,6.1,2.9C273.7,469.3,274.5,474.1,271.6,476.7z"/>
		<path class="st0" d="M306,536.6c-0.3,4,0.6,14.2-5.1,14.4c-5.2,0.2-10.5,0-15.7,0c-9.8,0-19.6-0.1-29.4,0
			c-5.7,0.1-5-14.2-4.2-23.5c8.7,1.3,17.7,1.1,26.5,1.1c9.4,0,19,0,28.4-1C306.4,530.7,306.3,533.6,306,536.6z"/>
		<path class="st0" d="M306.5,525.2c-8.8,0.1-17.7,0.6-26.5,0.5c-9.4-0.1-18.9-0.9-28.2-0.5c0.2-1.5,0.3-2.8,0.4-3.8
			c2.1-3.2,8.2-3.9,11.3-4.9c3.9-1.2,7.8-2.3,11.6-3.9c3.4-1.4,7.4-5.1,6.6-9.3c-0.5-2.3-1.6-4-3-5.9c-2.8-3.9-2.4-7.6-2.4-12.1
			c0-2.6-1-4.8-2.7-6.2c2.1-1.8,2.8-6.4,2.3-8.9c-1.4-6.7-8.5-9.7-14.6-8.6c0-1-0.1-2.1-0.2-3.1c2.7-2.9,5.4-5.2,9.3-6.5
			c4.5-1.6,13.3-1.7,14,4.9c0.4,3.7-2.9,7.8-4.1,11.2c-1.2,3.5-0.5,7.4,0.2,10.9c1.6,7,4.7,14.5,9.8,19.7c2.2,2.2,6.6,5,9.7,3.6
			c0,0.1,0,0.1,0,0.2c0.5,3.2,3.4,6.3,6.5,6.1C306.5,514.1,306.6,519.7,306.5,525.2z"/>
		<path class="st0" d="M309.9,518.2c-0.2,0-0.4,0-0.5,0.1c-0.1-2.4-0.2-4.7-0.4-7.1c1.3-0.1,2.1-0.1,2.1,1.5c0,1.2,0.1,2.4,0.1,3.6
			C311.2,517.6,311.4,518.3,309.9,518.2z"/>
	</g>
	<g>
		<path class="st1" d="M312.5,509.9c-1.1-1-2.3-1.1-3.7-0.7c-0.1-0.5-0.1-1.1-0.2-1.6c0.1-0.4,0-1-0.5-1.1c-0.1,0-0.1,0-0.2,0
			c-0.2-0.1-0.3-0.1-0.5-0.1c-6-1.6-5.1-7.2-5-12.3c0.1-4.4-0.5-8.8-1.4-13.1c-1-4.8-3.6-9.2-4-14.1c-0.7-7.1,7.9-8.3,12.5-10.5
			c0.1,0,0.3,0,0.4-0.1c6.9-4.5,5.6-16.4,3-22.9c-2.1-5.1-7.6-9.3-13.2-8.9c-5.5-0.6-11.3-0.3-16.8-0.4c-6.6-0.1-14.9-1.7-21.2,0.2
			c-0.1,0-0.1,0.1-0.2,0.1c-0.3,0-0.5,0.1-0.8,0.3c-0.6,0.6-1.6,1.2-2,2c-6-2.5-17.4-0.3-22.2,3.3c0,0-0.1,0.1-0.1,0.1
			c0,0-0.1,0-0.1,0.1c0,0-0.1,0-0.1,0c0,0,0,0,0,0c-0.3,0-0.6-0.1-0.8-0.1c-0.1,0-0.1,0-0.2,0c-3.1-0.4-6.4-0.4-9.6-0.3
			c-1,0-2.1-0.1-3.1-0.1c-2.3-0.3-4.8-0.1-6.8,0.2c-0.1,0-0.2,0.1-0.2,0.1c-2.7,1-5.5,1.8-7.9,3.4c-0.1,0.1-0.2,0.2-0.3,0.3
			c-0.2,0.1-0.4,0.4-0.4,0.7c0,1.5,0,3.1,0,4.6c-5.9-1.4-12.7-0.5-18.7-0.5c-7.6-0.1-15.3-1.1-22.9-0.3c-0.2-0.2-0.6-0.3-0.9,0
			c-0.5,0.4-1,0.9-1.5,1.3c-0.5,0.5-1,0.9-1.1,1.5c0,0,0,0,0,0.1c0,0,0,0.1,0,0.1c0,0,0,0,0,0c0,0,0,0,0,0c0,0,0,0.1,0,0.1
			c0,0,0,0,0,0.1c0.1,0.6,0.6,1.1,1.1,1.5c0.5,0.5,1,0.9,1.5,1.3c0.3,0.3,0.7,0.2,0.9,0c7.6,0.8,15.3-0.2,22.9-0.3
			c5.9-0.1,12.8,0.9,18.6-0.5c0,1-0.1,2.1,0.1,3c0,0.5,0,1,0.1,1.5c0,0.1,0.1,0.2,0.2,0.3c0,0.3,0.2,0.5,0.5,0.7
			c2.4,1.5,5.3,2.3,7.9,3.4c0,0.1,0.1,0.1,0.2,0.1c2.1,0.3,4.6,0.5,6.8,0.2c1.3,0,2.5-0.1,3.8-0.1c3,0,6.3,0.5,9.1-0.8
			c0.6,0.4,1.3,0.9,2.1,1.2c5.2,3.2,15.6,5,21.2,2.7c-0.1,2.5,0.1,5.1,0.2,7.6c0,0.7,0.7,1.3,1.4,1.1c0.7-0.2,1.4-0.3,2-0.4
			c0.1,0.2,0.2,0.4,0.3,0.7c1.2,2.4,1.4,5,0.3,7.5c-1,2.1-1.7,4.3,0.8,5.8c1.4,0.9,3.5,1.7,5.4,1.8c0,0,0.1,0,0.1,0.1
			c6.9,1.6,2.6,11.4,4.8,16.1c1,2,2.3,3.6,3.6,5.4c3.9,5.3-2.3,8.9-6.1,10.2c-5.8,2.1-11.7,3.7-17.5,5.8c-2.3,0.8-4.2,2.5-3.9,4.8
			c-1.1,5-1.4,10.2-1.4,15.3c0,4.3-0.4,11.3,2.4,15c2,2.6,7.8,1.5,10.4,1.5c7.2,0,14.4,0,21.6,0c6.4,0,12.7,0.2,19.1,0
			c4.2-0.1,4.9-3.7,5.4-7.1c1.2-8.6,1.9-17.4,1.7-26.1c1.2,0.2,2.6,0.4,3.5-0.5c1.2-1.2,0.7-3.7,0.6-5.2
			C313.4,513.4,313.7,511,312.5,509.9z M165.4,442.7c-0.5-0.5-1-1-1.5-1.4c-0.1-0.1-0.2-0.2-0.4-0.3c0.1-0.1,0.2-0.2,0.4-0.3
			c0.3-0.3,0.7-0.6,1-0.9c0.9,1.1,2.6,1.7,3.8,2.3c0.1,0.1,0.2,0.1,0.4,0.2C167.8,442.4,166.6,442.5,165.4,442.7z M172.9,442.1
			c-1-0.7-2.3-1.1-3.3-1.6c-0.5-0.2-1-0.6-1.5-0.9c2.4,0.2,4.8,0.3,7.2,0.3c0.8,1.1,2.4,1.6,3.6,2.1C177,442,174.9,442,172.9,442.1z
			 M186.3,442.2c-0.8,0-1.6,0-2.4-0.1c-1-0.8-2.5-1.1-3.6-1.6c-0.4-0.2-0.8-0.4-1.3-0.6c2.4,0,4.9-0.1,7.3-0.1c0,0,0,0,0,0
			c0.8,1.2,2.5,1.6,3.7,2.1c0.1,0,0.2,0.1,0.4,0.2C189,442.2,187.6,442.2,186.3,442.2z M194.5,441.8c-0.7-0.9-2.3-1.2-3.3-1.6
			c-0.2-0.1-0.4-0.2-0.6-0.3c2.5,0.1,5.1,0.4,7.7,0.5c0.6,0.5,1.6,0.8,2.3,1.1C198.5,441.5,196.5,441.7,194.5,441.8z M206.9,441.7
			c0,0.1,0,0.3,0,0.4c-0.9-0.2-1.8-0.3-2.7-0.4c-0.6-0.6-1.4-0.9-2.1-1.3c1.7-0.1,3.3-0.2,4.9-0.5
			C206.9,440.5,206.9,441.1,206.9,441.7z M215,444.8c0,1,0,2.1,0.1,3.1c0,0.6,0,1.2,0,1.8c-2.2-1-4.4-2.1-6.7-2.6c0,0-0.1,0-0.1,0
			c0.4-1.3,0.2-2.8,0.3-4.2c0.1-2.6,0.1-5.2,0.2-7.8c2.2-0.5,4.3-1.6,6.4-2.5c0.1,2.9-0.2,5.8,0,8.6C215,442.2,215,443.5,215,444.8z
			 M234.9,438.6c-0.3,3.1-0.5,6.2-0.2,9.1c-0.1,0.9-0.2,1.7-0.1,2.6c-0.8-0.2-1.6-0.4-2.4-0.4c0.6-1.6,0.3-3.6,0.4-5.3
			c0.1-2.4,0-5-0.5-7.3c-0.1-0.2-0.4-0.2-0.5,0c-0.6,2.3-0.7,4.9-0.9,7.3c-0.1,1.6-0.4,3.6,0.1,5.2c-2,0-4.1,0.2-5.9,0.3
			c-1.6,0-3.3,0-4.9,0.1c0.8-4,0.3-8.9-0.9-12.6c0-0.1-0.2-0.1-0.2,0c-0.3,2.2-0.2,4.3-0.3,6.5c-0.1,2.1-0.4,4.2-0.3,6.3
			c-0.3,0.1-0.6,0.1-1,0.2c0.2-2.4,0.4-5,0-7.5c0-0.5,0-1,0-1.5c0-0.9,0-1.9,0.1-2.9c0.3-2.4,0.2-5-0.1-7.2c2.5,0.6,5.1,0.4,7.7,0.4
			c2.5,0.1,5.3,0.5,7.9,0.2c0.8,0.1,1.5,0.1,2.3,0.1C234.9,434.3,234.9,436.5,234.9,438.6z M258.6,453.7c-3.2-0.4-6.6,0.3-9.8-0.1
			c-3.7-0.5-7.2-1.8-10.8-2.5c-0.3-0.2-0.6-0.4-0.9-0.7c0.1-0.7-0.1-1.4-0.1-2.1c0,0,0-0.1,0-0.1c0-0.6,0-1.2,0-1.8
			c0.2-2.6,0.1-5.3-0.1-8c0.1-2.3,0.4-4.7,0.2-7c0.2-0.1,0.5-0.2,0.7-0.4c3.7-0.7,7.2-2.1,11-2.6c3.3-0.4,6.8,0.4,10.1-0.1
			C257.9,436.3,257.8,445.6,258.6,453.7z M260.5,454.3c1-8.3,0.8-17.9-0.2-26.2c0-0.2-0.1-0.4-0.2-0.5c0,0,0,0,0,0
			c0.7-0.4,1.4-1,2-1.5c0,4.6,3.8,8.4,8.6,8.8c10.8,1,21.4,2.8,32.2,3.7c0.2,0,0.3-0.3,0.1-0.4c-5.9-2.6-11.9-3.6-18.3-4.5
			c-7.2-0.9-18.7,1.1-20.4-7.7c5.8,1.2,12.9,0.3,18.6,0.5c6.1,0.1,12.5,0.8,18.6,0.1c10.5,3.1,14.1,17.6,8.2,27.1
			c-5.8-1.5-4.8-8-4.1-12.5c0-0.2-0.2-0.4-0.4-0.3c-3.3,3.3-3.4,11.2,0.4,14.1c-4.1,0.7-7.8,3.2-10.2,6.7c-3.6,5.3,1,12.9,2.4,18.1
			c1.8,6.6,1.2,13.1,1.7,19.7c-9.4,2.1-14.5-15-16.3-21.4c-1.5-5.4-0.2-9.7,2.1-14.5c1.4-2.8,1.9-5.5,1.4-8.6
			c-0.9-5.4-8.4-6.4-12.6-6.1c-5,0.3-10.2,2.9-13.4,6.9C260.7,455.3,260.6,454.8,260.5,454.3z M271.6,476.7
			c-1.5,0.7-3.4,0.5-5.5-0.2c-3.2-1-0.4-4.7-0.2-6.5c0.1-1.4,0-4.4-1.1-6.2c2.2,0.2,4.3,1.2,6.1,2.9
			C273.7,469.3,274.5,474.1,271.6,476.7z M306,536.6c-0.3,4,0.6,14.2-5.1,14.4c-5.2,0.2-10.5,0-15.7,0c-9.8,0-19.6-0.1-29.4,0
			c-5.7,0.1-5-14.2-4.2-23.5c8.7,1.3,17.7,1.1,26.5,1.1c9.4,0,19,0,28.4-1C306.4,530.7,306.3,533.6,306,536.6z M306.5,525.2
			c-8.8,0.1-17.7,0.6-26.5,0.5c-9.4-0.1-18.9-0.9-28.2-0.5c0.2-1.5,0.3-2.8,0.4-3.8c2.1-3.2,8.2-3.9,11.3-4.9
			c3.9-1.2,7.8-2.3,11.6-3.9c3.4-1.4,7.4-5.1,6.6-9.3c-0.5-2.3-1.6-4-3-5.9c-2.8-3.9-2.4-7.6-2.4-12.1c0-2.6-1-4.8-2.7-6.2
			c2.1-1.8,2.8-6.4,2.3-8.9c-1.4-6.7-8.5-9.7-14.6-8.6c0-1-0.1-2.1-0.2-3.1c2.7-2.9,5.4-5.2,9.3-6.5c4.5-1.6,13.3-1.7,14,4.9
			c0.4,3.7-2.9,7.8-4.1,11.2c-1.2,3.5-0.5,7.4,0.2,10.9c1.6,7,4.7,14.5,9.8,19.7c2.2,2.2,6.6,5,9.7,3.6c0,0.1,0,0.1,0,0.2
			c0.5,3.2,3.4,6.3,6.5,6.1C306.5,514.1,306.6,519.7,306.5,525.2z M309.9,518.2c-0.2,0-0.4,0-0.5,0.1c-0.1-2.4-0.2-4.7-0.4-7.1
			c1.3-0.1,2.1-0.1,2.1,1.5c0,1.2,0.1,2.4,0.1,3.6C311.2,517.6,311.4,518.3,309.9,518.2z"/>
		<path class="st1" d="M280.1,459.7c-0.1-1.7-1.1-3-2.4-4c-1.3-1-3.2-1-4.6-0.3c-1.5,0.7-2.2,1.9-2.3,3.5c0,0.1,0,0.2,0.1,0.3
			c0.1,3.5,4.4,5.9,7.5,4.5C279.7,463,280.2,461,280.1,459.7z M273.6,460.1c-0.5-0.7-0.5-1.9,0.4-2.2c0.4-0.1,1.1-0.1,1.5-0.1
			c0.1,0,0.2,0,0.3-0.1c0.9,0.2,1.6,1,1.7,2.4C277.8,462.6,274.5,461.2,273.6,460.1z"/>
	</g>
</g>
<g>
	<g>
		<path class="st0" d="M30.6,433.5c1.6,0.7,3.5,1.1,5.3,1.3c4.8,0.3,9.5-0.5,14.2-0.6c7.4-0.3,13.5,3.4,18.9,8.1
			c0,0.3,0,0.5,0.2,0.7c1.7,2,3.5,4,5.3,5.9c-2.2,3.5-3.5,7.5-6.2,10.8c-2.2,2.7-5.6,4.4-7.4,7.2c-1.6-1.5-3.2-3.1-5-4.1
			c2.3-0.6,4.5-1.8,6.2-3.4c6.2-5.9,3.4-15.9-3.3-19.8c-4.4-2.6-11.5-1.2-14.7,2.8c-2,1.4-3.1,3.9-3.5,6.6
			c-4.2-4.7-9.8-8.8-14.7-12.8C27.2,434.3,28.1,432.4,30.6,433.5z"/>
		<path class="st0" d="M2.8,434.6c0.4-0.3,0.7-0.6,1.1-1c8.2,7,15.8,14.6,23.3,22.3c-0.2,0.2-0.3,0.4-0.5,0.6
			C19.1,449,10.8,441.9,2.8,434.6z"/>
		<path class="st0" d="M56.8,483c-5.4-4.7-10.8-9.4-16.1-14.1c-2.9-2.5-5.7-5.1-8.6-7.6c-0.5-0.5-3.9-2.5-3.1-3.7
			c0.9-1.2,1.7-2.3,2.6-3.5c9,8.8,19.1,16.7,28.5,25C59,480.3,57.9,481.6,56.8,483z"/>
		<path class="st0" d="M39.7,452.2c-2.8,4.5-7.2-1.1-9.6-3.2c-2.5-2.2-5.1-4.4-7.6-6.5c0.8-1.2,1.6-2.4,2.1-3.7
			c4.9,4.5,10,9.6,15.6,13C40,451.9,39.8,452,39.7,452.2z"/>
		<path class="st0" d="M44.2,455.5c-1.6-2.5-1.5-4.8-0.6-7c0,0,0,0,0,0c3.4-4.7,7.2-8.8,13.5-6c5.9,2.6,6.4,10.2,2.6,14.7
			C55.4,462.4,47.6,460.7,44.2,455.5z"/>
		<path class="st0" d="M180.2,499.8c0.7,1.4,0.8,2.8,0.6,4.2c-0.9-1-1.9-2.1-2.8-3.1c-0.7-0.9-1.5-1.7-2.4-2.5
			c-3.8-4-8.4-6.6-14.6-5.5c-7.2,1.3-8.4,10-6.9,15.8c2.8,10.2,13.5,17.1,7,28.5c-2.9,5.1-8.7,7.3-14.3,7.4
			c-6.7,0-11.9-4.7-15.6-9.7c0.4-0.4,0.8-0.8,1.2-1.2c3.6,5.8,9.9,9.2,16.9,8.5c7.2-0.7,12.2-7.6,11.3-14.5c-0.4-3.7-2.9-7-5-9.9
			c-3.6-5.1-6.3-10.7-5.5-17.2c1.1-7.8,8.1-11.1,15.3-10.1C171.4,491.4,176.2,495.5,180.2,499.8z"/>
		<path class="st0" d="M76.7,451.1c-1.6,6.5-8.4,15.9-14.5,17c3,2.8,6,5.5,8.9,8.4c2.8,2.7,5.8,5.5,8.7,8.4c2.1,1.9,4.1,4,6.1,6.1
			c3.1,3.2,6.5,6.4,8.7,10.3c0.2,0.4-0.2,0.8-0.6,0.6c-3.1-1.9-5.6-4.4-8.2-7c0.4,1.2,0.7,2.5,1,3.7c2,8.3,5.6,15.2,12.3,20.8
			c3.7,3.1,7.7,5.7,11.8,8c3.4,1.9,7.2,4.6,10.9,5.7c13.4,3.9,10.1-11.7,7-18.7c-4.1-9.1-10.1-17.2-16.5-24.8
			c-2,0.1-3.9-0.4-5.9,0.1c-2.5,0.6-4.3,2.1-6.6,3.1c-0.7,0.3-1.3-0.3-1-1c1.4-3.2,6.7-5.6,10.9-5.2c-0.7-0.8-1.3-1.5-2-2.3
			c-1.5,0.4-3.3,0.1-4.8,0.7c-1.4,0.5-2.5,1.3-3.6,2.4c-0.7,0.7-1.1,1.2-2,1.4c-0.3,0.1-0.7-0.1-0.7-0.4c-0.7-3.2,4.6-6.6,8.6-6.8
			c-0.5-0.6-1-1.2-1.6-1.7c-0.4,0.1-0.8,0.1-1.3,0.2c-1.2,0.3-2.3,0.6-3.4,1.1c-1.7,0.9-3,2.8-4.8,3.4c-0.5,0.2-0.9-0.3-0.9-0.7
			c0-2.4,3-4.4,5-5.3c0.8-0.4,2.1-0.9,3.3-1.1c-0.7-0.7-1.3-1.5-2-2.2c-0.4,0.1-0.9,0.2-1.3,0.4c-1.1,0.3-2.2,0.8-3.2,1.4
			c-1,0.7-2.6,2.8-3.9,2.3c-0.2-0.1-0.3-0.2-0.4-0.4c-0.2-0.3-0.1-0.7,0-0.9c1.1-2.1,3.2-3.5,5.3-4.4c0.5-0.2,1-0.4,1.5-0.6
			c-4.1-4.5-8.2-8.9-12.4-13.3C82.6,456.7,79.6,453.9,76.7,451.1z M122.3,504.5c3.2,5.8,8.1,18.5,0.5,22.9c-3,1.7-6.7-1.3-8.6-3.2
			c-3-3-6.3-5.9-9-9.3c-3.8-4.1-5.2-10.5-0.7-15C110.8,493.7,118.4,497.6,122.3,504.5z"/>
		<path class="st0" d="M120.2,507.2c-0.8,0.8-1.6,1.5-2.4,2.3c-1.5,1.4-2.3-0.6-3.4-1.9c-2-2.3-3.9-4.8-6.2-6.8c0,0,0.1-0.1,0.1-0.1
			C113.4,497,117.7,502.4,120.2,507.2z"/>
	</g>
	<g>
		<path class="st1" d="M104.4,499.9c-4.5,4.4-3.1,10.8,0.7,15c2.7,3.4,6,6.3,9,9.3c1.9,1.9,5.7,4.9,8.6,3.2
			c7.6-4.4,2.7-17.1-0.5-22.9C118.4,497.6,110.8,493.7,104.4,499.9z M120.2,507.2c-0.8,0.8-1.6,1.5-2.4,2.3
			c-1.5,1.4-2.3-0.6-3.4-1.9c-2-2.3-3.9-4.8-6.2-6.8c0,0,0.1-0.1,0.1-0.1C113.4,497,117.7,502.4,120.2,507.2z M123.6,519.3
			c0.3,2.4-0.9,4.2-3.6,5.5c-1.7-0.2-3.8-2.6-5.1-3.8c-2.5-2.3-4.9-4.9-7.6-7c-2-3.7-3.2-7.9-0.8-11.2c2.5,3.5,5.7,6.9,8.7,9.9
			c1.9,1.9,4.6-0.7,6.3-2.6c0.3,0.6,0.5,1.1,0.6,1.6C123,514.1,123.4,516.7,123.6,519.3z"/>
		<path class="st1" d="M147.3,500.3c-1.3,9.8,4.5,16.1,9,24.1c3.7,6.7-0.5,13.3-7.3,15c-6.3,1.6-11.7-2.7-15.5-7.2
			c1.1-2,1.6-4.4,1.6-6.7c0-6.9-3.8-14.3-7.1-20.1c-4.3-7.5-10.1-14.2-15.7-20.8c-6.7-7.9-13.6-15.5-20.7-22.9
			c-5.1-5.3-10.2-11-15.8-15.9c-4.2-5.4-9.2-10.2-15.8-12.6c-4.4-1.6-8.4-1.9-13-1.6c-6.1,0.5-12.2,1.7-17.7-1.8
			c-0.5-0.3-1.3-0.2-1.6,0.2c-1.5,1.9-3,3.7-4.5,5.6c-0.3,0.3-0.4,0.8-0.4,1.2c-1.4,1.5-2.3,3.6-3.4,5.4c-0.3,0.5-0.3,1.4,0.2,1.8
			c3.5,2.9,6.9,5.9,10.5,8.7c-0.5,0.6-1,1.2-1.4,1.8c-7.3-8.2-15.4-15.8-23.8-22.9c-0.5-0.4-1.1-0.4-1.6,0c-0.9,0.8-1.9,1.6-2.8,2.4
			c-0.5,0.4-0.4,1.2,0,1.6c8.4,7.7,16.6,15.8,25.4,23.1c0,0.3,0.1,0.5,0.3,0.7c9.9,9,20,17.9,30,26.7c0.5,0.5,1.5,0.6,2,0
			c1.6-2,3.3-4.1,4.9-6.1c0.4-0.5,0.6-1.4,0-1.9c-7.9-6.9-15.7-14.3-23.9-21.1c0.8-0.5,1.4-1.2,1.9-2.1c0.2,0.8,0.4,1.5,0.7,2.2
			c2.3,4.8,7.1,6.7,11.8,6.3c1.1,2,2.8,3.2,4.6,4.9c3.3,3,6.6,5.9,9.9,9c4.6,4.3,8.9,9.5,13.8,13.7c2.8,5.7,3.1,12.6,5.7,18.4
			c3.5,7.7,10.5,13.4,17.4,17.9c6,3.9,13.9,9.4,21.3,9.6c1.4,0,2.6-0.3,3.6-0.8c6.3,14.2,27.4,16,34.9,1.7c4.2-8.1,0.3-15.8-4-22.8
			c-3.2-5.1-7.1-13.2-0.9-17.8c5.3-3.9,12.1,1,16.7,4.9c0.2,0.3,0.5,0.6,0.7,0.9c0,0,0,0,0,0c1,1.5,2.3,2.9,3.5,4.3
			c0.5,0.6,1.6,0.2,1.8-0.5c0.8-3.1,0.6-7-1.6-9.4C172.5,485.4,149.6,482,147.3,500.3z M30.6,433.5c1.6,0.7,3.5,1.1,5.3,1.3
			c4.8,0.3,9.5-0.5,14.2-0.6c7.4-0.3,13.5,3.4,18.9,8.1c0,0.3,0,0.5,0.2,0.7c1.7,2,3.5,4,5.3,5.9c-2.2,3.5-3.5,7.5-6.2,10.8
			c-2.2,2.7-5.6,4.4-7.4,7.2c-1.6-1.5-3.2-3.1-5-4.1c2.3-0.6,4.5-1.8,6.2-3.4c6.2-5.9,3.4-15.9-3.3-19.8c-4.4-2.6-11.5-1.2-14.7,2.8
			c-2,1.4-3.1,3.9-3.5,6.6c-4.2-4.7-9.8-8.8-14.7-12.8C27.2,434.3,28.1,432.4,30.6,433.5z M2.8,434.6c0.4-0.3,0.7-0.6,1.1-1
			c8.2,7,15.8,14.6,23.3,22.3c-0.2,0.2-0.3,0.4-0.5,0.6C19.1,449,10.8,441.9,2.8,434.6z M56.8,483c-5.4-4.7-10.8-9.4-16.1-14.1
			c-2.9-2.5-5.7-5.1-8.6-7.6c-0.5-0.5-3.9-2.5-3.1-3.7c0.9-1.2,1.7-2.3,2.6-3.5c9,8.8,19.1,16.7,28.5,25
			C59,480.3,57.9,481.6,56.8,483z M39.7,452.2c-2.8,4.5-7.2-1.1-9.6-3.2c-2.5-2.2-5.1-4.4-7.6-6.5c0.8-1.2,1.6-2.4,2.1-3.7
			c4.9,4.5,10,9.6,15.6,13C40,451.9,39.8,452,39.7,452.2z M44.2,455.5c-1.6-2.5-1.5-4.8-0.6-7c0,0,0,0,0,0c3.4-4.7,7.2-8.8,13.5-6
			c5.9,2.6,6.4,10.2,2.6,14.7C55.4,462.4,47.6,460.7,44.2,455.5z M122,533c-3.8-1.1-7.5-3.8-10.9-5.7c-4.2-2.3-8.1-5-11.8-8
			c-6.7-5.6-10.3-12.4-12.3-20.8c-0.3-1.3-0.7-2.5-1-3.7c2.5,2.6,5.1,5.1,8.2,7c0.4,0.2,0.8-0.2,0.6-0.6c-2.3-3.9-5.6-7.1-8.7-10.3
			c-2-2.1-4-4.2-6.1-6.1c-2.8-2.9-5.9-5.7-8.7-8.4c-2.9-2.9-5.9-5.7-8.9-8.4c6.2-1.1,13-10.5,14.5-17c2.9,2.8,5.8,5.6,8.6,8.5
			c4.2,4.4,8.4,8.8,12.4,13.3c-0.5,0.2-1.1,0.4-1.5,0.6c-2.1,0.9-4.2,2.3-5.3,4.4c-0.1,0.3-0.2,0.7,0,0.9c0.1,0.2,0.2,0.3,0.4,0.4
			c1.3,0.5,2.9-1.6,3.9-2.3c1-0.6,2.1-1.1,3.2-1.4c0.5-0.1,0.9-0.2,1.3-0.4c0.7,0.7,1.3,1.5,2,2.2c-1.2,0.2-2.5,0.7-3.3,1.1
			c-2,0.9-5.1,2.9-5,5.3c0,0.5,0.5,0.9,0.9,0.7c1.8-0.6,3.1-2.5,4.8-3.4c1-0.6,2.2-0.9,3.4-1.1c0.5-0.1,0.9-0.1,1.3-0.2
			c0.5,0.6,1,1.2,1.6,1.7c-4,0.2-9.3,3.6-8.6,6.8c0.1,0.3,0.4,0.5,0.7,0.4c0.9-0.2,1.4-0.7,2-1.4c1-1,2.2-1.8,3.6-2.4
			c1.5-0.6,3.3-0.2,4.8-0.7c0.7,0.8,1.3,1.5,2,2.3c-4.2-0.3-9.5,2-10.9,5.2c-0.3,0.7,0.3,1.3,1,1c2.3-1,4.1-2.4,6.6-3.1
			c2-0.5,3.9,0,5.9-0.1c6.5,7.7,12.5,15.7,16.5,24.8C132.1,521.3,135.4,536.9,122,533z M180.2,499.8c0.7,1.4,0.8,2.8,0.6,4.2
			c-0.9-1-1.9-2.1-2.8-3.1c-0.7-0.9-1.5-1.7-2.4-2.5c-3.8-4-8.4-6.6-14.6-5.5c-7.2,1.3-8.4,10-6.9,15.8c2.8,10.2,13.5,17.1,7,28.5
			c-2.9,5.1-8.7,7.3-14.3,7.4c-6.7,0-11.9-4.7-15.6-9.7c0.4-0.4,0.8-0.8,1.2-1.2c3.6,5.8,9.9,9.2,16.9,8.5
			c7.2-0.7,12.2-7.6,11.3-14.5c-0.4-3.7-2.9-7-5-9.9c-3.6-5.1-6.3-10.7-5.5-17.2c1.1-7.8,8.1-11.1,15.3-10.1
			C171.4,491.4,176.2,495.5,180.2,499.8z"/>
	</g>
</g>
<g>
	<g>
		<path class="st0" d="M423.5,413.6c19.7,3.5,37,15,47.4,32.1c3.2,5.3,5.6,11,7.2,16.9c-2-0.5-3.8-0.8-5.7-1.8c-3.1-1.7-5-5-6.7-7.9
			c-2.4-4.2-4.6-8.5-7.6-12.3c-5.8-7.3-13.1-13.1-21.6-17.2c-9-4.3-19.1-5.9-29-5.3c-5.4,0.3-10.6,1.7-15.7,3.3
			c-6.4,2.1-11.8,2.9-16.9-1.2C389,412.1,408.3,411,423.5,413.6z"/>
		<path class="st0" d="M361.1,432.9c0.1,0,0.1,0,0.2,0c14.2-0.6,18.8,13.9,20.7,25.4c0.6,3.6,1.2,7,1.9,10.4
			c-5.1,0.1-10.1,0.3-15.2,0.4c-4.9,0.2-10.2-0.2-15.1,0.7C352.5,456.8,353.4,444,361.1,432.9z"/>
		<path class="st0" d="M362.4,514.4c0.1-1.2,0.1-2.5,0-3.7c0-2.1-0.4-3,2.2-2.8c3.5,0.2,7.1,0.4,10.6,0.5c0.1,2,0.3,4.1,0.4,6.1
			C371.3,514.4,366.8,514.4,362.4,514.4z"/>
		<path class="st0" d="M365.3,498.7c0-1.3,0.1-2.7-0.2-4c2.5,0.1,4.9,0.8,7.3,2.1c-0.2,0.7-0.1,1.5-0.1,2.3c0,1.9,0,3.9,0.1,5.8
			c-2.4-0.4-4.9-0.4-7.3-0.5C365.5,502.6,365.3,500.6,365.3,498.7z"/>
		<path class="st0" d="M391.1,529c-3.6,0-7.2,0.1-10.8,0.1c-1.9,0-3.9,0-5.9,0c-0.1-3.6,0-7.7-0.9-11.3c1.3,0,2.6,0,3.9,0
			c0.8,0,1.7-0.7,1.6-1.6c-0.3-3.1-0.6-6.1-0.8-9.2c-0.1-0.9-0.6-1.5-1.5-1.5l-2-0.1c0,0,0-0.1,0-0.1c0-1.8-0.1-3.5-0.1-5.3
			c0-0.5,0-1.1,0-1.7c4.9,3.8,5.5,9.9,6.2,15.8c0.6,5.4,5.3,7.4,10.4,7.9c0,0.4,0,0.7,0,1C391.1,525,391,527,391.1,529z"/>
		<path class="st0" d="M366.9,524.6c0.6-0.3,1-0.7,1.3-0.9c0.6-0.8,0.9-1.8,0.9-2.8c0-1-0.3-2-0.9-2.8c-0.1-0.1-0.2-0.2-0.3-0.3
			c1.2,0,2.4,0,3.6,0c-0.4,3.6,0.2,7.7,0.6,11.3c-1,0-2.1,0-3.1,0c0-0.3,0.1-0.6,0.1-0.8c0-1-0.3-2-0.9-2.8
			C368,525.2,367.5,524.9,366.9,524.6z"/>
		<path class="st0" d="M369,564.5c-0.1-0.7-0.4-1.3-0.8-1.8c-0.2-0.3-0.7-0.7-1.3-0.9c0.6-0.3,1-0.7,1.3-0.9
			c0.6-0.8,0.9-1.8,0.9-2.8c0-1-0.3-2-0.9-2.8c-0.2-0.3-0.7-0.7-1.3-0.9c0.6-0.3,1-0.7,1.3-0.9c0.6-0.8,0.9-1.8,0.9-2.8
			c0-1-0.3-2-0.9-2.8c-0.2-0.3-0.7-0.7-1.3-0.9c0.6-0.3,1-0.7,1.3-0.9c0.6-0.8,0.9-1.8,0.9-2.8c0-1-0.3-2-0.9-2.8
			c-0.2-0.2-0.4-0.4-0.8-0.6c1.8,0.1,3.6,0,5.4,0c-0.8,5.4-0.2,12.2,0.6,17.4C373.9,560.1,370.7,561.9,369,564.5z"/>
		<path class="st0" d="M443.6,530.6c0.2,0.6-0.1,1.7-0.1,2c-0.1,1.2-0.2,2.4-0.1,3.7c-6.3-1-13-0.3-19.2-0.2
			c-7.3,0.1-14.6,0.3-21.9,0.4c-7.3,0.1-14.6,0.2-21.9,0.3c-5.4,0.1-11.1-0.3-16.5,0.5c-0.6,0-1.2,0.1-1.8,0.1c0-0.5,0-1,0-1.5
			c0-1.4,0-2.9,0-4.3c6,1,12.3,0.3,18.3,0.3c7.3-0.1,14.6-0.2,21.9-0.3c7.3-0.1,14.6-0.1,21.9-0.2
			C430.5,531.3,437.3,531.8,443.6,530.6z"/>
		<path class="st0" d="M426.2,528.4c-0.7,0-1.4,0-2.1,0c-7.3,0.1-14.6,0.3-21.9,0.4c-2.9,0-5.8,0.1-8.8,0.1c0.1-2.3,0.1-4.6,0-6.8
			c3,0.1,6-0.2,8.3-0.5c8.8-1,17.2-4.2,25.5-7.5c-0.7,2.5-0.6,5.3-0.8,7.8C426.2,523.9,425.6,526.4,426.2,528.4z"/>
		<path class="st0" d="M403.1,518c-3.5,0.7-7.1,0.7-10.7,0.6c-5.1-0.2-8.4-1.9-8.7-7.8c-0.2-4.4-1.5-8.8-4.4-12.3
			c-5.6-6.6-15.2-9.4-23-5.2c-0.9-7.1-2-14.4-2.7-21.7c4.3,0.5,8.8-0.1,13.1-0.2c5.9-0.1,11.8-0.3,17.7-0.5
			c1.5,5.4,3.6,10.5,7.6,15.1c5.5,6.4,14.2,10.8,22.6,11.6c2.5,0.2,4.9,0.2,7.5,0c4.7-0.4,6.7,2.7,8.6,6.2c0.8,1.5,1.8,2.7,3,3.6
			C423.2,511.4,412.9,516.2,403.1,518z"/>
		<path class="st0" d="M483.4,477.2c-0.1-3.2-0.5-6.4-1.1-9.6c0.9-0.2,1.8-0.5,2.7-0.8c1,2.8,1.8,5.7,2.3,8.7
			C486,475.9,484.6,476.4,483.4,477.2z"/>
		<path class="st0" d="M496.1,469c-0.8,0.2-1.7,0.5-2.5,0.7c-1.4,0.4-2.9,0.8-4.3,1.2c-0.2-0.8-0.4-1.5-0.6-2.3
			c2.5-0.3,4.9-1,7.3-1.5C497.9,466.7,497.3,468.6,496.1,469z"/>
		<path class="st0" d="M460.8,482.9c3.5-1,7.3-1,10.9-1.3c2.9-0.2,5.8-0.5,8.7-0.2c0-1.6,0-3.1-0.1-4.3c-3-0.1-6.7,0.1-9.6-1
			c-0.5-0.2-0.4-0.7,0-0.9c2.8-1.1,6.4-1.1,9.4-1.2c0,0,0,0,0,0c-0.3-3-0.8-6-1.5-9c-9,3.2-15.3-10.5-18.8-16.3
			c-5.8-9.8-14.5-18.1-24.9-22.8c-12.9-5.8-27.3-6.6-40.8-2.3c-6.2,2-17.5,5-21.5-2.1c-2.9,1.9-5.5,4.1-7.8,6.6
			c-0.5,0.6-1,1.2-1.5,1.8c8.1,0,14.9,6.3,18,13.6c3.4,7.9,3.4,16.9,5.5,25.3c0.5,0.3,0.6,1,0.4,1.5c0.6,2.3,1.5,4.6,2.6,6.8
			c5,9.7,15.2,17.2,26.4,17.5c4.4,0.2,8.9-1.2,12.9,1.2c4.1,2.5,4,8.6,8.9,10.1c11.2-3.9,22.6-6.1,33.5-2c3-0.1,5.1-2.3,6.5-5.6
			c-5.2,0.5-10.5,0.4-15.7,0.4c-4.6,0-9.2,0.2-13.7-0.7c-0.4-0.1-0.4-0.7,0-0.8c5.1-1.2,10.4-1.2,15.6-1.3c4.9-0.1,9.8-0.5,14.7-0.1
			c0.4-1.6,0.8-3.2,1-5c-4.2,0.6-8.5,0.5-12.7,0.6c-4.5,0.1-9.2,0.5-13.6-0.5c-0.3-0.1-0.3-0.5,0-0.6c4.3-1.3,9.1-1.3,13.6-1.5
			c4.3-0.2,8.7-0.6,13-0.3c0.1-1.4,0.2-2.8,0.3-4.1c-3.4,0.4-6.8,0.1-10.2,0c-3.1-0.1-6.3-0.1-9.4-0.9
			C460.6,483.4,460.6,483,460.8,482.9z M445.3,464.8c-4.9-1.4-9.5-3.6-14.3-5.2c-5.6-1.8-11-2-16.9-1.9c-7.9,0.2-19,0.1-23.6-7.7
			c-2.2-3.7-2.5-7.9-0.7-11.2c1-3.8,3.5-7.3,6.9-9.4c7.5-4.7,16.8-4.9,25.2-3.1c8.5,1.9,16.6,5.5,23.4,11.1
			c5.2,4.3,13.9,12.1,14.1,19.5C459.8,465.5,452.2,466.8,445.3,464.8z"/>
		<path class="st0" d="M413,428.8c-1.3,3.7-1.9,9.3-5.1,10.4c-2.2,0.7-5.2,0.4-7.5,0.6c-2.7,0.2-5.3,0.4-8,0.7
			C394.5,431.9,403.9,428.9,413,428.8z"/>
	</g>
	<g>
		<path class="st1" d="M445.4,437.4c-6.7-5.6-14.9-9.2-23.4-11.1c-8.4-1.8-17.7-1.6-25.2,3.1c-3.4,2.1-5.9,5.6-6.9,9.4
			c-1.9,3.3-1.6,7.5,0.7,11.2c4.7,7.9,15.7,7.9,23.6,7.7c5.9-0.2,11.3,0.1,16.9,1.9c4.8,1.5,9.4,3.8,14.3,5.2
			c6.9,2,14.5,0.7,14.2-7.9C459.2,449.5,450.6,441.7,445.4,437.4z M413,428.8c-1.3,3.7-1.9,9.3-5.1,10.4c-2.2,0.7-5.2,0.4-7.5,0.6
			c-2.7,0.2-5.3,0.4-8,0.7C394.5,431.9,403.9,428.9,413,428.8z M451.8,462.6c-3.4,0.3-7.3-1.3-10.4-2.5c-6.1-2.2-11.7-4.8-18.2-5.7
			c-7-0.9-14.1,0.6-21.1-0.8c-4.1-0.8-8.3-4-10-7.9c-0.1-0.8-0.1-1.6,0-2.3c5.8,0,12.9,0.3,18.1-2c1.6-0.7,2.4-3,2.8-4.5
			c0.8-2.6,1.6-5.4,1.9-8.1c2.7,0.1,5.3,0.4,7.7,1c12.2,2.7,23.1,10.4,30.3,20.5C455,453.2,460,461.8,451.8,462.6z"/>
		<path class="st1" d="M500.5,466.7c-0.4-1.9-2.5-2.5-4.2-2.3c-2.7,0.2-5.7,0.8-8.4,1.7c-0.2-0.5-0.3-1.1-0.5-1.6
			c-0.3-0.7-1.1-1.4-1.9-1.1c-1.3,0.5-2.6,0.9-3.8,1.5c-0.6-2.8-1.5-5.6-2.4-8.4c-7.5-21.3-24.9-36.8-46.1-43.6
			c-20.7-6.7-48.1-4.9-65.8,8.8c-21.8,17-19.8,48.6-13.6,72.7c0.1,0.3,0.3,0.5,0.5,0.7c-0.1,0.7,0.4,1.6,1.3,1.2
			c2.5-0.9,4.9-1.4,7.2-1.6c-0.2,1.3-0.1,2.7-0.1,4c0,1.9-0.1,3.9,0.3,5.7c-0.8,0-1.6,0-2.4-0.1c-0.6,0-1.1,0.5-1.1,1.1
			c0,0.2,0,0.5,0,0.7c0,0,0,0,0,0c-0.5,3.3-0.6,6.5-0.5,9.8c0,0.9,0.7,1.7,1.7,1.7c1.5,0,3.1,0,4.6,0c0.2,0.1,0.3,0.2,0.5,0.3
			c0.4,0.3,0.7,1,1,1.4c0.2,0.4,0.4,0.9,0.5,1.3c-0.1,0.4-0.3,0.9-0.5,1.3c-0.2,0.4-0.6,1.1-1,1.4c-0.5,0.4-1.1,0.4-1.5,0.9
			c0,0,0,0.1,0,0.1c0,0,0,0.1,0,0.1c0.4,0.4,1,0.5,1.5,0.9c0.4,0.3,0.7,1,1,1.4c0.2,0.4,0.4,0.9,0.5,1.3c-0.1,0.3-0.2,0.6-0.4,1
			c-2.3,0.2-4.6,0.4-6.8,1c-0.2,0.1-0.3,0.2-0.4,0.4c-0.2,0.2-0.3,0.5-0.3,0.8c0,1.3,0.1,2.6,0.1,3.9c0,0.8,0,1.6,0.2,2.4
			c0,0.2,0,0.5-0.1,0.7c0,0.6,0.5,1.1,1.1,1.1c1.2,0,2.4,0,3.6,0c0.4,0.4,1,0.4,1.4,0.8c0.4,0.3,0.7,1,1,1.4
			c0.2,0.4,0.4,0.9,0.5,1.3c-0.1,0.4-0.3,0.9-0.5,1.3c-0.2,0.4-0.6,1.1-1,1.4c-0.5,0.4-1.1,0.4-1.5,0.9c0,0,0,0.1,0,0.1
			c0,0,0,0.1,0,0.1c0.4,0.4,1,0.5,1.5,0.9c0.4,0.3,0.7,1,1,1.4c0.2,0.4,0.4,0.9,0.5,1.3c-0.1,0.4-0.3,0.9-0.5,1.3
			c-0.2,0.4-0.6,1.1-1,1.4c-0.5,0.4-1.1,0.4-1.5,0.9c0,0,0,0.1,0,0.1c0,0,0,0.1,0,0.1c0.4,0.4,1,0.5,1.5,0.9c0.4,0.3,0.7,1,1,1.4
			c0.2,0.4,0.4,0.9,0.5,1.3c-0.1,0.4-0.3,0.9-0.5,1.3c-0.2,0.4-0.6,1.1-1,1.4c-0.5,0.4-1.1,0.4-1.5,0.9c0,0,0,0.1,0,0.1
			c0,0,0,0.1,0,0.1c0.4,0.4,1,0.5,1.5,0.9c0.4,0.3,0.7,1,1,1.4c0.6,1,0.7,2.2,1.2,3.2c0,0,0,0,0,0c0,0.6,0.7,0.6,1,0.3
			c1.9-2.5,3.6-4.6,6.3-6.2c0.3-0.2,0.6-0.6,0.5-1c-0.7-6.7,0.4-14.2-1.2-20.8c1.9-0.1,3.8-0.1,5.6-0.2c7.3-0.1,14.6-0.2,21.9-0.3
			c7.3-0.1,14.6-0.1,21.9-0.2c6.6-0.1,13.7,0.5,20.2-0.9c0.3-0.1,0.5-0.3,0.6-0.5c0.1-0.1,0.2-0.2,0.2-0.3c0.6-1.8,0.6-3.7,0.7-5.6
			c0.1-1.4,0-2.5-1.2-3.3c-0.9-0.6-2.6-0.3-3.9-0.2c-4-0.3-8.2-0.2-12.3,0c0.6-1.5,0.5-3.4,0.6-5.1c0.3-3.1,1.1-6.9,0.3-10
			c1.7-0.7,3.3-1.3,5-1.9c12.5-4.7,24.3-6.9,37.5-4.2c0.5,0.1,1-0.1,1.3-0.5c6.6-0.5,8.8-12.3,9.6-17.6c0.5-3.2,0.7-6.4,0.7-9.6
			c2.1,0,3.9-1,5.8-1.7c0.8-0.3,1.1-0.9,1-1.7c-0.1-0.9-0.3-1.8-0.5-2.7c2.8-0.6,5.6-1.4,8.3-2.4C500,470.3,500.9,468.7,500.5,466.7
			z M423.5,413.6c19.7,3.5,37,15,47.4,32.1c3.2,5.3,5.6,11,7.2,16.9c-2-0.5-3.8-0.8-5.7-1.8c-3.1-1.7-5-5-6.7-7.9
			c-2.4-4.2-4.6-8.5-7.6-12.3c-5.8-7.3-13.1-13.1-21.6-17.2c-9-4.3-19.1-5.9-29-5.3c-5.4,0.3-10.6,1.7-15.7,3.3
			c-6.4,2.1-11.8,2.9-16.9-1.2C389,412.1,408.3,411,423.5,413.6z M361.1,432.9c0.1,0,0.1,0,0.2,0c14.2-0.6,18.8,13.9,20.7,25.4
			c0.6,3.6,1.2,7,1.9,10.4c-5.1,0.1-10.1,0.3-15.2,0.4c-4.9,0.2-10.2-0.2-15.1,0.7C352.5,456.8,353.4,444,361.1,432.9z M362.4,514.4
			c0.1-1.2,0.1-2.5,0-3.7c0-2.1-0.4-3,2.2-2.8c3.5,0.2,7.1,0.4,10.6,0.5c0.1,2,0.3,4.1,0.4,6.1C371.3,514.4,366.8,514.4,362.4,514.4
			z M365.3,498.7c0-1.3,0.1-2.7-0.2-4c2.5,0.1,4.9,0.8,7.3,2.1c-0.2,0.7-0.1,1.5-0.1,2.3c0,1.9,0,3.9,0.1,5.8
			c-2.4-0.4-4.9-0.4-7.3-0.5C365.5,502.6,365.3,500.6,365.3,498.7z M391.1,529c-3.6,0-7.2,0.1-10.8,0.1c-1.9,0-3.9,0-5.9,0
			c-0.1-3.6,0-7.7-0.9-11.3c1.3,0,2.6,0,3.9,0c0.8,0,1.7-0.7,1.6-1.6c-0.3-3.1-0.6-6.1-0.8-9.2c-0.1-0.9-0.6-1.5-1.5-1.5l-2-0.1
			c0,0,0-0.1,0-0.1c0-1.8-0.1-3.5-0.1-5.3c0-0.5,0-1.1,0-1.7c4.9,3.8,5.5,9.9,6.2,15.8c0.6,5.4,5.3,7.4,10.4,7.9c0,0.4,0,0.7,0,1
			C391.1,525,391,527,391.1,529z M366.9,524.6c0.6-0.3,1-0.7,1.3-0.9c0.6-0.8,0.9-1.8,0.9-2.8c0-1-0.3-2-0.9-2.8
			c-0.1-0.1-0.2-0.2-0.3-0.3c1.2,0,2.4,0,3.6,0c-0.4,3.6,0.2,7.7,0.6,11.3c-1,0-2.1,0-3.1,0c0-0.3,0.1-0.6,0.1-0.8
			c0-1-0.3-2-0.9-2.8C368,525.2,367.5,524.9,366.9,524.6z M369,564.5c-0.1-0.7-0.4-1.3-0.8-1.8c-0.2-0.3-0.7-0.7-1.3-0.9
			c0.6-0.3,1-0.7,1.3-0.9c0.6-0.8,0.9-1.8,0.9-2.8c0-1-0.3-2-0.9-2.8c-0.2-0.3-0.7-0.7-1.3-0.9c0.6-0.3,1-0.7,1.3-0.9
			c0.6-0.8,0.9-1.8,0.9-2.8c0-1-0.3-2-0.9-2.8c-0.2-0.3-0.7-0.7-1.3-0.9c0.6-0.3,1-0.7,1.3-0.9c0.6-0.8,0.9-1.8,0.9-2.8
			c0-1-0.3-2-0.9-2.8c-0.2-0.2-0.4-0.4-0.8-0.6c1.8,0.1,3.6,0,5.4,0c-0.8,5.4-0.2,12.2,0.6,17.4C373.9,560.1,370.7,561.9,369,564.5z
			 M443.6,530.6c0.2,0.6-0.1,1.7-0.1,2c-0.1,1.2-0.2,2.4-0.1,3.7c-6.3-1-13-0.3-19.2-0.2c-7.3,0.1-14.6,0.3-21.9,0.4
			c-7.3,0.1-14.6,0.2-21.9,0.3c-5.4,0.1-11.1-0.3-16.5,0.5c-0.6,0-1.2,0.1-1.8,0.1c0-0.5,0-1,0-1.5c0-1.4,0-2.9,0-4.3
			c6,1,12.3,0.3,18.3,0.3c7.3-0.1,14.6-0.2,21.9-0.3c7.3-0.1,14.6-0.1,21.9-0.2C430.5,531.3,437.3,531.8,443.6,530.6z M426.2,528.4
			c-0.7,0-1.4,0-2.1,0c-7.3,0.1-14.6,0.3-21.9,0.4c-2.9,0-5.8,0.1-8.8,0.1c0.1-2.3,0.1-4.6,0-6.8c3,0.1,6-0.2,8.3-0.5
			c8.8-1,17.2-4.2,25.5-7.5c-0.7,2.5-0.6,5.3-0.8,7.8C426.2,523.9,425.6,526.4,426.2,528.4z M403.1,518c-3.5,0.7-7.1,0.7-10.7,0.6
			c-5.1-0.2-8.4-1.9-8.7-7.8c-0.2-4.4-1.5-8.8-4.4-12.3c-5.6-6.6-15.2-9.4-23-5.2c-0.9-7.1-2-14.4-2.7-21.7
			c4.3,0.5,8.8-0.1,13.1-0.2c5.9-0.1,11.8-0.3,17.7-0.5c1.5,5.4,3.6,10.5,7.6,15.1c5.5,6.4,14.2,10.8,22.6,11.6
			c2.5,0.2,4.9,0.2,7.5,0c4.7-0.4,6.7,2.7,8.6,6.2c0.8,1.5,1.8,2.7,3,3.6C423.2,511.4,412.9,516.2,403.1,518z M480.4,481.5
			c-2.9-0.3-5.8-0.1-8.7,0.2c-3.6,0.3-7.4,0.2-10.9,1.3c-0.2,0.1-0.3,0.4,0,0.5c3.1,0.8,6.2,0.8,9.4,0.9c3.4,0.1,6.8,0.4,10.2,0
			c-0.1,1.4-0.2,2.8-0.3,4.1c-4.3-0.3-8.7,0.1-13,0.3c-4.5,0.2-9.3,0.2-13.6,1.5c-0.3,0.1-0.3,0.5,0,0.6c4.4,1,9.1,0.6,13.6,0.5
			c4.2-0.1,8.5,0,12.7-0.6c-0.3,1.7-0.6,3.4-1,5c-4.9-0.4-9.8,0-14.7,0.1c-5.2,0.1-10.6,0.1-15.6,1.3c-0.4,0.1-0.4,0.8,0,0.8
			c4.5,0.9,9.1,0.7,13.7,0.7c5.2,0,10.5,0.2,15.7-0.4c-1.4,3.3-3.4,5.5-6.5,5.6c-10.9-4.2-22.2-1.9-33.5,2
			c-4.9-1.5-4.7-7.6-8.9-10.1c-4-2.5-8.5-1.1-12.9-1.2c-11.2-0.4-21.4-7.9-26.4-17.5c-1.1-2.2-1.9-4.4-2.6-6.8
			c0.2-0.5,0.1-1.2-0.4-1.5c-2-8.3-2.1-17.3-5.5-25.3c-3.1-7.3-9.9-13.6-18-13.6c0.5-0.6,1-1.2,1.5-1.8c2.3-2.5,5-4.7,7.8-6.6
			c4,7.1,15.4,4.1,21.5,2.1c13.4-4.3,27.9-3.5,40.8,2.3c10.5,4.7,19.2,13,24.9,22.8c3.5,5.9,9.8,19.6,18.8,16.3c0.7,3,1.2,5.9,1.5,9
			c0,0,0,0,0,0c-3,0.1-6.6,0.1-9.4,1.2c-0.4,0.2-0.5,0.7,0,0.9c2.9,1.1,6.6,0.9,9.6,1C480.4,478.4,480.5,479.9,480.4,481.5z
			 M483.4,477.2c-0.1-3.2-0.5-6.4-1.1-9.6c0.9-0.2,1.8-0.5,2.7-0.8c1,2.8,1.8,5.7,2.3,8.7C486,475.9,484.6,476.4,483.4,477.2z
			 M496.1,469c-0.8,0.2-1.7,0.5-2.5,0.7c-1.4,0.4-2.9,0.8-4.3,1.2c-0.2-0.8-0.4-1.5-0.6-2.3c2.5-0.3,4.9-1,7.3-1.5
			C497.9,466.7,497.3,468.6,496.1,469z"/>
	</g>
</g>
<g>
	<g>
		<path class="st0" d="M631.8,539.9c1.5,1.8,3.1,3.6,4.7,5.3c-0.4,0.4-0.9,0.8-1.3,1.3c-1.4-1.4-2.9-2.8-4.3-4.3
			c-1.2-1.3-2.4-2.7-3.8-3.8c0.3-0.3,0.6-0.5,0.8-0.8c0.4-0.4,0.9-0.7,1.3-1.1C629.9,537.8,630.8,538.8,631.8,539.9z"/>
		<path class="st0" d="M625.7,530.7c0.6,0.7,1.2,1.5,1.7,2.2c1,1.2,0.2,1.5-0.8,2.4c-0.4,0.4-2.2,2.4-2.9,1.8c0,0,0,0-0.1-0.1
			c0.3-0.3,0.7-0.7,0.9-1c0.5-0.6,1.1-1.3,1.3-2.1c0.1-0.5-0.3-0.9-0.8-0.8c-0.7,0.1-1.3,0.6-1.9,1c-0.5,0.4-0.9,0.8-1.3,1.3
			c-0.2-0.1-0.3-0.3-0.5-0.4c-0.1-0.1-0.2-0.2-0.3-0.3c0.5-0.4,1-1,1.4-1.5c0.6-0.7,1.2-1.4,1.6-2.3c0.3-0.8-0.7-1.2-1.3-1
			c-0.8,0.3-1.4,1-2,1.5c-0.5,0.5-1.1,1-1.5,1.6c-0.3-0.3-0.7-0.5-1-0.8c1.5-1.4,2.9-3.2,4.2-4.4c0,0,0.4-0.3,0.8-0.8
			C623.8,528.3,624.8,529.5,625.7,530.7z"/>
		<path class="st0" d="M610.5,509c3.9,5,7.6,10.3,12,14.8c-1.1,0.7-2.1,2-3,2.9c-1.6,1.6-4,3.3-5.2,5.3c-4.5-4.4-9.8-8.1-14.7-12
			c-4-3.1-8-6.7-12.4-9.4c2.6-2.6,5.2-5.2,7.8-7.9c2-2.1,4.4-4,6-6.4C603.7,500.8,607.3,504.9,610.5,509z"/>
		<path class="st0" d="M502.4,413.7c-0.7-1.4-1.4-2.9-2.3-4.3c1.4,0.9,2.9,1.6,4.3,2.3c1.2,0.6,2.4,1.4,3.6,1.9
			c-0.8,0.5-1.5,1.5-1.7,2.2c-0.2,0.7,0.5,1.6,1.3,1.3c0.8-0.3,1.3-0.9,1.9-1.6c0.2-0.2,0.3-0.5,0.4-0.8c1.6,2.3,4.1,4.4,6,6.3
			c1.8,1.8,3.6,4,5.7,5.4c-0.5,0.6-1.1,1.1-1.6,1.7c-0.9,0.9-1.8,1.7-2.7,2.6c-1.4-2.1-3.6-3.9-5.4-5.6c-2.1-2.1-4.4-4.8-7-6.4
			C504.4,417,503.2,415.3,502.4,413.7z"/>
		<path class="st0" d="M533.3,452.6c-5.5-5.6-10.9-11.7-16.9-16.7c1.8-1.2,3.2-2.9,4.8-4.4c1.8-1.7,4.1-3.2,5.4-5.5
			c5,6,11,11.2,16.6,16.7c4.6,4.6,9.1,9.6,14.3,13.5c0,0-0.1,0.1-0.1,0.1c-1.7,1.7-3.7,3.4-5.2,5.3c-1.9,1.5-3.6,3.5-5.3,5.2
			c0,0-0.1,0.1-0.1,0.1C542.9,461.6,537.9,457.1,533.3,452.6z"/>
		<path class="st0" d="M541.4,475.7c2.4-2.5,4.7-4.9,7-7.4c1.7-1.8,3.6-3.5,5.1-5.4c1.9-1.5,3.6-3.5,5.4-5.1c2.5-2.3,5-4.7,7.4-7
			c0.7,1,1.7,1.8,2.7,2.8c1.2,1.1,3.4,2.6,4.4,4.4c-2.8,1.8-4.9,4.8-7.3,7.1c-3.2,3.1-6.2,6.5-9.1,9.9c-0.1,0.1,0,0.3,0.2,0.2
			c4.2-2.1,7.9-4.7,11.4-7.7c1.8-1.6,3.8-3.4,5.4-5.4c0,1-0.1,2,0.1,2.9c0,0.8,0.2,1.7,0.5,2.4c-2.6,1.6-4.6,4.2-6.6,6.5
			c-2.6,2.9-5.6,5.3-8.3,8.1c-0.4,0.5,0.1,1.2,0.7,0.9c3.5-1.8,6.6-4.4,9.6-6.9c2.2-1.8,4.5-3.9,5.8-6.5c0.7,0.9,1.6,1.7,2.5,2.6
			c2.2,2.8,4.9,5.2,7.2,7.7c4.6,4.9,9.1,9.9,13.7,14.8c-2.4,1.7-4.3,4.1-6.3,6.2c-2.6,2.7-5.2,5.3-7.7,8c-4.9-4.6-9.9-9.2-14.9-13.8
			c-2.5-2.3-5-5-7.7-7.2c-1-1.1-2-2.2-3.2-3c-1.1-0.7-2.5-1.2-3.9-1.3c-1.7-0.4-3.5,0-5.3-0.1c-2.5,0-4.7-3.4-6.2-5
			C543.2,477.4,542.4,476.4,541.4,475.7z"/>
	</g>
	<g>
		<g>
			<path class="st1" d="M546.5,485.5c2.5,2,7.4,1.3,10.4,1.2c0.2,0,0.3-0.1,0.5-0.1c2.5,4.3,7,7.5,10.6,10.8
				c5.1,4.8,10.2,9.5,15.4,14.2c0.4,0.3,0.7,0.5,1.1,0.5c4.2,4.5,9.6,8,14.4,11.8c4.8,3.7,9.5,7.8,14.8,10.8
				c0.6,0.4,1.3,0.1,1.6-0.4c0.4-0.2,0.8-0.4,1.1-0.6c1.6,2.2,4,4.1,6,5.7c1.1,0.9,2.2,0.8,3.2,0.2c1,1.6,2.5,2.8,3.8,4.2
				c1.7,1.7,3.4,3.5,5,5.3c0.5,0.5,1.2,0.4,1.7,0c1-0.9,2.1-1.9,3.1-2.8c0.5-0.5,0.4-1.3,0-1.8c-1.6-1.8-3.2-3.7-4.8-5.5
				c-1.2-1.4-2.3-2.8-3.8-3.8c0.4-0.8,0.5-1.7,0-2.8c-0.7-1.4-2.1-2.7-3.1-3.9c-0.9-1-1.8-2.2-2.8-3c0.2-0.3,0.4-0.5,0.5-0.8
				c0.4-0.3,0.7-0.9,0.3-1.5c-3-5.3-7.1-10-10.8-14.8c-3.8-4.8-7.3-10.2-11.8-14.4c0-0.4-0.1-0.8-0.5-1.1
				c-4.7-5.1-9.5-10.3-14.2-15.4c-3.3-3.5-6.5-8.1-10.8-10.6c0.1-0.1,0.1-0.3,0.1-0.5c0.1-3,0.7-7.8-1.2-10.4
				c-1.7-2.1-3.9-4-5.9-5.7c-0.9-0.8-1.6-1.4-2.5-1.9c-0.1-0.1-0.3-0.2-0.4-0.4c-0.5-0.4-1.2-0.5-1.7-0.1c-0.1,0-0.1,0.1-0.2,0.1
				c0,0,0,0,0,0c-2.2,2.2-4.3,4.4-6.4,6.6c-4.3-5.8-10.1-10.7-15.2-15.7c-5.4-5.3-10.6-11.1-16.6-15.8c-0.5-0.4-1.1-0.3-1.4-0.1
				c-0.1,0-0.2,0.1-0.3,0.1c-0.7,0.3-1.3,0.8-1.9,1.2c-0.3,0.3-0.7,0.6-1.1,0.9c-1.5-2.5-4.3-4.9-6.3-7c-2-2.1-4-4.8-6.6-6.1
				c-1.5-1.3-3.8-2.1-5.5-2.9c-2-0.9-4.1-2.2-6.1-2.3c-0.1,0-0.1,0-0.1,0c0,0,0,0,0,0c0,0-0.1,0-0.1,0.1c0,0,0,0-0.1,0.1
				c0,0,0,0,0,0c0,0,0,0.1,0,0.1c0.1,2,1.3,4.1,2.3,6.1c0.8,1.7,1.6,4,2.9,5.5c1.4,2.5,4,4.5,6.1,6.6c2.1,2,4.4,4.8,7,6.3
				c-0.9,1-1.8,2.1-2.4,3.3c0,0.1-0.1,0.1-0.1,0.2c0,0,0,0.1,0,0.1c0,0.1,0,0.2,0,0.3c0,0.2,0.1,0.5,0.3,0.7
				c4.7,6,10.5,11.2,15.8,16.6c5,5.1,9.9,10.9,15.7,15.2c-2.2,2.1-4.4,4.3-6.6,6.4c0,0,0,0,0,0c-0.1,0-0.1,0.1-0.1,0.2
				c-0.4,0.5-0.3,1.2,0.1,1.7c0.1,0.1,0.3,0.3,0.4,0.4c0.4,0.9,1.1,1.6,1.9,2.5C542.6,481.6,544.4,483.8,546.5,485.5z M631.8,539.9
				c1.5,1.8,3.1,3.6,4.7,5.3c-0.4,0.4-0.9,0.8-1.3,1.3c-1.4-1.4-2.9-2.8-4.3-4.3c-1.2-1.3-2.4-2.7-3.8-3.8c0.3-0.3,0.6-0.5,0.8-0.8
				c0.4-0.4,0.9-0.7,1.3-1.1C629.9,537.8,630.8,538.8,631.8,539.9z M625.7,530.7c0.6,0.7,1.2,1.5,1.7,2.2c1,1.2,0.2,1.5-0.8,2.4
				c-0.4,0.4-2.2,2.4-2.9,1.8c0,0,0,0-0.1-0.1c0.3-0.3,0.7-0.7,0.9-1c0.5-0.6,1.1-1.3,1.3-2.1c0.1-0.5-0.3-0.9-0.8-0.8
				c-0.7,0.1-1.3,0.6-1.9,1c-0.5,0.4-0.9,0.8-1.3,1.3c-0.2-0.1-0.3-0.3-0.5-0.4c-0.1-0.1-0.2-0.2-0.3-0.3c0.5-0.4,1-1,1.4-1.5
				c0.6-0.7,1.2-1.4,1.6-2.3c0.3-0.8-0.7-1.2-1.3-1c-0.8,0.3-1.4,1-2,1.5c-0.5,0.5-1.1,1-1.5,1.6c-0.3-0.3-0.7-0.5-1-0.8
				c1.5-1.4,2.9-3.2,4.2-4.4c0,0,0.4-0.3,0.8-0.8C623.8,528.3,624.8,529.5,625.7,530.7z M610.5,509c3.9,5,7.6,10.3,12,14.8
				c-1.1,0.7-2.1,2-3,2.9c-1.6,1.6-4,3.3-5.2,5.3c-4.5-4.4-9.8-8.1-14.7-12c-4-3.1-8-6.7-12.4-9.4c2.6-2.6,5.2-5.2,7.8-7.9
				c2-2.1,4.4-4,6-6.4C603.7,500.8,607.3,504.9,610.5,509z M502.4,413.7c-0.7-1.4-1.4-2.9-2.3-4.3c1.4,0.9,2.9,1.6,4.3,2.3
				c1.2,0.6,2.4,1.4,3.6,1.9c-0.8,0.5-1.5,1.5-1.7,2.2c-0.2,0.7,0.5,1.6,1.3,1.3c0.8-0.3,1.3-0.9,1.9-1.6c0.2-0.2,0.3-0.5,0.4-0.8
				c1.6,2.3,4.1,4.4,6,6.3c1.8,1.8,3.6,4,5.7,5.4c-0.5,0.6-1.1,1.1-1.6,1.7c-0.9,0.9-1.8,1.7-2.7,2.6c-1.4-2.1-3.6-3.9-5.4-5.6
				c-2.1-2.1-4.4-4.8-7-6.4C504.4,417,503.2,415.3,502.4,413.7z M533.3,452.6c-5.5-5.6-10.9-11.7-16.9-16.7c1.8-1.2,3.2-2.9,4.8-4.4
				c1.8-1.7,4.1-3.2,5.4-5.5c5,6,11,11.2,16.6,16.7c4.6,4.6,9.1,9.6,14.3,13.5c0,0-0.1,0.1-0.1,0.1c-1.7,1.7-3.7,3.4-5.2,5.3
				c-1.9,1.5-3.6,3.5-5.3,5.2c0,0-0.1,0.1-0.1,0.1C542.9,461.6,537.9,457.1,533.3,452.6z M541.4,475.7c2.4-2.5,4.7-4.9,7-7.4
				c1.7-1.8,3.6-3.5,5.1-5.4c1.9-1.5,3.6-3.5,5.4-5.1c2.5-2.3,5-4.7,7.4-7c0.7,1,1.7,1.8,2.7,2.8c1.2,1.1,3.4,2.6,4.4,4.4
				c-2.8,1.8-4.9,4.8-7.3,7.1c-3.2,3.1-6.2,6.5-9.1,9.9c-0.1,0.1,0,0.3,0.2,0.2c4.2-2.1,7.9-4.7,11.4-7.7c1.8-1.6,3.8-3.4,5.4-5.4
				c0,1-0.1,2,0.1,2.9c0,0.8,0.2,1.7,0.5,2.4c-2.6,1.6-4.6,4.2-6.6,6.5c-2.6,2.9-5.6,5.3-8.3,8.1c-0.4,0.5,0.1,1.2,0.7,0.9
				c3.5-1.8,6.6-4.4,9.6-6.9c2.2-1.8,4.5-3.9,5.8-6.5c0.7,0.9,1.6,1.7,2.5,2.6c2.2,2.8,4.9,5.2,7.2,7.7c4.6,4.9,9.1,9.9,13.7,14.8
				c-2.4,1.7-4.3,4.1-6.3,6.2c-2.6,2.7-5.2,5.3-7.7,8c-4.9-4.6-9.9-9.2-14.9-13.8c-2.5-2.3-5-5-7.7-7.2c-1-1.1-2-2.2-3.2-3
				c-1.1-0.7-2.5-1.2-3.9-1.3c-1.7-0.4-3.5,0-5.3-0.1c-2.5,0-4.7-3.4-6.2-5C543.2,477.4,542.4,476.4,541.4,475.7z"/>
		</g>
		<path class="st1" d="M553.5,457.9c0.8-0.8,0.8-2.2,0-3.1c-0.8-0.8-2.2-0.8-3.1,0c-0.8,0.8-0.8,2.2,0,3.1
			C551.3,458.7,552.7,458.7,553.5,457.9z"/>
		<path class="st1" d="M548.5,462.9c0.8-0.8,0.8-2.2,0-3.1c-0.8-0.8-2.2-0.8-3.1,0c-0.8,0.8-0.8,2.2,0,3.1
			C546.2,463.8,547.6,463.8,548.5,462.9z"/>
		<path class="st1" d="M547,456.4c0.8-0.8,0.8-2.2,0-3.1c-0.8-0.8-2.2-0.8-3.1,0c-0.8,0.8-0.8,2.2,0,3.1
			C544.7,457.2,546.1,457.2,547,456.4z"/>
	</g>
</g>
</svg>
